<?xml version="1.0" encoding="utf-8"?>
<!-- Generator: Adobe Illustrator 25.4.1, SVG Export Plug-In . SVG Version: 6.00 Build 0)  -->
<svg version="1.1" xmlns="http://www.w3.org/2000/svg" xmlns:xlink="http://www.w3.org/1999/xlink" x="0px" y="0px"
	 viewBox="0 0 600 600" style="enable-background:new 0 0 600 600;" xml:space="preserve">
<style type="text/css">
	.st0{fill:#FFFFFF;stroke:#000000;stroke-miterlimit:10;}
	.st1{fill-rule:evenodd;clip-rule:evenodd;fill:#86008F;}
	.st2{fill-rule:evenodd;clip-rule:evenodd;fill:#94B551;}
</style>
<g id="Capa_3">
	<rect class="st0" width="600" height="600"/>
</g>
<g id="Capa_2_00000108291052553609485520000015484683050884200576_">
	<path class="st1" d="M200,160.1c-2.9,0.2-5.7,0.1-8.6,0.2c3.2,4.2,6.4,8.4,8.8,13.1c1.8-5.1,4.4-9.9,6.7-14.8
		C204.8,159.7,202.3,159.5,200,160.1z M256,286.9c96.4-37.8,155.3-75.9,151.1-149.5C403,63.7,335.7,6,254,6c-3.3,0-6.6,0.1-9.9,0.3
		C102.5,14.3-5.3,151.8,3.8,312.8C8.1,387.9,36.8,458,84.6,510.3c10.7,11.8,22.2,22.3,34.2,31.6c-17.5-23.3-28.3-50.9-30-81
		C83.3,363,172.2,319.7,256,286.9z M176.7,42.5c11.8-5.7,25.6-7,38.2-3.5c16.1,4.2,29.8,15.9,37.1,30.8c0.8,1.9,1.6,3.8,2.5,5.7
		c0.4,1.5,0.9,2.9,1.3,4.5c0.8,2.4,1.4,4.9,1.6,7.4c1.2,6.1,0.5,12.3,0.4,18.4l-0.4,0.1c-0.1,1.5-0.2,3-0.7,4.5
		c-0.3,1.1-0.5,2.2-0.8,3.3c-0.4,1.4-0.9,2.8-1.4,4.3c-0.6,1.4-1.1,2.8-1.6,4.2c-0.8,1.7-1.7,3.2-2.5,4.9
		c-3.3,6.1-7.6,11.6-12.7,16.3c-3.7,3.1-7.5,6.1-11.2,9.2c-10.8,9.6-17.6,23.6-18.5,38c-0.9,12.9,3,26.1,10.9,36.3
		c8.6,11.3,22.1,18.7,36.2,19.6c11.6,0.9,23.4-2.8,32.5-10c11.1-8.6,17.8-22.7,17.2-36.8c-0.2-15.3-9.6-30-23.4-36.6
		c-1.4-0.5-2.7-1.1-4.1-1.6c-0.8-0.3-1.7-0.5-2.5-0.8c-5.4-1.3-11.1-1.6-16.5-0.5c-2.6,0.4-5.1,1.3-7.6,2.1
		c-10.4,4.4-18.6,13.9-20.8,25.1c-3,12.8,2.8,27.4,14.3,33.9c8.4,5.1,19.7,5.2,28-0.1c9.2-5.5,13.8-18.1,9.5-28.1
		c-2.8-7.1-10.1-12.5-17.8-11.9c-6,0.1-11.4,4.6-13.4,10.2c-0.1,2.6-0.6,5.5,0.9,7.9c1.4,2.9,4.6,5.2,7.9,4.9c2.3-0.4,5-2.5,4.1-5.1
		c-1.5-1.4-4.1-1.8-4.1-4.3c1.2-1.5,2.7-2.8,4.6-3.5c2.6,0.4,5.3,1.2,6.9,3.5c2.5,3,2.3,7.3,1.4,10.9c-1.9,4.1-5.5,7.1-9.8,8.5
		c-5.6,1.1-11.7-0.2-15.9-4.3c-3.5-2.9-5.2-7.2-6.5-11.4c-0.4-3.7,0-7.5,0.9-11.1c1.4-2.7,2.5-5.5,4.4-7.8c2.4-2.9,5.6-5,8.9-6.8
		c1.7-0.6,3.3-1.1,5-1.7c3.7-0.7,7.6-0.8,11.4,0c1.1,0.3,2.1,0.5,3.2,0.8c6.1,2.3,11.7,6.4,15.2,12.1c5.3,8.1,6.5,18.7,3.4,27.8
		c-2.9,9.2-10,16.9-18.7,20.9c-8.7,4.1-19,4.5-28,1.3c-9.6-3.3-17.7-10.5-22.4-19.5c-5.5-10.5-6.4-23.2-2.4-34.4
		c4.3-12.7,14.4-22.9,26.8-27.9c0.9-0.3,1.7-0.5,2.6-0.7c1.1-0.4,2.2-0.8,3.2-1.2c1.6-0.2,3.2-0.4,4.7-0.9c4.7-0.4,9.5-0.3,14.2,0
		c1.5,0.4,3.1,0.8,4.7,1.2c1.1,0.2,2.2,0.5,3.3,0.8c1.4,0.5,2.8,1.1,4.2,1.6c1.4,0.7,2.8,1.4,4.2,2.2c12.3,6.7,21.4,18.8,24.9,32.3
		c2.8,10.6,2.3,22-1.3,32.2c-4.4,12.9-13.8,23.8-25.5,30.5c-10.9,6.2-23.7,8.7-36.1,7.1c-23.7-2.7-44.4-21-51-43.9
		c-2.4-7.3-2.5-15.2-4.5-22.6c-3.6-14.2-13.1-26.6-25.7-34c-3.2-1.8-6.6-3.3-10.1-4.5c-1.1-0.3-2.2-0.6-3.3-0.9
		c-5-1.7-10.3-1.6-15.5-1.5c-2.2,0-4.4,0-6.6,0.7c-1.1,0.2-2.2,0.4-3.3,0.5c-3.3,1.1-6.7,2.1-9.8,3.7c-11.9,5.6-21.3,16.2-25.5,28.7
		c-3.1,8.9-3.4,18.8-0.9,28c3.2,11.5,11,21.8,21.5,27.5c9.6,5.3,21.4,6.7,31.9,3.4c10.3-3,19.2-10.5,23.9-20.2
		c4.2-8.6,5-19,1.8-28.1c-2.9-8.6-9.3-15.9-17.4-19.8l-3.4-1.4c-1.1-0.3-2.2-0.6-3.3-0.8c-4.3-0.9-8.8-0.8-13-0.1
		c-1.1,0.3-2.2,0.6-3.2,0.9c-8.9,3-15.9,10.6-18.3,19.6c-0.2,1.7-0.4,3.4-0.9,5c-0.1,6.9,2.3,13.8,7.2,18.7c5.3,5.4,13.8,7.9,21,5.3
		c5.2-1.6,9.3-5.7,11.2-10.8c1.6-5.4,0.6-12-4.1-15.7c-3.9-3.5-11.4-3.3-14,1.8c-0.8,2.1-0.9,5.9,2,6.3c1.5,0.4,2.3-1.1,3.2-1.9
		c2.3,0.3,4.1,2.4,3.5,4.8c-0.6,4.8-6.1,6.7-10.3,5.9c-3.9-1.4-7.1-4.3-8.4-8.3c-0.2-1.2-0.5-2.4-0.8-3.5c0.2-2,0.5-4,0.8-5.9
		c2.3-6.3,8.3-11.2,15-11.9c2.5-0.2,4.9-0.1,7.4,0.4c9.5,2.5,16.6,11.7,17,21.6c0.8,10.2-5.1,20.4-14.1,25.3
		c-7.1,4-15.9,4.9-23.7,2.4c-11.7-3.5-20.7-14.1-22.9-26.1c-3.5-16.4,5.9-34,20.8-41.2c1.3-0.6,2.7-1.2,4-1.8l2.5-0.8
		c1.1-0.3,2.2-0.5,3.3-0.8c6.2-1.1,12.8-0.9,18.9,0.5c1,0.4,2.1,0.7,3.1,1.1c0.8,0.3,1.6,0.6,2.5,0.9l3.3,1.6
		c10.5,5.5,18.4,15.6,21.7,27c4.1,13.4,1.5,28.6-6.4,40.2c-6.6,10.1-17.2,17.4-28.8,20.5c-12.3,3.3-25.8,1.8-37.1-4.2
		c-11.3-5.8-20.4-15.6-25.4-27.4c-9.3-20.9-4.4-47,11.4-63.4c4-4.3,8.6-8.1,13.7-11c1.8-1.1,3.6-2,5.5-2.9c1.7-0.7,3.4-1.5,5.1-2.1
		c2.2-0.6,4.3-1.2,6.5-1.9c1.6-0.2,3.3-0.4,4.9-0.9c6.3-0.6,12.8-0.5,19.1,0c1.3,0.4,2.7,0.7,4,0.9c3.4,0.8,6.7,1.9,10,3.2
		c1,0.4,2.1,0.8,3.1,1.3c1.2,0.4,2.3,0.9,3.5,1.3c1,0.4,2,0.8,3.1,1.3c4,0.9,7.9,2.3,12,2l0.1,0.5c3.4,0,6.9,0.1,10.3-0.1
		c1.6-0.5,3.3-0.6,5-0.9c1.1-0.3,2.2-0.5,3.4-0.7c1.3-0.4,2.6-0.8,3.9-1.2c1.8-0.6,3.5-1.3,5.2-2.1c10.5-4.8,19.3-13.1,24.8-23.3
		c2.1-3.9,3.7-8.1,4.7-12.5c0.3-1.1,0.5-2.2,0.8-3.4c0.7-5.4,1-11-0.1-16.4c-0.3-1.6-0.4-3.2-0.8-4.8l-0.8-2.5
		c-3.6-12.3-12.6-23-24.1-28.8c-10.6-5.5-23.4-6.5-34.8-2.6C172,54.9,160.8,67.6,158,82.4c-0.8,4.9-0.8,9.9,0,14.8
		c2.5,14,13.4,26.3,27.3,29.7c1.4,0.3,2.8,0.5,4.1,0.7c2.6,0.5,5.4,0.6,8.1,0.1c2.5-0.3,5-0.8,7.4-1.6c1.4-0.6,2.8-1.2,4.1-1.8
		c6.2-3.3,11.4-8.6,14.4-15.1c3.4-7.4,3.7-16.3,0.5-23.8c-2.4-5.6-6.7-10.4-12.1-13.2c-7.5-4-17.4-3.6-24.3,1.5
		c-5.6,3.9-9.1,10.8-8.5,17.7c0.3,6,4.2,11.6,9.6,14.1c1.1,0.3,2.2,0.6,3.3,0.9c1.4,0.1,2.7,0.1,4.1,0.1c4.7-1,9.2-4.9,9.1-10.1
		c0.2-3.6-3.2-7.4-6.9-6.1c-1.8,1-1.1,3.1-0.8,4.6c-0.9,1.1-2,2.1-3.5,1.7c-3.9-0.9-5.6-5.8-4.2-9.3c2.1-6,9.6-8.6,15.3-6.4
		c6.4,2.2,10.5,8.8,10.5,15.4c0.2,8.3-5.5,15.8-12.9,19c-0.8,0.3-1.7,0.5-2.5,0.8c-1.9,0.5-3.9,0.6-5.8,0.7
		c-2.5,0.7-4.9-0.2-7.4-0.7l-1.8-0.5c-6.2-2.6-11.5-7.5-14.3-13.6c-4.2-8.9-3.4-19.9,1.9-28.1c4.2-6.9,11.3-11.9,19-14
		c9.8-2.7,20.6-0.6,28.9,5.2c8.3,5.7,13.8,14.9,15.6,24.7c2,11.5-1.2,23.7-8.6,32.7c-3.6,4.7-8.4,8.4-13.6,11.2
		c-1.9,0.8-3.8,1.7-5.7,2.5c-0.9,0.2-1.7,0.5-2.5,0.8c-2.3,0.6-4.7,1.1-7.1,1.3l-0.1,0.4c-3.1-0.1-6.3,0.4-9.4-0.4
		c-1.9-0.2-3.9-0.3-5.8-0.9c-0.9-0.2-1.7-0.3-2.6-0.4c-1-0.4-2-0.8-3.1-1.2c-1.4-0.5-2.8-1-4.1-1.6c-11-5.3-19.5-15-24-26.3
		c-0.2-0.8-0.5-1.7-0.7-2.5c-2.7-7.8-2.8-16.4-1.7-24.6c0.3-1.1,0.5-2.2,0.8-3.3c0.3-1.1,0.5-2.2,0.8-3.2
		C153.5,60.4,163.7,48.7,176.7,42.5z"/>
	<path class="st2" d="M481.4,56c17.9,23.4,28.8,51.3,30.5,82c5.6,98-83.4,141.3-167.2,174.1c-96.4,37.8-155.3,76-151.1,149.5
		c0.1,2,0.3,3.9,0.4,5.7c-0.2,19,4.4,33.7,17.9,52.8c42.4-11.5,74-18.9,109-42.4c12.8-28.3,6.5-44.9,2.5-72.9
		c0,0,24.4,35.1,10.3,67.5c35.6-14.8,43.8-24.2,65.9-41.1c4.2-9.3,28.2-43.8-2-93.5c0,0,37.6,52.4,14.8,83.4
		c45.1-34.4,64.6-57.9,85.4-88.2c3.3-10.7,3-31.2-4.2-48.4c0,0,17.4,20.1,10.9,40.3c40.8-53.6,44.4-107.8,44.4-107.8
		c2.7,57.3-44.9,128.7-71.3,156.3c18.5-4.6,45.7,8.8,55.2,14.1c0,0-45.7-14.1-62.6-3.4c-24.7,25-45.8,46.6-71.3,66
		c35.3-5.8,63.2,24.9,63.2,24.9c-31.6-19.5-54.8-18.6-74.7-14.1c-53.3,38.5-113.7,60-163.4,75.4c0.9,1,5,8.4,5.9,9.4
		c11.7,12.4,24.8,21.6,38.8,28.1c22.8,12.2,49.5,19.2,77.9,19.2c3.3,0,6.6-0.1,9.9-0.3c68.3-3.9,130.9-37.7,176.2-95.2
		c45.7-58,68.5-133,64-211.3C591.4,189.4,546.5,105.7,481.4,56z M548.3,195.6l-0.2-2.8l0.5,2.5L548.3,195.6z"/>
</g>
</svg>
