<?xml version="1.0" encoding="utf-8"?>
<!-- Generator: Adobe Illustrator 25.4.1, SVG Export Plug-In . SVG Version: 6.00 Build 0)  -->
<svg version="1.1" id="Capa_2" xmlns="http://www.w3.org/2000/svg" xmlns:xlink="http://www.w3.org/1999/xlink" x="0px" y="0px"
	 viewBox="0 0 600 600" style="enable-background:new 0 0 600 600;" xml:space="preserve">
<style type="text/css">
	.st0{fill-rule:evenodd;clip-rule:evenodd;fill:#86008F;}
	.st1{fill-rule:evenodd;clip-rule:evenodd;fill:#94B551;}
</style>
<path class="st0" d="M200.02,160.15c-2.85,0.17-5.73,0.14-8.58,0.21c3.19,4.17,6.39,8.36,8.8,13.06c1.76-5.13,4.42-9.87,6.66-14.79
	C204.76,159.73,202.28,159.48,200.02,160.15z M256.05,286.88c96.4-37.76,155.29-75.95,151.12-149.51C402.99,63.72,335.7,6,254,6
	c-3.28,0-6.61,0.09-9.89,0.29C102.49,14.29-5.29,151.79,3.84,312.78c4.25,75.08,32.91,145.23,80.72,197.55
	c10.74,11.75,22.2,22.33,34.24,31.64c-17.53-23.29-28.26-50.87-29.97-80.95C83.26,362.97,172.22,319.73,256.05,286.88z M176.7,42.55
	c11.77-5.73,25.61-7.02,38.2-3.52c16.09,4.19,29.83,15.86,37.12,30.79c0.75,1.93,1.58,3.81,2.47,5.66c0.41,1.49,0.86,2.95,1.26,4.46
	c0.84,2.4,1.4,4.87,1.61,7.41c1.23,6.05,0.54,12.31,0.38,18.44l-0.43,0.08c-0.12,1.5-0.25,3.03-0.67,4.48
	c-0.29,1.1-0.52,2.2-0.79,3.3c-0.44,1.43-0.91,2.85-1.39,4.26c-0.56,1.4-1.1,2.8-1.59,4.22c-0.8,1.65-1.67,3.25-2.54,4.87
	c-3.32,6.09-7.65,11.62-12.72,16.34c-3.71,3.08-7.48,6.08-11.18,9.16c-10.77,9.61-17.64,23.58-18.54,38.04
	c-0.89,12.88,3.02,26.1,10.95,36.27c8.55,11.33,22.08,18.72,36.22,19.59c11.58,0.86,23.43-2.76,32.52-10.03
	c11.09-8.6,17.78-22.69,17.25-36.77c-0.23-15.33-9.59-30.04-23.38-36.62c-1.36-0.54-2.72-1.08-4.07-1.59
	c-0.84-0.27-1.67-0.54-2.49-0.82c-5.4-1.27-11.09-1.65-16.55-0.54c-2.6,0.36-5.09,1.27-7.57,2.11
	c-10.35,4.44-18.61,13.89-20.81,25.09c-2.99,12.78,2.75,27.37,14.28,33.85c8.42,5.09,19.7,5.22,28.03-0.14
	c9.2-5.53,13.81-18.12,9.54-28.14c-2.77-7.08-10.09-12.47-17.8-11.87c-6.05,0.13-11.43,4.56-13.39,10.22
	c-0.06,2.63-0.6,5.52,0.86,7.89c1.45,2.92,4.57,5.17,7.92,4.87c2.29-0.4,5.04-2.5,4.12-5.14c-1.52-1.4-4.15-1.78-4.08-4.33
	c1.22-1.53,2.71-2.82,4.57-3.5c2.59,0.35,5.3,1.23,6.85,3.52c2.49,3.02,2.32,7.26,1.4,10.85c-1.87,4.13-5.55,7.08-9.8,8.47
	c-5.58,1.1-11.71-0.23-15.87-4.28c-3.5-2.9-5.25-7.22-6.5-11.45c-0.39-3.74-0.03-7.46,0.88-11.11c1.35-2.67,2.49-5.51,4.42-7.81
	c2.36-2.95,5.57-5.03,8.86-6.79c1.66-0.58,3.34-1.14,5.03-1.67c3.74-0.66,7.65-0.78,11.39,0.04c1.08,0.27,2.15,0.52,3.24,0.78
	c6.14,2.32,11.66,6.43,15.16,12.06c5.26,8.11,6.48,18.66,3.43,27.83c-2.94,9.21-9.98,16.94-18.72,20.94
	c-8.69,4.09-19,4.46-28.03,1.27c-9.58-3.32-17.7-10.51-22.37-19.53c-5.53-10.47-6.35-23.25-2.45-34.42
	c4.26-12.69,14.45-22.92,26.75-27.9c0.86-0.27,1.71-0.49,2.57-0.71c1.08-0.4,2.18-0.76,3.25-1.17c1.61-0.22,3.2-0.44,4.74-0.92
	c4.73-0.41,9.47-0.32,14.2,0.01c1.55,0.45,3.14,0.78,4.7,1.21c1.1,0.25,2.2,0.52,3.29,0.84c1.39,0.54,2.79,1.06,4.2,1.57
	c1.43,0.71,2.82,1.45,4.25,2.18c12.27,6.73,21.38,18.78,24.91,32.32c2.79,10.55,2.33,21.96-1.33,32.24
	c-4.42,12.85-13.77,23.83-25.53,30.5c-10.85,6.18-23.7,8.72-36.06,7.06c-23.73-2.71-44.42-20.98-51.03-43.89
	c-2.45-7.33-2.5-15.19-4.48-22.61c-3.62-14.16-13.14-26.62-25.68-34c-3.21-1.81-6.6-3.29-10.07-4.52c-1.09-0.34-2.19-0.61-3.28-0.87
	c-5-1.68-10.31-1.59-15.51-1.52c-2.19,0.04-4.43,0.04-6.57,0.66c-1.1,0.18-2.22,0.35-3.33,0.51c-3.3,1.11-6.69,2.05-9.8,3.67
	c-11.86,5.61-21.32,16.17-25.48,28.68c-3.07,8.95-3.41,18.84-0.87,27.98c3.16,11.52,10.96,21.81,21.51,27.47
	c9.61,5.33,21.37,6.67,31.89,3.45c10.3-3.02,19.2-10.53,23.91-20.23c4.24-8.63,4.99-18.97,1.81-28.08
	c-2.85-8.63-9.28-15.9-17.43-19.81l-3.43-1.37c-1.09-0.3-2.18-0.56-3.27-0.84c-4.28-0.86-8.75-0.83-13.02-0.06
	c-1.09,0.32-2.16,0.61-3.25,0.92c-8.86,3.03-15.91,10.55-18.34,19.63c-0.21,1.68-0.45,3.36-0.86,4.99
	c-0.09,6.87,2.29,13.81,7.22,18.67c5.35,5.38,13.76,7.9,21.02,5.33c5.16-1.57,9.34-5.74,11.25-10.76
	c1.65-5.42,0.56-12.01-4.06-15.67c-3.94-3.47-11.45-3.34-14.02,1.76c-0.82,2.09-0.87,5.91,2.02,6.28c1.49,0.36,2.33-1.06,3.25-1.92
	c2.28,0.27,4.07,2.4,3.51,4.76c-0.6,4.76-6.14,6.71-10.34,5.92c-3.9-1.36-7.06-4.34-8.4-8.31c-0.22-1.18-0.51-2.35-0.84-3.51
	c0.16-2,0.54-3.97,0.83-5.93c2.35-6.34,8.28-11.17,14.99-11.86c2.47-0.25,4.95-0.06,7.39,0.39c9.51,2.51,16.65,11.74,16.99,21.55
	c0.76,10.25-5.14,20.41-14.05,25.28c-7.14,4.03-15.94,4.94-23.74,2.44c-11.69-3.49-20.68-14.07-22.86-26.05
	c-3.47-16.4,5.91-34.03,20.84-41.18c1.33-0.61,2.68-1.21,4.04-1.75l2.47-0.84c1.1-0.3,2.22-0.52,3.32-0.76
	c6.23-1.13,12.75-0.92,18.93,0.53c1.04,0.38,2.07,0.73,3.11,1.11c0.83,0.3,1.65,0.6,2.46,0.89l3.3,1.63
	c10.52,5.51,18.44,15.58,21.73,27.02c4.06,13.45,1.52,28.62-6.36,40.21c-6.6,10.12-17.18,17.4-28.78,20.47
	c-12.32,3.29-25.83,1.76-37.12-4.16c-11.27-5.77-20.41-15.64-25.36-27.35c-9.34-20.9-4.38-46.96,11.39-63.36
	c3.99-4.32,8.6-8.06,13.7-10.99c1.78-1.08,3.63-2.02,5.52-2.88c1.71-0.73,3.41-1.46,5.14-2.14c2.16-0.6,4.32-1.19,6.45-1.92
	c1.65-0.19,3.3-0.41,4.9-0.87c6.34-0.63,12.75-0.47,19.09,0.01c1.32,0.36,2.66,0.66,3.99,0.95c3.41,0.78,6.71,1.89,9.96,3.16
	c1.02,0.41,2.06,0.83,3.08,1.26c1.17,0.41,2.32,0.86,3.47,1.26c1.02,0.43,2.03,0.83,3.06,1.26c3.97,0.91,7.88,2.27,12.01,2.03
	l0.08,0.52c3.42,0.03,6.85,0.06,10.28-0.14c1.61-0.52,3.29-0.63,4.96-0.87c1.1-0.29,2.23-0.51,3.36-0.73
	c1.28-0.44,2.58-0.82,3.87-1.22c1.76-0.57,3.46-1.32,5.17-2.06c10.46-4.83,19.32-13.1,24.78-23.31c2.1-3.91,3.71-8.11,4.7-12.47
	c0.27-1.11,0.52-2.24,0.8-3.36c0.67-5.42,0.96-11.03-0.05-16.4c-0.26-1.61-0.44-3.24-0.82-4.82l-0.84-2.5
	c-3.65-12.34-12.62-22.97-24.06-28.77c-10.64-5.46-23.45-6.5-34.78-2.59c-14.23,4.64-25.48,17.29-28.26,32.08
	c-0.76,4.87-0.76,9.9-0.01,14.79c2.53,14.03,13.37,26.33,27.26,29.74c1.36,0.29,2.75,0.51,4.13,0.74c2.64,0.51,5.39,0.57,8.05,0.06
	c2.51-0.3,4.98-0.83,7.37-1.63c1.39-0.57,2.76-1.15,4.13-1.78c6.18-3.34,11.44-8.59,14.38-15.06c3.43-7.39,3.73-16.29,0.47-23.78
	c-2.42-5.61-6.73-10.39-12.14-13.19c-7.54-4.03-17.36-3.55-24.32,1.5c-5.57,3.91-9.15,10.81-8.46,17.69
	c0.34,6.01,4.2,11.56,9.64,14.05c1.1,0.3,2.2,0.6,3.29,0.92c1.35,0.08,2.7,0.09,4.06,0.05c4.73-1.02,9.25-4.92,9.14-10.09
	c0.18-3.55-3.16-7.37-6.87-6.09c-1.78,1-1.11,3.05-0.78,4.63c-0.89,1.05-2.02,2.13-3.54,1.74c-3.93-0.89-5.64-5.75-4.24-9.3
	c2.1-6,9.59-8.63,15.28-6.36c6.35,2.18,10.53,8.8,10.51,15.45c0.22,8.27-5.46,15.81-12.88,18.97c-0.84,0.26-1.68,0.54-2.51,0.83
	c-1.89,0.54-3.86,0.56-5.79,0.67c-2.48,0.69-4.94-0.21-7.35-0.73l-1.79-0.53c-6.22-2.58-11.48-7.49-14.31-13.64
	c-4.19-8.88-3.36-19.86,1.93-28.09c4.24-6.92,11.26-11.92,19.04-14.02c9.76-2.7,20.58-0.57,28.87,5.21
	c8.28,5.65,13.84,14.86,15.64,24.7c1.98,11.51-1.24,23.69-8.57,32.73c-3.64,4.72-8.45,8.35-13.59,11.23
	c-1.89,0.83-3.77,1.7-5.68,2.48c-0.86,0.25-1.7,0.51-2.53,0.79c-2.32,0.65-4.68,1.13-7.08,1.26l-0.05,0.44
	c-3.12-0.08-6.28,0.38-9.36-0.35c-1.94-0.17-3.9-0.3-5.77-0.88c-0.87-0.16-1.74-0.31-2.59-0.45c-1.02-0.41-2.03-0.83-3.05-1.23
	c-1.4-0.47-2.77-1.02-4.12-1.65c-11-5.29-19.46-15.01-23.97-26.3c-0.25-0.84-0.49-1.68-0.74-2.53c-2.72-7.85-2.84-16.43-1.67-24.59
	c0.26-1.11,0.49-2.23,0.78-3.33c0.27-1.09,0.53-2.18,0.84-3.25C153.52,60.42,163.69,48.71,176.7,42.55z"/>
<path class="st1" d="M481.35,55.98c17.9,23.4,28.78,51.33,30.52,82.01c5.56,98.04-83.4,141.29-167.22,174.13
	c-96.38,37.76-155.29,75.95-151.12,149.5c0.12,1.98,0.26,3.87,0.43,5.71c-0.17,19,4.39,33.69,17.91,52.8
	c42.37-11.45,73.99-18.87,108.98-42.44c12.78-28.3,6.52-44.86,2.5-72.86c0,0,24.4,35.13,10.28,67.47
	c35.65-14.82,43.81-24.19,65.92-41.1c4.22-9.3,28.25-43.79-1.97-93.51c0,0,37.62,52.42,14.75,83.4
	c45.07-34.35,64.58-57.94,85.43-88.24c3.3-10.72,3.02-31.19-4.21-48.37c0,0,17.36,20.12,10.94,40.29
	c40.77-53.56,44.39-107.8,44.39-107.8c2.68,57.27-44.94,128.74-71.31,156.3c18.54-4.56,45.69,8.8,55.16,14.15
	c0,0-45.74-14.15-62.56-3.37c-24.7,25.02-45.81,46.62-71.3,66.02c35.34-5.77,63.24,24.93,63.24,24.93
	c-31.62-19.54-54.83-18.65-74.66-14.15c-53.3,38.46-113.68,59.96-163.45,75.45c0.91,1,5.01,8.38,5.95,9.37
	c11.68,12.36,24.76,21.61,38.81,28.14C291.6,586.03,318.27,593,346.69,593c3.28,0,6.61-0.09,9.9-0.27
	c68.29-3.87,130.89-37.68,176.24-95.2c45.73-57.99,68.46-133.04,64.03-211.31C591.36,189.43,546.46,105.66,481.35,55.98z
	 M548.33,195.6l-0.16-2.82l0.47,2.5L548.33,195.6z"/>
</svg>
