<?xml version="1.0" encoding="utf-8"?>
<!-- Generator: Adobe Illustrator 25.4.1, SVG Export Plug-In . SVG Version: 6.00 Build 0)  -->
<svg version="1.1" id="Capa_1" xmlns="http://www.w3.org/2000/svg" xmlns:xlink="http://www.w3.org/1999/xlink" x="0px" y="0px"
	 viewBox="0 0 1909 577" style="enable-background:new 0 0 1909 577;" xml:space="preserve">
<style type="text/css">
	.st0{fill-rule:evenodd;clip-rule:evenodd;fill:#86008F;}
	.st1{display:none;}
	.st2{display:inline;fill-rule:evenodd;clip-rule:evenodd;fill:#94B551;}
	.st3{fill-rule:evenodd;clip-rule:evenodd;fill:#94B551;}
</style>
<g>
	<path class="st0" d="M781.57,301.58c2.84-1.39,4.9-3.16,6.19-5.32v83.05c-0.34,0.68-0.88,1.69-1.65,3.12
		c-0.78,1.42-2.1,2.81-3.97,4.22c-1.85,1.43-4.33,2.71-7.44,3.9c-3.12,1.21-7.18,1.93-12.16,2.13h62.04
		c-5.15-0.2-9.32-0.91-12.5-2.09c-3.22-1.19-5.79-2.51-7.72-3.93c-1.93-1.42-3.28-2.81-4.1-4.22c-0.81-1.43-1.35-2.44-1.67-3.12
		V195.62c0.31-0.64,0.85-1.63,1.67-2.91c0.81-1.29,2.17-2.71,4.1-4.23c1.93-1.53,4.5-2.88,7.72-4.1c3.18-1.19,7.35-1.79,12.5-1.79
		h-62.04c4.99,0,9.04,0.6,12.16,1.79c3.11,1.22,5.59,2.57,7.44,4.1c1.87,1.53,3.19,2.94,3.97,4.23c0.78,1.28,1.32,2.27,1.65,2.91
		v94.45c0-0.4-0.16-0.78-0.48-1.11c-0.34-0.34-0.46-0.61-0.46-0.85c-0.99-1.08-2.1-2.17-3.39-3.24c-1.29-1.08-2.91-1.83-4.81-2.27
		c-2.27-0.64-4.77-1.11-7.48-1.45c-2.71-0.3-5.86-0.2-9.38,0.34c-3.52,0.54-7.69,1.63-12.49,3.24c-4.81,1.63-10.3,4.2-16.4,7.72
		c-1.63,0.91-3.56,2.1-5.79,3.56c-2.23,1.49-4.17,2.67-5.76,3.56c-1.28,1.45-2.91,2.15-4.81,2.15c-3.21-0.46-5.79-1.42-7.68-2.87
		c-0.99-0.71-1.63-1.79-1.93-3.22c-0.34-1.42-0.48-2.98-0.48-4.67c0-1.89,0.3-3.65,0.95-5.27c0.64-1.63,1.28-2.64,1.93-3.08
		c0.3-0.2,1.18-0.34,2.64-0.48c1.42-0.1,2.87-0.04,4.33,0.18c1.42,0.2,2.53,0.64,3.34,1.28c0.81,0.68,1.05,1.77,0.75,3.26
		c-0.99,2.77-2.27,4.1-3.87,3.96c-1.62-0.1-2.57-0.28-2.87-0.54c-0.99-0.71-1.33-1.53-0.99-2.44c0-0.64,0.48-0.98,1.47-0.98h0.98
		c-0.68,0.24-0.91,0.58-0.75,0.98c0.14,0.44,0.55,0.64,1.23,0.64c0.94,0.28,1.73,0.04,2.4-0.64v-0.98c0-1.09-0.99-1.57-2.92-1.45
		c-1.93,0.13-3.22,0.8-3.82,2.09c-0.68,1.15-0.61,2.07,0.2,2.78c0.81,0.74,1.53,1.21,2.2,1.42c0.6,0.28,1.89,0.28,3.82,0.04
		c1.93-0.24,3.39-1.33,4.37-3.26c0.61-1.28,0.68-2.43,0.2-3.41c-0.48-0.95-1.18-1.77-2.13-2.44c-1.29-0.85-2.74-1.39-4.33-1.63
		c-4.51-0.4-8.27,0.08-11.31,1.49c-3.04,1.43-5.09,3.42-6.03,5.99l0.68-92.82c0.3-0.4,0.84-1.32,1.65-2.74
		c0.78-1.42,2.14-2.84,4.03-4.26c1.89-1.43,4.4-2.71,7.58-3.9c3.19-1.18,7.45-1.89,12.84-2.13h-78.09
		c5.15,0.24,9.32,0.95,12.53,2.13c3.19,1.19,5.76,2.47,7.69,3.9c1.89,1.42,3.26,2.84,4.06,4.26c0.81,1.43,1.37,2.34,1.7,2.74v8.46
		v175.23c-0.34,0.68-0.89,1.69-1.7,3.12c-0.8,1.42-2.17,2.81-4.06,4.22c-1.93,1.43-4.5,2.74-7.69,3.93
		c-3.21,1.18-7.38,1.89-12.53,2.09h78.09c-5.39-0.2-9.65-0.91-12.84-2.09c-3.18-1.19-5.69-2.51-7.58-3.93
		c-1.89-1.42-3.26-2.81-4.03-4.22c-0.81-1.43-1.35-2.44-1.65-3.12v-85.32c0,0.48,0.06,0.79,0.24,0.89c0.14,0.13,0.24,0.4,0.24,0.88
		c0.6,1.18,1.72,2.3,3.32,3.34c1.59,1.05,3.18,1.93,4.8,2.61c4.45,1.77,8.41,2.48,11.92,2.14c3.52-0.34,8.47-2.68,14.83-7.01
		c1.89-1.08,4.2-2.37,6.9-3.88c2.72-1.49,5.66-2.94,8.84-4.37c3.18-1.42,6.46-2.53,9.82-3.42c3.32-0.88,6.44-1.32,9.31-1.32
		c2.54,0,5.09,0.88,7.65,2.61c0.95,0.44,1.57,1.32,1.9,2.61c0.3,1.32,0.48,2.84,0.48,4.53c0,1.77-0.34,3.42-0.95,5.05
		c-0.64,1.62-1.45,2.67-2.41,3.07h-2.41h-4.06c-1.43,0-2.62-0.36-3.56-1.11c-0.95-0.74-1.11-1.89-0.48-3.42
		c0.95-2.57,2.2-3.75,3.8-3.54c1.59,0.2,2.53,0.44,2.87,0.64c0.95,0.64,1.29,1.29,0.99,1.93c-0.68,0.88-1.15,1.32-1.45,1.32
		c-0.34,0.21-0.65,0.21-0.95,0c0.61-0.2,0.85-0.54,0.71-0.98c-0.18-0.4-0.58-0.74-1.19-0.98c-1.63,0-2.41,0.24-2.41,0.64
		c-0.34,0.24-0.34,0.58,0,0.98c0,1.09,0.95,1.63,2.88,1.63c1.89,0,3.18-0.74,3.82-2.27c0.61-0.88,0.55-1.63-0.24-2.27
		c-0.8-0.64-1.52-1.08-2.17-1.32c-0.64-0.21-1.93-0.18-3.82,0.03c-1.89,0.21-3.32,1.19-4.27,2.92c-0.98,1.73-1.15,3.11-0.5,4.2
		c0.64,1.08,1.45,1.62,2.41,1.62c1.25,0.65,2.84,1.09,4.77,1.29C775.03,303.44,778.68,302.96,781.57,301.58z"/>
	<path class="st0" d="M944.19,393.83c4.99-0.14,10.26-0.78,15.88-1.97c5.62-1.18,11.21-3.18,16.84-6.01
		c5.62-2.82,10.66-6.94,15.17-12.36c4.47-5.41,8.09-12.38,10.84-20.94c2.71-8.53,4.1-19.19,4.1-31.98v-32.82v-12.83V262.9v-10.08
		v-6.68v-47.4c1.29-3.26,4.33-6.34,9.14-9.28c4.81-2.91,9.28-4.5,13.44-4.7h-11.79h-19.47h-25.97c5.11,0.2,9.27,1.01,12.49,2.43
		c3.18,1.43,5.59,2.92,7.22,4.53c1.59,1.63,2.78,3.26,3.58,4.87c0.81,1.63,1.39,2.68,1.73,3.08v42.24v7.34v13.16
		c0,5.21-0.1,10.9-0.26,17.05c-0.18,6.16-0.24,12.39-0.24,18.65c-0.34,14.96-0.65,31.44-0.95,49.38c-1.93-3.46-4.4-5.92-7.45-7.45
		c-3.04-1.52-6.26-2.43-9.65-2.77c-3.38-0.31-6.74-0.2-10.1,0.34c-3.38,0.54-6.16,1.15-8.39,1.75c-2.27,0.48-4.03,1.23-5.32,2.3
		c-1.28,1.08-2.39,2.17-3.34,3.24c-1.63,1.97-2.27,3.9-1.93,5.86c0.3,1.95,1.35,3.72,3.11,5.35c1.77,1.62,4,2.83,6.74,3.58
		c2.72,0.74,6,0.91,9.86,0.48c1.63-0.2,3.04-0.75,4.33-1.63c2.58-1.29,3.22-3.24,1.93-5.85c-0.95-1.73-2.41-2.74-4.33-3.08
		c-1.93-0.34-3.22-0.38-3.82-0.18c-0.68,0.44-1.49,0.91-2.44,1.45c-0.95,0.55-1.11,1.37-0.48,2.44c0.95,1.53,2.41,2.33,4.33,2.44
		c1.93,0.13,2.92-0.48,2.92-1.8v-0.94c-0.68-0.44-1.49-0.68-2.44-0.68c-0.64,0.24-1.05,0.58-1.19,0.98
		c-0.16,0.44,0.08,0.78,0.71,0.98c-0.34,0.24-0.64,0.24-0.94,0c-0.69,0-1.33-0.4-1.94-1.28c-0.34-0.89,0-1.63,0.95-2.3
		c0.34-0.2,1.39-0.34,3.16-0.48c1.75-0.1,3.11,1.25,4.1,4.06c0.3,1.53,0.06,2.68-0.75,3.42c-0.81,0.75-1.93,1.25-3.34,1.45
		c-1.47,0.24-2.92,0.31-4.33,0.18c-1.47-0.1-2.34-0.28-2.64-0.51c-0.99-0.4-1.8-1.49-2.44-3.21c-0.64-1.73-0.95-3.6-0.95-5.55
		c-0.64-3.46,0.18-5.92,2.41-7.48c2.58-1.29,5.29-2.14,8.19-2.58c4.17-0.2,7.69,1.29,10.57,4.53c2.88,3.26,4.16,8.03,3.86,14.28
		c-6.1,11.51-13.48,19.09-22.15,22.79c-8.67,3.68-18.41,5.41-29.32,5.17c-6.44,0-12.05-0.85-16.86-2.61
		c-4.81-1.73-9.08-4.06-12.74-6.98c-3.68-2.91-6.8-6.23-9.37-9.91c-2.58-3.66-4.67-7.45-6.28-11.37c-3.86-8.87-6.26-19.15-7.2-30.86
		V198.05c0.3-0.6,0.84-1.62,1.65-3.04c0.81-1.42,2.17-2.81,4.1-4.22c1.93-1.43,4.51-2.71,7.73-3.93c3.18-1.18,7.52-1.89,13-2.09
		h-76.3c5.11,0.2,9.28,0.84,12.5,1.93c3.18,1.08,5.75,2.33,7.68,3.76c1.93,1.42,3.29,2.77,4.1,4.06c0.81,1.28,1.37,2.27,1.7,2.91
		v57.83v65.61c0.64,14.52,3.78,26.61,9.47,36.25c5.7,9.65,12.4,17.29,20.12,22.91c7.73,5.61,15.75,9.51,24.08,11.67
		c8.33,2.17,15.41,3.01,21.17,2.61C935.12,394.06,939.22,393.89,944.19,393.83z"/>
	<path class="st0" d="M1105.99,225.04l-14.83-22.75v-3.9c0.94-2.57,1.59-3.98,1.93-4.22l0.48-0.65c0.6-0.84,1.49-1.75,2.61-2.73
		c1.11-0.99,3.11-1.8,5.99-2.44c1.59-0.2,3.02-0.34,4.31-0.34c1.28,0,2.63,0.14,4.06,0.34c1.42,0.2,2.64,0.64,3.58,1.29
		c2.24,1.32,3.36,3.82,3.36,7.48c0,1.97-0.24,3.78-0.71,5.51c-0.46,1.77-1.22,2.84-2.17,3.26c-0.64,0.23-1.59,0.46-2.87,0.68
		c-1.29,0.2-2.64,0.2-4.07,0c-1.42-0.21-2.71-0.71-3.82-1.49c-1.13-0.75-1.53-1.9-1.19-3.42c1.29-2.81,2.71-4.16,4.3-4.06
		c1.59,0.13,2.54,0.3,2.88,0.5c0,0.2,0.08,0.38,0.24,0.48c0.14,0.14,0.24,0.4,0.24,0.81c0,0.44,0.14,0.78,0.48,0.98
		c-0.34,0.44-0.58,0.65-0.71,0.65c-0.16,0-0.4,0.13-0.71,0.34c-0.34,0.2-0.64,0.3-0.94,0.3c0.6-0.2,0.84-0.58,0.7-1.11
		c-0.16-0.55-0.58-0.81-1.22-0.81c-1.59,0-2.37,0.24-2.37,0.64c-0.34,0.2-0.34,0.54,0,0.99c0.3,1.28,1.42,1.89,3.32,1.79
		c1.89-0.1,3.18-0.91,3.86-2.47c0.61-1.09,0.44-1.93-0.51-2.58c-0.94-0.64-1.89-1.08-2.84-1.32c-0.64-0.2-1.93-0.14-3.82,0.16
		c-1.93,0.34-3.22,1.35-3.83,3.08c-0.64,1.77-0.64,3.12,0,4.06c0.61,0.99,1.43,1.69,2.38,2.14c1.28,0.64,2.71,1.08,4.33,1.28
		c3.78,0.44,7.08,0.18,9.82-0.81c2.71-0.94,4.87-2.27,6.5-3.88c1.59-1.63,2.41-3.46,2.41-5.52c0-2.05-0.81-3.96-2.41-5.69
		c-1.97-1.72-3.97-3.01-6.06-3.88c-2.1-0.88-3.93-1.53-5.49-1.97c-1.93-0.4-3.86-0.64-5.76-0.64h-67.24
		c5.45,0.2,9.85,0.98,13.23,2.27c3.36,1.28,6,2.81,7.93,4.53c2.23,1.95,4,4.12,5.29,6.49v181.29c-0.34,0.68-0.89,1.69-1.69,3.11
		c-0.81,1.43-2.17,2.82-4.07,4.2c-1.93,1.43-4.57,2.71-7.95,3.9c-3.38,1.22-7.62,1.79-12.73,1.79h77.3c-5.41,0-9.75-0.58-12.94-1.79
		c-3.18-1.19-5.75-2.47-7.64-3.9c-1.9-1.38-3.26-2.77-4.07-4.2c-0.81-1.42-1.35-2.43-1.65-3.11V226.65l114.59,166.02h11.1v-88.05
		V198.39c0.31-0.64,0.85-1.62,1.67-2.91c0.81-1.28,2.17-2.71,4.1-4.23c1.93-1.48,4.5-2.83,7.72-4.06c3.18-1.18,7.35-1.79,12.5-1.79
		h-62.64c5.07,0,9.24,0.61,12.43,1.79c3.18,1.23,5.75,2.58,7.65,4.06c1.89,1.53,3.24,2.96,4.06,4.23c0.81,1.29,1.35,2.27,1.69,2.91
		v174.45L1105.99,225.04z"/>
	<path class="st0" d="M1366.19,304.96l54.38-78.31v153.03c-0.34,0.68-0.88,1.69-1.69,3.11c-0.81,1.43-2.2,2.82-4.13,4.2
		c-1.97,1.43-4.63,2.71-8.02,3.9c-3.39,1.21-7.69,1.79-12.84,1.79h77.51c-5.15,0-9.42-0.58-12.76-1.79
		c-3.39-1.19-6.03-2.47-7.97-3.9c-1.93-1.38-3.28-2.77-4.1-4.2c-0.81-1.42-1.35-2.43-1.65-3.11V198.39
		c1.29-2.37,3.04-4.53,5.29-6.49c1.93-1.73,4.57-3.26,7.95-4.53c3.36-1.29,7.75-2.07,13.24-2.27h-72.66
		c3.54,0.88,6.94,1.83,10.18,2.91c2.58,1.09,5.01,2.51,7.29,4.23c2.23,1.75,3.68,3.78,4.36,6.15v3.9l-15.03,22.75l-45.65,66.29
		l-45.65-66.29l-15.03-22.75v-3.9c0.94-2.57,1.59-3.98,1.93-4.22l0.5-0.65c0.61-0.84,1.49-1.75,2.64-2.73
		c1.15-0.99,3.18-1.8,6.1-2.44c1.59-0.2,3.04-0.34,4.36-0.34c1.29,0,2.64,0.14,4.11,0.34c1.45,0.2,2.67,0.64,3.66,1.29
		c1.93,1.32,2.91,3.82,2.91,7.48c0.3,1.97,0.14,3.78-0.51,5.51c-0.64,1.77-1.28,2.84-1.93,3.26c-0.64,0.23-1.62,0.46-2.91,0.68
		c-1.29,0.2-2.68,0.2-4.13,0c-1.45-0.21-2.74-0.71-3.86-1.49c-1.15-0.75-1.55-1.9-1.21-3.42c0.94-2.81,2.33-4.16,4.12-4.06
		c1.77,0.13,2.82,0.3,3.16,0.5c0,0.2,0.06,0.38,0.24,0.48c0.14,0.14,0.24,0.4,0.24,0.81c0,0.44,0.16,0.78,0.5,0.98
		c-0.34,0.44-0.6,0.65-0.74,0.65c-0.18,0-0.41,0.13-0.71,0.34c-0.34,0.2-0.68,0.3-0.98,0.3c0.64-0.2,0.88-0.58,0.7-1.11
		c-0.16-0.55-0.58-0.81-1.18-0.81c-0.99,0-1.8,0.24-2.44,0.64c-0.34,0.2-0.48,0.54-0.48,0.99c0.31,1.28,1.43,1.89,3.39,1.79
		c1.93-0.1,3.21-0.91,3.88-2.47c0.61-1.09,0.45-1.93-0.5-2.58c-0.99-0.64-1.79-1.08-2.41-1.32c-0.68-0.2-1.97-0.14-3.9,0.16
		c-1.97,0.34-3.24,1.35-3.9,3.08c-0.64,1.77-0.64,3.12,0,4.06c0.65,0.99,1.45,1.69,2.44,2.14c1.29,0.64,2.74,1.08,4.37,1.28
		c3.86,0.44,7.18,0.18,9.92-0.81c2.71-0.94,4.87-2.27,6.5-3.88c1.59-1.63,2.41-3.46,2.41-5.52c0-2.05-0.81-3.96-2.41-5.69
		c-1.93-1.72-3.93-3.01-6.04-3.88c-2.09-0.88-3.92-1.53-5.55-1.97c-1.97-0.4-3.9-0.64-5.82-0.64h-67.48
		c5.11,0.2,9.34,0.98,12.73,2.27c3.36,1.28,5.99,2.81,7.93,4.53c2.23,1.95,4.02,4.12,5.31,6.49v181.29
		c-0.34,0.68-0.88,1.69-1.69,3.11c-0.81,1.43-2.17,2.82-4.1,4.2c-1.93,1.43-4.51,2.71-7.69,3.9c-3.22,1.22-7.38,1.79-12.49,1.79
		h77.2c-5.19,0-9.38-0.58-12.63-1.79c-3.26-1.19-5.82-2.47-7.75-3.9c-1.97-1.38-3.32-2.77-4.13-4.2c-0.81-1.42-1.39-2.43-1.69-3.11
		V226.65l54.38,78.31L1366.19,304.96L1366.19,304.96z"/>
	<path class="st0" d="M1660.04,392.33l0.48-26.67c-0.34,3.7-1.35,6.74-3.12,9.11c-1.77,2.37-3.86,4.37-6.26,5.99
		c-2.41,1.63-4.63,2.84-6.74,3.6c-2.1,0.74-3.62,1.25-4.57,1.45l-108.73,0.34v-89.81c0.3-3.46,1.32-6.3,3.08-8.47
		c1.73-2.15,3.62-3.92,5.65-5.24c2.03-1.29,4.1-2.24,6.16-2.78c2.03-0.54,3.39-0.94,4.03-1.15l4.27-0.98
		c3.44-0.44,9.41-0.78,17.84-0.98c8.43-0.21,16.36-0.34,23.74-0.34c2.54,0,4.71,0.4,6.46,1.14c1.77,0.79,2.96,1.59,3.63,2.44
		c0.94,0.88,1.59,1.99,1.93,3.28c0,3.72-0.41,7.32-1.22,10.8c-0.81,3.48-2.1,6.53-3.87,9.13c-1.75,2.64-3.92,4.71-6.5,6.23
		c-2.57,1.57-5.27,2.3-8.15,2.3c-4.2,0-8.19-1.18-12.03-3.62c-1.63-0.85-2.67-2.27-3.14-4.23c-0.48-1.95-0.71-4.12-0.71-6.56
		c0-2.81,0.38-5.47,1.19-7.98c0.8-2.51,1.85-4.07,3.14-4.75c0.64-0.2,1.99-0.44,4.1-0.64c2.07-0.2,4.13-0.16,6.23,0.18
		c2.1,0.34,3.87,1.01,5.32,2.09c1.42,1.09,1.83,2.74,1.19,4.91c-0.65,1.97-1.53,3.38-2.64,4.26c-1.13,0.88-2.24,1.35-3.36,1.45
		c-1.15,0.14-2.1,0.08-2.91-0.16c-0.81-0.2-1.37-0.44-1.67-0.64c-0.34-0.21-0.74-0.61-1.21-1.15c-0.48-0.55-0.41-1.25,0.24-2.14
		c0-0.4,0.64-0.84,1.93-1.28c0.64-0.2,1.11-0.34,1.45-0.34c-0.64,0.24-0.88,0.74-0.71,1.49c0.14,0.74,0.71,1.11,1.67,1.11
		c1.59,0.24,2.71-0.1,3.38-0.99c0.3-0.4,0.48-0.94,0.48-1.62c-0.34-1.73-1.87-2.47-4.57-2.27c-2.74,0.2-4.75,1.39-6.03,3.54
		c-0.95,1.57-0.81,2.74,0.48,3.63c1.28,0.88,2.41,1.52,3.38,1.95c1.29,0.44,3.18,0.38,5.75-0.16c2.58-0.55,4.65-2,6.28-4.43
		c0.94-2.17,1.04-3.96,0.24-5.39c-0.81-1.42-2-2.53-3.59-3.42c-1.63-0.88-3.7-1.62-6.26-2.29c-5.45-0.65-10.16-0.31-14.09,0.98
		c-3.96,1.32-7.04,3.12-9.21,5.41c-2.2,2.3-3.46,4.91-3.76,7.85c-0.34,2.94,0.61,5.72,2.81,8.33c1.23,1.75,2.78,3.38,4.67,4.9
		c1.87,1.53,4.37,2.61,7.55,3.26c3.52,0.88,7.83,1.32,12.98,1.32c5.14,0,10.26-0.98,15.41-2.94c5.14-1.97,9.71-5.27,13.7-9.98
		c4-4.67,6.5-11.16,7.45-19.45c0.34-1.49,0.51-2.92,0.51-4.23v-3.76c0-1.42-0.18-2.67-0.51-3.78h-37.99
		c-10.22,0-20.42-0.04-30.54-0.14c-10.16-0.1-17.89-0.18-23.16-0.18l-0.48-80.77h105.37c4.47-0.18,8.13,0.16,11.05,1.01
		c2.87,0.84,5.21,1.93,6.98,3.21c1.75,1.29,3.14,2.54,4.1,3.72c0.94,1.23,1.59,2.14,1.93,2.78V182.6h-179.24
		c5.11,0.24,9.28,0.95,12.5,2.13c3.18,1.19,5.75,2.47,7.68,3.9c1.93,1.42,3.29,2.81,4.1,4.22c0.81,1.43,1.37,2.44,1.7,3.08v183.42
		c-0.34,0.68-0.89,1.69-1.7,3.11c-0.8,1.43-2.17,2.82-4.1,4.23c-1.93,1.43-4.5,2.71-7.68,3.9c-3.22,1.18-7.39,1.89-12.5,2.09
		L1660.04,392.33z"/>
	<path class="st0" d="M1753.97,225.04l-14.83-22.75v-3.9c0.94-2.57,1.59-3.98,1.93-4.22l0.48-0.65c0.6-0.84,1.49-1.75,2.61-2.73
		c1.11-0.99,3.12-1.8,5.99-2.44c1.59-0.2,3.02-0.34,4.31-0.34c1.28,0,2.64,0.14,4.06,0.34c1.43,0.2,2.64,0.64,3.59,1.29
		c2.23,1.32,3.34,3.82,3.34,7.48c0,1.97-0.24,3.78-0.71,5.51c-0.46,1.77-1.21,2.84-2.17,3.26c-0.64,0.23-1.59,0.46-2.87,0.68
		c-1.29,0.2-2.64,0.2-4.07,0c-1.42-0.21-2.71-0.71-3.82-1.49c-1.11-0.75-1.53-1.9-1.19-3.42c1.29-2.81,2.71-4.16,4.31-4.06
		c1.59,0.13,2.53,0.3,2.87,0.5c0,0.2,0.08,0.38,0.24,0.48c0.14,0.14,0.24,0.4,0.24,0.81c0,0.44,0.14,0.78,0.48,0.98
		c-0.34,0.44-0.58,0.65-0.71,0.65c-0.16,0-0.4,0.13-0.71,0.34c-0.34,0.2-0.64,0.3-0.94,0.3c0.6-0.2,0.84-0.58,0.71-1.11
		c-0.18-0.55-0.58-0.81-1.23-0.81c-1.59,0-2.37,0.24-2.37,0.64c-0.34,0.2-0.34,0.54,0,0.99c0.3,1.28,1.43,1.89,3.32,1.79
		c1.89-0.1,3.18-0.91,3.86-2.47c0.61-1.09,0.44-1.93-0.5-2.58c-0.95-0.64-1.9-1.08-2.86-1.32c-0.64-0.2-1.93-0.14-3.82,0.16
		c-1.93,0.34-3.22,1.35-3.83,3.08c-0.64,1.77-0.64,3.12,0,4.06c0.61,0.99,1.43,1.69,2.38,2.14c1.28,0.64,2.71,1.08,4.33,1.28
		c3.8,0.44,7.08,0.18,9.82-0.81c2.71-0.94,4.87-2.27,6.5-3.88c1.59-1.63,2.41-3.46,2.41-5.52c0-2.05-0.81-3.96-2.41-5.69
		c-1.97-1.72-3.97-3.01-6.06-3.88c-2.1-0.88-3.93-1.53-5.49-1.97c-1.93-0.4-3.86-0.64-5.76-0.64h-67.24
		c5.45,0.2,9.85,0.98,13.24,2.27c3.34,1.28,5.99,2.81,7.92,4.53c2.24,1.95,4,4.12,5.29,6.49v181.29c-0.34,0.68-0.88,1.69-1.69,3.11
		c-0.81,1.43-2.17,2.82-4.07,4.2c-1.93,1.43-4.57,2.71-7.95,3.9c-3.38,1.22-7.62,1.79-12.73,1.79h77.3c-5.41,0-9.75-0.58-12.93-1.79
		c-3.19-1.19-5.76-2.47-7.65-3.9c-1.9-1.38-3.26-2.77-4.07-4.2c-0.81-1.42-1.35-2.43-1.65-3.11V226.65l114.59,166.02h11.1v-88.05
		V198.39c0.31-0.64,0.85-1.62,1.67-2.91c0.81-1.28,2.17-2.71,4.1-4.23c1.93-1.48,4.5-2.83,7.72-4.06c3.18-1.18,7.35-1.79,12.5-1.79
		h-62.64c5.07,0,9.24,0.61,12.43,1.79c3.18,1.23,5.75,2.58,7.65,4.06c1.89,1.53,3.24,2.96,4.06,4.23c0.81,1.29,1.35,2.27,1.69,2.91
		v174.45L1753.97,225.04z"/>
</g>
<g class="st1">
	<path class="st2" d="M665.1,491.25c0,0.14-0.03,0.24-0.03,0.3c-0.04,0.08-0.04,0.1-0.04,0.18c0,0.74,0.18,1.35,0.54,1.83
		c0.38,0.5,0.89,0.8,1.49,0.91c0.48,0,0.89-0.21,1.29-0.68c0.4-0.48,0.64-1.05,0.74-1.8l4.27-42.5l12.29,42.88
		c0.14,0.51,0.38,0.98,0.71,1.43c0.34,0.46,0.75,0.68,1.19,0.68c0.4,0,0.81-0.21,1.15-0.65c0.34-0.4,0.6-0.91,0.78-1.45l12.05-42.44
		l3.62,42.16c0.08,0.68,0.31,1.23,0.71,1.7c0.41,0.46,0.89,0.68,1.49,0.68c0.48,0,0.91-0.24,1.25-0.79c0.34-0.5,0.51-1.11,0.51-1.85
		v-0.48l-4.53-52.79c-0.11-0.75-0.35-1.35-0.71-1.83c-0.38-0.48-0.81-0.75-1.33-0.75c-0.91,0-1.52,0.58-1.85,1.73l-13.14,46.16
		l-13.22-46.16c-0.34-1.15-0.98-1.73-1.89-1.73c-0.54,0-0.98,0.24-1.32,0.71c-0.38,0.48-0.61,1.01-0.68,1.65L665.1,491.25z"/>
	<path class="st2" d="M720.06,468.48c0.24-1.83,0.71-3.52,1.39-5.11c0.68-1.59,1.52-2.98,2.54-4.13c1.01-1.15,2.13-2.07,3.42-2.74
		c1.28-0.68,2.63-1.01,4.1-1.01c1.42,0,2.74,0.34,4.02,1.01c1.29,0.68,2.44,1.59,3.46,2.74c1.01,1.15,1.87,2.54,2.58,4.13
		c0.68,1.59,1.15,3.28,1.42,5.11H720.06z M745.23,474.97c0.46,0,0.91-0.23,1.35-0.74c0.4-0.5,0.64-1.25,0.64-2.23
		c0-3.18-0.44-6.13-1.32-8.91c-0.89-2.77-2-5.21-3.42-7.3c-1.43-2.1-3.08-3.76-4.99-4.97c-1.89-1.23-3.86-1.83-5.89-1.83
		c-2.24,0.13-4.33,0.8-6.26,2.03c-1.93,1.21-3.6,2.87-5.01,4.9c-1.43,2.04-2.51,4.43-3.32,7.15c-0.81,2.73-1.19,5.67-1.19,8.79
		c0,3.28,0.41,6.29,1.22,9.07c0.81,2.77,1.97,5.15,3.39,7.14c1.42,2.03,3.08,3.58,4.97,4.7c1.9,1.15,3.93,1.7,6.1,1.7
		c2.3,0,4.36-0.45,6.19-1.39c1.8-0.91,3.42-2.47,4.85-4.71c0.38-0.54,0.58-1.18,0.58-1.95c0-0.75-0.2-1.43-0.58-1.97
		c-0.4-0.54-0.88-0.81-1.43-0.81c-0.56,0-1.04,0.24-1.42,0.64c-1.09,1.15-2.34,2.07-3.72,2.72c-1.39,0.68-2.88,0.98-4.47,0.98
		c-1.47,0-2.84-0.3-4.13-0.98c-1.29-0.69-2.44-1.59-3.46-2.74c-1.01-1.15-1.89-2.51-2.57-4.1c-0.71-1.59-1.15-3.32-1.35-5.19
		L745.23,474.97L745.23,474.97z"/>
	<path class="st2" d="M780.78,478.05c-0.61,1.97-1.45,3.7-2.54,5.19c-1.08,1.49-2.37,2.63-3.78,3.48c-1.43,0.84-2.98,1.25-4.61,1.25
		c-1.67,0-3.22-0.41-4.67-1.25c-1.45-0.85-2.71-1.99-3.8-3.48c-1.08-1.49-1.97-3.22-2.57-5.19c-0.61-1.95-0.91-4.06-0.91-6.29
		c0-2.23,0.3-4.33,0.91-6.33c0.6-1.97,1.49-3.7,2.57-5.19c1.09-1.49,2.34-2.63,3.8-3.48c1.45-0.85,3.01-1.29,4.67-1.29
		c1.59,0,3.08,0.41,4.5,1.23c1.43,0.8,2.64,1.95,3.73,3.41c1.05,1.47,1.89,3.18,2.54,5.15c0.64,2,1.01,4.16,1.11,6.5
		C781.73,473.99,781.39,476.1,780.78,478.05z M781.73,457.55c-1.49-2.23-3.26-4.2-5.29-5.85c-2.07-1.67-4.33-2.58-6.84-2.71
		c-2.17,0-4.2,0.64-6.13,1.85c-1.93,1.21-3.63,2.88-5.11,4.95c-1.49,2.05-2.64,4.46-3.53,7.24c-0.88,2.77-1.28,5.71-1.28,8.83
		c0,3.11,0.4,6.03,1.28,8.73c0.85,2.74,2,5.15,3.46,7.2c1.45,2.07,3.18,3.7,5.15,4.87c1.97,1.23,4.1,1.8,6.4,1.8
		c2.2,0,4.3-0.55,6.26-1.7c1.97-1.14,3.7-2.73,5.19-4.8l0.6-0.85l-0.16,4.43c0,0.81,0.2,1.53,0.6,2.07
		c0.41,0.58,0.95,0.85,1.57,0.85c0.6,0,1.11-0.28,1.52-0.81c0.41-0.54,0.65-1.23,0.65-2.03v-52.8c0-0.78-0.24-1.45-0.65-1.99
		c-0.4-0.54-0.91-0.85-1.52-0.85c-0.61,0-1.15,0.28-1.57,0.81c-0.4,0.54-0.6,1.15-0.6,1.89L781.73,457.55L781.73,457.55z"/>
	<path class="st2" d="M792.6,441.24c0.5,0.85,1.15,1.25,1.89,1.25c0.71,0,1.32-0.4,1.87-1.25c0.54-0.85,0.81-1.87,0.81-3.08
		c0-1.18-0.28-2.19-0.81-3.04c-0.55-0.85-1.15-1.29-1.87-1.29c-0.74,0-1.39,0.44-1.89,1.29c-0.55,0.85-0.79,1.87-0.79,3.04
		C791.81,439.37,792.05,440.39,792.6,441.24z M791.65,491.59c0,0.81,0.2,1.49,0.61,2.03c0.4,0.58,0.94,0.85,1.55,0.85
		s1.11-0.28,1.53-0.85c0.4-0.54,0.64-1.22,0.64-2.03v-39.5c0-0.81-0.24-1.49-0.64-2.03c-0.41-0.54-0.91-0.84-1.53-0.84
		s-1.15,0.3-1.55,0.84c-0.41,0.54-0.61,1.21-0.61,2.03V491.59z"/>
	<path class="st2" d="M811.39,451.02c-1.93,1.21-3.62,2.87-5.07,4.9c-1.47,2.04-2.62,4.43-3.46,7.15c-0.88,2.73-1.29,5.67-1.29,8.79
		c0,3.28,0.44,6.29,1.32,9.07c0.89,2.77,2.04,5.15,3.53,7.14c1.45,2.03,3.11,3.58,5.01,4.7c1.89,1.15,3.92,1.7,6.09,1.7
		c1.87,0,3.52-0.38,4.99-1.15c1.45-0.78,2.67-1.69,3.68-2.78c0.99-1.08,1.73-2.09,2.24-3.11c0.48-0.99,0.74-1.73,0.74-2.24
		c0-0.8-0.2-1.45-0.6-1.99c-0.41-0.54-0.89-0.81-1.39-0.81c-0.58,0-1.05,0.3-1.45,0.85c-1.09,1.49-2.34,2.67-3.73,3.48
		c-1.39,0.84-2.88,1.25-4.47,1.25c-1.62,0-3.11-0.41-4.5-1.25c-1.43-0.85-2.64-1.99-3.7-3.48c-1.08-1.49-1.89-3.22-2.51-5.19
		c-0.61-1.95-0.91-4.06-0.91-6.29c0-2.23,0.3-4.33,0.91-6.33c0.61-1.97,1.43-3.7,2.51-5.19c1.05-1.49,2.27-2.63,3.7-3.48
		c1.39-0.85,2.88-1.29,4.5-1.29c1.59,0,3.08,0.44,4.47,1.25c1.39,0.85,2.64,1.97,3.73,3.32c0.4,0.58,0.88,0.85,1.45,0.85
		c0.48,0,0.88-0.24,1.28-0.75c0.38-0.48,0.58-1.08,0.58-1.79c0-0.48-0.26-1.22-0.8-2.2c-0.55-0.98-1.33-1.99-2.3-3.07
		c-1.01-1.09-2.2-2.04-3.6-2.84c-1.39-0.81-2.94-1.25-4.67-1.25C815.39,449.12,813.28,449.79,811.39,451.02z"/>
	<path class="st2" d="M836.28,441.24c0.51,0.85,1.15,1.25,1.89,1.25c0.71,0,1.33-0.4,1.87-1.25c0.54-0.85,0.81-1.87,0.81-3.08
		c0-1.18-0.28-2.19-0.81-3.04s-1.15-1.29-1.87-1.29c-0.74,0-1.38,0.44-1.89,1.29c-0.54,0.85-0.78,1.87-0.78,3.04
		C835.5,439.37,835.74,440.39,836.28,441.24z M835.33,491.59c0,0.81,0.21,1.49,0.61,2.03c0.4,0.58,0.95,0.85,1.55,0.85
		c0.61,0,1.13-0.28,1.53-0.85c0.4-0.54,0.64-1.22,0.64-2.03v-39.5c0-0.81-0.24-1.49-0.64-2.03c-0.4-0.54-0.91-0.84-1.53-0.84
		c-0.6,0-1.15,0.3-1.55,0.84c-0.4,0.54-0.61,1.21-0.61,2.03V491.59z"/>
	<path class="st2" d="M845.25,491.55c0,0.81,0.21,1.53,0.61,2.07c0.41,0.58,0.95,0.85,1.55,0.85c0.61,0,1.13-0.28,1.53-0.81
		c0.41-0.54,0.65-1.23,0.65-2.03V465.8c0.03-1.42,0.23-2.73,0.64-3.98c0.38-1.25,0.91-2.34,1.59-3.28c0.68-0.91,1.49-1.67,2.41-2.2
		c0.88-0.54,1.87-0.85,2.91-0.85c1.01,0,2,0.31,2.96,0.85c0.91,0.54,1.72,1.32,2.39,2.3c0.69,0.98,1.25,2.13,1.67,3.44
		c0.4,1.33,0.61,2.71,0.61,4.2v25.35c0,0.8,0.2,1.49,0.6,2.03c0.41,0.54,0.95,0.81,1.57,0.81c0.6,0,1.11-0.28,1.52-0.85
		c0.41-0.54,0.65-1.25,0.65-2.07v-25.72c0-2.3-0.31-4.5-0.91-6.56c-0.61-2.03-1.47-3.82-2.54-5.39c-1.09-1.52-2.34-2.71-3.76-3.58
		c-1.45-0.88-2.98-1.32-4.61-1.32c-1.49,0-2.91,0.44-4.2,1.25c-1.32,0.8-2.47,1.93-3.48,3.28v-1.35c0-0.89-0.24-1.63-0.65-2.24
		c-0.4-0.6-0.91-0.94-1.53-0.94c-0.6,0-1.14,0.3-1.55,0.84c-0.4,0.58-0.61,1.25-0.61,2.07V491.55z"/>
	<path class="st2" d="M901.74,478.26c-0.65,1.95-1.49,3.65-2.58,5.1c-1.08,1.47-2.33,2.58-3.76,3.39c-1.42,0.8-2.91,1.22-4.5,1.22
		c-1.67,0-3.22-0.41-4.65-1.25c-1.42-0.85-2.67-1.99-3.76-3.48c-1.08-1.49-1.97-3.22-2.57-5.19c-0.61-1.95-0.91-4.06-0.91-6.29
		s0.3-4.33,0.91-6.33c0.6-1.97,1.49-3.7,2.57-5.19c1.09-1.49,2.34-2.63,3.76-3.48c1.43-0.85,2.98-1.29,4.65-1.29
		c1.62,0,3.18,0.44,4.63,1.29c1.45,0.85,2.74,1.99,3.82,3.48c1.09,1.49,1.93,3.22,2.54,5.19c0.61,1.99,0.95,4.1,0.95,6.33
		C902.76,474.13,902.38,476.3,901.74,478.26z M902.86,491.55c0,0.81,0.2,1.53,0.61,2.07c0.4,0.58,0.94,0.85,1.55,0.85
		s1.11-0.28,1.53-0.85c0.4-0.54,0.64-1.25,0.64-2.07v-19.79c0-3.12-0.44-6.03-1.33-8.81c-0.88-2.73-2.05-5.14-3.54-7.2
		c-1.49-2.07-3.19-3.72-5.15-4.94c-1.97-1.23-4-1.83-6.14-1.83c-2.33,0-4.5,0.6-6.5,1.79c-1.99,1.22-3.72,2.84-5.17,4.91
		c-1.45,2.05-2.61,4.5-3.42,7.27c-0.85,2.82-1.25,5.79-1.25,8.91c0,3.28,0.4,6.29,1.25,9.07c0.84,2.77,1.99,5.15,3.48,7.14
		c1.49,2.03,3.18,3.58,5.11,4.7c1.93,1.15,4.03,1.7,6.26,1.7c2.41,0,4.65-0.85,6.74-2.54c2.07-1.69,3.83-3.72,5.32-6.09V491.55z"/>
	<path class="st2" d="M948.36,468.48h-14.76l7.42-24.03L948.36,468.48z M922.94,490.62c-0.14,0.36-0.2,0.74-0.2,1.11
		c0,0.74,0.16,1.39,0.54,1.93c0.38,0.54,0.88,0.81,1.49,0.81c0.38,0,0.75-0.14,1.09-0.48c0.34-0.34,0.6-0.78,0.78-1.35l5.21-17.67
		h18.29l5.17,17.67c0.34,1.21,0.99,1.83,1.9,1.83c0.6,0,1.08-0.28,1.42-0.81c0.34-0.54,0.51-1.19,0.51-1.93
		c0-0.48-0.04-0.85-0.1-1.11l-16.08-52.52c-0.18-0.54-0.44-1.01-0.78-1.45c-0.35-0.41-0.75-0.65-1.15-0.65
		c-0.45,0-0.85,0.24-1.19,0.71c-0.34,0.48-0.58,0.91-0.71,1.39L922.94,490.62z"/>
	<path class="st2" d="M965.12,491.63c0,0.8,0.21,1.49,0.61,2.03c0.41,0.54,0.95,0.81,1.55,0.81c0.61,0,1.13-0.28,1.53-0.81
		c0.41-0.54,0.64-1.23,0.64-2.03v-52.8c0-0.78-0.23-1.45-0.64-1.99c-0.4-0.54-0.91-0.85-1.53-0.85c-0.6,0-1.14,0.31-1.55,0.85
		c-0.4,0.54-0.61,1.21-0.61,1.99V491.63z"/>
	<path class="st2" d="M983.73,448.99h-4.45c-0.56,0-1.04,0.34-1.45,0.94c-0.4,0.65-0.6,1.43-0.6,2.3c0,0.91,0.26,1.69,0.8,2.3
		c0.55,0.64,1.19,0.94,1.97,0.94h5.9v36.15c0,0.8,0.1,1.49,0.3,2.03c0.2,0.54,0.48,0.81,0.78,0.81c0.28,0,0.54-0.28,0.75-0.81
		c0.2-0.54,0.34-1.23,0.34-2.03v-36.15h5.89c0.74,0,1.43-0.3,1.97-0.94c0.54-0.61,0.81-1.39,0.81-2.3c0-0.88-0.28-1.65-0.81-2.3
		c-0.54-0.6-1.23-0.94-1.97-0.94h-5.89v-10.36c0-0.74-0.24-1.35-0.65-1.87c-0.4-0.5-0.91-0.78-1.52-0.78
		c-0.61,0-1.15,0.28-1.57,0.78c-0.4,0.51-0.6,1.13-0.6,1.87L983.73,448.99L983.73,448.99z"/>
	<path class="st2" d="M1002.58,468.48c0.24-1.83,0.71-3.52,1.39-5.11s1.53-2.98,2.54-4.13c1.01-1.15,2.13-2.07,3.42-2.74
		c1.29-0.68,2.64-1.01,4.1-1.01c1.43,0,2.74,0.34,4.03,1.01c1.29,0.68,2.43,1.59,3.46,2.74c1.01,1.15,1.85,2.54,2.57,4.13
		c0.68,1.59,1.15,3.28,1.43,5.11H1002.58z M1027.74,474.97c0.48,0,0.91-0.23,1.35-0.74c0.41-0.5,0.64-1.25,0.64-2.23
		c0-3.18-0.44-6.13-1.32-8.91c-0.88-2.77-1.99-5.21-3.42-7.3c-1.43-2.1-3.08-3.76-4.97-4.97c-1.9-1.23-3.87-1.83-5.9-1.83
		c-2.23,0.13-4.33,0.8-6.26,2.03c-1.93,1.21-3.58,2.87-5.01,4.9c-1.42,2.04-2.51,4.43-3.32,7.15c-0.81,2.73-1.18,5.67-1.18,8.79
		c0,3.28,0.4,6.29,1.21,9.07c0.81,2.77,1.97,5.15,3.38,7.14c1.43,2.03,3.08,3.58,4.99,4.7c1.89,1.15,3.92,1.7,6.09,1.7
		c2.3,0,4.37-0.45,6.2-1.39c1.79-0.91,3.42-2.47,4.84-4.71c0.38-0.54,0.58-1.18,0.58-1.95c0-0.75-0.2-1.43-0.58-1.97
		c-0.4-0.54-0.88-0.81-1.42-0.81c-0.58,0-1.05,0.24-1.43,0.64c-1.08,1.15-2.33,2.07-3.72,2.72c-1.39,0.68-2.88,0.98-4.47,0.98
		c-1.45,0-2.84-0.3-4.13-0.98c-1.28-0.69-2.43-1.59-3.44-2.74c-1.01-1.15-1.9-2.51-2.58-4.1c-0.71-1.59-1.15-3.32-1.35-5.19
		L1027.74,474.97L1027.74,474.97z"/>
	<path class="st2" d="M1036.07,491.55c0,0.81,0.2,1.53,0.61,2.07c0.4,0.58,0.94,0.85,1.55,0.85s1.11-0.28,1.53-0.81
		c0.4-0.54,0.64-1.23,0.64-2.03v-20.34c0.04-2.07,0.38-4.06,1.01-5.95c0.61-1.9,1.45-3.6,2.48-5.09c1.01-1.45,2.17-2.61,3.52-3.48
		c1.35-0.85,2.81-1.29,4.36-1.29c0.68,0,1.25-0.3,1.67-0.94c0.4-0.61,0.61-1.39,0.61-2.3c0-0.88-0.21-1.65-0.61-2.3
		c-0.41-0.6-0.99-0.94-1.67-0.94c-2.29,0-4.43,0.7-6.36,2.09c-1.97,1.43-3.62,3.22-5.01,5.39v-4.57c0-0.81-0.24-1.49-0.64-2.07
		c-0.41-0.54-0.91-0.84-1.53-0.84s-1.15,0.3-1.55,0.84c-0.41,0.58-0.61,1.25-0.61,2.07L1036.07,491.55L1036.07,491.55z"/>
	<path class="st2" d="M1059,491.55c0,0.81,0.21,1.53,0.61,2.07c0.4,0.58,0.95,0.85,1.55,0.85c0.61,0,1.11-0.28,1.53-0.81
		c0.4-0.54,0.64-1.23,0.64-2.03V465.8c0.04-1.42,0.24-2.73,0.65-3.98c0.36-1.25,0.91-2.34,1.59-3.28c0.68-0.91,1.49-1.67,2.41-2.2
		c0.88-0.54,1.85-0.85,2.91-0.85c1.01,0,2,0.31,2.94,0.85c0.91,0.54,1.73,1.32,2.41,2.3c0.68,0.98,1.25,2.13,1.67,3.44
		c0.4,1.33,0.6,2.71,0.6,4.2v25.35c0,0.8,0.21,1.49,0.61,2.03c0.4,0.54,0.95,0.81,1.55,0.81c0.61,0,1.13-0.28,1.53-0.85
		c0.4-0.54,0.64-1.25,0.64-2.07v-25.72c0-2.3-0.3-4.5-0.91-6.56c-0.6-2.03-1.45-3.82-2.53-5.39c-1.09-1.52-2.34-2.71-3.76-3.58
		c-1.47-0.88-2.98-1.32-4.61-1.32c-1.49,0-2.92,0.44-4.2,1.25c-1.33,0.8-2.48,1.93-3.49,3.28v-1.35c0-0.89-0.24-1.63-0.64-2.24
		c-0.41-0.6-0.91-0.94-1.53-0.94c-0.6,0-1.15,0.3-1.55,0.84c-0.4,0.58-0.61,1.25-0.61,2.07L1059,491.55L1059,491.55z"/>
	<path class="st2" d="M1115.48,478.26c-0.64,1.95-1.48,3.65-2.57,5.1c-1.09,1.47-2.34,2.58-3.76,3.39c-1.43,0.8-2.92,1.22-4.51,1.22
		c-1.65,0-3.21-0.41-4.63-1.25c-1.42-0.85-2.68-1.99-3.76-3.48c-1.09-1.49-1.97-3.22-2.57-5.19c-0.61-1.95-0.91-4.06-0.91-6.29
		s0.3-4.33,0.91-6.33c0.6-1.97,1.48-3.7,2.57-5.19c1.08-1.49,2.34-2.63,3.76-3.48c1.43-0.85,2.98-1.29,4.63-1.29
		c1.63,0,3.19,0.44,4.65,1.29c1.45,0.85,2.74,1.99,3.82,3.48c1.09,1.49,1.93,3.22,2.54,5.19c0.61,1.99,0.95,4.1,0.95,6.33
		C1116.5,474.13,1116.13,476.3,1115.48,478.26z M1116.6,491.55c0,0.81,0.2,1.53,0.6,2.07c0.41,0.58,0.95,0.85,1.57,0.85
		c0.6,0,1.11-0.28,1.52-0.85c0.41-0.54,0.65-1.25,0.65-2.07v-19.79c0-3.12-0.44-6.03-1.33-8.81c-0.88-2.73-2.07-5.14-3.56-7.2
		c-1.49-2.07-3.18-3.72-5.14-4.94c-1.97-1.23-4-1.83-6.14-1.83c-2.33,0-4.5,0.6-6.5,1.79c-1.99,1.22-3.72,2.84-5.17,4.91
		c-1.47,2.05-2.62,4.5-3.42,7.27c-0.85,2.82-1.25,5.79-1.25,8.91c0,3.28,0.4,6.29,1.25,9.07c0.84,2.77,1.99,5.15,3.48,7.14
		c1.49,2.03,3.18,3.58,5.11,4.7c1.93,1.15,4.03,1.7,6.26,1.7c2.41,0,4.65-0.85,6.74-2.54c2.07-1.69,3.83-3.72,5.32-6.09V491.55z"/>
	<path class="st2" d="M1133.03,448.99h-4.43c-0.58,0-1.05,0.34-1.47,0.94c-0.4,0.65-0.6,1.43-0.6,2.3c0,0.91,0.26,1.69,0.81,2.3
		c0.54,0.64,1.18,0.94,1.95,0.94h5.9v36.15c0,0.8,0.1,1.49,0.3,2.03c0.2,0.54,0.48,0.81,0.78,0.81c0.28,0,0.55-0.28,0.75-0.81
		c0.2-0.54,0.34-1.23,0.34-2.03v-36.15h5.89c0.75,0,1.43-0.3,1.97-0.94c0.54-0.61,0.81-1.39,0.81-2.3c0-0.88-0.28-1.65-0.81-2.3
		c-0.54-0.6-1.22-0.94-1.97-0.94h-5.89v-10.36c0-0.74-0.24-1.35-0.65-1.87c-0.4-0.5-0.9-0.78-1.52-0.78s-1.15,0.28-1.57,0.78
		c-0.4,0.51-0.6,1.13-0.6,1.87V448.99z"/>
	<path class="st2" d="M1148.23,441.24c0.5,0.85,1.15,1.25,1.89,1.25c0.71,0,1.32-0.4,1.87-1.25c0.54-0.85,0.81-1.87,0.81-3.08
		c0-1.18-0.28-2.19-0.81-3.04c-0.55-0.85-1.15-1.29-1.87-1.29c-0.74,0-1.39,0.44-1.89,1.29c-0.55,0.85-0.78,1.87-0.78,3.04
		C1147.46,439.37,1147.68,440.39,1148.23,441.24z M1147.28,491.59c0,0.81,0.2,1.49,0.61,2.03c0.4,0.58,0.94,0.85,1.55,0.85
		s1.11-0.28,1.53-0.85c0.4-0.54,0.64-1.22,0.64-2.03v-39.5c0-0.81-0.24-1.49-0.64-2.03c-0.41-0.54-0.91-0.84-1.53-0.84
		s-1.15,0.3-1.55,0.84c-0.41,0.54-0.61,1.21-0.61,2.03V491.59z"/>
	<path class="st2" d="M1169.6,483.98l-8.47-33.29c-0.14-0.48-0.38-0.89-0.71-1.23c-0.34-0.3-0.75-0.46-1.21-0.46
		c-0.61,0-1.09,0.26-1.43,0.8c-0.34,0.55-0.48,1.19-0.48,2c0,0.5,0.08,0.95,0.2,1.32c0,0.08,0.18,0.81,0.51,2.17
		c0.34,1.39,0.91,3.6,1.69,6.6l3.04,12.01l4.65,18.24c0.14,0.51,0.38,1.01,0.74,1.55c0.34,0.55,0.85,0.79,1.47,0.79
		c0.6,0,1.04-0.21,1.38-0.65c0.34-0.44,0.58-1.01,0.75-1.69c2.09-7.74,3.8-14.14,5.11-19.19c1.32-5,2.37-8.99,3.12-11.94
		c0.74-2.94,1.28-5.01,1.55-6.16c0.28-1.15,0.44-1.79,0.51-1.93c0.13-0.34,0.2-0.71,0.2-1.11c0-0.68-0.2-1.29-0.58-1.89
		c-0.38-0.61-0.85-0.91-1.45-0.91c-0.41,0-0.78,0.16-1.13,0.46c-0.34,0.34-0.56,0.75-0.7,1.23L1169.6,483.98z"/>
	<path class="st2" d="M1213.68,478.26c-0.64,1.95-1.49,3.65-2.57,5.1c-1.09,1.47-2.34,2.58-3.76,3.39c-1.43,0.8-2.92,1.22-4.51,1.22
		c-1.65,0-3.22-0.41-4.63-1.25c-1.43-0.85-2.68-1.99-3.76-3.48c-1.09-1.49-1.97-3.22-2.58-5.19c-0.6-1.95-0.91-4.06-0.91-6.29
		s0.31-4.33,0.91-6.33c0.61-1.97,1.49-3.7,2.58-5.19c1.08-1.49,2.33-2.63,3.76-3.48c1.42-0.85,2.98-1.29,4.63-1.29
		c1.63,0,3.18,0.44,4.65,1.29c1.45,0.85,2.74,1.99,3.82,3.48c1.09,1.49,1.93,3.22,2.54,5.19c0.6,1.99,0.95,4.1,0.95,6.33
		C1214.7,474.13,1214.33,476.3,1213.68,478.26z M1214.81,491.55c0,0.81,0.2,1.53,0.6,2.07c0.41,0.58,0.95,0.85,1.57,0.85
		c0.6,0,1.11-0.28,1.52-0.85c0.41-0.54,0.65-1.25,0.65-2.07v-19.79c0-3.12-0.45-6.03-1.33-8.81c-0.88-2.73-2.07-5.14-3.56-7.2
		c-1.49-2.07-3.18-3.72-5.15-4.94c-1.95-1.23-4-1.83-6.13-1.83c-2.33,0-4.5,0.6-6.5,1.79c-1.99,1.22-3.72,2.84-5.19,4.91
		c-1.45,2.05-2.61,4.5-3.42,7.27c-0.84,2.82-1.25,5.79-1.25,8.91c0,3.28,0.41,6.29,1.25,9.07c0.85,2.77,2,5.15,3.49,7.14
		c1.49,2.03,3.18,3.58,5.11,4.7c1.93,1.15,4.03,1.7,6.26,1.7c2.41,0,4.63-0.85,6.74-2.54c2.07-1.69,3.83-3.72,5.32-6.09V491.55z"/>
	<path class="st2" d="M1246.9,484.15l-8.43-33.47c-0.14-0.48-0.4-0.89-0.74-1.23c-0.34-0.3-0.75-0.46-1.23-0.46
		c-0.6,0-1.08,0.26-1.42,0.8c-0.34,0.55-0.48,1.23-0.48,2.04c0,0.5,0.08,0.94,0.2,1.32c0,0.06,0.18,0.78,0.51,2.17
		s0.91,3.58,1.69,6.63l3.04,12.09l4.65,18.34l-3.9,15.47c-0.08,0.16-0.1,0.34-0.1,0.5c-0.04,0.14-0.04,0.34-0.04,0.54
		c0,0.75,0.18,1.39,0.54,2.04c0.38,0.56,0.85,0.88,1.45,0.88c0.89,0,1.49-0.65,1.83-1.9l14.83-56.94c0.14-0.38,0.21-0.75,0.21-1.11
		c0-0.68-0.21-1.33-0.58-1.93c-0.38-0.61-0.85-0.91-1.45-0.91c-0.41,0-0.79,0.16-1.13,0.46c-0.34,0.34-0.58,0.75-0.7,1.23
		L1246.9,484.15z"/>
	<path class="st2" d="M1286.63,440.32c0.91,0,1.79,0.28,2.63,0.78c0.85,0.51,1.59,1.21,2.2,2.1c0.61,0.88,1.11,1.93,1.49,3.11
		c0.34,1.21,0.54,2.47,0.54,3.76c0,1.39-0.2,2.68-0.54,3.82c-0.38,1.15-0.88,2.2-1.49,3.08c-0.61,0.88-1.35,1.59-2.2,2.1
		c-0.84,0.5-1.72,0.74-2.63,0.74h-8.3v-19.49H1286.63z M1274,491.53c0,0.84,0.2,1.55,0.61,2.09c0.4,0.58,0.95,0.85,1.55,0.85
		c0.61,0,1.11-0.28,1.53-0.85c0.4-0.54,0.64-1.25,0.64-2.09v-25.22h8.47c1.53,0,2.94-0.41,4.3-1.29c1.33-0.84,2.48-1.99,3.49-3.44
		c1.01-1.47,1.79-3.18,2.37-5.19c0.58-1.99,0.88-4.1,0.88-6.33c0-2.19-0.3-4.3-0.88-6.26c-0.61-1.95-1.39-3.68-2.41-5.17
		c-1.01-1.49-2.2-2.64-3.56-3.52c-1.35-0.85-2.81-1.29-4.36-1.29h-10.61c-0.58,0-1.04,0.31-1.45,0.91c-0.4,0.61-0.58,1.33-0.58,2.13
		L1274,491.53L1274,491.53z"/>
	<path class="st2" d="M1303.42,491.55c0,0.81,0.21,1.53,0.61,2.07c0.41,0.58,0.95,0.85,1.55,0.85c0.61,0,1.13-0.28,1.53-0.81
		c0.41-0.54,0.64-1.23,0.64-2.03v-20.34c0.04-2.07,0.38-4.06,1.03-5.95c0.6-1.9,1.45-3.6,2.47-5.09c1.01-1.45,2.17-2.61,3.52-3.48
		c1.35-0.85,2.81-1.29,4.37-1.29c0.68,0,1.25-0.3,1.65-0.94c0.41-0.61,0.61-1.39,0.61-2.3c0-0.88-0.2-1.65-0.61-2.3
		c-0.4-0.6-0.98-0.94-1.65-0.94c-2.3,0-4.43,0.7-6.36,2.09c-1.97,1.43-3.63,3.22-5.02,5.39v-4.57c0-0.81-0.23-1.49-0.64-2.07
		c-0.4-0.54-0.91-0.84-1.53-0.84c-0.6,0-1.14,0.3-1.55,0.84c-0.4,0.58-0.61,1.25-0.61,2.07V491.55z"/>
	<path class="st2" d="M1347.21,456.77c1.45,0.85,2.74,1.99,3.82,3.48c1.09,1.49,1.93,3.22,2.54,5.19c0.61,1.99,0.95,4.1,0.95,6.33
		c0,2.23-0.34,4.33-0.95,6.29c-0.61,1.97-1.45,3.7-2.54,5.19c-1.08,1.49-2.37,2.63-3.82,3.48c-1.45,0.84-3.02,1.25-4.63,1.25
		c-1.67,0-3.22-0.41-4.65-1.25c-1.42-0.85-2.67-1.99-3.76-3.48c-1.08-1.49-1.97-3.22-2.57-5.19c-0.61-1.95-0.91-4.06-0.91-6.29
		c0-2.23,0.3-4.33,0.91-6.33c0.6-1.97,1.49-3.7,2.57-5.19c1.09-1.49,2.34-2.63,3.76-3.48c1.43-0.85,2.98-1.29,4.65-1.29
		C1344.19,455.48,1345.76,455.92,1347.21,456.77z M1336.2,451.02c-1.99,1.21-3.72,2.87-5.17,4.9c-1.47,2.04-2.61,4.43-3.42,7.15
		c-0.85,2.73-1.25,5.67-1.25,8.79c0,3.28,0.4,6.29,1.28,9.07c0.85,2.77,2,5.15,3.49,7.14c1.49,2.03,3.18,3.58,5.15,4.7
		c1.95,1.15,4.06,1.7,6.3,1.7c2.27,0,4.4-0.58,6.36-1.8c1.97-1.18,3.68-2.81,5.15-4.87c1.45-2.05,2.61-4.46,3.48-7.2
		c0.85-2.71,1.29-5.62,1.29-8.73c0-3.12-0.44-6.06-1.33-8.83c-0.88-2.78-2.07-5.19-3.54-7.24c-1.49-2.07-3.19-3.73-5.15-4.95
		c-1.97-1.22-4-1.85-6.14-1.85C1340.37,449.12,1338.2,449.79,1336.2,451.02z"/>
	<path class="st2" d="M1391.67,478.05c-0.6,1.97-1.45,3.7-2.53,5.19c-1.09,1.49-2.38,2.63-3.8,3.48c-1.43,0.84-2.98,1.25-4.61,1.25
		c-1.65,0-3.22-0.41-4.67-1.25c-1.45-0.85-2.71-1.99-3.8-3.48c-1.08-1.49-1.95-3.22-2.57-5.19c-0.61-1.95-0.91-4.06-0.91-6.29
		c0-2.23,0.3-4.33,0.91-6.33c0.61-1.97,1.49-3.7,2.57-5.19c1.09-1.49,2.34-2.63,3.8-3.48c1.45-0.85,3.02-1.29,4.67-1.29
		c1.59,0,3.08,0.41,4.51,1.23c1.42,0.8,2.64,1.95,3.72,3.41c1.05,1.47,1.89,3.18,2.54,5.15c0.64,2,1.01,4.16,1.11,6.5
		C1392.62,473.99,1392.28,476.1,1391.67,478.05z M1392.62,457.55c-1.49-2.23-3.24-4.2-5.29-5.85c-2.07-1.67-4.33-2.58-6.84-2.71
		c-2.17,0-4.2,0.64-6.13,1.85s-3.62,2.88-5.11,4.95c-1.49,2.05-2.64,4.46-3.52,7.24c-0.89,2.77-1.29,5.71-1.29,8.83
		c0,3.11,0.4,6.03,1.29,8.73c0.84,2.74,1.99,5.15,3.44,7.2c1.47,2.07,3.18,3.7,5.15,4.87c1.97,1.23,4.1,1.8,6.4,1.8
		c2.2,0,4.31-0.55,6.26-1.7c1.97-1.14,3.7-2.73,5.19-4.8l0.61-0.85l-0.18,4.43c0,0.81,0.2,1.53,0.61,2.07
		c0.4,0.58,0.94,0.85,1.55,0.85s1.11-0.28,1.53-0.81c0.4-0.54,0.64-1.23,0.64-2.03v-52.8c0-0.78-0.24-1.45-0.64-1.99
		c-0.41-0.54-0.91-0.85-1.53-0.85s-1.15,0.28-1.55,0.81c-0.41,0.54-0.61,1.15-0.61,1.89V457.55z"/>
	<path class="st2" d="M1402.54,477.58c0,2.34,0.31,4.53,0.91,6.6c0.61,2.07,1.43,3.86,2.51,5.39c1.09,1.52,2.34,2.71,3.8,3.58
		c1.43,0.88,2.98,1.33,4.61,1.33c1.49,0,2.87-0.41,4.2-1.23c1.29-0.81,2.47-1.93,3.48-3.31v1.35c0,0.88,0.21,1.65,0.61,2.27
		c0.4,0.6,0.95,0.91,1.55,0.91c0.61,0,1.13-0.28,1.53-0.85c0.4-0.54,0.64-1.25,0.64-2.07V451.9c0-0.81-0.24-1.49-0.64-2.07
		c-0.4-0.54-0.91-0.84-1.53-0.84c-0.6,0-1.15,0.3-1.55,0.84c-0.4,0.54-0.61,1.21-0.61,2.03v25.75c-0.06,1.43-0.26,2.78-0.68,4.03
		c-0.4,1.28-0.94,2.37-1.63,3.28c-0.68,0.94-1.45,1.69-2.33,2.23c-0.91,0.54-1.89,0.81-2.92,0.81c-1.04,0-2.03-0.28-2.94-0.81
		c-0.94-0.54-1.75-1.32-2.43-2.3c-0.68-0.98-1.23-2.13-1.63-3.48c-0.41-1.32-0.61-2.71-0.61-4.2v-25.32c0-0.81-0.24-1.49-0.64-2.03
		c-0.41-0.54-0.91-0.84-1.53-0.84c-0.6,0-1.15,0.3-1.55,0.84c-0.41,0.58-0.61,1.25-0.61,2.07L1402.54,477.58L1402.54,477.58z"/>
	<path class="st2" d="M1441.78,451.02c-1.93,1.21-3.62,2.87-5.07,4.9c-1.45,2.04-2.61,4.43-3.46,7.15
		c-0.88,2.73-1.29,5.67-1.29,8.79c0,3.28,0.45,6.29,1.33,9.07c0.88,2.77,2.03,5.15,3.52,7.14c1.45,2.03,3.12,3.58,5.01,4.7
		c1.89,1.15,3.93,1.7,6.1,1.7c1.85,0,3.52-0.38,4.97-1.15c1.45-0.78,2.68-1.69,3.7-2.78c0.98-1.08,1.73-2.09,2.23-3.11
		c0.48-0.99,0.75-1.73,0.75-2.24c0-0.8-0.21-1.45-0.61-1.99c-0.4-0.54-0.88-0.81-1.39-0.81c-0.58,0-1.05,0.3-1.45,0.85
		c-1.09,1.49-2.34,2.67-3.72,3.48c-1.39,0.84-2.88,1.25-4.47,1.25c-1.63,0-3.12-0.41-4.51-1.25c-1.42-0.85-2.64-1.99-3.7-3.48
		c-1.08-1.49-1.89-3.22-2.51-5.19c-0.6-1.95-0.91-4.06-0.91-6.29c0-2.23,0.31-4.33,0.91-6.33c0.61-1.97,1.43-3.7,2.51-5.19
		c1.05-1.49,2.28-2.63,3.7-3.48c1.39-0.85,2.88-1.29,4.51-1.29c1.59,0,3.08,0.44,4.47,1.25c1.38,0.85,2.63,1.97,3.72,3.32
		c0.4,0.58,0.88,0.85,1.45,0.85c0.48,0,0.88-0.24,1.29-0.75c0.38-0.48,0.58-1.08,0.58-1.79c0-0.48-0.28-1.22-0.81-2.2
		c-0.54-0.98-1.33-1.99-2.3-3.07c-1.01-1.09-2.2-2.04-3.58-2.84c-1.39-0.81-2.96-1.25-4.67-1.25
		C1445.78,449.12,1443.69,449.79,1441.78,451.02z"/>
	<path class="st2" d="M1472.23,448.99h-4.43c-0.58,0-1.05,0.34-1.47,0.94c-0.4,0.65-0.6,1.43-0.6,2.3c0,0.91,0.26,1.69,0.81,2.3
		c0.54,0.64,1.18,0.94,1.95,0.94h5.9v36.15c0,0.8,0.1,1.49,0.3,2.03c0.2,0.54,0.48,0.81,0.78,0.81c0.28,0,0.54-0.28,0.75-0.81
		c0.2-0.54,0.34-1.23,0.34-2.03v-36.15h5.89c0.75,0,1.43-0.3,1.97-0.94c0.54-0.61,0.81-1.39,0.81-2.3c0-0.88-0.28-1.65-0.81-2.3
		c-0.54-0.6-1.21-0.94-1.97-0.94h-5.89v-10.36c0-0.74-0.24-1.35-0.65-1.87c-0.4-0.5-0.91-0.78-1.52-0.78
		c-0.61,0-1.15,0.28-1.57,0.78c-0.4,0.51-0.6,1.13-0.6,1.87V448.99z"/>
	<path class="st2" d="M1507.35,456.77c1.45,0.85,2.74,1.99,3.83,3.48c1.08,1.49,1.93,3.22,2.53,5.19c0.61,1.99,0.95,4.1,0.95,6.33
		c0,2.23-0.34,4.33-0.95,6.29c-0.6,1.97-1.45,3.7-2.53,5.19c-1.09,1.49-2.38,2.63-3.83,3.48c-1.45,0.84-3.01,1.25-4.63,1.25
		c-1.67,0-3.22-0.41-4.65-1.25c-1.42-0.85-2.67-1.99-3.76-3.48c-1.08-1.49-1.95-3.22-2.57-5.19c-0.61-1.95-0.91-4.06-0.91-6.29
		c0-2.23,0.3-4.33,0.91-6.33c0.61-1.97,1.49-3.7,2.57-5.19c1.09-1.49,2.34-2.63,3.76-3.48c1.43-0.85,2.98-1.29,4.65-1.29
		C1504.34,455.48,1505.89,455.92,1507.35,456.77z M1496.35,451.02c-2,1.21-3.73,2.87-5.19,4.9c-1.45,2.04-2.61,4.43-3.42,7.15
		c-0.85,2.73-1.25,5.67-1.25,8.79c0,3.28,0.4,6.29,1.29,9.07c0.84,2.77,1.99,5.15,3.48,7.14c1.49,2.03,3.18,3.58,5.15,4.7
		c1.97,1.15,4.06,1.7,6.3,1.7c2.27,0,4.4-0.58,6.36-1.8c1.97-1.18,3.7-2.81,5.15-4.87c1.45-2.05,2.61-4.46,3.48-7.2
		c0.85-2.71,1.29-5.62,1.29-8.73c0-3.12-0.44-6.06-1.32-8.83c-0.89-2.78-2.07-5.19-3.56-7.24c-1.49-2.07-3.18-3.73-5.15-4.95
		c-1.97-1.22-4-1.85-6.13-1.85C1500.51,449.12,1498.34,449.79,1496.35,451.02z"/>
	<path class="st2" d="M1529.49,468.48c1.83,1.83,4.27,3.04,7.25,3.66c2.07,0.44,3.78,1.35,5.21,2.77c1.42,1.43,2.13,3.12,2.13,5.15
		c0,2.51-0.74,4.46-2.23,5.85c-1.49,1.39-3.32,2.07-5.42,2.07c-1.52,0-2.98-0.51-4.33-1.59c-1.35-1.09-2.33-2.64-2.87-4.73
		c-0.24-0.71-0.55-1.29-0.91-1.69c-0.38-0.41-0.79-0.65-1.25-0.65c-0.61,0-1.13,0.34-1.47,1.01c-0.36,0.68-0.54,1.43-0.54,2.3
		c0,0.4,0,0.71,0.06,0.91c0.68,3.42,2.04,6.09,4.11,8.02c2.05,1.97,4.46,2.92,7.2,2.92c1.59,0,3.12-0.31,4.55-0.95
		c1.42-0.64,2.67-1.55,3.78-2.74c1.13-1.18,2-2.61,2.68-4.3c0.64-1.69,0.98-3.52,0.98-5.55c0-1.99-0.3-3.76-0.91-5.31
		c-0.6-1.53-1.39-2.84-2.41-3.93c-1.01-1.08-2.19-1.99-3.54-2.71c-1.37-0.68-2.78-1.21-4.31-1.59c-0.68-0.2-1.39-0.4-2.09-0.64
		c-0.75-0.24-1.39-0.58-2-1.05c-0.61-0.48-1.08-1.01-1.49-1.69c-0.4-0.68-0.58-1.45-0.58-2.41c0-1.28,0.18-2.29,0.54-3.11
		c0.38-0.78,0.85-1.39,1.39-1.87c0.55-0.44,1.19-0.74,1.87-0.91c0.68-0.14,1.35-0.24,2.03-0.24c1.25,0,2.41,0.24,3.42,0.71
		c1.01,0.48,1.69,1.15,2.07,2.03c0.38,1.09,0.95,1.59,1.69,1.59c0.75,0,1.25-0.3,1.59-0.94c0.31-0.61,0.48-1.29,0.48-1.97
		c0-1.33-0.34-2.47-0.98-3.46c-0.65-0.94-1.43-1.75-2.37-2.43c-0.95-0.68-2-1.19-3.08-1.53c-1.09-0.34-2.14-0.5-3.12-0.5
		c-1.19,0-2.37,0.2-3.56,0.6c-1.19,0.41-2.23,1.05-3.18,1.97c-0.95,0.95-1.69,2.13-2.27,3.62c-0.58,1.49-0.85,3.28-0.85,5.41
		C1526.75,464.05,1527.66,466.69,1529.49,468.48z"/>
	<path class="st2" d="M1563.94,491.63c0,0.8,0.2,1.49,0.6,2.03c0.41,0.54,0.95,0.81,1.57,0.81c0.6,0,1.11-0.28,1.52-0.81
		c0.41-0.54,0.65-1.19,0.65-1.97v-21.04h21.67v21.04c0,0.78,0.2,1.43,0.6,1.97c0.41,0.54,0.95,0.81,1.57,0.81
		c0.6,0,1.11-0.28,1.52-0.81c0.41-0.54,0.65-1.23,0.65-2.03v-52.8c0-0.78-0.24-1.45-0.65-1.99c-0.4-0.54-0.91-0.85-1.52-0.85
		c-0.61,0-1.15,0.28-1.57,0.81c-0.4,0.54-0.6,1.21-0.6,1.99v25.35h-21.67v-25.35c0-0.78-0.24-1.45-0.65-1.99
		c-0.4-0.54-0.91-0.81-1.52-0.81c-0.61,0-1.15,0.31-1.57,0.85c-0.4,0.54-0.6,1.21-0.6,1.99V491.63z"/>
	<path class="st2" d="M1604.46,468.48c0.24-1.83,0.71-3.52,1.39-5.11c0.68-1.59,1.53-2.98,2.54-4.13c1.01-1.15,2.13-2.07,3.42-2.74
		s2.64-1.01,4.1-1.01c1.43,0,2.74,0.34,4.03,1.01c1.29,0.68,2.44,1.59,3.46,2.74c1.01,1.15,1.85,2.54,2.57,4.13
		c0.68,1.59,1.15,3.28,1.43,5.11H1604.46z M1629.63,474.97c0.48,0,0.91-0.23,1.35-0.74c0.41-0.5,0.65-1.25,0.65-2.23
		c0-3.18-0.45-6.13-1.33-8.91c-0.88-2.77-1.99-5.21-3.42-7.3c-1.42-2.1-3.08-3.76-4.97-4.97c-1.9-1.23-3.87-1.83-5.9-1.83
		c-2.23,0.13-4.33,0.8-6.26,2.03c-1.93,1.21-3.58,2.87-5.01,4.9c-1.42,2.04-2.51,4.43-3.32,7.15c-0.81,2.73-1.18,5.67-1.18,8.79
		c0,3.28,0.4,6.29,1.22,9.07c0.81,2.77,1.97,5.15,3.38,7.14c1.43,2.03,3.08,3.58,4.99,4.7c1.89,1.15,3.92,1.7,6.09,1.7
		c2.3,0,4.37-0.45,6.2-1.39c1.79-0.91,3.42-2.47,4.84-4.71c0.38-0.54,0.58-1.18,0.58-1.95c0-0.75-0.2-1.43-0.58-1.97
		c-0.4-0.54-0.88-0.81-1.42-0.81c-0.58,0-1.05,0.24-1.43,0.64c-1.08,1.15-2.33,2.07-3.72,2.72c-1.39,0.68-2.88,0.98-4.47,0.98
		c-1.45,0-2.84-0.3-4.13-0.98c-1.28-0.69-2.43-1.59-3.44-2.74c-1.01-1.15-1.9-2.51-2.58-4.1c-0.71-1.59-1.15-3.32-1.35-5.19
		L1629.63,474.97L1629.63,474.97z"/>
	<path class="st2" d="M1637.96,491.55c0,0.81,0.2,1.53,0.61,2.07c0.4,0.58,0.94,0.85,1.55,0.85s1.11-0.28,1.53-0.81
		c0.4-0.54,0.64-1.23,0.64-2.03v-20.34c0.04-2.07,0.38-4.06,1.01-5.95c0.61-1.9,1.45-3.6,2.48-5.09c1.01-1.45,2.17-2.61,3.52-3.48
		c1.35-0.85,2.81-1.29,4.36-1.29c0.68,0,1.25-0.3,1.67-0.94c0.4-0.61,0.61-1.39,0.61-2.3c0-0.88-0.21-1.65-0.61-2.3
		c-0.41-0.6-0.99-0.94-1.67-0.94c-2.29,0-4.43,0.7-6.36,2.09c-1.97,1.43-3.62,3.22-5.01,5.39v-4.57c0-0.81-0.24-1.49-0.64-2.07
		c-0.41-0.54-0.91-0.84-1.53-0.84s-1.15,0.3-1.55,0.84c-0.41,0.58-0.61,1.25-0.61,2.07L1637.96,491.55L1637.96,491.55z"/>
	<path class="st2" d="M1665.21,471.76c0.04-2.34,0.38-4.5,1.05-6.5c0.68-1.97,1.53-3.68,2.61-5.15c1.05-1.45,2.27-2.61,3.7-3.41
		c1.42-0.81,2.91-1.23,4.53-1.23c1.63,0,3.18,0.44,4.65,1.29c1.45,0.85,2.74,1.99,3.82,3.48c1.09,1.49,1.93,3.22,2.54,5.19
		c0.6,1.99,0.94,4.1,0.94,6.33c0,2.23-0.34,4.33-0.94,6.29c-0.61,1.97-1.45,3.7-2.54,5.19c-1.08,1.49-2.37,2.63-3.82,3.48
		c-1.47,0.84-3.02,1.25-4.65,1.25s-3.12-0.41-4.53-1.21c-1.43-0.81-2.64-1.9-3.7-3.28c-1.08-1.39-1.93-3.02-2.61-4.91
		c-0.68-1.87-1.01-3.9-1.05-6.06V471.76z M1660.88,491.63c0,0.8,0.21,1.49,0.61,2.03c0.4,0.54,0.95,0.81,1.55,0.81
		c0.61,0,1.13-0.28,1.53-0.85c0.4-0.54,0.64-1.22,0.64-2.03v-4.3c1.47,2.23,3.22,4,5.29,5.27c2.03,1.29,4.27,1.9,6.7,1.9
		c2.27,0,4.37-0.58,6.34-1.8c1.97-1.18,3.66-2.81,5.11-4.87c1.45-2.05,2.61-4.46,3.46-7.2c0.84-2.71,1.28-5.62,1.28-8.73
		c0-3.12-0.44-6.06-1.32-8.83c-0.88-2.78-2.03-5.19-3.52-7.24c-1.49-2.07-3.18-3.73-5.11-4.95c-1.93-1.21-3.97-1.85-6.1-1.85
		c-2.51,0.13-4.81,1.01-6.84,2.63c-2.07,1.67-3.82,3.6-5.29,5.82v-18.88c0-0.71-0.24-1.33-0.64-1.83c-0.4-0.48-0.91-0.75-1.53-0.75
		c-0.6,0-1.15,0.31-1.55,0.85c-0.4,0.54-0.61,1.21-0.61,1.99V491.63z"/>
	<path class="st2" d="M1719.84,456.77c1.45,0.85,2.74,1.99,3.82,3.48c1.09,1.49,1.93,3.22,2.54,5.19c0.61,1.99,0.95,4.1,0.95,6.33
		c0,2.23-0.34,4.33-0.95,6.29c-0.61,1.97-1.45,3.7-2.54,5.19c-1.08,1.49-2.37,2.63-3.82,3.48c-1.45,0.84-3.02,1.25-4.65,1.25
		c-1.65,0-3.21-0.41-4.63-1.25c-1.42-0.85-2.67-1.99-3.76-3.48c-1.08-1.49-1.97-3.22-2.57-5.19c-0.61-1.95-0.91-4.06-0.91-6.29
		c0-2.23,0.3-4.33,0.91-6.33c0.6-1.97,1.49-3.7,2.57-5.19c1.09-1.49,2.34-2.63,3.76-3.48c1.43-0.85,2.98-1.29,4.63-1.29
		C1716.82,455.48,1718.39,455.92,1719.84,456.77z M1708.83,451.02c-1.99,1.21-3.72,2.87-5.17,4.9c-1.47,2.04-2.62,4.43-3.42,7.15
		c-0.85,2.73-1.25,5.67-1.25,8.79c0,3.28,0.4,6.29,1.28,9.07c0.85,2.77,2,5.15,3.49,7.14c1.49,2.03,3.18,3.58,5.15,4.7
		c1.95,1.15,4.06,1.7,6.29,1.7c2.28,0,4.41-0.58,6.38-1.8c1.95-1.18,3.68-2.81,5.15-4.87c1.45-2.05,2.61-4.46,3.48-7.2
		c0.85-2.71,1.29-5.62,1.29-8.73c0-3.12-0.44-6.06-1.33-8.83c-0.88-2.78-2.07-5.19-3.56-7.24c-1.48-2.07-3.18-3.73-5.14-4.95
		c-1.97-1.22-4-1.85-6.14-1.85C1713,449.12,1710.83,449.79,1708.83,451.02z"/>
	<path class="st2" d="M1737.08,491.63c0,0.8,0.2,1.49,0.61,2.03c0.4,0.54,0.94,0.81,1.55,0.81s1.11-0.28,1.53-0.81
		c0.4-0.54,0.64-1.23,0.64-2.03v-52.8c0-0.78-0.24-1.45-0.64-1.99c-0.41-0.54-0.91-0.85-1.53-0.85s-1.15,0.31-1.55,0.85
		c-0.41,0.54-0.61,1.21-0.61,1.99V491.63z"/>
	<path class="st2" d="M1776.22,478.26c-0.64,1.95-1.49,3.65-2.57,5.1c-1.09,1.47-2.34,2.58-3.77,3.39c-1.42,0.8-2.91,1.22-4.5,1.22
		c-1.67,0-3.22-0.41-4.63-1.25c-1.43-0.85-2.68-1.99-3.77-3.48c-1.08-1.49-1.95-3.22-2.57-5.19c-0.61-1.95-0.91-4.06-0.91-6.29
		s0.3-4.33,0.91-6.33c0.61-1.97,1.49-3.7,2.57-5.19c1.09-1.49,2.34-2.63,3.77-3.48c1.42-0.85,2.97-1.29,4.63-1.29
		c1.63,0,3.18,0.44,4.63,1.29c1.45,0.85,2.74,1.99,3.83,3.48c1.08,1.49,1.93,3.22,2.53,5.19c0.61,1.99,0.95,4.1,0.95,6.33
		C1777.24,474.13,1776.86,476.3,1776.22,478.26z M1777.34,491.55c0,0.81,0.2,1.53,0.61,2.07c0.4,0.58,0.95,0.85,1.55,0.85
		c0.61,0,1.11-0.28,1.53-0.85c0.4-0.54,0.64-1.25,0.64-2.07v-19.79c0-3.12-0.44-6.03-1.32-8.81c-0.89-2.73-2.07-5.14-3.56-7.2
		c-1.49-2.07-3.18-3.72-5.15-4.94c-1.97-1.23-4-1.83-6.13-1.83c-2.34,0-4.51,0.6-6.5,1.79c-2,1.22-3.73,2.84-5.19,4.91
		c-1.45,2.05-2.61,4.5-3.42,7.27c-0.85,2.82-1.25,5.79-1.25,8.91c0,3.28,0.4,6.29,1.25,9.07c0.85,2.77,2,5.15,3.48,7.14
		c1.49,2.03,3.19,3.58,5.12,4.7c1.93,1.15,4.02,1.7,6.26,1.7c2.41,0,4.63-0.85,6.74-2.54c2.07-1.69,3.82-3.72,5.31-6.09V491.55z"/>
	<path class="st2" d="M1787.26,491.55c0,0.81,0.21,1.53,0.61,2.07c0.4,0.58,0.95,0.85,1.55,0.85c0.61,0,1.13-0.28,1.53-0.81
		c0.4-0.54,0.64-1.23,0.64-2.03v-20.34c0.04-2.07,0.38-4.06,1.01-5.95c0.61-1.9,1.47-3.6,2.48-5.09c1.01-1.45,2.17-2.61,3.52-3.48
		c1.35-0.85,2.81-1.29,4.37-1.29c0.68,0,1.25-0.3,1.65-0.94c0.41-0.61,0.61-1.39,0.61-2.3c0-0.88-0.2-1.65-0.61-2.3
		c-0.4-0.6-0.98-0.94-1.65-0.94c-2.3,0-4.43,0.7-6.38,2.09c-1.95,1.43-3.62,3.22-5.01,5.39v-4.57c0-0.81-0.24-1.49-0.64-2.07
		c-0.4-0.54-0.91-0.84-1.53-0.84c-0.6,0-1.15,0.3-1.55,0.84c-0.4,0.58-0.61,1.25-0.61,2.07L1787.26,491.55L1787.26,491.55z"/>
	<path class="st2" d="M1811.13,441.24c0.51,0.85,1.15,1.25,1.9,1.25c0.7,0,1.32-0.4,1.85-1.25c0.55-0.85,0.81-1.87,0.81-3.08
		c0-1.18-0.26-2.19-0.81-3.04c-0.54-0.85-1.15-1.29-1.85-1.29c-0.75,0-1.39,0.44-1.9,1.29c-0.54,0.85-0.78,1.87-0.78,3.04
		C1810.35,439.37,1810.59,440.39,1811.13,441.24z M1810.19,491.59c0,0.81,0.2,1.49,0.6,2.03c0.41,0.58,0.95,0.85,1.57,0.85
		c0.6,0,1.11-0.28,1.52-0.85c0.41-0.54,0.65-1.22,0.65-2.03v-39.5c0-0.81-0.24-1.49-0.65-2.03c-0.4-0.54-0.91-0.84-1.52-0.84
		c-0.61,0-1.15,0.3-1.57,0.84c-0.4,0.54-0.6,1.21-0.6,2.03V491.59z"/>
	<path class="st2" d="M1840.97,456.77c1.45,0.85,2.74,1.99,3.82,3.48c1.09,1.49,1.93,3.22,2.54,5.19c0.61,1.99,0.95,4.1,0.95,6.33
		c0,2.23-0.34,4.33-0.95,6.29c-0.61,1.97-1.45,3.7-2.54,5.19c-1.08,1.49-2.37,2.63-3.82,3.48c-1.45,0.84-3.02,1.25-4.63,1.25
		c-1.67,0-3.22-0.41-4.65-1.25c-1.42-0.85-2.67-1.99-3.76-3.48c-1.08-1.49-1.97-3.22-2.57-5.19c-0.61-1.95-0.91-4.06-0.91-6.29
		c0-2.23,0.3-4.33,0.91-6.33c0.6-1.97,1.49-3.7,2.57-5.19c1.09-1.49,2.34-2.63,3.76-3.48c1.43-0.85,2.98-1.29,4.65-1.29
		C1837.95,455.48,1839.52,455.92,1840.97,456.77z M1829.96,451.02c-1.99,1.21-3.72,2.87-5.17,4.9c-1.47,2.04-2.61,4.43-3.42,7.15
		c-0.85,2.73-1.25,5.67-1.25,8.79c0,3.28,0.4,6.29,1.28,9.07c0.85,2.77,2,5.15,3.49,7.14c1.49,2.03,3.18,3.58,5.15,4.7
		c1.97,1.15,4.06,1.7,6.3,1.7c2.27,0,4.4-0.58,6.36-1.8c1.97-1.18,3.68-2.81,5.15-4.87c1.45-2.05,2.61-4.46,3.48-7.2
		c0.85-2.71,1.29-5.62,1.29-8.73c0-3.12-0.44-6.06-1.33-8.83c-0.88-2.78-2.07-5.19-3.54-7.24c-1.49-2.07-3.19-3.73-5.15-4.95
		c-1.97-1.22-4-1.85-6.14-1.85C1834.13,449.12,1831.96,449.79,1829.96,451.02z"/>
	<path class="st2" d="M1863.11,468.48c1.83,1.83,4.27,3.04,7.24,3.66c2.07,0.44,3.8,1.35,5.22,2.77c1.42,1.43,2.13,3.12,2.13,5.15
		c0,2.51-0.74,4.46-2.23,5.85c-1.49,1.39-3.32,2.07-5.42,2.07c-1.53,0-2.98-0.51-4.33-1.59c-1.35-1.09-2.33-2.64-2.88-4.73
		c-0.24-0.71-0.54-1.29-0.91-1.69c-0.36-0.41-0.78-0.65-1.25-0.65c-0.6,0-1.11,0.34-1.45,1.01c-0.38,0.68-0.54,1.43-0.54,2.3
		c0,0.4,0,0.71,0.06,0.91c0.68,3.42,2.03,6.09,4.1,8.02c2.07,1.97,4.47,2.92,7.22,2.92c1.59,0,3.12-0.31,4.53-0.95
		c1.43-0.64,2.68-1.55,3.8-2.74c1.11-1.18,2-2.61,2.68-4.3c0.64-1.69,0.98-3.52,0.98-5.55c0-1.99-0.3-3.76-0.91-5.31
		c-0.61-1.53-1.39-2.84-2.41-3.93c-1.01-1.08-2.2-1.99-3.56-2.71c-1.35-0.68-2.77-1.21-4.3-1.59c-0.68-0.2-1.39-0.4-2.1-0.64
		c-0.74-0.24-1.38-0.58-1.99-1.05c-0.61-0.48-1.09-1.01-1.49-1.69c-0.41-0.68-0.58-1.45-0.58-2.41c0-1.28,0.16-2.29,0.54-3.11
		c0.38-0.78,0.85-1.39,1.39-1.87c0.54-0.44,1.19-0.74,1.87-0.91c0.68-0.14,1.35-0.24,2.03-0.24c1.25,0,2.41,0.24,3.42,0.71
		c1.01,0.48,1.69,1.15,2.07,2.03c0.38,1.09,0.95,1.59,1.69,1.59s1.25-0.3,1.59-0.94c0.3-0.61,0.48-1.29,0.48-1.97
		c0-1.33-0.34-2.47-0.98-3.46c-0.65-0.94-1.43-1.75-2.38-2.43c-0.94-0.68-1.99-1.19-3.08-1.53c-1.08-0.34-2.13-0.5-3.11-0.5
		c-1.19,0-2.38,0.2-3.56,0.6c-1.19,0.41-2.24,1.05-3.18,1.97c-0.95,0.95-1.7,2.13-2.27,3.62c-0.58,1.49-0.85,3.28-0.85,5.41
		C1860.37,464.05,1861.29,466.69,1863.11,468.48z"/>
</g>
<path class="st0" d="M203.16,154.01c-2.76,0.16-5.54,0.14-8.29,0.2c3.08,4.03,6.18,8.08,8.51,12.63c1.7-4.96,4.27-9.54,6.44-14.29
	C207.74,153.61,205.35,153.36,203.16,154.01z M257.32,276.52c93.18-36.5,150.11-73.42,146.08-144.53C399.37,60.79,334.32,5,255.34,5
	c-3.17,0-6.39,0.09-9.56,0.28C108.88,13.02,4.69,145.93,13.52,301.56c4.11,72.58,31.82,140.39,78.03,190.96
	c10.38,11.36,21.46,21.58,33.09,30.59c-16.95-22.51-27.32-49.18-28.97-78.25C90.3,350.07,176.29,308.27,257.32,276.52z
	 M180.62,40.34c11.37-5.54,24.75-6.79,36.93-3.41c15.56,4.05,28.84,15.33,35.89,29.76c0.73,1.87,1.53,3.68,2.39,5.47
	c0.4,1.44,0.83,2.86,1.22,4.31c0.81,2.32,1.35,4.71,1.55,7.16c1.19,5.85,0.53,11.9,0.36,17.82l-0.41,0.08
	c-0.11,1.45-0.24,2.93-0.65,4.33c-0.28,1.06-0.5,2.13-0.76,3.19c-0.43,1.38-0.88,2.76-1.34,4.12c-0.54,1.35-1.06,2.71-1.54,4.08
	c-0.78,1.59-1.62,3.14-2.46,4.71c-3.21,5.89-7.39,11.24-12.3,15.8c-3.58,2.98-7.23,5.87-10.81,8.86
	c-10.41,9.29-17.05,22.8-17.92,36.78c-0.86,12.45,2.92,25.23,10.58,35.06c8.27,10.95,21.34,18.1,35.01,18.94
	c11.2,0.83,22.65-2.67,31.44-9.7c10.72-8.32,17.19-21.93,16.67-35.55c-0.23-14.82-9.27-29.04-22.6-35.4
	c-1.32-0.53-2.63-1.04-3.93-1.54c-0.81-0.26-1.62-0.53-2.41-0.79c-5.22-1.23-10.72-1.59-16-0.53c-2.52,0.35-4.92,1.23-7.32,2.04
	c-10.01,4.3-17.99,13.43-20.12,24.25c-2.89,12.35,2.66,26.46,13.8,32.72c8.14,4.92,19.04,5.05,27.09-0.14
	c8.89-5.35,13.35-17.51,9.22-27.21c-2.68-6.84-9.76-12.05-17.21-11.47c-5.85,0.13-11.05,4.41-12.94,9.88
	c-0.06,2.54-0.58,5.34,0.83,7.63c1.4,2.82,4.42,5,7.65,4.71c2.22-0.39,4.87-2.42,3.98-4.97c-1.47-1.35-4.01-1.72-3.95-4.18
	c1.18-1.48,2.62-2.73,4.42-3.38c2.51,0.34,5.12,1.19,6.63,3.41c2.41,2.92,2.24,7.01,1.35,10.48c-1.8,4-5.36,6.84-9.47,8.19
	c-5.4,1.06-11.32-0.23-15.34-4.13c-3.38-2.81-5.07-6.98-6.29-11.07c-0.38-3.62-0.03-7.22,0.85-10.73c1.3-2.58,2.41-5.32,4.27-7.55
	c2.28-2.86,5.39-4.86,8.57-6.56c1.6-0.56,3.23-1.1,4.86-1.62c3.62-0.64,7.39-0.75,11.01,0.04c1.04,0.26,2.08,0.5,3.13,0.75
	c5.94,2.24,11.27,6.21,14.66,11.66c5.09,7.84,6.26,18.04,3.32,26.91c-2.84,8.91-9.65,16.37-18.1,20.24
	c-8.41,3.96-18.36,4.31-27.09,1.23c-9.26-3.21-17.11-10.16-21.62-18.88c-5.35-10.12-6.14-22.47-2.37-33.27
	c4.12-12.26,13.97-22.16,25.85-26.97c0.83-0.26,1.65-0.48,2.48-0.69c1.04-0.39,2.1-0.74,3.14-1.13c1.55-0.21,3.09-0.43,4.58-0.89
	c4.57-0.4,9.16-0.31,13.73,0.01c1.5,0.44,3.03,0.75,4.55,1.16c1.06,0.24,2.13,0.5,3.18,0.81c1.34,0.53,2.69,1.03,4.06,1.52
	c1.38,0.69,2.73,1.4,4.11,2.1c11.86,6.5,20.67,18.15,24.08,31.24c2.69,10.2,2.25,21.23-1.29,31.17
	c-4.27,12.43-13.32,23.04-24.68,29.49c-10.48,5.97-22.91,8.43-34.86,6.83c-22.94-2.62-42.94-20.28-49.33-42.43
	c-2.37-7.09-2.42-14.68-4.33-21.86c-3.49-13.69-12.7-25.73-24.83-32.87c-3.11-1.75-6.38-3.18-9.73-4.37
	c-1.05-0.33-2.12-0.59-3.17-0.84c-4.84-1.63-9.97-1.54-14.99-1.47c-2.12,0.04-4.28,0.04-6.35,0.64c-1.06,0.18-2.14,0.34-3.22,0.49
	c-3.19,1.08-6.46,1.98-9.47,3.54c-11.46,5.42-20.61,15.63-24.63,27.72c-2.97,8.66-3.29,18.21-0.84,27.04
	c3.06,11.14,10.6,21.08,20.79,26.56c9.29,5.15,20.66,6.45,30.83,3.33c9.96-2.92,18.56-10.18,23.11-19.55
	c4.1-8.34,4.82-18.34,1.75-27.14c-2.76-8.34-8.97-15.37-16.85-19.15l-3.32-1.33c-1.05-0.29-2.1-0.54-3.16-0.81
	c-4.13-0.83-8.46-0.8-12.59-0.06c-1.05,0.31-2.09,0.59-3.14,0.89c-8.57,2.93-15.38,10.2-17.72,18.98c-0.2,1.63-0.44,3.24-0.83,4.82
	c-0.09,6.64,2.22,13.35,6.98,18.05c5.17,5.2,13.3,7.64,20.32,5.15c4.99-1.52,9.03-5.55,10.87-10.4c1.59-5.24,0.54-11.61-3.92-15.14
	c-3.81-3.36-11.07-3.23-13.55,1.7c-0.79,2.02-0.84,5.71,1.95,6.08c1.44,0.35,2.25-1.03,3.14-1.85c2.2,0.26,3.93,2.32,3.39,4.6
	c-0.58,4.6-5.94,6.49-10,5.72c-3.77-1.32-6.83-4.2-8.12-8.03c-0.21-1.14-0.49-2.27-0.81-3.39c0.15-1.93,0.53-3.83,0.8-5.74
	c2.27-6.13,8-10.8,14.49-11.46c2.39-0.24,4.79-0.06,7.14,0.38c9.19,2.43,16.1,11.35,16.42,20.83c0.74,9.91-4.97,19.73-13.58,24.44
	c-6.9,3.9-15.41,4.77-22.95,2.35c-11.3-3.37-19.99-13.6-22.1-25.18c-3.36-15.86,5.71-32.89,20.14-39.81
	c1.29-0.59,2.59-1.16,3.91-1.69l2.39-0.81c1.06-0.29,2.14-0.5,3.21-0.74c6.03-1.09,12.33-0.89,18.3,0.51c1,0.36,2,0.7,3.01,1.08
	c0.8,0.29,1.59,0.58,2.38,0.86l3.19,1.58c10.17,5.32,17.82,15.06,21.01,26.12c3.92,13,1.47,27.67-6.15,38.87
	c-6.38,9.78-16.61,16.82-27.82,19.79c-11.91,3.18-24.96,1.7-35.89-4.02c-10.9-5.57-19.73-15.12-24.51-26.44
	c-9.03-20.2-4.23-45.39,11.01-61.25c3.86-4.17,8.32-7.79,13.24-10.62c1.72-1.04,3.51-1.95,5.34-2.78c1.65-0.7,3.29-1.42,4.97-2.07
	c2.09-0.58,4.17-1.15,6.24-1.85c1.59-0.19,3.19-0.4,4.73-0.84c6.13-0.61,12.33-0.45,18.45,0.01c1.28,0.35,2.57,0.64,3.86,0.91
	c3.29,0.75,6.49,1.83,9.63,3.06c0.99,0.4,1.99,0.8,2.98,1.22c1.13,0.4,2.24,0.83,3.36,1.22c0.99,0.41,1.97,0.8,2.96,1.22
	c3.83,0.88,7.62,2.19,11.61,1.97l0.08,0.5c3.31,0.03,6.63,0.06,9.93-0.14c1.55-0.5,3.18-0.61,4.8-0.84c1.06-0.28,2.15-0.49,3.24-0.7
	c1.24-0.43,2.49-0.79,3.75-1.18c1.7-0.55,3.34-1.28,5-1.99c10.11-4.67,18.68-12.66,23.95-22.53c2.03-3.78,3.58-7.84,4.55-12.05
	c0.26-1.08,0.5-2.17,0.78-3.24c0.65-5.24,0.93-10.66-0.05-15.86c-0.25-1.55-0.43-3.13-0.79-4.66l-0.81-2.42
	c-3.53-11.92-12.2-22.21-23.26-27.81c-10.28-5.27-22.67-6.29-33.62-2.51c-13.75,4.48-24.63,16.71-27.32,31.01
	c-0.74,4.71-0.74,9.57-0.01,14.29c2.44,13.57,12.93,25.45,26.36,28.75c1.32,0.28,2.66,0.49,4,0.71c2.56,0.49,5.21,0.55,7.78,0.06
	c2.43-0.29,4.81-0.8,7.13-1.58c1.34-0.55,2.67-1.11,4-1.72c5.97-3.23,11.06-8.3,13.9-14.56c3.32-7.14,3.61-15.75,0.45-22.99
	c-2.34-5.42-6.5-10.05-11.74-12.75c-7.29-3.9-16.79-3.43-23.51,1.45c-5.39,3.78-8.84,10.45-8.18,17.1
	c0.33,5.81,4.06,11.17,9.32,13.58c1.06,0.29,2.13,0.58,3.18,0.89c1.3,0.08,2.61,0.09,3.92,0.05c4.57-0.99,8.94-4.76,8.83-9.76
	c0.18-3.43-3.06-7.13-6.64-5.89c-1.72,0.96-1.08,2.94-0.75,4.47c-0.86,1.01-1.95,2.05-3.42,1.68c-3.8-0.86-5.45-5.56-4.1-8.99
	c2.03-5.8,9.27-8.34,14.77-6.15c6.14,2.1,10.18,8.51,10.16,14.93c0.21,7.99-5.27,15.28-12.45,18.34c-0.81,0.25-1.63,0.53-2.43,0.8
	c-1.83,0.53-3.73,0.54-5.6,0.65c-2.39,0.66-4.77-0.2-7.1-0.7l-1.73-0.51c-6.01-2.49-11.1-7.24-13.83-13.19
	c-4.05-8.58-3.24-19.2,1.87-27.16c4.1-6.69,10.89-11.52,18.4-13.55c9.43-2.61,19.89-0.55,27.91,5.04c8,5.46,13.38,14.37,15.12,23.87
	c1.92,11.12-1.2,22.9-8.28,31.64c-3.52,4.56-8.17,8.07-13.14,10.86c-1.83,0.8-3.65,1.64-5.49,2.39c-0.83,0.24-1.64,0.49-2.44,0.76
	c-2.24,0.63-4.52,1.09-6.84,1.22l-0.05,0.43c-3.02-0.08-6.08,0.36-9.04-0.34c-1.88-0.16-3.77-0.29-5.57-0.85
	c-0.84-0.15-1.68-0.3-2.51-0.44c-0.99-0.4-1.97-0.8-2.94-1.19c-1.35-0.45-2.68-0.99-3.98-1.59c-10.63-5.11-18.81-14.51-23.17-25.43
	c-0.24-0.81-0.48-1.63-0.71-2.44c-2.63-7.59-2.74-15.88-1.62-23.77c0.25-1.08,0.48-2.15,0.75-3.22c0.26-1.05,0.51-2.1,0.81-3.14
	C158.21,57.61,168.05,46.29,180.62,40.34z"/>
<path class="st3" d="M475.11,53.31c17.3,22.62,27.82,49.62,29.5,79.28c5.37,94.77-80.62,136.59-161.65,168.33
	c-93.17,36.5-150.11,73.42-146.08,144.51c0.11,1.92,0.25,3.75,0.41,5.52c-0.16,18.36,4.25,32.57,17.31,51.04
	c40.96-11.07,71.52-18.24,105.35-41.02c12.35-27.36,6.3-43.37,2.42-70.43c0,0,23.59,33.96,9.93,65.22
	c34.46-14.33,42.35-23.39,63.72-39.73c4.08-8.99,27.31-42.33-1.9-90.39c0,0,36.36,50.67,14.25,80.62
	c43.57-33.21,62.43-56,82.59-85.3c3.19-10.36,2.92-30.15-4.07-46.76c0,0,16.79,19.45,10.57,38.94
	c39.41-51.77,42.91-104.21,42.91-104.21c2.59,55.37-43.44,124.45-68.93,151.09c17.92-4.41,44.17,8.51,53.32,13.68
	c0,0-44.22-13.68-60.48-3.26c-23.87,24.19-44.28,45.07-68.92,63.82c34.16-5.57,61.13,24.1,61.13,24.1
	c-30.56-18.89-53-18.03-72.18-13.68c-51.52,37.18-109.89,57.96-158.01,72.94c0.88,0.96,4.85,8.1,5.75,9.06
	c11.29,11.95,23.94,20.89,37.52,27.21c22.11,11.8,47.89,18.54,75.36,18.54c3.17,0,6.39-0.09,9.57-0.26
	c66.01-3.75,126.53-36.43,170.37-92.03c44.2-56.05,66.18-128.61,61.89-204.26C581.46,182.32,538.06,101.34,475.11,53.31z
	 M539.86,188.28l-0.15-2.73l0.45,2.42L539.86,188.28z"/>
</svg>
