<?xml version="1.0" encoding="utf-8"?>
<!-- Generator: Adobe Illustrator 25.4.1, SVG Export Plug-In . SVG Version: 6.00 Build 0)  -->
<svg version="1.1" xmlns="http://www.w3.org/2000/svg" xmlns:xlink="http://www.w3.org/1999/xlink" x="0px" y="0px"
	 viewBox="0 0 1909 577" style="enable-background:new 0 0 1909 577;" xml:space="preserve">
<style type="text/css">
	.st0{fill:#FFFFFF;}
	.st1{display:none;}
	.st2{display:inline;fill-rule:evenodd;clip-rule:evenodd;fill:#94B551;}
	.st3{fill-rule:evenodd;clip-rule:evenodd;fill:#86008F;}
	.st4{fill-rule:evenodd;clip-rule:evenodd;fill:#94B551;}
</style>
<g id="Capa_2">
	<path class="st0" d="M1668.4,533.8H240.6C108.5,533.8,1.4,426.6,1.4,294.5v-12c0-132.1,107.1-239.2,239.2-239.2h1427.8
		c132.1,0,239.2,107.1,239.2,239.2v12C1907.6,426.6,1800.5,533.8,1668.4,533.8z"/>
</g>
<g id="Capa_1">
	<g class="st1">
		<path class="st2" d="M665.1,491.2c0,0.1,0,0.2,0,0.3c0,0.1,0,0.1,0,0.2c0,0.7,0.2,1.4,0.5,1.8c0.4,0.5,0.9,0.8,1.5,0.9
			c0.5,0,0.9-0.2,1.3-0.7c0.4-0.5,0.6-1,0.7-1.8l4.3-42.5l12.3,42.9c0.1,0.5,0.4,1,0.7,1.4c0.3,0.5,0.8,0.7,1.2,0.7
			c0.4,0,0.8-0.2,1.2-0.6c0.3-0.4,0.6-0.9,0.8-1.5l12-42.4l3.6,42.2c0.1,0.7,0.3,1.2,0.7,1.7c0.4,0.5,0.9,0.7,1.5,0.7
			c0.5,0,0.9-0.2,1.2-0.8c0.3-0.5,0.5-1.1,0.5-1.9v-0.5l-4.5-52.8c-0.1-0.8-0.3-1.4-0.7-1.8c-0.4-0.5-0.8-0.8-1.3-0.8
			c-0.9,0-1.5,0.6-1.8,1.7l-13.1,46.2l-13.2-46.2c-0.3-1.1-1-1.7-1.9-1.7c-0.5,0-1,0.2-1.3,0.7c-0.4,0.5-0.6,1-0.7,1.6L665.1,491.2z
			"/>
		<path class="st2" d="M720.1,468.5c0.2-1.8,0.7-3.5,1.4-5.1s1.5-3,2.5-4.1c1-1.1,2.1-2.1,3.4-2.7c1.3-0.7,2.6-1,4.1-1
			c1.4,0,2.7,0.3,4,1c1.3,0.7,2.4,1.6,3.5,2.7c1,1.1,1.9,2.5,2.6,4.1c0.7,1.6,1.2,3.3,1.4,5.1H720.1z M745.2,475
			c0.5,0,0.9-0.2,1.3-0.7c0.4-0.5,0.6-1.2,0.6-2.2c0-3.2-0.4-6.1-1.3-8.9c-0.9-2.8-2-5.2-3.4-7.3c-1.4-2.1-3.1-3.8-5-5
			c-1.9-1.2-3.9-1.8-5.9-1.8c-2.2,0.1-4.3,0.8-6.3,2c-1.9,1.2-3.6,2.9-5,4.9c-1.4,2-2.5,4.4-3.3,7.1c-0.8,2.7-1.2,5.7-1.2,8.8
			c0,3.3,0.4,6.3,1.2,9.1c0.8,2.8,2,5.1,3.4,7.1c1.4,2,3.1,3.6,5,4.7c1.9,1.1,3.9,1.7,6.1,1.7c2.3,0,4.4-0.5,6.2-1.4
			c1.8-0.9,3.4-2.5,4.8-4.7c0.4-0.5,0.6-1.2,0.6-2c0-0.8-0.2-1.4-0.6-2c-0.4-0.5-0.9-0.8-1.4-0.8c-0.6,0-1,0.2-1.4,0.6
			c-1.1,1.1-2.3,2.1-3.7,2.7c-1.4,0.7-2.9,1-4.5,1c-1.5,0-2.8-0.3-4.1-1c-1.3-0.7-2.4-1.6-3.5-2.7c-1-1.1-1.9-2.5-2.6-4.1
			c-0.7-1.6-1.2-3.3-1.3-5.2L745.2,475L745.2,475z"/>
		<path class="st2" d="M780.8,478c-0.6,2-1.5,3.7-2.5,5.2c-1.1,1.5-2.4,2.6-3.8,3.5c-1.4,0.8-3,1.2-4.6,1.2c-1.7,0-3.2-0.4-4.7-1.2
			c-1.5-0.9-2.7-2-3.8-3.5c-1.1-1.5-2-3.2-2.6-5.2c-0.6-2-0.9-4.1-0.9-6.3s0.3-4.3,0.9-6.3c0.6-2,1.5-3.7,2.6-5.2
			c1.1-1.5,2.3-2.6,3.8-3.5c1.5-0.9,3-1.3,4.7-1.3c1.6,0,3.1,0.4,4.5,1.2c1.4,0.8,2.6,2,3.7,3.4c1,1.5,1.9,3.2,2.5,5.1
			c0.6,2,1,4.2,1.1,6.5C781.7,474,781.4,476.1,780.8,478z M781.7,457.5c-1.5-2.2-3.3-4.2-5.3-5.9c-2.1-1.7-4.3-2.6-6.8-2.7
			c-2.2,0-4.2,0.6-6.1,1.9s-3.6,2.9-5.1,5c-1.5,2-2.6,4.5-3.5,7.2c-0.9,2.8-1.3,5.7-1.3,8.8c0,3.1,0.4,6,1.3,8.7
			c0.8,2.7,2,5.1,3.5,7.2c1.5,2.1,3.2,3.7,5.2,4.9c2,1.2,4.1,1.8,6.4,1.8c2.2,0,4.3-0.5,6.3-1.7c2-1.1,3.7-2.7,5.2-4.8l0.6-0.9
			l-0.2,4.4c0,0.8,0.2,1.5,0.6,2.1c0.4,0.6,1,0.9,1.6,0.9c0.6,0,1.1-0.3,1.5-0.8c0.4-0.5,0.7-1.2,0.7-2v-52.8c0-0.8-0.2-1.5-0.7-2
			c-0.4-0.5-0.9-0.9-1.5-0.9c-0.6,0-1.2,0.3-1.6,0.8c-0.4,0.5-0.6,1.1-0.6,1.9L781.7,457.5L781.7,457.5z"/>
		<path class="st2" d="M792.6,441.2c0.5,0.9,1.2,1.2,1.9,1.2c0.7,0,1.3-0.4,1.9-1.2c0.5-0.9,0.8-1.9,0.8-3.1c0-1.2-0.3-2.2-0.8-3
			c-0.5-0.9-1.2-1.3-1.9-1.3c-0.7,0-1.4,0.4-1.9,1.3c-0.5,0.9-0.8,1.9-0.8,3C791.8,439.4,792,440.4,792.6,441.2z M791.7,491.6
			c0,0.8,0.2,1.5,0.6,2c0.4,0.6,0.9,0.9,1.5,0.9s1.1-0.3,1.5-0.9c0.4-0.5,0.6-1.2,0.6-2v-39.5c0-0.8-0.2-1.5-0.6-2
			c-0.4-0.5-0.9-0.8-1.5-0.8s-1.2,0.3-1.5,0.8c-0.4,0.5-0.6,1.2-0.6,2V491.6z"/>
		<path class="st2" d="M811.4,451c-1.9,1.2-3.6,2.9-5.1,4.9c-1.5,2-2.6,4.4-3.5,7.1c-0.9,2.7-1.3,5.7-1.3,8.8c0,3.3,0.4,6.3,1.3,9.1
			c0.9,2.8,2,5.1,3.5,7.1c1.5,2,3.1,3.6,5,4.7c1.9,1.1,3.9,1.7,6.1,1.7c1.9,0,3.5-0.4,5-1.1c1.5-0.8,2.7-1.7,3.7-2.8
			c1-1.1,1.7-2.1,2.2-3.1c0.5-1,0.7-1.7,0.7-2.2c0-0.8-0.2-1.5-0.6-2c-0.4-0.5-0.9-0.8-1.4-0.8c-0.6,0-1,0.3-1.5,0.9
			c-1.1,1.5-2.3,2.7-3.7,3.5c-1.4,0.8-2.9,1.2-4.5,1.2c-1.6,0-3.1-0.4-4.5-1.2c-1.4-0.9-2.6-2-3.7-3.5c-1.1-1.5-1.9-3.2-2.5-5.2
			c-0.6-2-0.9-4.1-0.9-6.3s0.3-4.3,0.9-6.3c0.6-2,1.4-3.7,2.5-5.2c1-1.5,2.3-2.6,3.7-3.5c1.4-0.9,2.9-1.3,4.5-1.3
			c1.6,0,3.1,0.4,4.5,1.2c1.4,0.9,2.6,2,3.7,3.3c0.4,0.6,0.9,0.9,1.5,0.9c0.5,0,0.9-0.2,1.3-0.8c0.4-0.5,0.6-1.1,0.6-1.8
			c0-0.5-0.3-1.2-0.8-2.2c-0.5-1-1.3-2-2.3-3.1c-1-1.1-2.2-2-3.6-2.8c-1.4-0.8-2.9-1.2-4.7-1.2C815.4,449.1,813.3,449.8,811.4,451z"
			/>
		<path class="st2" d="M836.3,441.2c0.5,0.9,1.2,1.2,1.9,1.2c0.7,0,1.3-0.4,1.9-1.2s0.8-1.9,0.8-3.1c0-1.2-0.3-2.2-0.8-3
			s-1.2-1.3-1.9-1.3c-0.7,0-1.4,0.4-1.9,1.3c-0.5,0.9-0.8,1.9-0.8,3C835.5,439.4,835.7,440.4,836.3,441.2z M835.3,491.6
			c0,0.8,0.2,1.5,0.6,2c0.4,0.6,1,0.9,1.5,0.9c0.6,0,1.1-0.3,1.5-0.9c0.4-0.5,0.6-1.2,0.6-2v-39.5c0-0.8-0.2-1.5-0.6-2
			s-0.9-0.8-1.5-0.8c-0.6,0-1.2,0.3-1.5,0.8c-0.4,0.5-0.6,1.2-0.6,2V491.6z"/>
		<path class="st2" d="M845.2,491.5c0,0.8,0.2,1.5,0.6,2.1c0.4,0.6,1,0.9,1.5,0.9c0.6,0,1.1-0.3,1.5-0.8c0.4-0.5,0.7-1.2,0.7-2
			v-25.8c0-1.4,0.2-2.7,0.6-4c0.4-1.2,0.9-2.3,1.6-3.3c0.7-0.9,1.5-1.7,2.4-2.2c0.9-0.5,1.9-0.9,2.9-0.9c1,0,2,0.3,3,0.9
			c0.9,0.5,1.7,1.3,2.4,2.3c0.7,1,1.2,2.1,1.7,3.4c0.4,1.3,0.6,2.7,0.6,4.2v25.4c0,0.8,0.2,1.5,0.6,2c0.4,0.5,1,0.8,1.6,0.8
			c0.6,0,1.1-0.3,1.5-0.9c0.4-0.5,0.7-1.2,0.7-2.1v-25.7c0-2.3-0.3-4.5-0.9-6.6c-0.6-2-1.5-3.8-2.5-5.4c-1.1-1.5-2.3-2.7-3.8-3.6
			c-1.5-0.9-3-1.3-4.6-1.3c-1.5,0-2.9,0.4-4.2,1.2c-1.3,0.8-2.5,1.9-3.5,3.3v-1.4c0-0.9-0.2-1.6-0.7-2.2c-0.4-0.6-0.9-0.9-1.5-0.9
			c-0.6,0-1.1,0.3-1.5,0.8c-0.4,0.6-0.6,1.2-0.6,2.1L845.2,491.5L845.2,491.5z"/>
		<path class="st2" d="M901.7,478.3c-0.7,2-1.5,3.6-2.6,5.1c-1.1,1.5-2.3,2.6-3.8,3.4c-1.4,0.8-2.9,1.2-4.5,1.2
			c-1.7,0-3.2-0.4-4.7-1.2c-1.4-0.9-2.7-2-3.8-3.5c-1.1-1.5-2-3.2-2.6-5.2c-0.6-2-0.9-4.1-0.9-6.3s0.3-4.3,0.9-6.3
			c0.6-2,1.5-3.7,2.6-5.2c1.1-1.5,2.3-2.6,3.8-3.5c1.4-0.9,3-1.3,4.7-1.3c1.6,0,3.2,0.4,4.6,1.3s2.7,2,3.8,3.5
			c1.1,1.5,1.9,3.2,2.5,5.2c0.6,2,1,4.1,1,6.3C902.8,474.1,902.4,476.3,901.7,478.3z M902.9,491.5c0,0.8,0.2,1.5,0.6,2.1
			c0.4,0.6,0.9,0.9,1.5,0.9s1.1-0.3,1.5-0.9c0.4-0.5,0.6-1.2,0.6-2.1v-19.8c0-3.1-0.4-6-1.3-8.8c-0.9-2.7-2-5.1-3.5-7.2
			c-1.5-2.1-3.2-3.7-5.2-4.9c-2-1.2-4-1.8-6.1-1.8c-2.3,0-4.5,0.6-6.5,1.8c-2,1.2-3.7,2.8-5.2,4.9c-1.5,2-2.6,4.5-3.4,7.3
			c-0.8,2.8-1.2,5.8-1.2,8.9c0,3.3,0.4,6.3,1.2,9.1c0.8,2.8,2,5.1,3.5,7.1c1.5,2,3.2,3.6,5.1,4.7c1.9,1.1,4,1.7,6.3,1.7
			c2.4,0,4.7-0.9,6.7-2.5c2.1-1.7,3.8-3.7,5.3-6.1L902.9,491.5L902.9,491.5z"/>
		<path class="st2" d="M948.4,468.5h-14.8l7.4-24L948.4,468.5z M922.9,490.6c-0.1,0.4-0.2,0.7-0.2,1.1c0,0.7,0.2,1.4,0.5,1.9
			c0.4,0.5,0.9,0.8,1.5,0.8c0.4,0,0.8-0.1,1.1-0.5s0.6-0.8,0.8-1.4l5.2-17.7h18.3l5.2,17.7c0.3,1.2,1,1.8,1.9,1.8
			c0.6,0,1.1-0.3,1.4-0.8c0.3-0.5,0.5-1.2,0.5-1.9c0-0.5,0-0.9-0.1-1.1L943,438.1c-0.2-0.5-0.4-1-0.8-1.5c-0.3-0.4-0.8-0.6-1.2-0.6
			c-0.5,0-0.8,0.2-1.2,0.7c-0.3,0.5-0.6,0.9-0.7,1.4L922.9,490.6z"/>
		<path class="st2" d="M965.1,491.6c0,0.8,0.2,1.5,0.6,2c0.4,0.5,1,0.8,1.5,0.8c0.6,0,1.1-0.3,1.5-0.8c0.4-0.5,0.6-1.2,0.6-2v-52.8
			c0-0.8-0.2-1.5-0.6-2c-0.4-0.5-0.9-0.9-1.5-0.9c-0.6,0-1.1,0.3-1.5,0.9c-0.4,0.5-0.6,1.2-0.6,2V491.6z"/>
		<path class="st2" d="M983.7,449h-4.5c-0.6,0-1,0.3-1.5,0.9c-0.4,0.6-0.6,1.4-0.6,2.3c0,0.9,0.3,1.7,0.8,2.3c0.5,0.6,1.2,0.9,2,0.9
			h5.9v36.1c0,0.8,0.1,1.5,0.3,2s0.5,0.8,0.8,0.8c0.3,0,0.5-0.3,0.8-0.8c0.2-0.5,0.3-1.2,0.3-2v-36.1h5.9c0.7,0,1.4-0.3,2-0.9
			c0.5-0.6,0.8-1.4,0.8-2.3c0-0.9-0.3-1.6-0.8-2.3c-0.5-0.6-1.2-0.9-2-0.9h-5.9v-10.4c0-0.7-0.2-1.4-0.7-1.9
			c-0.4-0.5-0.9-0.8-1.5-0.8c-0.6,0-1.2,0.3-1.6,0.8c-0.4,0.5-0.6,1.1-0.6,1.9V449L983.7,449z"/>
		<path class="st2" d="M1002.6,468.5c0.2-1.8,0.7-3.5,1.4-5.1s1.5-3,2.5-4.1c1-1.1,2.1-2.1,3.4-2.7c1.3-0.7,2.6-1,4.1-1
			c1.4,0,2.7,0.3,4,1c1.3,0.7,2.4,1.6,3.5,2.7c1,1.1,1.8,2.5,2.6,4.1c0.7,1.6,1.2,3.3,1.4,5.1H1002.6z M1027.7,475
			c0.5,0,0.9-0.2,1.3-0.7c0.4-0.5,0.6-1.2,0.6-2.2c0-3.2-0.4-6.1-1.3-8.9c-0.9-2.8-2-5.2-3.4-7.3c-1.4-2.1-3.1-3.8-5-5
			c-1.9-1.2-3.9-1.8-5.9-1.8c-2.2,0.1-4.3,0.8-6.3,2c-1.9,1.2-3.6,2.9-5,4.9c-1.4,2-2.5,4.4-3.3,7.1c-0.8,2.7-1.2,5.7-1.2,8.8
			c0,3.3,0.4,6.3,1.2,9.1c0.8,2.8,2,5.1,3.4,7.1c1.4,2,3.1,3.6,5,4.7c1.9,1.1,3.9,1.7,6.1,1.7c2.3,0,4.4-0.5,6.2-1.4
			c1.8-0.9,3.4-2.5,4.8-4.7c0.4-0.5,0.6-1.2,0.6-2c0-0.8-0.2-1.4-0.6-2c-0.4-0.5-0.9-0.8-1.4-0.8c-0.6,0-1,0.2-1.4,0.6
			c-1.1,1.1-2.3,2.1-3.7,2.7c-1.4,0.7-2.9,1-4.5,1c-1.5,0-2.8-0.3-4.1-1c-1.3-0.7-2.4-1.6-3.4-2.7s-1.9-2.5-2.6-4.1
			c-0.7-1.6-1.2-3.3-1.3-5.2L1027.7,475L1027.7,475z"/>
		<path class="st2" d="M1036.1,491.5c0,0.8,0.2,1.5,0.6,2.1c0.4,0.6,0.9,0.9,1.6,0.9s1.1-0.3,1.5-0.8c0.4-0.5,0.6-1.2,0.6-2v-20.3
			c0-2.1,0.4-4.1,1-6c0.6-1.9,1.4-3.6,2.5-5.1c1-1.5,2.2-2.6,3.5-3.5c1.3-0.9,2.8-1.3,4.4-1.3c0.7,0,1.2-0.3,1.7-0.9
			c0.4-0.6,0.6-1.4,0.6-2.3c0-0.9-0.2-1.6-0.6-2.3c-0.4-0.6-1-0.9-1.7-0.9c-2.3,0-4.4,0.7-6.4,2.1c-2,1.4-3.6,3.2-5,5.4v-4.6
			c0-0.8-0.2-1.5-0.6-2.1c-0.4-0.5-0.9-0.8-1.5-0.8s-1.2,0.3-1.6,0.8c-0.4,0.6-0.6,1.2-0.6,2.1V491.5L1036.1,491.5z"/>
		<path class="st2" d="M1059,491.5c0,0.8,0.2,1.5,0.6,2.1c0.4,0.6,0.9,0.9,1.6,0.9c0.6,0,1.1-0.3,1.5-0.8c0.4-0.5,0.6-1.2,0.6-2
			v-25.8c0-1.4,0.2-2.7,0.7-4c0.4-1.2,0.9-2.3,1.6-3.3c0.7-0.9,1.5-1.7,2.4-2.2c0.9-0.5,1.8-0.9,2.9-0.9c1,0,2,0.3,2.9,0.9
			c0.9,0.5,1.7,1.3,2.4,2.3c0.7,1,1.2,2.1,1.7,3.4c0.4,1.3,0.6,2.7,0.6,4.2v25.4c0,0.8,0.2,1.5,0.6,2s0.9,0.8,1.6,0.8
			c0.6,0,1.1-0.3,1.5-0.9c0.4-0.5,0.6-1.2,0.6-2.1v-25.7c0-2.3-0.3-4.5-0.9-6.6c-0.6-2-1.4-3.8-2.5-5.4c-1.1-1.5-2.3-2.7-3.8-3.6
			c-1.5-0.9-3-1.3-4.6-1.3c-1.5,0-2.9,0.4-4.2,1.2c-1.3,0.8-2.5,1.9-3.5,3.3v-1.4c0-0.9-0.2-1.6-0.6-2.2c-0.4-0.6-0.9-0.9-1.5-0.9
			c-0.6,0-1.2,0.3-1.6,0.8c-0.4,0.6-0.6,1.2-0.6,2.1L1059,491.5L1059,491.5z"/>
		<path class="st2" d="M1115.5,478.3c-0.6,2-1.5,3.6-2.6,5.1c-1.1,1.5-2.3,2.6-3.8,3.4c-1.4,0.8-2.9,1.2-4.5,1.2
			c-1.7,0-3.2-0.4-4.6-1.2c-1.4-0.9-2.7-2-3.8-3.5c-1.1-1.5-2-3.2-2.6-5.2c-0.6-2-0.9-4.1-0.9-6.3s0.3-4.3,0.9-6.3
			c0.6-2,1.5-3.7,2.6-5.2c1.1-1.5,2.3-2.6,3.8-3.5c1.4-0.9,3-1.3,4.6-1.3c1.6,0,3.2,0.4,4.7,1.3c1.4,0.9,2.7,2,3.8,3.5
			c1.1,1.5,1.9,3.2,2.5,5.2c0.6,2,0.9,4.1,0.9,6.3C1116.5,474.1,1116.1,476.3,1115.5,478.3z M1116.6,491.5c0,0.8,0.2,1.5,0.6,2.1
			c0.4,0.6,0.9,0.9,1.6,0.9c0.6,0,1.1-0.3,1.5-0.9c0.4-0.5,0.7-1.2,0.7-2.1v-19.8c0-3.1-0.4-6-1.3-8.8c-0.9-2.7-2.1-5.1-3.6-7.2
			c-1.5-2.1-3.2-3.7-5.1-4.9c-2-1.2-4-1.8-6.1-1.8c-2.3,0-4.5,0.6-6.5,1.8c-2,1.2-3.7,2.8-5.2,4.9c-1.5,2-2.6,4.5-3.4,7.3
			c-0.8,2.8-1.2,5.8-1.2,8.9c0,3.3,0.4,6.3,1.2,9.1c0.8,2.8,2,5.1,3.5,7.1c1.5,2,3.2,3.6,5.1,4.7c1.9,1.1,4,1.7,6.3,1.7
			c2.4,0,4.7-0.9,6.7-2.5c2.1-1.7,3.8-3.7,5.3-6.1L1116.6,491.5L1116.6,491.5z"/>
		<path class="st2" d="M1133,449h-4.4c-0.6,0-1.1,0.3-1.5,0.9c-0.4,0.6-0.6,1.4-0.6,2.3c0,0.9,0.3,1.7,0.8,2.3
			c0.5,0.6,1.2,0.9,1.9,0.9h5.9v36.1c0,0.8,0.1,1.5,0.3,2c0.2,0.5,0.5,0.8,0.8,0.8c0.3,0,0.6-0.3,0.8-0.8c0.2-0.5,0.3-1.2,0.3-2
			v-36.1h5.9c0.8,0,1.4-0.3,2-0.9c0.5-0.6,0.8-1.4,0.8-2.3c0-0.9-0.3-1.6-0.8-2.3c-0.5-0.6-1.2-0.9-2-0.9h-5.9v-10.4
			c0-0.7-0.2-1.4-0.7-1.9c-0.4-0.5-0.9-0.8-1.5-0.8s-1.2,0.3-1.6,0.8c-0.4,0.5-0.6,1.1-0.6,1.9L1133,449L1133,449z"/>
		<path class="st2" d="M1148.2,441.2c0.5,0.9,1.2,1.2,1.9,1.2c0.7,0,1.3-0.4,1.9-1.2c0.5-0.9,0.8-1.9,0.8-3.1c0-1.2-0.3-2.2-0.8-3
			c-0.6-0.9-1.2-1.3-1.9-1.3c-0.7,0-1.4,0.4-1.9,1.3c-0.6,0.9-0.8,1.9-0.8,3C1147.5,439.4,1147.7,440.4,1148.2,441.2z M1147.3,491.6
			c0,0.8,0.2,1.5,0.6,2c0.4,0.6,0.9,0.9,1.6,0.9s1.1-0.3,1.5-0.9c0.4-0.5,0.6-1.2,0.6-2v-39.5c0-0.8-0.2-1.5-0.6-2
			c-0.4-0.5-0.9-0.8-1.5-0.8s-1.2,0.3-1.6,0.8c-0.4,0.5-0.6,1.2-0.6,2V491.6z"/>
		<path class="st2" d="M1169.6,484l-8.5-33.3c-0.1-0.5-0.4-0.9-0.7-1.2c-0.3-0.3-0.8-0.5-1.2-0.5c-0.6,0-1.1,0.3-1.4,0.8
			c-0.3,0.5-0.5,1.2-0.5,2c0,0.5,0.1,1,0.2,1.3c0,0.1,0.2,0.8,0.5,2.2c0.3,1.4,0.9,3.6,1.7,6.6l3,12l4.7,18.2c0.1,0.5,0.4,1,0.7,1.5
			c0.3,0.5,0.8,0.8,1.5,0.8c0.6,0,1-0.2,1.4-0.6s0.6-1,0.8-1.7c2.1-7.7,3.8-14.1,5.1-19.2c1.3-5,2.4-9,3.1-11.9
			c0.7-2.9,1.3-5,1.6-6.2c0.3-1.1,0.4-1.8,0.5-1.9c0.1-0.3,0.2-0.7,0.2-1.1c0-0.7-0.2-1.3-0.6-1.9c-0.4-0.6-0.8-0.9-1.4-0.9
			c-0.4,0-0.8,0.2-1.1,0.5c-0.3,0.3-0.6,0.8-0.7,1.2L1169.6,484z"/>
		<path class="st2" d="M1213.7,478.3c-0.6,2-1.5,3.6-2.6,5.1c-1.1,1.5-2.3,2.6-3.8,3.4c-1.4,0.8-2.9,1.2-4.5,1.2
			c-1.7,0-3.2-0.4-4.6-1.2c-1.4-0.9-2.7-2-3.8-3.5c-1.1-1.5-2-3.2-2.6-5.2c-0.6-2-0.9-4.1-0.9-6.3s0.3-4.3,0.9-6.3
			c0.6-2,1.5-3.7,2.6-5.2c1.1-1.5,2.3-2.6,3.8-3.5c1.4-0.9,3-1.3,4.6-1.3c1.6,0,3.2,0.4,4.7,1.3c1.4,0.9,2.7,2,3.8,3.5
			c1.1,1.5,1.9,3.2,2.5,5.2c0.6,2,0.9,4.1,0.9,6.3C1214.7,474.1,1214.3,476.3,1213.7,478.3z M1214.8,491.5c0,0.8,0.2,1.5,0.6,2.1
			c0.4,0.6,0.9,0.9,1.6,0.9c0.6,0,1.1-0.3,1.5-0.9c0.4-0.5,0.7-1.2,0.7-2.1v-19.8c0-3.1-0.4-6-1.3-8.8c-0.9-2.7-2.1-5.1-3.6-7.2
			c-1.5-2.1-3.2-3.7-5.2-4.9c-1.9-1.2-4-1.8-6.1-1.8c-2.3,0-4.5,0.6-6.5,1.8c-2,1.2-3.7,2.8-5.2,4.9c-1.4,2-2.6,4.5-3.4,7.3
			c-0.8,2.8-1.2,5.8-1.2,8.9c0,3.3,0.4,6.3,1.2,9.1c0.8,2.8,2,5.1,3.5,7.1c1.5,2,3.2,3.6,5.1,4.7c1.9,1.1,4,1.7,6.3,1.7
			c2.4,0,4.6-0.9,6.7-2.5c2.1-1.7,3.8-3.7,5.3-6.1L1214.8,491.5L1214.8,491.5z"/>
		<path class="st2" d="M1246.9,484.1l-8.4-33.5c-0.1-0.5-0.4-0.9-0.7-1.2c-0.3-0.3-0.8-0.5-1.2-0.5c-0.6,0-1.1,0.3-1.4,0.8
			c-0.3,0.5-0.5,1.2-0.5,2c0,0.5,0.1,0.9,0.2,1.3c0,0.1,0.2,0.8,0.5,2.2s0.9,3.6,1.7,6.6l3,12.1l4.7,18.3l-3.9,15.5
			c-0.1,0.2-0.1,0.3-0.1,0.5c0,0.1,0,0.3,0,0.5c0,0.8,0.2,1.4,0.5,2c0.4,0.6,0.8,0.9,1.4,0.9c0.9,0,1.5-0.6,1.8-1.9l14.8-56.9
			c0.1-0.4,0.2-0.8,0.2-1.1c0-0.7-0.2-1.3-0.6-1.9c-0.4-0.6-0.8-0.9-1.4-0.9c-0.4,0-0.8,0.2-1.1,0.5c-0.3,0.3-0.6,0.8-0.7,1.2
			L1246.9,484.1z"/>
		<path class="st2" d="M1286.6,440.3c0.9,0,1.8,0.3,2.6,0.8c0.8,0.5,1.6,1.2,2.2,2.1c0.6,0.9,1.1,1.9,1.5,3.1
			c0.3,1.2,0.5,2.5,0.5,3.8c0,1.4-0.2,2.7-0.5,3.8c-0.4,1.1-0.9,2.2-1.5,3.1c-0.6,0.9-1.3,1.6-2.2,2.1c-0.8,0.5-1.7,0.7-2.6,0.7
			h-8.3v-19.5H1286.6z M1274,491.5c0,0.8,0.2,1.5,0.6,2.1c0.4,0.6,0.9,0.9,1.6,0.9c0.6,0,1.1-0.3,1.5-0.9c0.4-0.5,0.6-1.2,0.6-2.1
			v-25.2h8.5c1.5,0,2.9-0.4,4.3-1.3c1.3-0.8,2.5-2,3.5-3.4c1-1.5,1.8-3.2,2.4-5.2c0.6-2,0.9-4.1,0.9-6.3c0-2.2-0.3-4.3-0.9-6.3
			c-0.6-2-1.4-3.7-2.4-5.2c-1-1.5-2.2-2.6-3.6-3.5c-1.3-0.9-2.8-1.3-4.4-1.3H1276c-0.6,0-1,0.3-1.4,0.9c-0.4,0.6-0.6,1.3-0.6,2.1
			L1274,491.5L1274,491.5z"/>
		<path class="st2" d="M1303.4,491.5c0,0.8,0.2,1.5,0.6,2.1c0.4,0.6,0.9,0.9,1.6,0.9c0.6,0,1.1-0.3,1.5-0.8c0.4-0.5,0.6-1.2,0.6-2
			v-20.3c0-2.1,0.4-4.1,1-6c0.6-1.9,1.4-3.6,2.5-5.1c1-1.5,2.2-2.6,3.5-3.5c1.3-0.9,2.8-1.3,4.4-1.3c0.7,0,1.2-0.3,1.7-0.9
			c0.4-0.6,0.6-1.4,0.6-2.3c0-0.9-0.2-1.6-0.6-2.3c-0.4-0.6-1-0.9-1.7-0.9c-2.3,0-4.4,0.7-6.4,2.1c-2,1.4-3.6,3.2-5,5.4v-4.6
			c0-0.8-0.2-1.5-0.6-2.1c-0.4-0.5-0.9-0.8-1.5-0.8c-0.6,0-1.1,0.3-1.6,0.8c-0.4,0.6-0.6,1.2-0.6,2.1L1303.4,491.5L1303.4,491.5z"/>
		<path class="st2" d="M1347.2,456.8c1.4,0.9,2.7,2,3.8,3.5c1.1,1.5,1.9,3.2,2.5,5.2c0.6,2,0.9,4.1,0.9,6.3c0,2.2-0.3,4.3-0.9,6.3
			c-0.6,2-1.4,3.7-2.5,5.2c-1.1,1.5-2.4,2.6-3.8,3.5c-1.4,0.8-3,1.2-4.6,1.2c-1.7,0-3.2-0.4-4.7-1.2c-1.4-0.9-2.7-2-3.8-3.5
			c-1.1-1.5-2-3.2-2.6-5.2c-0.6-2-0.9-4.1-0.9-6.3s0.3-4.3,0.9-6.3c0.6-2,1.5-3.7,2.6-5.2c1.1-1.5,2.3-2.6,3.8-3.5
			c1.4-0.9,3-1.3,4.7-1.3C1344.2,455.5,1345.8,455.9,1347.2,456.8z M1336.2,451c-2,1.2-3.7,2.9-5.2,4.9c-1.5,2-2.6,4.4-3.4,7.1
			c-0.8,2.7-1.2,5.7-1.2,8.8c0,3.3,0.4,6.3,1.3,9.1c0.8,2.8,2,5.1,3.5,7.1c1.5,2,3.2,3.6,5.2,4.7c1.9,1.1,4.1,1.7,6.3,1.7
			c2.3,0,4.4-0.6,6.4-1.8c2-1.2,3.7-2.8,5.2-4.9c1.4-2,2.6-4.5,3.5-7.2c0.8-2.7,1.3-5.6,1.3-8.7c0-3.1-0.4-6.1-1.3-8.8
			c-0.9-2.8-2.1-5.2-3.5-7.2c-1.5-2.1-3.2-3.7-5.2-5c-2-1.2-4-1.9-6.1-1.9C1340.4,449.1,1338.2,449.8,1336.2,451z"/>
		<path class="st2" d="M1391.7,478c-0.6,2-1.4,3.7-2.5,5.2c-1.1,1.5-2.4,2.6-3.8,3.5c-1.4,0.8-3,1.2-4.6,1.2c-1.7,0-3.2-0.4-4.7-1.2
			c-1.4-0.9-2.7-2-3.8-3.5c-1.1-1.5-1.9-3.2-2.6-5.2c-0.6-2-0.9-4.1-0.9-6.3s0.3-4.3,0.9-6.3c0.6-2,1.5-3.7,2.6-5.2
			c1.1-1.5,2.3-2.6,3.8-3.5c1.4-0.9,3-1.3,4.7-1.3c1.6,0,3.1,0.4,4.5,1.2c1.4,0.8,2.6,2,3.7,3.4c1.1,1.5,1.9,3.2,2.5,5.1
			c0.6,2,1,4.2,1.1,6.5C1392.6,474,1392.3,476.1,1391.7,478z M1392.6,457.5c-1.5-2.2-3.2-4.2-5.3-5.9c-2.1-1.7-4.3-2.6-6.8-2.7
			c-2.2,0-4.2,0.6-6.1,1.9s-3.6,2.9-5.1,5c-1.5,2-2.6,4.5-3.5,7.2c-0.9,2.8-1.3,5.7-1.3,8.8c0,3.1,0.4,6,1.3,8.7
			c0.8,2.7,2,5.1,3.4,7.2c1.5,2.1,3.2,3.7,5.2,4.9c2,1.2,4.1,1.8,6.4,1.8c2.2,0,4.3-0.5,6.3-1.7c2-1.1,3.7-2.7,5.2-4.8l0.6-0.9
			l-0.2,4.4c0,0.8,0.2,1.5,0.6,2.1c0.4,0.6,0.9,0.9,1.6,0.9s1.1-0.3,1.5-0.8c0.4-0.5,0.6-1.2,0.6-2v-52.8c0-0.8-0.2-1.5-0.6-2
			c-0.4-0.5-0.9-0.9-1.5-0.9s-1.2,0.3-1.6,0.8c-0.4,0.5-0.6,1.1-0.6,1.9L1392.6,457.5L1392.6,457.5z"/>
		<path class="st2" d="M1402.5,477.6c0,2.3,0.3,4.5,0.9,6.6c0.6,2.1,1.4,3.9,2.5,5.4c1.1,1.5,2.3,2.7,3.8,3.6c1.4,0.9,3,1.3,4.6,1.3
			c1.5,0,2.9-0.4,4.2-1.2c1.3-0.8,2.5-1.9,3.5-3.3v1.4c0,0.9,0.2,1.6,0.6,2.3c0.4,0.6,0.9,0.9,1.6,0.9c0.6,0,1.1-0.3,1.5-0.9
			c0.4-0.5,0.6-1.2,0.6-2.1v-39.6c0-0.8-0.2-1.5-0.6-2.1c-0.4-0.5-0.9-0.8-1.5-0.8c-0.6,0-1.2,0.3-1.6,0.8s-0.6,1.2-0.6,2v25.8
			c-0.1,1.4-0.3,2.8-0.7,4c-0.4,1.3-0.9,2.4-1.6,3.3c-0.7,0.9-1.4,1.7-2.3,2.2c-0.9,0.5-1.9,0.8-2.9,0.8c-1,0-2-0.3-2.9-0.8
			c-0.9-0.5-1.8-1.3-2.4-2.3c-0.7-1-1.2-2.1-1.6-3.5c-0.4-1.3-0.6-2.7-0.6-4.2v-25.3c0-0.8-0.2-1.5-0.6-2c-0.4-0.5-0.9-0.8-1.5-0.8
			c-0.6,0-1.2,0.3-1.6,0.8c-0.4,0.6-0.6,1.2-0.6,2.1L1402.5,477.6L1402.5,477.6z"/>
		<path class="st2" d="M1441.8,451c-1.9,1.2-3.6,2.9-5.1,4.9c-1.4,2-2.6,4.4-3.5,7.1c-0.9,2.7-1.3,5.7-1.3,8.8
			c0,3.3,0.4,6.3,1.3,9.1c0.9,2.8,2,5.1,3.5,7.1c1.4,2,3.1,3.6,5,4.7c1.9,1.1,3.9,1.7,6.1,1.7c1.8,0,3.5-0.4,5-1.1
			c1.4-0.8,2.7-1.7,3.7-2.8c1-1.1,1.7-2.1,2.2-3.1c0.5-1,0.8-1.7,0.8-2.2c0-0.8-0.2-1.5-0.6-2c-0.4-0.5-0.9-0.8-1.4-0.8
			c-0.6,0-1.1,0.3-1.4,0.9c-1.1,1.5-2.3,2.7-3.7,3.5c-1.4,0.8-2.9,1.2-4.5,1.2c-1.6,0-3.1-0.4-4.5-1.2c-1.4-0.9-2.6-2-3.7-3.5
			c-1.1-1.5-1.9-3.2-2.5-5.2c-0.6-2-0.9-4.1-0.9-6.3s0.3-4.3,0.9-6.3c0.6-2,1.4-3.7,2.5-5.2c1.1-1.5,2.3-2.6,3.7-3.5
			c1.4-0.9,2.9-1.3,4.5-1.3c1.6,0,3.1,0.4,4.5,1.2c1.4,0.9,2.6,2,3.7,3.3c0.4,0.6,0.9,0.9,1.4,0.9c0.5,0,0.9-0.2,1.3-0.8
			c0.4-0.5,0.6-1.1,0.6-1.8c0-0.5-0.3-1.2-0.8-2.2c-0.5-1-1.3-2-2.3-3.1c-1-1.1-2.2-2-3.6-2.8c-1.4-0.8-3-1.2-4.7-1.2
			C1445.8,449.1,1443.7,449.8,1441.8,451z"/>
		<path class="st2" d="M1472.2,449h-4.4c-0.6,0-1.1,0.3-1.5,0.9c-0.4,0.6-0.6,1.4-0.6,2.3c0,0.9,0.3,1.7,0.8,2.3
			c0.5,0.6,1.2,0.9,1.9,0.9h5.9v36.1c0,0.8,0.1,1.5,0.3,2c0.2,0.5,0.5,0.8,0.8,0.8c0.3,0,0.5-0.3,0.8-0.8c0.2-0.5,0.3-1.2,0.3-2
			v-36.1h5.9c0.8,0,1.4-0.3,2-0.9c0.5-0.6,0.8-1.4,0.8-2.3c0-0.9-0.3-1.6-0.8-2.3c-0.5-0.6-1.2-0.9-2-0.9h-5.9v-10.4
			c0-0.7-0.2-1.4-0.7-1.9c-0.4-0.5-0.9-0.8-1.5-0.8s-1.2,0.3-1.6,0.8c-0.4,0.5-0.6,1.1-0.6,1.9L1472.2,449L1472.2,449z"/>
		<path class="st2" d="M1507.3,456.8c1.4,0.9,2.7,2,3.8,3.5c1.1,1.5,1.9,3.2,2.5,5.2c0.6,2,0.9,4.1,0.9,6.3c0,2.2-0.3,4.3-0.9,6.3
			c-0.6,2-1.4,3.7-2.5,5.2c-1.1,1.5-2.4,2.6-3.8,3.5c-1.4,0.8-3,1.2-4.6,1.2c-1.7,0-3.2-0.4-4.7-1.2c-1.4-0.9-2.7-2-3.8-3.5
			c-1.1-1.5-1.9-3.2-2.6-5.2c-0.6-2-0.9-4.1-0.9-6.3s0.3-4.3,0.9-6.3c0.6-2,1.5-3.7,2.6-5.2c1.1-1.5,2.3-2.6,3.8-3.5
			c1.4-0.9,3-1.3,4.7-1.3C1504.3,455.5,1505.9,455.9,1507.3,456.8z M1496.3,451c-2,1.2-3.7,2.9-5.2,4.9c-1.4,2-2.6,4.4-3.4,7.1
			c-0.8,2.7-1.2,5.7-1.2,8.8c0,3.3,0.4,6.3,1.3,9.1c0.8,2.8,2,5.1,3.5,7.1c1.5,2,3.2,3.6,5.2,4.7c2,1.1,4.1,1.7,6.3,1.7
			c2.3,0,4.4-0.6,6.4-1.8c2-1.2,3.7-2.8,5.2-4.9c1.4-2,2.6-4.5,3.5-7.2c0.8-2.7,1.3-5.6,1.3-8.7c0-3.1-0.4-6.1-1.3-8.8
			c-0.9-2.8-2.1-5.2-3.6-7.2c-1.5-2.1-3.2-3.7-5.2-5s-4-1.9-6.1-1.9C1500.5,449.1,1498.3,449.8,1496.3,451z"/>
		<path class="st2" d="M1529.5,468.5c1.8,1.8,4.3,3,7.2,3.7c2.1,0.4,3.8,1.4,5.2,2.8c1.4,1.4,2.1,3.1,2.1,5.1c0,2.5-0.7,4.5-2.2,5.9
			s-3.3,2.1-5.4,2.1c-1.5,0-3-0.5-4.3-1.6c-1.3-1.1-2.3-2.6-2.9-4.7c-0.2-0.7-0.6-1.3-0.9-1.7c-0.4-0.4-0.8-0.6-1.2-0.6
			c-0.6,0-1.1,0.3-1.5,1c-0.4,0.7-0.5,1.4-0.5,2.3c0,0.4,0,0.7,0.1,0.9c0.7,3.4,2,6.1,4.1,8c2.1,2,4.5,2.9,7.2,2.9
			c1.6,0,3.1-0.3,4.6-1c1.4-0.6,2.7-1.5,3.8-2.7c1.1-1.2,2-2.6,2.7-4.3c0.6-1.7,1-3.5,1-5.5c0-2-0.3-3.8-0.9-5.3
			c-0.6-1.5-1.4-2.8-2.4-3.9c-1-1.1-2.2-2-3.5-2.7c-1.4-0.7-2.8-1.2-4.3-1.6c-0.7-0.2-1.4-0.4-2.1-0.6c-0.8-0.2-1.4-0.6-2-1
			c-0.6-0.5-1.1-1-1.5-1.7c-0.4-0.7-0.6-1.5-0.6-2.4c0-1.3,0.2-2.3,0.5-3.1c0.4-0.8,0.8-1.4,1.4-1.9c0.6-0.4,1.2-0.7,1.9-0.9
			c0.7-0.1,1.3-0.2,2-0.2c1.2,0,2.4,0.2,3.4,0.7c1,0.5,1.7,1.1,2.1,2c0.4,1.1,0.9,1.6,1.7,1.6c0.8,0,1.2-0.3,1.6-0.9
			c0.3-0.6,0.5-1.3,0.5-2c0-1.3-0.3-2.5-1-3.5c-0.7-0.9-1.4-1.8-2.4-2.4c-0.9-0.7-2-1.2-3.1-1.5c-1.1-0.3-2.1-0.5-3.1-0.5
			c-1.2,0-2.4,0.2-3.6,0.6c-1.2,0.4-2.2,1-3.2,2c-0.9,1-1.7,2.1-2.3,3.6c-0.6,1.5-0.8,3.3-0.8,5.4
			C1526.8,464,1527.7,466.7,1529.5,468.5z"/>
		<path class="st2" d="M1563.9,491.6c0,0.8,0.2,1.5,0.6,2c0.4,0.5,0.9,0.8,1.6,0.8c0.6,0,1.1-0.3,1.5-0.8c0.4-0.5,0.7-1.2,0.7-2v-21
			h21.7v21c0,0.8,0.2,1.4,0.6,2c0.4,0.5,0.9,0.8,1.6,0.8c0.6,0,1.1-0.3,1.5-0.8c0.4-0.5,0.7-1.2,0.7-2v-52.8c0-0.8-0.2-1.5-0.7-2
			c-0.4-0.5-0.9-0.9-1.5-0.9s-1.2,0.3-1.6,0.8c-0.4,0.5-0.6,1.2-0.6,2v25.4h-21.7v-25.4c0-0.8-0.2-1.5-0.7-2
			c-0.4-0.5-0.9-0.8-1.5-0.8s-1.2,0.3-1.6,0.9c-0.4,0.5-0.6,1.2-0.6,2V491.6z"/>
		<path class="st2" d="M1604.5,468.5c0.2-1.8,0.7-3.5,1.4-5.1s1.5-3,2.5-4.1s2.1-2.1,3.4-2.7s2.6-1,4.1-1c1.4,0,2.7,0.3,4,1
			c1.3,0.7,2.4,1.6,3.5,2.7c1,1.1,1.8,2.5,2.6,4.1c0.7,1.6,1.2,3.3,1.4,5.1H1604.5z M1629.6,475c0.5,0,0.9-0.2,1.3-0.7
			c0.4-0.5,0.7-1.2,0.7-2.2c0-3.2-0.4-6.1-1.3-8.9c-0.9-2.8-2-5.2-3.4-7.3c-1.4-2.1-3.1-3.8-5-5c-1.9-1.2-3.9-1.8-5.9-1.8
			c-2.2,0.1-4.3,0.8-6.3,2c-1.9,1.2-3.6,2.9-5,4.9c-1.4,2-2.5,4.4-3.3,7.1c-0.8,2.7-1.2,5.7-1.2,8.8c0,3.3,0.4,6.3,1.2,9.1
			c0.8,2.8,2,5.1,3.4,7.1c1.4,2,3.1,3.6,5,4.7c1.9,1.1,3.9,1.7,6.1,1.7c2.3,0,4.4-0.5,6.2-1.4c1.8-0.9,3.4-2.5,4.8-4.7
			c0.4-0.5,0.6-1.2,0.6-2c0-0.8-0.2-1.4-0.6-2c-0.4-0.5-0.9-0.8-1.4-0.8c-0.6,0-1.1,0.2-1.4,0.6c-1.1,1.1-2.3,2.1-3.7,2.7
			c-1.4,0.7-2.9,1-4.5,1c-1.4,0-2.8-0.3-4.1-1c-1.3-0.7-2.4-1.6-3.4-2.7c-1-1.1-1.9-2.5-2.6-4.1c-0.7-1.6-1.2-3.3-1.3-5.2
			L1629.6,475L1629.6,475z"/>
		<path class="st2" d="M1638,491.5c0,0.8,0.2,1.5,0.6,2.1c0.4,0.6,0.9,0.9,1.6,0.9s1.1-0.3,1.5-0.8c0.4-0.5,0.6-1.2,0.6-2v-20.3
			c0-2.1,0.4-4.1,1-6c0.6-1.9,1.4-3.6,2.5-5.1c1-1.5,2.2-2.6,3.5-3.5c1.3-0.9,2.8-1.3,4.4-1.3c0.7,0,1.2-0.3,1.7-0.9
			c0.4-0.6,0.6-1.4,0.6-2.3c0-0.9-0.2-1.6-0.6-2.3c-0.4-0.6-1-0.9-1.7-0.9c-2.3,0-4.4,0.7-6.4,2.1c-2,1.4-3.6,3.2-5,5.4v-4.6
			c0-0.8-0.2-1.5-0.6-2.1c-0.4-0.5-0.9-0.8-1.5-0.8s-1.2,0.3-1.6,0.8c-0.4,0.6-0.6,1.2-0.6,2.1V491.5L1638,491.5z"/>
		<path class="st2" d="M1665.2,471.8c0-2.3,0.4-4.5,1.1-6.5c0.7-2,1.5-3.7,2.6-5.1c1.1-1.5,2.3-2.6,3.7-3.4c1.4-0.8,2.9-1.2,4.5-1.2
			c1.6,0,3.2,0.4,4.7,1.3c1.4,0.9,2.7,2,3.8,3.5c1.1,1.5,1.9,3.2,2.5,5.2c0.6,2,0.9,4.1,0.9,6.3c0,2.2-0.3,4.3-0.9,6.3
			c-0.6,2-1.4,3.7-2.5,5.2c-1.1,1.5-2.4,2.6-3.8,3.5c-1.5,0.8-3,1.2-4.7,1.2s-3.1-0.4-4.5-1.2c-1.4-0.8-2.6-1.9-3.7-3.3
			c-1.1-1.4-1.9-3-2.6-4.9c-0.7-1.9-1-3.9-1.1-6.1V471.8z M1660.9,491.6c0,0.8,0.2,1.5,0.6,2s0.9,0.8,1.6,0.8c0.6,0,1.1-0.3,1.5-0.9
			c0.4-0.5,0.6-1.2,0.6-2v-4.3c1.5,2.2,3.2,4,5.3,5.3c2,1.3,4.3,1.9,6.7,1.9c2.3,0,4.4-0.6,6.3-1.8c2-1.2,3.7-2.8,5.1-4.9
			c1.4-2,2.6-4.5,3.5-7.2c0.8-2.7,1.3-5.6,1.3-8.7c0-3.1-0.4-6.1-1.3-8.8c-0.9-2.8-2-5.2-3.5-7.2c-1.5-2.1-3.2-3.7-5.1-5
			c-1.9-1.2-4-1.9-6.1-1.9c-2.5,0.1-4.8,1-6.8,2.6c-2.1,1.7-3.8,3.6-5.3,5.8v-18.9c0-0.7-0.2-1.3-0.6-1.8c-0.4-0.5-0.9-0.8-1.5-0.8
			c-0.6,0-1.2,0.3-1.6,0.9s-0.6,1.2-0.6,2V491.6z"/>
		<path class="st2" d="M1719.8,456.8c1.4,0.9,2.7,2,3.8,3.5c1.1,1.5,1.9,3.2,2.5,5.2c0.6,2,0.9,4.1,0.9,6.3c0,2.2-0.3,4.3-0.9,6.3
			c-0.6,2-1.4,3.7-2.5,5.2c-1.1,1.5-2.4,2.6-3.8,3.5c-1.4,0.8-3,1.2-4.7,1.2c-1.7,0-3.2-0.4-4.6-1.2c-1.4-0.9-2.7-2-3.8-3.5
			c-1.1-1.5-2-3.2-2.6-5.2c-0.6-2-0.9-4.1-0.9-6.3s0.3-4.3,0.9-6.3c0.6-2,1.5-3.7,2.6-5.2c1.1-1.5,2.3-2.6,3.8-3.5
			c1.4-0.9,3-1.3,4.6-1.3C1716.8,455.5,1718.4,455.9,1719.8,456.8z M1708.8,451c-2,1.2-3.7,2.9-5.2,4.9c-1.5,2-2.6,4.4-3.4,7.1
			c-0.8,2.7-1.2,5.7-1.2,8.8c0,3.3,0.4,6.3,1.3,9.1c0.8,2.8,2,5.1,3.5,7.1c1.5,2,3.2,3.6,5.2,4.7c1.9,1.1,4.1,1.7,6.3,1.7
			c2.3,0,4.4-0.6,6.4-1.8c1.9-1.2,3.7-2.8,5.2-4.9c1.4-2,2.6-4.5,3.5-7.2c0.8-2.7,1.3-5.6,1.3-8.7c0-3.1-0.4-6.1-1.3-8.8
			c-0.9-2.8-2.1-5.2-3.6-7.2c-1.5-2.1-3.2-3.7-5.1-5c-2-1.2-4-1.9-6.1-1.9C1713,449.1,1710.8,449.8,1708.8,451z"/>
		<path class="st2" d="M1737.1,491.6c0,0.8,0.2,1.5,0.6,2c0.4,0.5,0.9,0.8,1.6,0.8s1.1-0.3,1.5-0.8c0.4-0.5,0.6-1.2,0.6-2v-52.8
			c0-0.8-0.2-1.5-0.6-2c-0.4-0.5-0.9-0.9-1.5-0.9s-1.2,0.3-1.6,0.9c-0.4,0.5-0.6,1.2-0.6,2V491.6z"/>
		<path class="st2" d="M1776.2,478.3c-0.6,2-1.5,3.6-2.6,5.1c-1.1,1.5-2.3,2.6-3.8,3.4c-1.4,0.8-2.9,1.2-4.5,1.2
			c-1.7,0-3.2-0.4-4.6-1.2c-1.4-0.9-2.7-2-3.8-3.5c-1.1-1.5-1.9-3.2-2.6-5.2c-0.6-2-0.9-4.1-0.9-6.3s0.3-4.3,0.9-6.3
			c0.6-2,1.5-3.7,2.6-5.2c1.1-1.5,2.3-2.6,3.8-3.5c1.4-0.9,3-1.3,4.6-1.3c1.6,0,3.2,0.4,4.6,1.3s2.7,2,3.8,3.5
			c1.1,1.5,1.9,3.2,2.5,5.2c0.6,2,0.9,4.1,0.9,6.3C1777.2,474.1,1776.9,476.3,1776.2,478.3z M1777.3,491.5c0,0.8,0.2,1.5,0.6,2.1
			c0.4,0.6,0.9,0.9,1.6,0.9c0.6,0,1.1-0.3,1.5-0.9c0.4-0.5,0.6-1.2,0.6-2.1v-19.8c0-3.1-0.4-6-1.3-8.8c-0.9-2.7-2.1-5.1-3.6-7.2
			c-1.5-2.1-3.2-3.7-5.2-4.9c-2-1.2-4-1.8-6.1-1.8c-2.3,0-4.5,0.6-6.5,1.8c-2,1.2-3.7,2.8-5.2,4.9c-1.4,2-2.6,4.5-3.4,7.3
			c-0.8,2.8-1.2,5.8-1.2,8.9c0,3.3,0.4,6.3,1.2,9.1c0.8,2.8,2,5.1,3.5,7.1c1.5,2,3.2,3.6,5.1,4.7c1.9,1.1,4,1.7,6.3,1.7
			c2.4,0,4.6-0.9,6.7-2.5c2.1-1.7,3.8-3.7,5.3-6.1L1777.3,491.5L1777.3,491.5z"/>
		<path class="st2" d="M1787.3,491.5c0,0.8,0.2,1.5,0.6,2.1c0.4,0.6,0.9,0.9,1.6,0.9c0.6,0,1.1-0.3,1.5-0.8c0.4-0.5,0.6-1.2,0.6-2
			v-20.3c0-2.1,0.4-4.1,1-6c0.6-1.9,1.5-3.6,2.5-5.1c1-1.5,2.2-2.6,3.5-3.5c1.3-0.9,2.8-1.3,4.4-1.3c0.7,0,1.2-0.3,1.7-0.9
			c0.4-0.6,0.6-1.4,0.6-2.3c0-0.9-0.2-1.6-0.6-2.3c-0.4-0.6-1-0.9-1.7-0.9c-2.3,0-4.4,0.7-6.4,2.1c-1.9,1.4-3.6,3.2-5,5.4v-4.6
			c0-0.8-0.2-1.5-0.6-2.1c-0.4-0.5-0.9-0.8-1.5-0.8c-0.6,0-1.2,0.3-1.6,0.8c-0.4,0.6-0.6,1.2-0.6,2.1L1787.3,491.5L1787.3,491.5z"/>
		<path class="st2" d="M1811.1,441.2c0.5,0.9,1.2,1.2,1.9,1.2c0.7,0,1.3-0.4,1.8-1.2c0.6-0.9,0.8-1.9,0.8-3.1c0-1.2-0.3-2.2-0.8-3
			c-0.5-0.9-1.2-1.3-1.8-1.3c-0.8,0-1.4,0.4-1.9,1.3c-0.5,0.9-0.8,1.9-0.8,3C1810.3,439.4,1810.6,440.4,1811.1,441.2z M1810.2,491.6
			c0,0.8,0.2,1.5,0.6,2c0.4,0.6,0.9,0.9,1.6,0.9c0.6,0,1.1-0.3,1.5-0.9c0.4-0.5,0.7-1.2,0.7-2v-39.5c0-0.8-0.2-1.5-0.7-2
			c-0.4-0.5-0.9-0.8-1.5-0.8s-1.2,0.3-1.6,0.8c-0.4,0.5-0.6,1.2-0.6,2V491.6z"/>
		<path class="st2" d="M1841,456.8c1.4,0.9,2.7,2,3.8,3.5c1.1,1.5,1.9,3.2,2.5,5.2c0.6,2,0.9,4.1,0.9,6.3c0,2.2-0.3,4.3-0.9,6.3
			c-0.6,2-1.4,3.7-2.5,5.2c-1.1,1.5-2.4,2.6-3.8,3.5c-1.4,0.8-3,1.2-4.6,1.2c-1.7,0-3.2-0.4-4.7-1.2c-1.4-0.9-2.7-2-3.8-3.5
			c-1.1-1.5-2-3.2-2.6-5.2c-0.6-2-0.9-4.1-0.9-6.3s0.3-4.3,0.9-6.3c0.6-2,1.5-3.7,2.6-5.2c1.1-1.5,2.3-2.6,3.8-3.5
			c1.4-0.9,3-1.3,4.7-1.3C1837.9,455.5,1839.5,455.9,1841,456.8z M1830,451c-2,1.2-3.7,2.9-5.2,4.9c-1.5,2-2.6,4.4-3.4,7.1
			c-0.8,2.7-1.2,5.7-1.2,8.8c0,3.3,0.4,6.3,1.3,9.1c0.8,2.8,2,5.1,3.5,7.1c1.5,2,3.2,3.6,5.2,4.7c2,1.1,4.1,1.7,6.3,1.7
			c2.3,0,4.4-0.6,6.4-1.8c2-1.2,3.7-2.8,5.2-4.9c1.4-2,2.6-4.5,3.5-7.2c0.8-2.7,1.3-5.6,1.3-8.7c0-3.1-0.4-6.1-1.3-8.8
			c-0.9-2.8-2.1-5.2-3.5-7.2c-1.5-2.1-3.2-3.7-5.2-5c-2-1.2-4-1.9-6.1-1.9C1834.1,449.1,1832,449.8,1830,451z"/>
		<path class="st2" d="M1863.1,468.5c1.8,1.8,4.3,3,7.2,3.7c2.1,0.4,3.8,1.4,5.2,2.8c1.4,1.4,2.1,3.1,2.1,5.1c0,2.5-0.7,4.5-2.2,5.9
			s-3.3,2.1-5.4,2.1c-1.5,0-3-0.5-4.3-1.6c-1.3-1.1-2.3-2.6-2.9-4.7c-0.2-0.7-0.5-1.3-0.9-1.7c-0.4-0.4-0.8-0.6-1.2-0.6
			c-0.6,0-1.1,0.3-1.4,1c-0.4,0.7-0.5,1.4-0.5,2.3c0,0.4,0,0.7,0.1,0.9c0.7,3.4,2,6.1,4.1,8c2.1,2,4.5,2.9,7.2,2.9
			c1.6,0,3.1-0.3,4.5-1c1.4-0.6,2.7-1.5,3.8-2.7c1.1-1.2,2-2.6,2.7-4.3c0.6-1.7,1-3.5,1-5.5c0-2-0.3-3.8-0.9-5.3
			c-0.6-1.5-1.4-2.8-2.4-3.9c-1-1.1-2.2-2-3.6-2.7c-1.3-0.7-2.8-1.2-4.3-1.6c-0.7-0.2-1.4-0.4-2.1-0.6c-0.7-0.2-1.4-0.6-2-1
			c-0.6-0.5-1.1-1-1.5-1.7c-0.4-0.7-0.6-1.5-0.6-2.4c0-1.3,0.2-2.3,0.5-3.1c0.4-0.8,0.8-1.4,1.4-1.9c0.5-0.4,1.2-0.7,1.9-0.9
			c0.7-0.1,1.3-0.2,2-0.2c1.2,0,2.4,0.2,3.4,0.7c1,0.5,1.7,1.1,2.1,2c0.4,1.1,0.9,1.6,1.7,1.6s1.2-0.3,1.6-0.9
			c0.3-0.6,0.5-1.3,0.5-2c0-1.3-0.3-2.5-1-3.5c-0.7-0.9-1.4-1.8-2.4-2.4c-0.9-0.7-2-1.2-3.1-1.5c-1.1-0.3-2.1-0.5-3.1-0.5
			c-1.2,0-2.4,0.2-3.6,0.6c-1.2,0.4-2.2,1-3.2,2c-0.9,1-1.7,2.1-2.3,3.6c-0.6,1.5-0.8,3.3-0.8,5.4
			C1860.4,464,1861.3,466.7,1863.1,468.5z"/>
	</g>
	<g>
		<g>
			<path class="st3" d="M789.5,301c2.8-1.3,4.7-3.1,6-5.2v80.4c-0.3,0.7-0.9,1.6-1.6,3c-0.8,1.4-2,2.7-3.8,4.1
				c-1.8,1.4-4.2,2.6-7.2,3.8c-3,1.2-7,1.9-11.8,2.1h60.1c-5-0.2-9-0.9-12.1-2c-3.1-1.2-5.6-2.4-7.5-3.8c-1.9-1.4-3.2-2.7-4-4.1
				c-0.8-1.4-1.3-2.4-1.6-3V198.3c0.3-0.6,0.8-1.6,1.6-2.8c0.8-1.2,2.1-2.6,4-4.1c1.9-1.5,4.4-2.8,7.5-4c3.1-1.2,7.1-1.7,12.1-1.7
				h-60.1c4.8,0,8.8,0.6,11.8,1.7c3,1.2,5.4,2.5,7.2,4c1.8,1.5,3.1,2.8,3.8,4.1c0.8,1.2,1.3,2.2,1.6,2.8v91.5c0-0.4-0.2-0.8-0.5-1.1
				c-0.3-0.3-0.4-0.6-0.4-0.8c-1-1-2-2.1-3.3-3.1c-1.2-1-2.8-1.8-4.7-2.2c-2.2-0.6-4.6-1.1-7.2-1.4c-2.6-0.3-5.7-0.2-9.1,0.3
				c-3.4,0.5-7.4,1.6-12.1,3.1c-4.7,1.6-10,4.1-15.9,7.5c-1.6,0.9-3.4,2-5.6,3.4c-2.2,1.4-4,2.6-5.6,3.4c-1.2,1.4-2.8,2.1-4.7,2.1
				c-3.1-0.4-5.6-1.4-7.4-2.8c-1-0.7-1.6-1.7-1.9-3.1c-0.3-1.4-0.5-2.9-0.5-4.5c0-1.8,0.3-3.5,0.9-5.1c0.6-1.6,1.2-2.6,1.9-3
				c0.3-0.2,1.1-0.3,2.6-0.5c1.4-0.1,2.8,0,4.2,0.2c1.4,0.2,2.5,0.6,3.2,1.2c0.8,0.7,1,1.7,0.7,3.2c-1,2.7-2.2,4-3.7,3.8
				c-1.6-0.1-2.5-0.3-2.8-0.5c-1-0.7-1.3-1.5-1-2.4c0-0.6,0.5-0.9,1.4-0.9h0.9c-0.7,0.2-0.9,0.6-0.7,0.9c0.1,0.4,0.5,0.6,1.2,0.6
				c0.9,0.3,1.7,0,2.3-0.6v-0.9c0-1.1-1-1.5-2.8-1.4c-1.9,0.1-3.1,0.8-3.7,2c-0.7,1.1-0.6,2,0.2,2.7c0.8,0.7,1.5,1.2,2.1,1.4
				c0.6,0.3,1.8,0.3,3.7,0c1.9-0.2,3.3-1.3,4.2-3.2c0.6-1.2,0.7-2.4,0.2-3.3c-0.5-0.9-1.1-1.7-2.1-2.4c-1.2-0.8-2.7-1.3-4.2-1.6
				c-4.4-0.4-8,0.1-11,1.4c-2.9,1.4-4.9,3.3-5.8,5.8l0.7-89.9c0.3-0.4,0.8-1.3,1.6-2.7c0.8-1.4,2.1-2.8,3.9-4.1
				c1.8-1.4,4.3-2.6,7.3-3.8c3.1-1.1,7.2-1.8,12.4-2.1h-75.6c5,0.2,9,0.9,12.1,2.1c3.1,1.2,5.6,2.4,7.4,3.8c1.8,1.4,3.2,2.8,3.9,4.1
				c0.8,1.4,1.3,2.3,1.6,2.7v8.2v169.7c-0.3,0.7-0.9,1.6-1.6,3c-0.8,1.4-2.1,2.7-3.9,4.1c-1.9,1.4-4.4,2.7-7.4,3.8
				c-3.1,1.1-7.1,1.8-12.1,2h75.6c-5.2-0.2-9.3-0.9-12.4-2c-3.1-1.2-5.5-2.4-7.3-3.8s-3.2-2.7-3.9-4.1c-0.8-1.4-1.3-2.4-1.6-3v-82.6
				c0,0.5,0.1,0.8,0.2,0.9c0.1,0.1,0.2,0.4,0.2,0.9c0.6,1.1,1.7,2.2,3.2,3.2c1.5,1,3.1,1.9,4.6,2.5c4.3,1.7,8.1,2.4,11.5,2.1
				c3.4-0.3,8.2-2.6,14.4-6.8c1.8-1,4.1-2.3,6.7-3.8c2.6-1.4,5.5-2.8,8.6-4.2c3.1-1.4,6.3-2.5,9.5-3.3c3.2-0.9,6.2-1.3,9-1.3
				c2.5,0,4.9,0.9,7.4,2.5c0.9,0.4,1.5,1.3,1.8,2.5c0.3,1.3,0.5,2.8,0.5,4.4c0,1.7-0.3,3.3-0.9,4.9c-0.6,1.6-1.4,2.6-2.3,3h-2.3
				h-3.9c-1.4,0-2.5-0.3-3.4-1.1c-0.9-0.7-1.1-1.8-0.5-3.3c0.9-2.5,2.1-3.6,3.7-3.4c1.5,0.2,2.5,0.4,2.8,0.6c0.9,0.6,1.2,1.2,1,1.9
				c-0.7,0.9-1.1,1.3-1.4,1.3c-0.3,0.2-0.6,0.2-0.9,0c0.6-0.2,0.8-0.5,0.7-0.9c-0.2-0.4-0.6-0.7-1.2-0.9c-1.6,0-2.3,0.2-2.3,0.6
				c-0.3,0.2-0.3,0.6,0,0.9c0,1.1,0.9,1.6,2.8,1.6c1.8,0,3.1-0.7,3.7-2.2c0.6-0.9,0.5-1.6-0.2-2.2c-0.8-0.6-1.5-1-2.1-1.3
				c-0.6-0.2-1.9-0.2-3.7,0c-1.8,0.2-3.2,1.2-4.1,2.8c-0.9,1.7-1.1,3-0.5,4.1c0.6,1,1.4,1.6,2.3,1.6c1.2,0.6,2.8,1.1,4.6,1.2
				C783.2,302.8,786.7,302.3,789.5,301z"/>
			<path class="st3" d="M947,390.3c4.8-0.1,9.9-0.8,15.4-1.9c5.4-1.1,10.9-3.1,16.3-5.8c5.4-2.7,10.3-6.7,14.7-12
				c4.3-5.2,7.8-12,10.5-20.3c2.6-8.3,4-18.6,4-31v-31.8v-12.4v-11.6v-9.8v-6.5v-45.9c1.2-3.2,4.2-6.1,8.9-9c4.7-2.8,9-4.4,13-4.6
				h-11.4h-18.9h-25.2c4.9,0.2,9,1,12.1,2.4c3.1,1.4,5.4,2.8,7,4.4c1.5,1.6,2.7,3.2,3.5,4.7c0.8,1.6,1.3,2.6,1.7,3v40.9v7.1V263
				c0,5-0.1,10.6-0.3,16.5c-0.2,6-0.2,12-0.2,18.1c-0.3,14.5-0.6,30.4-0.9,47.8c-1.9-3.4-4.3-5.7-7.2-7.2c-2.9-1.5-6.1-2.4-9.3-2.7
				c-3.3-0.3-6.5-0.2-9.8,0.3c-3.3,0.5-6,1.1-8.1,1.7c-2.2,0.5-3.9,1.2-5.2,2.2c-1.2,1-2.3,2.1-3.2,3.1c-1.6,1.9-2.2,3.8-1.9,5.7
				c0.3,1.9,1.3,3.6,3,5.2c1.7,1.6,3.9,2.7,6.5,3.5c2.6,0.7,5.8,0.9,9.5,0.5c1.6-0.2,2.9-0.7,4.2-1.6c2.5-1.2,3.1-3.1,1.9-5.7
				c-0.9-1.7-2.3-2.7-4.2-3c-1.9-0.3-3.1-0.4-3.7-0.2c-0.7,0.4-1.4,0.9-2.4,1.4c-0.9,0.5-1.1,1.3-0.5,2.4c0.9,1.5,2.3,2.3,4.2,2.4
				c1.9,0.1,2.8-0.5,2.8-1.7v-0.9c-0.7-0.4-1.4-0.7-2.4-0.7c-0.6,0.2-1,0.6-1.2,0.9c-0.2,0.4,0.1,0.8,0.7,0.9
				c-0.3,0.2-0.6,0.2-0.9,0c-0.7,0-1.3-0.4-1.9-1.2c-0.3-0.9,0-1.6,0.9-2.2c0.3-0.2,1.3-0.3,3.1-0.5c1.7-0.1,3,1.2,4,3.9
				c0.3,1.5,0.1,2.6-0.7,3.3c-0.8,0.7-1.9,1.2-3.2,1.4c-1.4,0.2-2.8,0.3-4.2,0.2c-1.4-0.1-2.3-0.3-2.6-0.5c-1-0.4-1.7-1.4-2.4-3.1
				c-0.6-1.7-0.9-3.5-0.9-5.4c-0.6-3.4,0.2-5.7,2.3-7.2c2.5-1.2,5.1-2.1,7.9-2.5c4-0.2,7.4,1.2,10.2,4.4c2.8,3.2,4,7.8,3.7,13.8
				c-5.9,11.1-13.1,18.5-21.5,22.1c-8.4,3.6-17.8,5.2-28.4,5c-6.2,0-11.7-0.8-16.3-2.5c-4.7-1.7-8.8-3.9-12.3-6.8
				c-3.6-2.8-6.6-6-9.1-9.6c-2.5-3.5-4.5-7.2-6.1-11c-3.7-8.6-6.1-18.5-7-29.9v-123c0.3-0.6,0.8-1.6,1.6-2.9s2.1-2.7,4-4.1
				c1.9-1.4,4.4-2.6,7.5-3.8c3.1-1.1,7.3-1.8,12.6-2h-73.9c4.9,0.2,9,0.8,12.1,1.9c3.1,1,5.6,2.3,7.4,3.6c1.9,1.4,3.2,2.7,4,3.9
				c0.8,1.2,1.3,2.2,1.6,2.8v56v63.5c0.6,14.1,3.7,25.8,9.2,35.1c5.5,9.3,12,16.7,19.5,22.2c7.5,5.4,15.3,9.2,23.3,11.3
				c8.1,2.1,14.9,2.9,20.5,2.5C938.2,390.5,942.2,390.4,947,390.3z"/>
			<path class="st3" d="M1103.7,226.8l-14.4-22V201c0.9-2.5,1.5-3.9,1.9-4.1l0.5-0.6c0.6-0.8,1.4-1.7,2.5-2.6c1.1-1,3-1.7,5.8-2.4
				c1.5-0.2,2.9-0.3,4.2-0.3c1.2,0,2.5,0.1,3.9,0.3c1.4,0.2,2.6,0.6,3.5,1.2c2.2,1.3,3.3,3.7,3.3,7.2c0,1.9-0.2,3.7-0.7,5.3
				c-0.4,1.7-1.2,2.8-2.1,3.2c-0.6,0.2-1.5,0.4-2.8,0.7c-1.2,0.2-2.6,0.2-3.9,0c-1.4-0.2-2.6-0.7-3.7-1.4c-1.1-0.7-1.5-1.8-1.2-3.3
				c1.2-2.7,2.6-4,4.2-3.9c1.5,0.1,2.5,0.3,2.8,0.5c0,0.2,0.1,0.4,0.2,0.5c0.1,0.1,0.2,0.4,0.2,0.8c0,0.4,0.1,0.8,0.5,0.9
				c-0.3,0.4-0.6,0.6-0.7,0.6c-0.2,0-0.4,0.1-0.7,0.3c-0.3,0.2-0.6,0.3-0.9,0.3c0.6-0.2,0.8-0.6,0.7-1.1c-0.2-0.5-0.6-0.8-1.2-0.8
				c-1.5,0-2.3,0.2-2.3,0.6c-0.3,0.2-0.3,0.5,0,1c0.3,1.2,1.4,1.8,3.2,1.7c1.8-0.1,3.1-0.9,3.7-2.4c0.6-1.1,0.4-1.9-0.5-2.5
				c-0.9-0.6-1.8-1-2.8-1.3c-0.6-0.2-1.9-0.1-3.7,0.2c-1.9,0.3-3.1,1.3-3.7,3c-0.6,1.7-0.6,3,0,3.9c0.6,1,1.4,1.6,2.3,2.1
				c1.2,0.6,2.6,1,4.2,1.2c3.7,0.4,6.9,0.2,9.5-0.8c2.6-0.9,4.7-2.2,6.3-3.8c1.5-1.6,2.3-3.4,2.3-5.3c0-2-0.8-3.8-2.3-5.5
				c-1.9-1.7-3.8-2.9-5.9-3.8c-2-0.9-3.8-1.5-5.3-1.9c-1.9-0.4-3.7-0.6-5.6-0.6H1040c5.3,0.2,9.5,0.9,12.8,2.2
				c3.3,1.2,5.8,2.7,7.7,4.4c2.2,1.9,3.9,4,5.1,6.3v175.6c-0.3,0.7-0.9,1.6-1.6,3c-0.8,1.4-2.1,2.7-3.9,4.1
				c-1.9,1.4-4.4,2.6-7.7,3.8c-3.3,1.2-7.4,1.7-12.3,1.7h74.9c-5.2,0-9.4-0.6-12.5-1.7c-3.1-1.2-5.6-2.4-7.4-3.8
				c-1.8-1.3-3.2-2.7-3.9-4.1c-0.8-1.4-1.3-2.4-1.6-3V228.4l111,160.8h10.8v-85.3V201c0.3-0.6,0.8-1.6,1.6-2.8
				c0.8-1.2,2.1-2.6,4-4.1c1.9-1.4,4.4-2.7,7.5-3.9c3.1-1.1,7.1-1.7,12.1-1.7h-60.7c4.9,0,8.9,0.6,12,1.7c3.1,1.2,5.6,2.5,7.4,3.9
				c1.8,1.5,3.1,2.9,3.9,4.1c0.8,1.2,1.3,2.2,1.6,2.8v169L1103.7,226.8z"/>
			<path class="st3" d="M1355.7,304.2l52.7-75.8v148.2c-0.3,0.7-0.9,1.6-1.6,3c-0.8,1.4-2.1,2.7-4,4.1c-1.9,1.4-4.5,2.6-7.8,3.8
				c-3.3,1.2-7.4,1.7-12.4,1.7h75.1c-5,0-9.1-0.6-12.4-1.7c-3.3-1.2-5.8-2.4-7.7-3.8c-1.9-1.3-3.2-2.7-4-4.1c-0.8-1.4-1.3-2.4-1.6-3
				V201c1.2-2.3,2.9-4.4,5.1-6.3c1.9-1.7,4.4-3.2,7.7-4.4c3.3-1.2,7.5-2,12.8-2.2h-70.4c3.4,0.9,6.7,1.8,9.9,2.8
				c2.5,1.1,4.9,2.4,7.1,4.1c2.2,1.7,3.6,3.7,4.2,6v3.8l-14.6,22l-44.2,64.2l-44.2-64.2l-14.6-22V201c0.9-2.5,1.5-3.9,1.9-4.1
				l0.5-0.6c0.6-0.8,1.4-1.7,2.6-2.6c1.1-1,3.1-1.7,5.9-2.4c1.5-0.2,2.9-0.3,4.2-0.3c1.2,0,2.6,0.1,4,0.3c1.4,0.2,2.6,0.6,3.5,1.2
				c1.9,1.3,2.8,3.7,2.8,7.2c0.3,1.9,0.1,3.7-0.5,5.3c-0.6,1.7-1.2,2.8-1.9,3.2c-0.6,0.2-1.6,0.4-2.8,0.7c-1.2,0.2-2.6,0.2-4,0
				c-1.4-0.2-2.7-0.7-3.7-1.4c-1.1-0.7-1.5-1.8-1.2-3.3c0.9-2.7,2.3-4,4-3.9c1.7,0.1,2.7,0.3,3.1,0.5c0,0.2,0.1,0.4,0.2,0.5
				c0.1,0.1,0.2,0.4,0.2,0.8c0,0.4,0.2,0.8,0.5,0.9c-0.3,0.4-0.6,0.6-0.7,0.6c-0.2,0-0.4,0.1-0.7,0.3c-0.3,0.2-0.7,0.3-0.9,0.3
				c0.6-0.2,0.9-0.6,0.7-1.1c-0.2-0.5-0.6-0.8-1.1-0.8c-1,0-1.7,0.2-2.4,0.6c-0.3,0.2-0.5,0.5-0.5,1c0.3,1.2,1.4,1.8,3.3,1.7
				c1.9-0.1,3.1-0.9,3.8-2.4c0.6-1.1,0.4-1.9-0.5-2.5c-1-0.6-1.7-1-2.3-1.3c-0.7-0.2-1.9-0.1-3.8,0.2c-1.9,0.3-3.1,1.3-3.8,3
				c-0.6,1.7-0.6,3,0,3.9c0.6,1,1.4,1.6,2.4,2.1c1.2,0.6,2.7,1,4.2,1.2c3.7,0.4,7,0.2,9.6-0.8c2.6-0.9,4.7-2.2,6.3-3.8
				c1.5-1.6,2.3-3.4,2.3-5.3c0-2-0.8-3.8-2.3-5.5c-1.9-1.7-3.8-2.9-5.8-3.8c-2-0.9-3.8-1.5-5.4-1.9c-1.9-0.4-3.8-0.6-5.6-0.6h-65.4
				c4.9,0.2,9,0.9,12.3,2.2c3.3,1.2,5.8,2.7,7.7,4.4c2.2,1.9,3.9,4,5.1,6.3v175.6c-0.3,0.7-0.9,1.6-1.6,3c-0.8,1.4-2.1,2.7-4,4.1
				c-1.9,1.4-4.4,2.6-7.4,3.8c-3.1,1.2-7.1,1.7-12.1,1.7h74.8c-5,0-9.1-0.6-12.2-1.7c-3.2-1.2-5.6-2.4-7.5-3.8
				c-1.9-1.3-3.2-2.7-4-4.1c-0.8-1.4-1.3-2.4-1.6-3V228.4l52.7,75.8H1355.7L1355.7,304.2z"/>
			<path class="st3" d="M1640.3,388.9l0.5-25.8c-0.3,3.6-1.3,6.5-3,8.8c-1.7,2.3-3.7,4.2-6.1,5.8c-2.3,1.6-4.5,2.8-6.5,3.5
				c-2,0.7-3.5,1.2-4.4,1.4l-105.3,0.3v-87c0.3-3.4,1.3-6.1,3-8.2c1.7-2.1,3.5-3.8,5.5-5.1c2-1.2,4-2.2,6-2.7c2-0.5,3.3-0.9,3.9-1.1
				l4.1-0.9c3.3-0.4,9.1-0.8,17.3-0.9c8.2-0.2,15.8-0.3,23-0.3c2.5,0,4.6,0.4,6.3,1.1c1.7,0.8,2.9,1.5,3.5,2.4
				c0.9,0.9,1.5,1.9,1.9,3.2c0,3.6-0.4,7.1-1.2,10.5c-0.8,3.4-2,6.3-3.7,8.8c-1.7,2.6-3.8,4.6-6.3,6c-2.5,1.5-5.1,2.2-7.9,2.2
				c-4.1,0-7.9-1.1-11.7-3.5c-1.6-0.8-2.6-2.2-3-4.1c-0.5-1.9-0.7-4-0.7-6.4c0-2.7,0.4-5.3,1.2-7.7c0.8-2.4,1.8-3.9,3-4.6
				c0.6-0.2,1.9-0.4,4-0.6c2-0.2,4-0.2,6,0.2c2,0.3,3.7,1,5.2,2c1.4,1.1,1.8,2.7,1.2,4.8c-0.6,1.9-1.5,3.3-2.6,4.1
				c-1.1,0.9-2.2,1.3-3.3,1.4c-1.1,0.1-2,0.1-2.8-0.2c-0.8-0.2-1.3-0.4-1.6-0.6c-0.3-0.2-0.7-0.6-1.2-1.1c-0.5-0.5-0.4-1.2,0.2-2.1
				c0-0.4,0.6-0.8,1.9-1.2c0.6-0.2,1.1-0.3,1.4-0.3c-0.6,0.2-0.9,0.7-0.7,1.4c0.1,0.7,0.7,1.1,1.6,1.1c1.5,0.2,2.6-0.1,3.3-1
				c0.3-0.4,0.5-0.9,0.5-1.6c-0.3-1.7-1.8-2.4-4.4-2.2c-2.7,0.2-4.6,1.3-5.8,3.4c-0.9,1.5-0.8,2.7,0.5,3.5c1.2,0.9,2.3,1.5,3.3,1.9
				c1.2,0.4,3.1,0.4,5.6-0.2c2.5-0.5,4.5-1.9,6.1-4.3c0.9-2.1,1-3.8,0.2-5.2c-0.8-1.4-1.9-2.5-3.5-3.3c-1.6-0.9-3.6-1.6-6.1-2.2
				c-5.3-0.6-9.8-0.3-13.6,0.9c-3.8,1.3-6.8,3-8.9,5.2c-2.1,2.2-3.4,4.8-3.6,7.6c-0.3,2.8,0.6,5.5,2.7,8.1c1.2,1.7,2.7,3.3,4.5,4.7
				c1.8,1.5,4.2,2.5,7.3,3.2c3.4,0.9,7.6,1.3,12.6,1.3c5,0,9.9-0.9,14.9-2.8c5-1.9,9.4-5.1,13.3-9.7c3.9-4.5,6.3-10.8,7.2-18.8
				c0.3-1.4,0.5-2.8,0.5-4.1v-3.6c0-1.4-0.2-2.6-0.5-3.7h-36.8c-9.9,0-19.8,0-29.6-0.1c-9.8-0.1-17.3-0.2-22.4-0.2l-0.5-78.2h102.1
				c4.3-0.2,7.9,0.2,10.7,1c2.8,0.8,5,1.9,6.8,3.1c1.7,1.2,3,2.5,4,3.6c0.9,1.2,1.5,2.1,1.9,2.7v-16.7h-173.6
				c4.9,0.2,9,0.9,12.1,2.1c3.1,1.2,5.6,2.4,7.4,3.8c1.9,1.4,3.2,2.7,4,4.1c0.8,1.4,1.3,2.4,1.6,3v177.6c-0.3,0.7-0.9,1.6-1.6,3
				c-0.8,1.4-2.1,2.7-4,4.1c-1.9,1.4-4.4,2.6-7.4,3.8c-3.1,1.1-7.2,1.8-12.1,2L1640.3,388.9z"/>
			<path class="st3" d="M1731.3,226.8l-14.4-22V201c0.9-2.5,1.5-3.9,1.9-4.1l0.5-0.6c0.6-0.8,1.4-1.7,2.5-2.6c1.1-1,3-1.7,5.8-2.4
				c1.5-0.2,2.9-0.3,4.2-0.3c1.2,0,2.6,0.1,3.9,0.3c1.4,0.2,2.6,0.6,3.5,1.2c2.2,1.3,3.2,3.7,3.2,7.2c0,1.9-0.2,3.7-0.7,5.3
				c-0.4,1.7-1.2,2.8-2.1,3.2c-0.6,0.2-1.5,0.4-2.8,0.7c-1.2,0.2-2.6,0.2-3.9,0c-1.4-0.2-2.6-0.7-3.7-1.4c-1.1-0.7-1.5-1.8-1.2-3.3
				c1.2-2.7,2.6-4,4.2-3.9c1.5,0.1,2.5,0.3,2.8,0.5c0,0.2,0.1,0.4,0.2,0.5c0.1,0.1,0.2,0.4,0.2,0.8c0,0.4,0.1,0.8,0.5,0.9
				c-0.3,0.4-0.6,0.6-0.7,0.6c-0.2,0-0.4,0.1-0.7,0.3c-0.3,0.2-0.6,0.3-0.9,0.3c0.6-0.2,0.8-0.6,0.7-1.1c-0.2-0.5-0.6-0.8-1.2-0.8
				c-1.5,0-2.3,0.2-2.3,0.6c-0.3,0.2-0.3,0.5,0,1c0.3,1.2,1.4,1.8,3.2,1.7c1.8-0.1,3.1-0.9,3.7-2.4c0.6-1.1,0.4-1.9-0.5-2.5
				c-0.9-0.6-1.8-1-2.8-1.3c-0.6-0.2-1.9-0.1-3.7,0.2c-1.9,0.3-3.1,1.3-3.7,3c-0.6,1.7-0.6,3,0,3.9c0.6,1,1.4,1.6,2.3,2.1
				c1.2,0.6,2.6,1,4.2,1.2c3.7,0.4,6.9,0.2,9.5-0.8c2.6-0.9,4.7-2.2,6.3-3.8c1.5-1.6,2.3-3.4,2.3-5.3c0-2-0.8-3.8-2.3-5.5
				c-1.9-1.7-3.8-2.9-5.9-3.8c-2-0.9-3.8-1.5-5.3-1.9c-1.9-0.4-3.7-0.6-5.6-0.6h-65.1c5.3,0.2,9.5,0.9,12.8,2.2
				c3.2,1.2,5.8,2.7,7.7,4.4c2.2,1.9,3.9,4,5.1,6.3v175.6c-0.3,0.7-0.9,1.6-1.6,3c-0.8,1.4-2.1,2.7-3.9,4.1
				c-1.9,1.4-4.4,2.6-7.7,3.8c-3.3,1.2-7.4,1.7-12.3,1.7h74.9c-5.2,0-9.4-0.6-12.5-1.7c-3.1-1.2-5.6-2.4-7.4-3.8
				c-1.8-1.3-3.2-2.7-3.9-4.1c-0.8-1.4-1.3-2.4-1.6-3V228.4l111,160.8h10.8v-85.3V201c0.3-0.6,0.8-1.6,1.6-2.8
				c0.8-1.2,2.1-2.6,4-4.1c1.9-1.4,4.4-2.7,7.5-3.9c3.1-1.1,7.1-1.7,12.1-1.7h-60.7c4.9,0,8.9,0.6,12,1.7c3.1,1.2,5.6,2.5,7.4,3.9
				c1.8,1.5,3.1,2.9,3.9,4.1c0.8,1.2,1.3,2.2,1.6,2.8v169L1731.3,226.8z"/>
		</g>
		<path class="st3" d="M229.3,158c-2.7,0.2-5.4,0.1-8,0.2c3,3.9,6,7.8,8.2,12.2c1.6-4.8,4.1-9.2,6.2-13.8
			C233.8,157.7,231.4,157.4,229.3,158z M281.8,276.7c90.2-35.4,145.4-71.1,141.5-140c-3.9-69-66.9-123-143.4-123
			c-3.1,0-6.2,0.1-9.3,0.3C138,21.5,37.1,150.2,45.7,300.9c4,70.3,30.8,136,75.6,184.9c10.1,11,20.8,20.9,32,29.6
			c-16.4-21.8-26.5-47.6-28.1-75.8C120,347.9,203.3,307.4,281.8,276.7z M207.5,47.9c11-5.4,24-6.6,35.8-3.3
			c15.1,3.9,27.9,14.8,34.8,28.8c0.7,1.8,1.5,3.6,2.3,5.3c0.4,1.4,0.8,2.8,1.2,4.2c0.8,2.2,1.3,4.6,1.5,6.9
			c1.2,5.7,0.5,11.5,0.3,17.3l-0.4,0.1c-0.1,1.4-0.2,2.8-0.6,4.2c-0.3,1-0.5,2.1-0.7,3.1c-0.4,1.3-0.9,2.7-1.3,4
			c-0.5,1.3-1,2.6-1.5,4c-0.8,1.5-1.6,3-2.4,4.6c-3.1,5.7-7.2,10.9-11.9,15.3c-3.5,2.9-7,5.7-10.5,8.6c-10.1,9-16.5,22.1-17.4,35.6
			c-0.8,12.1,2.8,24.4,10.2,34c8,10.6,20.7,17.5,33.9,18.3c10.8,0.8,21.9-2.6,30.4-9.4c10.4-8.1,16.6-21.2,16.1-34.4
			c-0.2-14.4-9-28.1-21.9-34.3c-1.3-0.5-2.5-1-3.8-1.5c-0.8-0.3-1.6-0.5-2.3-0.8c-5.1-1.2-10.4-1.5-15.5-0.5c-2.4,0.3-4.8,1.2-7.1,2
			c-9.7,4.2-17.4,13-19.5,23.5c-2.8,12,2.6,25.6,13.4,31.7c7.9,4.8,18.4,4.9,26.2-0.1c8.6-5.2,12.9-17,8.9-26.4
			c-2.6-6.6-9.5-11.7-16.7-11.1c-5.7,0.1-10.7,4.3-12.5,9.6c-0.1,2.5-0.6,5.2,0.8,7.4c1.4,2.7,4.3,4.8,7.4,4.6
			c2.2-0.4,4.7-2.3,3.9-4.8c-1.4-1.3-3.9-1.7-3.8-4c1.1-1.4,2.5-2.6,4.3-3.3c2.4,0.3,5,1.2,6.4,3.3c2.3,2.8,2.2,6.8,1.3,10.1
			c-1.7,3.9-5.2,6.6-9.2,7.9c-5.2,1-11-0.2-14.9-4c-3.3-2.7-4.9-6.8-6.1-10.7c-0.4-3.5,0-7,0.8-10.4c1.3-2.5,2.3-5.2,4.1-7.3
			c2.2-2.8,5.2-4.7,8.3-6.4c1.5-0.5,3.1-1.1,4.7-1.6c3.5-0.6,7.2-0.7,10.7,0c1,0.3,2,0.5,3,0.7c5.8,2.2,10.9,6,14.2,11.3
			c4.9,7.6,6.1,17.5,3.2,26.1c-2.8,8.6-9.3,15.9-17.5,19.6c-8.1,3.8-17.8,4.2-26.2,1.2c-9-3.1-16.6-9.8-20.9-18.3
			c-5.2-9.8-5.9-21.8-2.3-32.2c4-11.9,13.5-21.5,25-26.1c0.8-0.3,1.6-0.5,2.4-0.7c1-0.4,2-0.7,3-1.1c1.5-0.2,3-0.4,4.4-0.9
			c4.4-0.4,8.9-0.3,13.3,0c1.5,0.4,2.9,0.7,4.4,1.1c1,0.2,2.1,0.5,3.1,0.8c1.3,0.5,2.6,1,3.9,1.5c1.3,0.7,2.6,1.4,4,2
			c11.5,6.3,20,17.6,23.3,30.3c2.6,9.9,2.2,20.6-1.2,30.2c-4.1,12-12.9,22.3-23.9,28.6c-10.1,5.8-22.2,8.2-33.8,6.6
			c-22.2-2.5-41.6-19.6-47.8-41.1c-2.3-6.9-2.3-14.2-4.2-21.2c-3.4-13.3-12.3-24.9-24-31.8c-3-1.7-6.2-3.1-9.4-4.2
			c-1-0.3-2.1-0.6-3.1-0.8c-4.7-1.6-9.7-1.5-14.5-1.4c-2.1,0-4.1,0-6.2,0.6c-1,0.2-2.1,0.3-3.1,0.5c-3.1,1-6.3,1.9-9.2,3.4
			c-11.1,5.2-20,15.1-23.9,26.8c-2.9,8.4-3.2,17.6-0.8,26.2c3,10.8,10.3,20.4,20.1,25.7c9,5,20,6.2,29.9,3.2
			c9.6-2.8,18-9.9,22.4-18.9c4-8.1,4.7-17.8,1.7-26.3c-2.7-8.1-8.7-14.9-16.3-18.5l-3.2-1.3c-1-0.3-2-0.5-3.1-0.8
			c-4-0.8-8.2-0.8-12.2-0.1c-1,0.3-2,0.6-3,0.9c-8.3,2.8-14.9,9.9-17.2,18.4c-0.2,1.6-0.4,3.1-0.8,4.7c-0.1,6.4,2.2,12.9,6.8,17.5
			c5,5,12.9,7.4,19.7,5c4.8-1.5,8.7-5.4,10.5-10.1c1.5-5.1,0.5-11.2-3.8-14.7c-3.7-3.3-10.7-3.1-13.1,1.6c-0.8,2-0.8,5.5,1.9,5.9
			c1.4,0.3,2.2-1,3-1.8c2.1,0.3,3.8,2.2,3.3,4.5c-0.6,4.5-5.8,6.3-9.7,5.5c-3.7-1.3-6.6-4.1-7.9-7.8c-0.2-1.1-0.5-2.2-0.8-3.3
			c0.1-1.9,0.5-3.7,0.8-5.6c2.2-5.9,7.7-10.5,14-11.1c2.3-0.2,4.6-0.1,6.9,0.4c8.9,2.4,15.6,11,15.9,20.2
			c0.7,9.6-4.8,19.1-13.2,23.7c-6.7,3.8-14.9,4.6-22.2,2.3c-10.9-3.3-19.4-13.2-21.4-24.4c-3.3-15.4,5.5-31.9,19.5-38.6
			c1.2-0.6,2.5-1.1,3.8-1.6l2.3-0.8c1-0.3,2.1-0.5,3.1-0.7c5.8-1.1,11.9-0.9,17.7,0.5c1,0.3,1.9,0.7,2.9,1c0.8,0.3,1.5,0.6,2.3,0.8
			l3.1,1.5c9.8,5.2,17.3,14.6,20.3,25.3c3.8,12.6,1.4,26.8-6,37.6c-6.2,9.5-16.1,16.3-26.9,19.2c-11.5,3.1-24.2,1.6-34.8-3.9
			c-10.6-5.4-19.1-14.6-23.7-25.6c-8.7-19.6-4.1-44,10.7-59.3c3.7-4,8.1-7.5,12.8-10.3c1.7-1,3.4-1.9,5.2-2.7c1.6-0.7,3.2-1.4,4.8-2
			c2-0.6,4-1.1,6-1.8c1.5-0.2,3.1-0.4,4.6-0.8c5.9-0.6,11.9-0.4,17.9,0c1.2,0.3,2.5,0.6,3.7,0.9c3.2,0.7,6.3,1.8,9.3,3
			c1,0.4,1.9,0.8,2.9,1.2c1.1,0.4,2.2,0.8,3.3,1.2c1,0.4,1.9,0.8,2.9,1.2c3.7,0.9,7.4,2.1,11.2,1.9l0.1,0.5c3.2,0,6.4,0.1,9.6-0.1
			c1.5-0.5,3.1-0.6,4.6-0.8c1-0.3,2.1-0.5,3.1-0.7c1.2-0.4,2.4-0.8,3.6-1.1c1.6-0.5,3.2-1.2,4.8-1.9c9.8-4.5,18.1-12.3,23.2-21.8
			c2-3.7,3.5-7.6,4.4-11.7c0.3-1,0.5-2.1,0.8-3.1c0.6-5.1,0.9-10.3,0-15.4c-0.2-1.5-0.4-3-0.8-4.5l-0.8-2.3
			C268.1,73,259.7,63.1,249,57.6c-10-5.1-22-6.1-32.6-2.4c-13.3,4.3-23.9,16.2-26.5,30c-0.7,4.6-0.7,9.3,0,13.8
			c2.4,13.1,12.5,24.6,25.5,27.8c1.3,0.3,2.6,0.5,3.9,0.7c2.5,0.5,5,0.5,7.5,0.1c2.4-0.3,4.7-0.8,6.9-1.5c1.3-0.5,2.6-1.1,3.9-1.7
			c5.8-3.1,10.7-8,13.5-14.1c3.2-6.9,3.5-15.3,0.4-22.3c-2.3-5.2-6.3-9.7-11.4-12.3c-7.1-3.8-16.3-3.3-22.8,1.4
			c-5.2,3.7-8.6,10.1-7.9,16.6c0.3,5.6,3.9,10.8,9,13.2c1,0.3,2.1,0.6,3.1,0.9c1.3,0.1,2.5,0.1,3.8,0c4.4-1,8.7-4.6,8.6-9.5
			c0.2-3.3-3-6.9-6.4-5.7c-1.7,0.9-1,2.8-0.7,4.3c-0.8,1-1.9,2-3.3,1.6c-3.7-0.8-5.3-5.4-4-8.7c2-5.6,9-8.1,14.3-6
			c5.9,2,9.9,8.2,9.8,14.5c0.2,7.7-5.1,14.8-12.1,17.8c-0.8,0.2-1.6,0.5-2.4,0.8c-1.8,0.5-3.6,0.5-5.4,0.6c-2.3,0.6-4.6-0.2-6.9-0.7
			l-1.7-0.5c-5.8-2.4-10.8-7-13.4-12.8c-3.9-8.3-3.1-18.6,1.8-26.3c4-6.5,10.5-11.2,17.8-13.1c9.1-2.5,19.3-0.5,27,4.9
			c7.7,5.3,13,13.9,14.6,23.1c1.9,10.8-1.2,22.2-8,30.6c-3.4,4.4-7.9,7.8-12.7,10.5c-1.8,0.8-3.5,1.6-5.3,2.3
			c-0.8,0.2-1.6,0.5-2.4,0.7c-2.2,0.6-4.4,1.1-6.6,1.2l0,0.4c-2.9-0.1-5.9,0.3-8.8-0.3c-1.8-0.2-3.7-0.3-5.4-0.8
			c-0.8-0.1-1.6-0.3-2.4-0.4c-1-0.4-1.9-0.8-2.8-1.2c-1.3-0.4-2.6-1-3.9-1.5c-10.3-4.9-18.2-14.1-22.4-24.6
			c-0.2-0.8-0.5-1.6-0.7-2.4c-2.5-7.4-2.7-15.4-1.6-23c0.2-1,0.5-2.1,0.7-3.1c0.3-1,0.5-2,0.8-3C185.8,64.7,195.3,53.7,207.5,47.9z"
			/>
		<path class="st4" d="M492.7,60.5c16.8,21.9,26.9,48.1,28.6,76.8c5.2,91.8-78.1,132.3-156.6,163c-90.2,35.4-145.4,71.1-141.5,140
			c0.1,1.9,0.2,3.6,0.4,5.3c-0.2,17.8,4.1,31.5,16.8,49.4c39.7-10.7,69.3-17.7,102-39.7c12-26.5,6.1-42,2.3-68.2
			c0,0,22.8,32.9,9.6,63.2c33.4-13.9,41-22.7,61.7-38.5c4-8.7,26.4-41-1.8-87.5c0,0,35.2,49.1,13.8,78.1
			c42.2-32.2,60.5-54.2,80-82.6c3.1-10,2.8-29.2-3.9-45.3c0,0,16.3,18.8,10.2,37.7c38.2-50.1,41.6-100.9,41.6-100.9
			c2.5,53.6-42.1,120.5-66.8,146.3c17.4-4.3,42.8,8.2,51.6,13.2c0,0-42.8-13.2-58.6-3.2c-23.1,23.4-42.9,43.7-66.7,61.8
			c33.1-5.4,59.2,23.3,59.2,23.3c-29.6-18.3-51.3-17.5-69.9-13.2c-49.9,36-106.4,56.1-153,70.6c0.9,0.9,4.7,7.8,5.6,8.8
			c10.9,11.6,23.2,20.2,36.3,26.4c21.4,11.4,46.4,18,73,18c3.1,0,6.2-0.1,9.3-0.3c63.9-3.6,122.5-35.3,165-89.1
			c42.8-54.3,64.1-124.6,59.9-197.8C595.7,185.5,553.7,107,492.7,60.5z M555.4,191.2l-0.1-2.6l0.4,2.3L555.4,191.2z"/>
	</g>
</g>
</svg>
