<svg xmlns="http://www.w3.org/2000/svg" xmlns:xlink="http://www.w3.org/1999/xlink" id="Capa_1" data-name="Capa 1" viewBox="0 0 1000 1000"><defs><style>.cls-1{isolation:isolate;opacity:0.8;fill:url(#Degradado_sin_nombre_3);}.cls-2{fill:url(#Degradado_sin_nombre_6);}.cls-3{fill:#fff;}</style><radialGradient id="Degradado_sin_nombre_3" cx="500" cy="502" r="500" gradientTransform="matrix(1, 0, 0, -1, 0, 1002)" gradientUnits="userSpaceOnUse"><stop offset="0" stop-color="#000056"></stop><stop offset="0.25" stop-color="#4c4c88" stop-opacity="0.75"></stop><stop offset="0.52" stop-color="#9898bb" stop-opacity="0.48"></stop><stop offset="0.74" stop-color="#d0d0e0" stop-opacity="0.26"></stop><stop offset="0.91" stop-color="#f2f2f6" stop-opacity="0.09"></stop><stop offset="1" stop-color="#fff" stop-opacity="0"></stop></radialGradient><linearGradient id="Degradado_sin_nombre_6" x1="259.35" y1="740.45" x2="740.65" y2="259.14" gradientTransform="matrix(1, 0, 0, -1, 0, 1002)" gradientUnits="userSpaceOnUse"><stop offset="0" stop-color="#4676ed"></stop><stop offset="0.19" stop-color="#436de4"></stop><stop offset="0.49" stop-color="#3c55cd"></stop><stop offset="0.87" stop-color="#302ea8"></stop><stop offset="1" stop-color="#2b1e99"></stop></linearGradient></defs><g id="ELEMENTS"><circle class="cls-1" cx="500" cy="500" r="500"></circle><path class="cls-2" d="M840.39,502.17c0-187.84-152.55-340.39-340.39-340.39S159.61,314.33,159.61,502.17c0,169.93,124.32,310.53,287.19,336.05V600.43H360.48V502.17H446.8V427.25c0-85.23,51-132.46,128.66-132.46,37.46,0,76,6.51,76,6.51v83.61H608.58c-42.35,0-55.38,26.06-55.38,53.2v64.06h94.47l-15.21,98.26H553.2V838.22C716.07,812.7,840.39,672.1,840.39,502.17Z"></path><path class="cls-3" d="M632.46,600.43l15.21-98.26H553.2V438.65c0-27.14,13-53.2,55.38-53.2h42.89v-83.6s-39.09-6.52-76-6.52c-77.63,0-128.66,47.23-128.66,132.47v74.91H360.48v97.72H446.8V838.22a328.23,328.23,0,0,0,106.4,0V600.43Z"></path></g></svg>