<svg id="Capa_1" data-name="Capa 1" xmlns="http://www.w3.org/2000/svg" xmlns:xlink="http://www.w3.org/1999/xlink" viewBox="0 0 1000 1000"><defs><style>.cls-1{isolation:isolate;opacity:0.8;fill:url(#Degradado_sin_nombre_3);}.cls-2{fill:url(#Degradado_sin_nombre_2);}.cls-3{fill:#fff;}</style><radialGradient id="Degradado_sin_nombre_3" cx="498.73" cy="502" r="500" gradientTransform="matrix(1, 0, 0, -1, 1.27, 1002)" gradientUnits="userSpaceOnUse"><stop offset="0" stop-color="#000056"/><stop offset="0.25" stop-color="#4c4c88" stop-opacity="0.75"/><stop offset="0.52" stop-color="#9898bb" stop-opacity="0.48"/><stop offset="0.74" stop-color="#d0d0e0" stop-opacity="0.26"/><stop offset="0.91" stop-color="#f2f2f6" stop-opacity="0.09"/><stop offset="1" stop-color="#fff" stop-opacity="0"/></radialGradient><linearGradient id="Degradado_sin_nombre_2" x1="743.55" y1="747.37" x2="250.65" y2="254.46" gradientTransform="matrix(1, 0, 0, -1, 1.27, 1002)" gradientUnits="userSpaceOnUse"><stop offset="0" stop-color="#fbe18a"/><stop offset="0.21" stop-color="#fcbb45"/><stop offset="0.38" stop-color="#f75274"/><stop offset="0.52" stop-color="#d53692"/><stop offset="0.74" stop-color="#8f39ce"/><stop offset="1" stop-color="#5b4fe9"/></linearGradient></defs><g id="ELEMENTS"><circle class="cls-1" cx="500" cy="500" r="500"/><circle class="cls-2" cx="498.37" cy="501.09" r="348.53"/><path class="cls-3" d="M605.14,369.16A23.89,23.89,0,1,0,629,393.05,24.1,24.1,0,0,0,605.14,369.16Z" transform="translate(1.27)"/><path class="cls-3" d="M498.73,399.57A100.43,100.43,0,1,0,599.16,500C599.16,445.17,554.1,399.57,498.73,399.57Zm0,165a64.6,64.6,0,1,1,64.6-64.6A64.75,64.75,0,0,1,498.73,564.6Z" transform="translate(1.27)"/><path class="cls-3" d="M578.53,704.67H415.67A122.56,122.56,0,0,1,293,582V419.11A122.56,122.56,0,0,1,415.67,296.42H578.53a122.56,122.56,0,0,1,122.7,122.69V582C701.23,649.29,645.85,704.67,578.53,704.67ZM415.67,334.42a84.22,84.22,0,0,0-84.15,84.15V581.43a84.22,84.22,0,0,0,84.15,84.15H578.53a84.22,84.22,0,0,0,84.15-84.15V418.57a84.22,84.22,0,0,0-84.15-84.15Z" transform="translate(1.27)"/></g></svg>