<svg xmlns="http://www.w3.org/2000/svg" xmlns:xlink="http://www.w3.org/1999/xlink" viewBox="0 0 982.27 982.27"><defs><style>.cls-1{isolation:isolate;}.cls-2{mix-blend-mode:multiply;opacity:0.8;fill:url(#radial-gradient);}.cls-3{fill:url(#linear-gradient);}.cls-4{fill:#ee1d52;}.cls-4,.cls-5,.cls-6{fill-rule:evenodd;}.cls-5{fill:#fff;}.cls-6{fill:#69c9d0;}</style><radialGradient id="radial-gradient" cx="491.13" cy="491.13" r="491.13" gradientUnits="userSpaceOnUse"><stop offset="0" stop-color="#000056"/><stop offset="0.39" stop-color="#7373a2" stop-opacity="0.55"/><stop offset="0.78" stop-color="#d9d9e6" stop-opacity="0.15"/><stop offset="1" stop-color="#fff" stop-opacity="0"/></radialGradient><linearGradient id="linear-gradient" x1="250.31" y1="250.73" x2="733.91" y2="734.33" gradientUnits="userSpaceOnUse"><stop offset="0" stop-color="#22004a"/><stop offset="0.96" stop-color="#020003"/><stop offset="1"/></linearGradient></defs><g class="cls-1"><g id="Capa_1" data-name="Capa 1"><circle class="cls-2" cx="491.13" cy="491.13" r="491.13"/><circle class="cls-3" cx="492.11" cy="492.53" r="341.96"/><path class="cls-4" d="M593.45,439.15a170.22,170.22,0,0,0,99.28,31.76V399.69a99.49,99.49,0,0,1-20.85-2.18v56.06a170.27,170.27,0,0,1-99.29-31.76V567.13a131.73,131.73,0,0,1-205,109.36,131.71,131.71,0,0,0,225.86-92V439.15Zm25.72-71.84a99.24,99.24,0,0,1-25.72-58.11V300H573.69a99.7,99.7,0,0,0,45.48,67.27ZM413.59,620.71a60.21,60.21,0,0,1,48-96.66,60.55,60.55,0,0,1,18.27,2.82v-72.8a132.12,132.12,0,0,0-20.84-1.2v56.67a60.23,60.23,0,0,0-45.39,111.17Z" transform="translate(-8.87 -6.87)"/><path class="cls-5" d="M572.59,421.81a170.27,170.27,0,0,0,99.29,31.76V397.51a99.67,99.67,0,0,1-52.71-30.2A99.7,99.7,0,0,1,573.69,300h-51.9V584.46a60.25,60.25,0,0,1-108.2,36.25A60.23,60.23,0,0,1,459,509.54V452.87a131.61,131.61,0,0,0-91.38,223.62,131.73,131.73,0,0,0,205-109.36Z" transform="translate(-8.87 -6.87)"/><path class="cls-6" d="M671.88,397.51V382.36a99.33,99.33,0,0,1-52.71-15.06A99.5,99.5,0,0,0,671.88,397.51ZM573.69,300c-.48-2.71-.84-5.44-1.1-8.18v-9.15H500.93V567.13a60.27,60.27,0,0,1-87.34,53.58,60.25,60.25,0,0,0,108.2-36.25V300ZM459,452.87V436.73a134.88,134.88,0,0,0-18.07-1.22,131.62,131.62,0,0,0-73.31,241A131.61,131.61,0,0,1,459,452.87Z" transform="translate(-8.87 -6.87)"/></g></g></svg>