<svg id="Capa_1" data-name="Capa 1" xmlns="http://www.w3.org/2000/svg" xmlns:xlink="http://www.w3.org/1999/xlink" viewBox="0 0 1000.23 1000.23"><defs><style>.cls-1{isolation:isolate;opacity:0.8;fill:url(#Degradado_sin_nombre_3);}.cls-2{fill:url(#Degradado_sin_nombre_4);}.cls-3,.cls-4{fill:#fff;}.cls-4{fill-rule:evenodd;}</style><radialGradient id="Degradado_sin_nombre_3" cx="500.12" cy="501.88" r="500.12" gradientTransform="matrix(1, 0, 0, -1, 0, 1002)" gradientUnits="userSpaceOnUse"><stop offset="0" stop-color="#000056"/><stop offset="0.25" stop-color="#4c4c88" stop-opacity="0.75"/><stop offset="0.52" stop-color="#9898bb" stop-opacity="0.48"/><stop offset="0.74" stop-color="#d0d0e0" stop-opacity="0.26"/><stop offset="0.91" stop-color="#f2f2f6" stop-opacity="0.09"/><stop offset="1" stop-color="#fff" stop-opacity="0"/></radialGradient><linearGradient id="Degradado_sin_nombre_4" x1="746.36" y1="748.12" x2="253.88" y2="255.64" gradientTransform="matrix(1, 0, 0, -1, 0, 1002)" gradientUnits="userSpaceOnUse"><stop offset="0" stop-color="#60fc7c"/><stop offset="1" stop-color="#4ab161"/></linearGradient></defs><circle class="cls-1" cx="500.12" cy="500.12" r="500.12"/><circle class="cls-2" cx="500.12" cy="500.12" r="348.24"/><path class="cls-3" d="M311.9,697l29.29-108.49a201.48,201.48,0,0,1-25-96.55c0-110.11,89.5-200.15,200.16-200.15,110.11,0,200.15,89.5,200.15,200.15,0,110.11-89.5,200.16-200.15,200.16a194.82,194.82,0,0,1-94.92-24.41Zm114.45-70,7,4.34a159.25,159.25,0,0,0,83,22.79c89.5,0,162.19-72.69,162.19-162.19S605.89,329.8,516.39,329.8,354.2,402.48,354.2,492a160.53,160.53,0,0,0,23.87,84.08l4.34,7.05-16.27,60.75Z"/><path class="cls-4" d="M590.16,519.64c-8.14-4.88-19-10.3-28.75-6.5-7.59,3.25-11.93,14.64-16.81,20.61-2.72,3.25-5.43,3.79-9.23,2.17-28.2-11.39-49.36-29.84-64.54-55.33-2.72-3.8-2.17-7,1.08-10.85,4.88-5.42,10.31-11.93,11.93-19,1.09-7.6-2.17-16.28-5.42-22.79-3.8-8.67-8.14-20.61-16.82-25-7.59-4.34-17.9-2.17-25,3.8-11.93,9.76-17.9,24.95-17.35,40.14a46.48,46.48,0,0,0,1.62,12.48c2.17,9.76,7.05,19,11.94,28.2,3.79,6.51,8.13,13,12.47,19.53,15.19,20.07,33.63,38,55.33,51,10.85,6.51,22.24,12.47,34.17,16.27,13.56,4.34,25.5,9.22,40.14,6.51,15.19-2.71,30.38-12.48,36.34-27.12,1.63-4.34,2.72-9.22,1.63-13.56C610.77,530,597.75,524.53,590.16,519.64Z"/></svg>