<svg xmlns="http://www.w3.org/2000/svg" xmlns:xlink="http://www.w3.org/1999/xlink" x="0px" y="0px" viewBox="0 0 750 500" style="enable-background:new 0 0 750 500;" xml:space="preserve"><style type="text/css">	.st0{display:none;}	.st1{fill:#419358;}	.st2{fill:#48943B;}</style><g id="BACKGROUND" class="st0"></g><g id="OBJECTS">	<g>		<g>			<g>				<path class="st1" d="M192,372.8c16.2,31.4,41.5,57.3,71.7,75.4c29.3,17.5,62.7,27.8,96.7,30.2c32.9,2.3,66.3-2.9,96.5-16.4     c34.1-15.3,63.6-41.1,85.6-71c22.3-30.4,37.4-66,44.1-103.1c6.6-36.8,5.3-75.5-6-111.2c-11-34.6-31.4-65.8-58.4-90     c-26.4-23.6-58.7-40.7-93.3-48.5c-35.9-8.1-73.7-6.4-108.6,5.5c-38.7,13.1-74.9,37.7-98.1,71.7c-2.7,4-5.2,8-7.4,12.3     c-1.2,2.3-2.3,4.6-3.2,7c-0.4,1.2-0.8,2.3-1.2,3.5c-0.5,1.5-0.7,3.2-1.3,4.6c-0.9,2,2.1,3.7,2.9,1.7c1.1-2.5,3.1-4.8,4.6-7     c1.4-2.1,2.7-4.2,4-6.4c2.6-4.3,5.4-8.5,8.3-12.5c5.7-8,12.1-15.6,19.2-22.5c14.2-14.1,30.7-25.6,48.5-34.6     c32.9-16.5,69.9-23.6,106.5-20c34.2,3.4,67.4,16,95.5,35.7c28.3,19.8,51.3,46.9,66,78.1c15.6,32.9,21.1,69.9,18.6,106     c-2.6,36.5-13.6,72.6-31.5,104.4c-18,31.9-43.2,59.9-74,80c-14.2,9.3-29.5,16.8-45.7,21.9c-15.6,4.9-31.7,7.6-48,8.4     c-33.4,1.6-67.2-4.9-97.8-18.6c-31.2-14-59-35.9-79.1-63.7c-5-7-9.6-14.3-13.7-21.8C193,370.9,191.5,371.8,192,372.8L192,372.8z     "></path>			</g>		</g>		<g>			<g>				<path class="st1" d="M193.3,374.2c12.2,28.9,33.8,53.1,59.5,70.9c28.5,19.7,61.8,31,96,35.4c18.7,2.4,37.6,2.8,56.4,1.5     c16.5-1.1,32.9-3.2,48.8-7.7c27.8-8,53.3-23,74.6-42.5c21.7-19.9,39-44.3,51.8-70.8c12.6-26.1,20.8-54.3,24.2-83.1     c3.4-28.9,1.9-58.5-5.5-86.6c-7.2-27.4-20.2-53.3-39.1-74.5c-22.8-25.5-53.7-43.3-85.7-54.6c-32.9-11.6-69.7-16.6-103.9-7.7     c-8,2.1-15.8,4.9-23.3,8.4c-0.3,0.1,0,0.6,0.3,0.4c32.1-14.7,69.3-15,103.2-7.1c17.3,4,34.1,10.2,50,18.1     c16.1,7.9,31.5,17.6,45,29.5c21.4,18.9,37.4,43.4,47.2,70.2c9.7,26.7,13.6,55.4,12.5,83.7c-1,28.7-7,57.3-17.4,84.1     c-10.6,27.2-25.8,52.8-45.3,74.6c-19.2,21.4-42.7,39-69.3,50.2c-13.5,5.6-27.6,9.6-42,11.8c-18.3,2.8-36.9,3.9-55.3,3.4     c-35.8-1-71.7-8.7-103.5-25.6c-27.5-14.6-51.8-35.9-68.4-62.3c-4-6.3-7.5-13-10.6-19.8C193.5,373.7,193.2,373.9,193.3,374.2     L193.3,374.2z"></path>			</g>		</g>		<g>			<g>				<path class="st1" d="M216.2,402.5c12.6,21.8,35.2,36.5,58,45.7c13.3,5.3,27.1,9.1,41,12.2c14,3.2,28.1,5.8,42.4,7     c27.2,2.3,54.8-0.2,81.1-7.7c24.4-7,47.5-18.5,67.6-34.1c18.9-14.6,35.2-32.7,47.2-53.4c1.5-2.6,3-5.3,4.4-8     c0.1-0.2-0.2-0.3-0.3-0.2c-11.2,21-26.6,39.8-44.7,55.1c-19,16.1-41,28.5-64.6,36.6c-25.6,8.7-52.8,12.5-79.8,11.6     c-14.2-0.5-28.3-2.5-42.3-5.3c-13.7-2.7-27.4-6-40.7-10.4c-24.4-8.2-47.7-21.1-63.8-41.6c-1.9-2.4-3.7-5-5.4-7.6     C216.3,402.2,216.1,402.4,216.2,402.5L216.2,402.5z"></path>			</g>		</g>		<g>			<g>				<path class="st1" d="M568.4,231.7c0.4,11.8-0.1,23.6-1.2,35.3c-1.2,11.8-3.1,23.5-5.8,35c-2.7,11.5-6.1,22.9-10.3,33.9     c-4.2,11.1-9,21.9-14.6,32.4c-5.6,10.4-11.9,20.3-18.5,30.1c-0.8,1.2-1.6,2.4-2.5,3.6c-0.1,0.2,0.2,0.4,0.3,0.2     c7.2-9.4,13.7-19.4,19.3-29.9c5.6-10.4,10.6-21.1,15-32.1c4.3-11,7.9-22.3,10.8-33.8c2.9-11.5,5-23.1,6.3-34.8     c1.4-11.8,1.9-23.7,1.7-35.5c0-1.5-0.1-2.9-0.1-4.4C568.6,231.6,568.4,231.6,568.4,231.7L568.4,231.7z"></path>			</g>		</g>		<g>			<g>				<path class="st1" d="M562.2,204.5c0.4,2.7,0.8,5.4,1.4,8.1c0.6,2.7,1.3,5.4,2.2,8.1c0.1,0.2,0.3,0.1,0.3-0.1     c-1.2-5.4-2.4-10.8-3.4-16.2C562.6,204.3,562.2,204.3,562.2,204.5L562.2,204.5z"></path>			</g>		</g>		<g>			<g>				<path class="st1" d="M314.4,80.7c3.9-2.2,7.8-4.4,11.7-6.7c0.1,0,0-0.2-0.1-0.1c-3.9,2.2-7.8,4.4-11.7,6.7     C314.2,80.6,314.3,80.8,314.4,80.7L314.4,80.7z"></path>			</g>		</g>		<g>			<g>				<path class="st1" d="M274,93.8c10-9.2,21-17.2,32.7-24c11.7-6.8,24.2-12.2,37.1-16.4c12.9-4.2,26.2-7.1,39.7-8.6     c13.4-1.5,26.9-1.6,40.3-0.3c13.4,1.3,26.7,4,39.6,7.9c1.6,0.5,3.2,1,4.8,1.5c0.3,0.1,0.4-0.3,0.1-0.4     c-12.7-4.7-26-7.8-39.5-9.4c-13.5-1.6-27.2-1.7-40.8-0.5c-13.5,1.3-26.9,3.8-39.9,7.8c-13,3.9-25.5,9.2-37.4,15.7     c-11.9,6.5-23.1,14.2-33.2,23.1c-1.3,1.1-2.5,2.2-3.7,3.4C273.8,93.8,273.9,93.9,274,93.8L274,93.8z"></path>			</g>		</g>		<g>			<g>				<path class="st1" d="M181.6,153c7.1-16.5,16.9-31.7,28.9-45.2c11.9-13.5,25.8-25.2,40.9-35c15.8-10.3,32.9-18.4,50.8-24.5     c20.3-6.9,41.4-11.2,62.8-13.3c21.3-2.2,42.7-2.3,64.1-1.2c2.6,0.1,5.3,0.3,7.9,0.4c0.2,0,0.2-0.3,0-0.3     c-21.6-1.8-43.4-2-65.1-0.1c-21.4,1.8-42.7,5.6-63.2,12c-18.3,5.6-35.9,13.3-52.2,23.3c-15.3,9.3-29.6,20.6-41.9,33.7     c-12.3,13-22.7,27.8-30.4,44c-0.9,2-1.9,4-2.7,6.1C181.3,153,181.6,153.2,181.6,153L181.6,153z"></path>			</g>		</g>		<g>			<g>				<path class="st1" d="M188.8,120.9c10.7-13,22.8-24.8,35.8-35.5c13.1-10.6,27.3-20,42.2-27.8c15.5-8.1,31.8-14.6,48.6-19.4     c18.3-5.1,37.2-8.1,56.2-9.1c18.9-1,37.9,0.2,56.6,3.3c2.3,0.4,4.6,0.8,6.9,1.2c0.1,0,0.2-0.2,0.1-0.2     c-18.6-3.9-37.6-5.7-56.6-5.2c-18.9,0.5-37.8,3.1-56.1,7.7c-17.2,4.3-34,10.5-50,18.4c-15.2,7.5-29.7,16.5-43.1,26.9     c-13.4,10.3-25.8,22-36.8,34.8c-1.4,1.6-2.7,3.2-4,4.8C188.5,120.8,188.7,121,188.8,120.9L188.8,120.9z"></path>			</g>		</g>		<g>			<g>				<path class="st1" d="M206.4,396c6.3,8.7,16.1,14.2,26.5,16.3c11,2.3,22.3,0.5,32.4-4.2c10.6-4.8,19.7-12.7,26.9-21.8     c3.8-4.8,7.1-10.2,8.3-16.2c1.1-5.2,0.5-10.7-2.1-15.3c-2.8-4.8-7.7-7.7-13.3-8c-6.2-0.3-12.1,2.3-17.5,5     c-1.4,0.7-2.8,1.4-4.1,2.2c-0.7,0.4-0.2,1.5,0.6,1.3c3.5-0.7,6.6,2,8.1,4.9c1.9,3.8,1,8.1-0.5,11.8c-1.8,4.2-4.4,8-6.2,12.1     c-0.9,2-1.6,4.1-1.8,6.3c-0.2,2,0,4,0.5,5.9c0.4,2,1,4,1.2,6c0.1,1.7-0.2,3.7-1.6,4.8c-0.5,0.4,0,1.3,0.5,0.9     c0.7-0.5,1.3-1,1.7-1.8c0.4-0.7,0.6-1.6,0.7-2.4c0.2-1.8-0.3-3.7-0.7-5.5c-0.5-2-1-4-1.1-6c-0.1-2.4,0.5-4.8,1.3-7     c1.7-4.6,4.7-8.5,6.6-13c1.6-3.9,2.5-8.3,0.8-12.4c-1.6-3.8-5.4-7-9.7-6.1c0.2,0.4,0.4,0.9,0.6,1.3c5.2-3.1,10.6-6,16.6-7.1     c5.5-1,11.2,0.3,15,4.6c3.4,3.8,4.8,9.2,4.3,14.3c-0.5,5.9-3.3,11.4-6.7,16.2c-6.5,9.2-15.2,17.1-25.2,22.5     c-9.6,5.2-20.5,7.7-31.4,6.4c-10.4-1.2-20.4-5.7-27.6-13.3c-0.9-1-1.8-2-2.6-3.1C206.5,395.8,206.3,395.9,206.4,396L206.4,396z"></path>			</g>		</g>		<g>			<g>				<path class="st1" d="M300.4,368.5c0.7,3.1,1.4,6.2,1.6,9.4c0.2,3.1,0.1,6.3-0.3,9.4c-0.8,5.9-2.6,11.8-6.5,16.4     c-7.1,8.5-18.6,12.6-29.4,12.6c-3.2,0-6.3-0.3-9.4-1.1c-1.5-0.3-3-0.8-4.5-1.3c-1.5-0.5-3-1.2-4.5-1.8c-0.5-0.2-0.8,0.6-0.4,0.8     c2.5,1.4,5.4,2.3,8.1,3c2.8,0.7,5.7,1.1,8.6,1.3c5.8,0.3,11.7-0.6,17.2-2.7c5.1-1.9,10-4.9,13.7-9c1.9-2.1,3.5-4.4,4.6-6.9     c1.3-2.9,2.1-5.9,2.7-9c0.6-3.5,0.9-7.2,0.7-10.7c-0.2-3.6-0.7-7.2-1.8-10.6C300.8,368.1,300.4,368.2,300.4,368.5L300.4,368.5z"></path>			</g>		</g>		<g>			<g>				<path class="st1" d="M220.2,410.7c8.2,10,20.8,15.7,33.3,17.9c13.1,2.3,26.6,1.3,39.3-2.4c15.5-4.4,29.7-12,43.6-19.9     c14.2-8.1,28.1-16.6,43.1-23.3c7.6-3.4,15.6-6.2,23.7-8c8-1.7,16.2-2.3,24.4-1.7c2.2,0.2,4.3,0.4,6.4,0.7c0.1,0,0.2-0.2,0-0.2     c-15.8-2.9-32.1,0.2-47.1,5.4c-15.4,5.4-29.5,13.5-43.6,21.6c-13.9,8.1-27.9,16.2-43,21.7c-13.1,4.8-26.9,7.2-40.9,6     c-13-1.2-26-5.8-35.6-14.8c-1.2-1.1-2.4-2.3-3.5-3.5C220.3,410.2,220,410.5,220.2,410.7L220.2,410.7z"></path>			</g>		</g>		<g>			<g>				<path class="st1" d="M327.3,411c4.7-2.6,7.2-7.7,9.1-12.5c2.4-6.1,4.7-12.4,7.3-18.5c4.8-11.3,10.7-22.3,19.8-30.8     c2.4-2.2,5-4.2,7.7-5.9c1.3-0.8,2.7-1.6,4.1-2.2c1.5-0.7,3.1-1.2,4.7-1.7c-0.3-0.3-0.5-0.5-0.8-0.8c-2.1,5.8-2.3,12-3.9,17.9     c-1.5,5.1-4.2,9.5-7.9,13.2c-7,7.1-16,11.7-23.1,18.7c-4.8,4.7-8.3,10.5-11.6,16.3c0.3,0.1,0.5,0.2,0.8,0.3     c2.1-6.1-0.4-12.4-2.1-18.3c-0.8-3-1.4-6-1.3-9c0.1-2.8,0.7-5.7,1.7-8.3c2-5.4,5.6-10.2,10-14c4.7-4.2,10.4-7.1,16.3-9.3     c6.8-2.5,14-4.2,21.1-5.7c0.5-0.1,0.3-1-0.2-0.8c-12.6,2.8-25.8,5.7-36.2,13.8c-9,7.1-15.4,18.4-13.2,30.1     c0.7,3.6,2,7.1,2.9,10.7c0.9,3.5,1.3,7.1,0.1,10.6c-0.2,0.5,0.6,0.8,0.8,0.3c3-5.4,6.1-10.8,10.5-15.3c3.5-3.6,7.5-6.6,11.6-9.5     c8-5.8,16.4-11.8,19.9-21.4c1.2-3.3,1.8-6.7,2.5-10.1c0.7-3.4,1.4-6.8,2.6-10.1c0.2-0.4-0.3-0.9-0.8-0.8     c-2.6,0.9-5.2,2.4-7.6,3.9c-2.4,1.4-4.7,3.1-6.8,4.9c-4.3,3.7-8.1,8.1-11.4,12.8c-7.4,10.8-12,23.1-16.6,35.3     c-2.2,5.7-4.5,12.5-10.1,15.7C326.9,410.8,327.1,411.1,327.3,411L327.3,411z"></path>			</g>		</g>		<g>			<g>				<path class="st1" d="M304.8,422.3c6-2.7,12.7-1.9,18.6,0.4c6.2,2.4,11.7,6.2,17.6,9.2c11.7,6,24.5,10.6,37.7,11.7     c7.2,0.6,14.5,0.1,21.5-2c-0.2-0.3-0.4-0.5-0.6-0.8c-2.1,4.3-6.2,6.9-10.5,8.6c-4.9,1.9-10.3,2.7-15.5,3.4     c-11.4,1.4-23.6,0.6-33.3-6c-4.7-3.2-8.4-7.4-10.6-12.7c-0.1-0.1-0.3-0.1-0.2,0.1c3.1,10,12.7,16.6,22.5,19     c6.4,1.6,13,1.7,19.5,1.1c5.6-0.5,11.3-1.4,16.6-3.2c5.1-1.7,10-4.7,12.4-9.7c0.2-0.4-0.1-0.9-0.6-0.8     c-12.7,3.9-26.3,2.4-38.9-1.4c-6.5-2-12.9-4.5-19-7.5c-5.9-2.9-11.4-6.5-17.4-9c-6.2-2.6-13.7-3.9-20-0.7     C304.4,422.1,304.6,422.4,304.8,422.3L304.8,422.3z"></path>			</g>		</g>		<g>			<g>				<path class="st1" d="M400.3,441.2c-9.3,2.1-19.3,0.6-27.2-5c-4.2-2.9-7.2-7.1-10.9-10.6c-3.5-3.3-7.7-5.7-12.5-6.7     c-5.2-1-10.6-0.6-15.2,2c-0.3,0.2-0.1,0.7,0.2,0.6c4.4-1.6,9.2-2.3,13.8-1.5c4.9,0.8,9.2,3,12.8,6.3c3.7,3.4,6.7,7.5,10.8,10.5     c3.8,2.8,8.2,4.7,12.8,5.6c5.1,1,10.5,0.9,15.4-0.8C400.6,441.5,400.5,441.2,400.3,441.2L400.3,441.2z"></path>			</g>		</g>		<g>			<g>				<path class="st1" d="M347.3,399.8c6.2-3.9,13.5-5.3,20.7-5.5c7.8-0.2,15.6,0.9,23.2,2c8.4,1.3,16.7,3,24.9,5.2     c8,2.1,15.9,4.7,24,6.4c7.9,1.7,16.1,2.7,24.1,1.5c1-0.1,2-0.3,3-0.5c-0.2-0.3-0.5-0.6-0.7-0.9c-6.5,8.4-16.6,13.8-27.2,14.4     c-11,0.6-21.8-3.8-29.4-11.7c-2-2-3.8-4.2-6-6c-1-0.9-2.1-1.7-3.3-2.2c-1.3-0.6-2.5-0.9-3.9-1.1c-0.3,0-0.5,0.5-0.1,0.5     c2.4,0.4,4.8,1.9,6.7,3.4c2,1.6,3.7,3.5,5.5,5.4c3.8,4,8.2,7.2,13.2,9.4c10,4.4,21.4,4.3,31.3-0.2c5.5-2.5,10.5-6.3,14.2-11     c0.4-0.5,0-1.2-0.6-1.1c-1,0.2-2,0.5-3,0.6c-1.1,0.2-2.1,0.3-3.2,0.4c-2,0.2-4,0.2-6,0.2c-4.1-0.1-8.2-0.6-12.3-1.4     c-8.2-1.5-16.2-4-24.3-6.1c-8.2-2.2-16.5-4-24.9-5.3c-7.7-1.2-15.5-2.3-23.3-2.4c-7,0-14.4,0.9-20.6,4.4     c-0.8,0.4-1.5,0.9-2.3,1.4C347,399.6,347.1,399.9,347.3,399.8L347.3,399.8z"></path>			</g>		</g>		<g>			<g>				<path class="st1" d="M466.9,406.6c-1.2-0.1-2.4,0.1-3.5,0.1c-1.1,0-2.3,0-3.4-0.1c-2.3-0.1-4.6-0.5-6.9-1.1     c-2.3-0.6-4.5-1.4-6.6-2.4c-2.1-1-4.1-2.3-6.1-3.5c-3.9-2.4-7.8-4.6-12.1-6.1c-4.2-1.4-8.6-2.2-13-2.4c-5-0.2-10,0.5-14.7,2.2     c-0.3,0.1-0.2,0.7,0.2,0.6c8.7-2,17.8-2.2,26.4,0.4c4.4,1.4,8.4,3.5,12.3,5.9c4,2.5,8,4.8,12.6,6c2.4,0.7,4.9,1.1,7.5,1.3     c1.3,0.1,2.6,0.1,3.9,0.1c1.3-0.1,2.6-0.1,3.8-0.5C467.2,407,467.2,406.6,466.9,406.6L466.9,406.6z"></path>			</g>		</g>		<g>			<g>				<path class="st1" d="M441.9,375.2c14.3,3.1,28.5-2.8,40-10.9c1.6-1.1,3.2-2.3,4.7-3.5c1.6-1.3,3.1-2.6,4.8-3.7     c-0.3-0.2-0.6-0.4-0.8-0.6c-0.2,1.3-0.2,2.6-0.4,3.9c-0.2,1.3-0.6,2.6-1,3.8c-0.9,2.5-2.2,4.9-3.8,7c-3.4,4.2-8.3,7-13.6,8     c-3,0.6-6.1,0.5-9,0.1c-0.3,0-0.4,0.5-0.1,0.6c5.4,1.6,11.4,0.5,16.3-2.1c4.9-2.6,8.8-6.9,10.9-11.9c0.6-1.4,1.1-2.9,1.4-4.5     c0.3-1.5,0.6-3.2,0.4-4.7c-0.1-0.4-0.6-0.8-1-0.4c-1.2,1.3-2.6,2.5-3.9,3.6c-1.4,1.1-2.7,2.2-4.1,3.2c-2.8,2.1-5.7,4-8.7,5.7     c-6.2,3.4-12.9,5.9-19.9,6.7c-4,0.5-8.1,0.4-12-0.4C441.8,375,441.7,375.2,441.9,375.2L441.9,375.2z"></path>			</g>		</g>		<g>			<g>				<path class="st1" d="M478.6,359.3c-1.2,2.2-4,2.7-6.3,2.9c-3,0.2-6,0.3-9,0.6c-5.7,0.7-11.4,2.2-16.2,5.5     c-1.2,0.8-2.4,1.8-3.4,2.9c-0.4,0.5-0.9,1.1-1.2,1.7c-0.4,0.6-0.8,1.3-1,1.9c0,0.2,0.2,0.3,0.3,0.2c0.5-0.4,0.8-1,1.3-1.4     c0.5-0.5,1-0.9,1.5-1.4c1-0.9,1.9-1.8,3-2.6c2.1-1.5,4.5-2.7,7-3.6c3-1.1,6.2-1.7,9.4-2.1c2.9-0.4,5.8-0.6,8.7-1     c2.4-0.4,4.9-1.2,6.1-3.4C478.9,359.3,478.6,359.2,478.6,359.3L478.6,359.3z"></path>			</g>		</g>		<g>			<g>				<path class="st1" d="M187.1,374.9c3.9,11,9.1,21.6,15.3,31.5c6.2,9.9,13.3,19.1,21.3,27.6c8,8.5,16.8,16.2,26.3,22.9     c9.5,6.8,19.7,12.7,30.4,17.4c10.7,4.8,21.8,8.5,33.2,10.8c1.4,0.3,2.8,0.6,4.2,0.8c0.1,0,0.1-0.1,0-0.2     c-11.4-2.2-22.6-5.6-33.3-10.1c-10.8-4.5-21.1-10-30.8-16.6c-9.6-6.5-18.6-14-26.8-22.2c-8.2-8.3-15.6-17.4-22.1-27.1     c-6.4-9.7-11.8-20.1-16.1-31c-0.5-1.3-1-2.6-1.5-3.9C187.4,374.6,187.1,374.7,187.1,374.9L187.1,374.9z"></path>			</g>		</g>		<g>			<g>				<path class="st1" d="M181.6,375.4c3,8.3,6.2,16.7,9.9,24.7c3.7,8.1,8,15.9,13.2,23.1c2.9,4,6.1,7.7,9.6,11.2     c0.1,0.1,0.3-0.1,0.2-0.2c-6.1-6.3-11.2-13.5-15.6-21.1c-4.4-7.7-8.1-15.7-11.5-23.9c-1.9-4.6-3.7-9.3-5.5-13.9     C181.9,375.1,181.5,375.2,181.6,375.4L181.6,375.4z"></path>			</g>		</g>		<g>			<g>				<path class="st1" d="M477.8,80.7c10.6,5.9,20.3,13.3,28.9,21.9c2.4,2.4,4.8,4.8,7.1,7.4c0.1,0.2,0.3-0.1,0.2-0.2     c-7.6-9.4-17-17.5-27.1-24.1c-2.9-1.9-5.9-3.6-8.9-5.3C477.8,80.3,477.6,80.6,477.8,80.7L477.8,80.7z"></path>			</g>		</g>		<g>			<g>				<path class="st1" d="M519.7,116.6c1.2,1.3,2.3,2.5,3.6,3.8c0.6,0.6,1.2,1.2,1.8,1.8c0.6,0.6,1.2,1.3,1.9,1.8     c0.2,0.1,0.4-0.1,0.3-0.3c-0.5-0.7-1.2-1.3-1.8-1.9c-0.6-0.6-1.2-1.3-1.8-1.9c-1.2-1.2-2.4-2.4-3.7-3.6     C519.8,116.1,519.5,116.4,519.7,116.6L519.7,116.6z"></path>			</g>		</g>		<g>			<g>				<path class="st1" d="M530,78.4c0.7,0.6,1.5,1.2,2.2,1.8c0.7,0.6,1.5,1.2,2.3,1.8c0.1,0.1,0.3-0.1,0.2-0.2     c-0.7-0.6-1.4-1.3-2.1-1.9c-0.7-0.6-1.4-1.2-2.2-1.9C530.1,77.8,529.7,78.2,530,78.4L530,78.4z"></path>			</g>		</g>		<g>			<g>				<path class="st1" d="M275.5,381.4c0.7,3.7,1.4,7.4,1.3,11.1c-0.1,1.7-0.3,3.4-0.8,5c-0.2,0.8-0.5,1.6-0.9,2.3     c-0.2,0.4-0.4,0.8-0.6,1.1c-0.1,0.2-0.2,0.4-0.3,0.6c-0.1,0.2,0,0.3-0.1,0.5c0,0.1,0.1,0.2,0.2,0.1c0.1-0.1,0.3-0.2,0.4-0.3     c0.1-0.2,0.2-0.4,0.3-0.5c0.2-0.4,0.4-0.8,0.6-1.2c0.3-0.8,0.6-1.5,0.8-2.3c0.5-1.6,0.7-3.3,0.8-5c0.1-3.9-0.6-7.7-1.5-11.4     C275.7,381.2,275.5,381.2,275.5,381.4L275.5,381.4z"></path>			</g>		</g>		<g>			<g>				<path class="st1" d="M281.9,365.2c1.6,2.6,2.7,5.4,3.4,8.4c0.3,1.5,0.5,3,0.6,4.4c0.1,1.5-0.1,3-0.1,4.5c0,0.1,0.2,0.2,0.3,0     c0.4-1.5,0.4-3,0.3-4.5c-0.1-1.5-0.3-3.1-0.6-4.6c-0.7-3-2-5.9-3.7-8.5C282,364.9,281.8,365,281.9,365.2L281.9,365.2z"></path>			</g>		</g>		<g>			<g>				<path class="st1" d="M292.9,359.2c2.8,7.2,2.7,15.5-0.1,22.7c-0.8,2.1-1.9,4-2.9,6c0,0.1,0.1,0.2,0.2,0.1c1.3-1.5,2.2-3.2,3-5     c0.8-1.8,1.4-3.7,1.8-5.7c0.8-3.9,0.9-7.8,0.3-11.7c-0.4-2.2-1-4.4-1.9-6.5C293.1,359,292.8,359.1,292.9,359.2L292.9,359.2z"></path>			</g>		</g>		<g>			<g>				<path class="st1" d="M298.4,391.1c-0.7-1.6-2.2-2.8-3.9-3.2c-1.8-0.4-3.9,0.1-5.1,1.5c-0.1,0.1,0,0.4,0.2,0.3     c0.7-0.4,1.4-0.8,2.2-1c0.8-0.2,1.7-0.3,2.5-0.1c1.5,0.3,2.9,1.3,3.7,2.7C298.2,391.4,298.5,391.3,298.4,391.1L298.4,391.1z"></path>			</g>		</g>		<g>			<g>				<path class="st1" d="M283,404.7c-0.9-1.1-2-1.9-3.3-2.4c-0.6-0.3-1.3-0.4-2-0.5c-0.7-0.1-1.4,0-2.1,0.1c-0.1,0-0.1,0.2,0,0.2     c0.6,0,1.3,0.1,1.9,0.2c0.6,0.1,1.3,0.3,1.9,0.5c1.2,0.4,2.4,1.2,3.4,2.1C282.9,404.9,283.1,404.8,283,404.7L283,404.7z"></path>			</g>		</g>		<g>			<g>				<path class="st1" d="M337.7,367.4c1.6,2.9,2.6,6,3.1,9.2c0.2,1.6,0.4,3.2,0.3,4.8c0,1.6-0.4,3.2-0.5,4.9c0,0.2,0.2,0.2,0.3,0     c0.5-1.5,0.6-3.3,0.7-4.9c0-1.6-0.1-3.3-0.3-4.9c-0.5-3.3-1.6-6.5-3.3-9.4C337.9,367.1,337.6,367.2,337.7,367.4L337.7,367.4z"></path>			</g>		</g>		<g>			<g>				<path class="st1" d="M346.6,360.4c1.9,2,2.6,4.8,2.2,7.5c0,0.3,0.4,0.4,0.4,0.1c0.6-2.8-0.4-5.9-2.4-7.9     C346.7,360,346.5,360.3,346.6,360.4L346.6,360.4z"></path>			</g>		</g>		<g>			<g>				<path class="st1" d="M371.1,354.7c-1.1-0.2-2.3-0.2-3.4-0.2c-1.1,0-2.1,0.1-3.2,0.3c-1.8,0.3-4,0.9-5.2,2.4     c-0.1,0.1,0,0.2,0.1,0.2c0.9-0.4,1.7-1,2.5-1.3c0.9-0.3,1.7-0.6,2.7-0.7c1.1-0.2,2.2-0.3,3.2-0.3c1.1,0,2.1,0.1,3.2,0     C371.2,355,371.3,354.7,371.1,354.7L371.1,354.7z"></path>			</g>		</g>		<g>			<g>				<path class="st1" d="M348.5,376.4c2.1-2.8,4.8-5.3,7.8-7.2c1.5-0.9,3.1-1.7,4.7-2.4c0.8-0.3,1.6-0.6,2.4-0.8     c0.8-0.2,1.8-0.3,2.6-0.7c0.2-0.1,0.2-0.5-0.1-0.5c-0.8,0-1.7,0.4-2.5,0.6c-0.9,0.3-1.7,0.6-2.6,0.9c-1.6,0.7-3.2,1.5-4.7,2.5     c-3,1.9-5.6,4.4-7.7,7.3C348.1,376.4,348.4,376.6,348.5,376.4L348.5,376.4z"></path>			</g>		</g>		<g>			<g>				<path class="st1" d="M421,412.6c-0.5-1.4-0.9-2.8-1.4-4.3c-0.4-1.3-0.9-2.5-1.5-3.7c-0.9-1.8-2.8-4.1-5-4c-0.1,0-0.1,0.2,0,0.2     c1.1,0.4,2,0.8,2.9,1.6c0.9,0.8,1.5,1.8,2,2.9c1.1,2.4,1.9,4.9,2.8,7.3C420.8,412.8,421,412.8,421,412.6L421,412.6z"></path>			</g>		</g>		<g>			<g>				<path class="st1" d="M430.7,410.7c1.1,1.3,2.1,2.6,3,3.9c0.4,0.6,0.8,1.3,1.2,2c0.2,0.4,0.4,0.7,0.5,1.1c0.1,0.3,0.3,0.7,0.5,1     c0.1,0.1,0.2,0,0.2-0.1c0.1-0.7-0.4-1.5-0.7-2.1c-0.4-0.7-0.9-1.5-1.4-2.2c-1-1.4-2.1-2.6-3.2-3.9     C430.7,410.4,430.6,410.5,430.7,410.7L430.7,410.7z"></path>			</g>		</g>		<g>			<g>				<path class="st1" d="M424.4,399.4c1.2-0.3,2.3-1,3.3-1.7c0.5-0.4,0.9-0.7,1.4-1.2c0.2-0.2,0.5-0.5,0.7-0.7     c0.2-0.2,0.4-0.4,0.4-0.7c0-0.1-0.1-0.1-0.2-0.1c-0.3,0.1-0.4,0.3-0.6,0.5c-0.2,0.2-0.4,0.4-0.6,0.6c-0.4,0.4-0.9,0.8-1.4,1.2     c-0.5,0.3-1,0.7-1.5,0.9c-0.5,0.3-1.1,0.5-1.6,0.8C424.1,399.2,424.3,399.4,424.4,399.4L424.4,399.4z"></path>			</g>		</g>		<g>			<g>				<path class="st1" d="M460.2,367.6c-0.3,0.8-0.4,1.5-0.6,2.3c-0.2,0.8-0.5,1.5-0.8,2.3c-0.3,0.6-0.7,1.2-1.1,1.7     c-0.2,0.3-0.5,0.5-0.7,0.7c-0.3,0.2-0.5,0.4-0.7,0.7c0,0.1,0,0.2,0.1,0.2c0.6-0.1,1.2-0.7,1.6-1.2c0.5-0.6,0.9-1.2,1.2-1.9     c0.4-0.7,0.6-1.5,0.8-2.3c0.2-0.8,0.4-1.7,0.5-2.5C460.5,367.5,460.3,367.5,460.2,367.6L460.2,367.6z"></path>			</g>		</g>		<g>			<g>				<path class="st1" d="M468.8,368.4c0,0.5-0.1,1-0.3,1.6c-0.1,0.2-0.2,0.5-0.3,0.7c-0.1,0.2-0.3,0.4-0.3,0.7     c0,0.1,0.1,0.1,0.1,0.1c0.2-0.1,0.4-0.4,0.5-0.6c0.1-0.3,0.2-0.5,0.3-0.8c0.2-0.5,0.2-1.1,0.1-1.7     C469,368.2,468.8,368.2,468.8,368.4L468.8,368.4z"></path>			</g>		</g>		<g>			<g>				<path class="st1" d="M473.9,372.3c2.3,1,5.2,0.6,7.5-0.1c1.2-0.3,2.3-0.8,3.4-1.3c1.1-0.5,2.4-1.1,3.3-2c0.1-0.1,0-0.2-0.1-0.2     c-1.1,0.4-2,1-3.1,1.6c-1.1,0.6-2.3,1-3.5,1.4c-1.2,0.4-2.5,0.6-3.8,0.7c-1.3,0.1-2.4-0.2-3.7-0.2     C473.9,372,473.8,372.2,473.9,372.3L473.9,372.3z"></path>			</g>		</g>		<g>			<g>				<path class="st1" d="M351.5,425.6c-2.2,0.3-4.3,1-6.4,1.8c-1,0.4-2,0.9-3,1.5c-0.5,0.3-1,0.5-1.4,0.8c-0.4,0.2-0.8,0.4-0.8,0.9     c0,0.1,0.1,0.2,0.2,0.2c0.4,0.1,0.7-0.2,1-0.5c0.5-0.3,0.9-0.7,1.4-1c0.9-0.6,1.9-1.1,2.9-1.5c2-0.9,4.1-1.5,6.3-2     C351.8,425.9,351.7,425.6,351.5,425.6L351.5,425.6z"></path>			</g>		</g>		<g>			<g>				<path class="st1" d="M350.4,445.8c-0.3-1.1-0.6-2.2-0.9-3.3c-0.1-0.5-0.2-1.1-0.3-1.6c-0.1-0.6-0.2-1.2-0.3-1.7     c0-0.1-0.2-0.1-0.2,0c-0.1,1.1,0.2,2.3,0.4,3.3c0.2,1.1,0.5,2.2,0.9,3.3C350.2,446,350.5,446,350.4,445.8L350.4,445.8z"></path>			</g>		</g>		<g>			<g>				<path class="st1" d="M358.7,434.1c1.2-0.6,2.5-1.2,3.7-1.8c0.6-0.3,1.2-0.6,1.9-0.8c0.6-0.2,1.3-0.4,1.8-0.8     c0.1-0.1,0-0.3-0.1-0.3c-0.6,0-1.2,0.4-1.8,0.6c-0.6,0.3-1.3,0.6-1.9,0.9c-1.3,0.6-2.5,1.2-3.6,2     C358.3,433.9,358.5,434.2,358.7,434.1L358.7,434.1z"></path>			</g>		</g>	</g>	<g>		<path class="st2" d="M323.5,128.8c0,3.1-1.7,6.7-2.3,10.4c-2.7,17-8,42.3-14.8,56.1c1.3-0.2,2.6-0.2,3.7-0.2   c4.7,0.1,8.1,1,8.9,5.3c-2.5-0.3-4.9-0.5-7.3-0.6c-5.8-0.1-10.8,0.7-15.8,0.6c-2.2,0-5.4-1.4-7-3.9c0.9,0.1,1.9,0.2,3,0.2   c3.2,0,6.8-0.4,10-0.9c5.8-13,10.5-43.5,14.1-57.4c-7.1,4.9-9.6,6-10.7,6c-1.5,0-2.3-0.5-2.3-2.7c3.5-1.7,12.9-8.5,19.7-15.8   C323.3,126.4,323.5,127.7,323.5,128.8z M346.4,201c-12.2-0.2-17.6-11.6-17.4-24.4c0.3-21.1,14.4-50.4,34.2-50.2   c11.2,0.1,18.2,9.2,18.1,23C380.9,174.5,365.8,201.2,346.4,201z M336.7,178.6c-0.1,11.5,4,19.1,11,19.2   c14,0.2,26.2-30.1,26.5-50.5c0.1-10.5-2.8-18.4-11-18.5C346.4,128.7,336.9,161.7,336.7,178.6z M403.4,201.7   c-12.2-0.2-17.6-11.6-17.4-24.4c0.3-21.1,14.4-50.4,34.2-50.2c11.2,0.1,18.2,9.2,18.1,23C437.9,175.3,422.8,202,403.4,201.7z    M393.7,179.3c-0.1,11.5,4,19.1,11,19.2c14,0.2,26.2-30.1,26.5-50.5c0.1-10.5-2.8-18.4-11-18.5C403.5,129.4,394,162.4,393.7,179.3   z M465.3,185.5c-6.5,10.1-12.1,16.9-17.4,16.8c8.7-8.5,34-53.1,40.8-70.1c0.7-1.8,4.9-4.1,7.8-4.1   C494.5,133.4,473.5,172.8,465.3,185.5z M457.9,162.2c-5.3-0.1-7.5-4.8-7.5-10.1c0.1-8.2,5.7-19.8,13.7-19.7   c4.7,0.1,7.7,3.9,7.7,9.7C471.7,150,465.9,162.3,457.9,162.2z M455.5,152.9c0,3.4,1,5.8,3,5.8c4.5,0.1,8.4-10.3,8.5-17.3   c0-3.2-0.8-5.6-2.9-5.6C458.6,135.7,455.6,147,455.5,152.9z M487.5,194.7c-5.3-0.1-7.5-4.8-7.5-10.1c0.1-8.3,5.7-19.8,13.7-19.7   c4.7,0.1,7.7,3.9,7.7,9.7C501.2,182.5,495.4,194.8,487.5,194.7z M485.1,185.3c0,3.5,1,5.9,3,5.9c4.4,0.1,8.4-10.3,8.5-17.3   c0-3.2-0.8-5.6-2.9-5.6C488.2,168.2,485.2,179.6,485.1,185.3z M227.6,315.6c-5.6-0.1-8.9-2.9-10.2-10.9   c-2.5-14.1-8.9-62.3-11.1-79.2c-22.4,76.4-26.1,89.5-34.2,89.4c4.6-16.8,12.7-39.4,29.4-93.4c0.3-0.9,1-3.4,1-5.4   c0-1.7-0.5-3.1-2-3.1c-8.6-0.1-15.6,14.8-15.7,23.4c0,1.7,0.2,3.5,0.6,4.7c-5.8-0.1-7.9-3.4-7.9-7.7c0.2-12.1,16.7-25.4,26.9-25.3   c10.6,0.1,12.8,20.2,14.9,41.6c1.8,17.7,4.1,36,5.3,44.7c4-24.9,20.2-74.4,22.4-79.3c1-2.2,4.5-6.5,8.5-6.4   C245.8,233.2,228.1,294.9,227.6,315.6z M289.3,280c0,3.1-7.9,12-7.9,18.4c0,2.7,1.3,5.9,4.4,5.9c4.8,0.1,13.4-6.7,21.5-20.7   l1.3,1.3c-5.8,14.3-17.2,24-26.6,23.8c-6.5-0.1-9.5-4.8-9.4-9.4c0-1.1,0.2-2.4,0.4-3.8c-7.8,10.1-13.7,15.2-20.3,15.2   c-5.6-0.1-9.8-3.7-9.7-11.2c0.2-15.8,20-40.5,37.3-40.3c6.9,0.1,12,4.1,12,10.1c-0.1,4.4-2.7,5.7-6.6,5.6c0.4-1.5,0.7-3.2,0.7-4.6   c0-4-1.6-7.5-6.4-7.5c-12.5-0.2-27.7,24.4-27.8,37.2c0,3.6,1.1,5.2,3.5,5.2c8.2,0.1,21.6-19.1,28.3-28.6   C285.6,276.9,289.3,278,289.3,280z M345.4,265.6c-9.7,0.9-17.4,1.4-23.4,1.3l-2,0c-4.2,9.4-7.6,19.4-7.7,28.9   c-0.1,7.7,2,10.7,7.3,10.7c9.2,0.1,18.6-8.5,25.5-22.4l1.7,1.3c-6.6,14.9-18.7,26.1-31.1,25.9c-7.7-0.1-11.8-4.5-11.7-13.3   c0.1-7.8,3.4-19.9,8.1-31.9c-1.7-0.3-3.3-0.6-4.8-1.1l0-2.4c1.3,0.1,3.3,0.4,5.8,0.6c7.7-19,18.1-37.1,23.6-37   c1.3,0,2.8,1.1,2.8,3c-0.1,4.6-10.2,18.3-18.1,34.6l4.9,0.1c5.8,0.1,12.4,0,19-0.6L345.4,265.6z M385.9,273.6   c0,1.5-9.1,18.2-9.2,27.1c0,3.2,1.1,5.3,4.3,5.4c5.6,0.1,15.8-7.6,22.5-21.2l1.7,1.2c-5.9,14.3-17.6,24.1-27,24   c-7-0.1-9.2-4.5-9.2-9.9c0-2.1,0.5-4.4,1-6.6c-5,8.7-11,16.3-17.6,16.2c-6-0.1-9.9-6.4-9.8-13.5c0.1-10.1,8.1-30,12.1-30   c0.9,0,3.4,1.1,4.9,2.7c-3,4.5-9.1,17.7-9.2,26.6c0,2.3,0.3,8.9,4.7,9c8.2,0.1,19.4-24.5,24.6-34.4   C381,270.3,385.9,271.3,385.9,273.6z M401.1,289.4c2.5-4.6,7.1-13.9,11.1-25.1c-0.8-0.8-1.3-1.9-1.3-3.2c0.1-5.3,4.2-9,5.7-9   c1.9,0,1.8,2.3,1.8,3.2c0,0.9-1.5,4.4-1.5,4.9c-0.1,4.9,13.5,7.3,13.3,18.6c-0.1,8.1-6.9,16.8-6.9,22.4c0,3.2,1.8,4,3.9,4   c8.4,0.1,19.4-11.8,22.8-19.5l1.7,1.4c-5.2,11.2-16.8,23-28.1,22.9c-6-0.1-9.7-3.6-9.6-8.8c0.1-7.8,7.5-17.7,7.6-24.7   c0.1-5.7-4-7.8-7.3-10.2c-4.3,10.4-9.3,20.6-12.1,25.3L401.1,289.4z M489.9,282.6c0,3.1-7.9,12-7.9,18.4c0,2.7,1.3,5.9,4.4,5.9   c4.8,0.1,13.4-6.7,21.5-20.7l1.3,1.3c-5.8,14.3-17.2,24-26.6,23.8c-6.5-0.1-9.5-4.8-9.4-9.4c0-1.1,0.2-2.4,0.4-3.8   c-7.8,10.1-13.7,15.2-20.3,15.2c-5.6-0.1-9.8-3.7-9.7-11.1c0.2-15.8,20-40.5,37.3-40.3c6.9,0.1,12,4.1,12,10.1   c-0.1,4.4-2.7,5.7-6.6,5.6c0.4-1.5,0.7-3.2,0.7-4.6c0-4-1.6-7.5-6.4-7.5c-12.5-0.2-27.7,24.3-27.8,37.2c0,3.6,1.1,5.2,3.5,5.2   c8.2,0.1,21.6-19.1,28.3-28.6C486.2,279.5,489.9,280.6,489.9,282.6z M516.2,283.9c-1.1,4.8-1.8,9.4-1.9,13.4   c-0.1,6.9,1.9,10.3,5.7,10.3c7,0.1,14.6-10.7,19.4-21l2,1.1c-7.2,15-15.7,24.2-25.3,24.1c-7.6-0.1-10.6-6-10.5-13.8   c0.3-25.5,33.4-85.5,42.4-85.4c2.8,0,4.3,6.2,4.3,9.9C552.2,234.2,535.8,268,516.2,283.9z M517.4,279.4   c15.6-15.3,30.6-45,30.7-53.9c0-1.7-0.5-2.1-0.9-2.1C543.7,223.2,525.1,253.8,517.4,279.4z"></path>	</g></g></svg>