<?xml version="1.0" encoding="utf-8"?>
<!-- Generator: Adobe Illustrator 25.4.1, SVG Export Plug-In . SVG Version: 6.00 Build 0)  -->
<svg version="1.1" id="Capa_1" xmlns="http://www.w3.org/2000/svg" xmlns:xlink="http://www.w3.org/1999/xlink" x="0px" y="0px"
	 viewBox="0 0 1348 560" style="enable-background:new 0 0 1348 560;" xml:space="preserve">
<style type="text/css">
	.st0{fill:#D10D6B;}
</style>
<g>
	<path class="st0" d="M40.38,114.12c-2.74,5.99-8.32,8.46-16,7.37c-5.85-0.83-9.01-4.15-9.84-10.85
		c-1.4-11.44,1.33-22.01,8.03-31.27c12.95-17.88,30.69-28.69,52.1-33.4c14.23-3.13,28.59-2.85,42.8,0.41
		c23.33,5.34,38.51,20.51,48.56,41.35c7.87,16.33,11.32,34.02,14.52,51.72c3.25,17.97,4.41,36.15,4.51,54.35
		c0.06,12.03-1.26,24.07-1.86,36.11c-0.06,1.28,0.33,3.58,0.89,3.71c2.15,0.48,4.54,0.97,5.88-1.98c2.11-4.64,4.49-9.16,6.82-13.7
		c19.52-38.13,40.18-75.58,65.55-110.23c13.13-17.92,27.3-34.94,45.1-48.53c10.16-7.75,21.13-13.78,34.09-15.57
		c15.86-2.19,28.63,4.92,35.01,19.63c4.85,11.17,6.27,22.99,6.71,34.96c0.84,22.49-2.43,44.65-5.74,66.78
		c-2.21,14.78-4.87,29.49-7.24,44.25c-0.13,0.83,0.59,2.59,0.72,2.57c1.69-0.25,4.06-0.2,4.88-1.28c2.09-2.73,3.49-5.99,5.14-9.05
		c18.46-34.21,37.96-67.8,60.09-99.81c15.13-21.9,31.27-42.98,50.53-61.48c12.62-12.12,26.15-22.98,42.92-29.01
		c6.96-2.5,14.1-3.72,21.5-3.27c13.59,0.83,21.92,9.12,23.13,22.74c0.44,4.9-0.91,9.25-2.48,13.82
		c-9.5,27.6-19.52,55.06-27.86,83.02c-12.18,40.84-23.84,81.87-34.32,123.17c-8.52,33.55-15.63,67.5-22.18,101.49
		c-6.81,35.32-11.14,71.03-10.56,107.13c0.27,17.08,1.57,34.08,7.53,50.31c1.35,3.67,3.13,7.27,5.25,10.56
		c9.65,14.97,27.51,18.29,42.13,7.99c8.9-6.27,14.63-15.08,19.49-24.55c0.95-1.86,1.79-3.79,2.92-5.53
		c1.97-3.02,6.52-4.33,9.55-2.49c1.04,0.63,1.96,2.66,1.76,3.85c-0.38,2.23-1.47,4.38-2.54,6.43
		c-5.91,11.33-12.28,22.37-20.97,31.89c-11.98,13.14-26.75,17.39-44.14,14.65c-25.79-4.08-40.9-20.11-49.68-43.41
		c-6.96-18.46-9.2-37.78-9.83-57.33c-1.1-33.87,2.52-67.38,7.8-100.77c5.6-35.39,13.22-70.35,21.78-105.13
		c13.35-54.26,29.28-107.79,46.18-161.03c4.7-14.8,9.61-29.52,14.41-44.29c0.25-0.77,0.52-1.54,0.65-2.33
		c0.67-3.97-1.28-6.2-5.05-4.91c-3.4,1.17-6.86,3.04-9.49,5.47c-16.51,15.25-30.87,32.45-44.15,50.51
		c-26.59,36.14-49.84,74.37-70.23,114.31c-20.56,40.28-40.14,81.04-57.12,122.97c-8.82,21.79-16.47,44.06-24.95,65.99
		c-5.73,14.82-12.05,29.43-21.56,42.34c-2.32,3.15-5.12,6.01-8.05,8.61c-3.84,3.42-8.42,4.65-13.59,3.37
		c-5.99-1.48-9.17-7.01-7.56-13.05c10.67-39.84,21.59-79.63,31.84-119.58c8.15-31.76,16.03-63.61,22.97-95.65
		c6.26-28.86,11.55-57.95,16.33-87.09c2.15-13.08,2.33-26.53,2.74-39.83c0.16-5.1-0.99-10.41-2.46-15.36
		c-2.89-9.73-9.65-12.52-18.94-8.3c-8.3,3.77-14.86,9.84-20.95,16.43c-17.91,19.37-32.42,41.25-45.57,63.94
		c-15,25.87-29.64,51.99-43.2,78.63c-23.22,45.64-41.81,93.22-56.22,142.39c-8.22,28.03-16.83,55.93-28.76,82.66
		c-4.87,10.92-10.08,21.7-17.84,30.94c-2.51,2.98-5.53,5.62-8.67,7.95c-3.87,2.88-8.44,3.1-13,1.82c-5.58-1.57-8.28-8.22-6.34-14.6
		c9.62-31.58,19.37-63.12,28.68-94.79c9.49-32.27,16.57-65.13,22.59-98.2c4.09-22.46,7.96-44.96,11.4-67.52
		c3.38-22.16,4.98-44.51,3.71-66.94c-0.92-16.3-1.72-32.67-6.07-48.55c-2.7-9.85-7.14-18.85-13.7-26.73
		c-9.02-10.83-20.64-16.67-34.7-17.44c-15.31-0.83-29.67,2.01-41.6,12.38c-10.38,9.03-16.47,20.55-18.24,34.21
		C35.87,108.24,36.28,111.96,40.38,114.12z"/>
	<path class="st0" d="M1238.26,427.24c-0.07-27.62,1.71-55.14,5.57-82.51c0.73-5.16-0.01-6.32-3.63-5.24
		c-1.13,0.34-2.15,1.63-2.84,2.73c-11.25,17.99-22.08,36.26-33.75,53.98c-12.71,19.31-26.54,37.88-44.23,53.03
		c-5.83,4.99-12.46,9.42-19.42,12.61c-13.84,6.36-37.15,1.69-47.22-17.94c-6.8-13.24-8.8-27.48-9.18-42.08
		c-1.46-55.34,11.64-107.5,34.61-157.49c7.13-15.51,14.71-30.77,24.85-44.6c4.68-6.38,9.71-12.53,16.78-16.44
		c2.58-1.42,5.52-2.51,8.43-2.98c8.9-1.42,14.8,5.85,11.77,14.4c-6.5,18.35-13.35,36.59-19.63,55.02
		c-11.62,34.12-22.4,68.51-30.85,103.58c-4.68,19.4-8.86,38.9-9.13,58.98c-0.1,7.53,0.1,15.07,2.84,22.27
		c3.56,9.38,10.93,12.03,19.33,6.67c9.54-6.1,16.63-14.75,23.63-23.43c20.2-25,36.98-52.29,52.39-80.37
		c16.51-30.08,32.26-60.57,48.17-90.98c6.93-13.24,12.99-26.94,20.23-39.99c5.26-9.46,12.27-17.79,22.05-23.18
		c4.68-2.58,9.71-3.8,15.08-2.95c7.05,1.12,10.9,8.35,7.73,14.76c-13.29,26.88-24.28,54.69-32.16,83.59
		c-6.06,22.22-11.39,44.68-15.87,67.27c-3.83,19.3-6.54,38.86-8.73,58.42c-2.86,25.5-3.87,51.13-1.12,76.73
		c0.69,6.39,2.2,12.83,4.29,18.92c4.44,12.95,14.81,15.28,24.79,5.93c6.08-5.69,9.67-12.97,12.56-20.61c1.47-3.89,6.58-6,10.21-3.97
		c2.42,1.36,1.83,3.49,1.24,5.53c-2.91,10.15-7.59,19.4-14.26,27.62c-1.68,2.07-3.35,4.16-5.01,6.25
		c-13.64,17.18-32.14,11.81-42.7,1.93c-9.38-8.78-14.14-20.27-18.21-32.04c-5.61-16.23-8.1-33.06-8.6-50.19
		C1238.15,436.05,1238.26,431.64,1238.26,427.24z"/>
	<path class="st0" d="M857.58,370.6c3.79,1.26,5.55,0.23,6.89-3.07c12.62-31.18,26.52-61.77,43.04-91.12
		c11.91-21.17,25.02-41.55,41.49-59.54c12.25-13.38,25.8-25.11,43.34-31.16c10.64-3.67,21.44-4.61,32.49-1.51
		c14.19,3.98,18.43,20.62,15.88,29.8c-6.04,21.76-12.52,43.42-17.59,65.41c-5.23,22.67-9.16,45.65-13.36,68.55
		c-4.01,21.81-6.25,43.84-7.09,65.99c-0.72,19.02-0.66,38.05,3.53,56.77c0.88,3.91,2.31,7.79,4.09,11.38
		c4,8.09,10.42,10.19,18.51,6.21c2.47-1.21,4.61-3.08,6.88-4.68c1.7-1.2,3.22-2.84,5.1-3.58c1.64-0.64,4.08-0.95,5.38-0.15
		c0.92,0.57,1,3.37,0.61,4.96c-0.51,2.08-1.44,4.36-2.9,5.86c-5.4,5.52-10.56,11.52-16.82,15.9c-8.1,5.66-17.08,4.15-25.33-0.66
		c-9.49-5.54-14.73-14.59-18.94-24.27c-8.96-20.6-12.16-42.46-13.66-64.64c-1.76-26.11-0.45-52.17,2.02-78.15
		c3.54-37.2,10.25-73.9,19.24-110.17c1.25-5.06,2.58-10.1,3.81-15.17c1.06-4.36-1.4-7.54-5.73-6.49c-3.69,0.9-7.56,2.61-10.43,5.05
		c-13.02,11.03-23.39,24.44-33.05,38.4c-19.78,28.61-35.55,59.48-51,90.54c-14.06,28.27-26.17,57.36-36.53,87.17
		c-2.57,7.39-4.27,15.11-6.06,22.75c-1.18,5.05-5.26,6.84-12.39,4.98c-4.58-1.2-7.15-4.94-9.02-9.09
		c-4.25-9.41-5.13-19.49-5.34-29.57c-0.59-28.32,0.7-56.6,3.64-84.76c3.62-34.75,9.54-69.11,20.03-102.53
		c4.66-14.84,9.93-29.49,20.1-41.7c3.63-4.36,7.99-7.71,13.69-9.02c12.06-2.77,15.79,6.43,13.65,14.51
		c-5.96,22.51-12.94,44.77-18.1,67.45c-6.22,27.32-11.03,54.96-16.32,82.49c-1.37,7.16-2.25,14.42-3.31,21.65
		C857.77,367.07,857.72,368.79,857.58,370.6z"/>
	<path class="st0" d="M652.44,339.61c4.03-0.48,7.69-0.75,11.29-1.37c17.93-3.08,32.79-12.1,45.5-24.65
		c18.97-18.73,33.89-40.29,43-65.49c4.61-12.76,7.16-25.96,4.08-39.57c-1.97-8.72-7.89-13.49-16.77-13.92
		c-14.76-0.71-27.13,5.18-38.24,14.17c-15.06,12.18-25.76,27.89-35.14,44.55c-15.7,27.89-26.89,57.48-32.87,88.96
		c-3.52,18.52-5.15,37.22-4.53,56.05c0.44,13.36,2.21,26.55,7.6,39.03c10.8,25.02,34.45,32.52,57.55,25.42
		c16.79-5.16,29.12-16.43,39.76-29.79c3.75-4.71,7.39-9.6,10.36-14.81c2.69-4.73,6.33-6.34,11.44-6.12c9.11,0.4,10.23,1.95,5.4,9.67
		c-11.23,17.98-23.48,35.29-41.22,47.52c-29.76,20.51-61.1,22.15-92.98,5.39c-15.13-7.95-24.46-21.47-30.58-37.11
		c-8.22-21.03-10.37-42.94-8.5-65.29c3.71-44.41,18.98-84.82,43.21-121.94c14.78-22.65,33.41-41.57,56.96-55.23
		c16.35-9.48,34-14.84,52.97-15.05c12.73-0.14,24.82,2.13,34.03,12.07c7.01,7.56,9.85,16.92,11.2,26.85
		c3.94,29.03-5.31,54.7-20.44,78.75c-10.77,17.13-24.27,31.67-42.33,41.39c-17.11,9.21-35.39,13.02-54.75,10.96
		C661.65,349.33,656.17,346.18,652.44,339.61z"/>
	<path class="st0" d="M1297.32,56.26c3.7,1.23,7.55,2.14,11.06,3.77c3.99,1.85,5.35,6.28,4.11,11.47c-1.11,4.67-2.97,8.87-6.25,12.6
		c-16.83,19.12-34.75,37.06-55.28,52.25c-1.76,1.3-3.66,2.76-5.71,3.24c-2.18,0.51-5.23,0.73-6.76-0.43
		c-1.3-0.99-1.56-4.22-1.2-6.27c0.46-2.67,1.79-5.26,3.09-7.7c12.13-22.88,27.26-43.64,44.89-62.58
		C1288.39,59.26,1292.1,56.62,1297.32,56.26z"/>
</g>
</svg>
