<?xml version="1.0" encoding="utf-8"?>
<!-- Generator: Adobe Illustrator 25.4.1, SVG Export Plug-In . SVG Version: 6.00 Build 0)  -->
<svg version="1.1" id="Capa_1" xmlns="http://www.w3.org/2000/svg" xmlns:xlink="http://www.w3.org/1999/xlink" x="0px" y="0px"
	 viewBox="0 0 750 120" style="enable-background:new 0 0 750 120;" xml:space="preserve">
<style type="text/css">
	.st0{fill:#589B4C;}
	.st1{fill:#EDCE2E;}
	.st2{fill:#EC9118;}
	.st3{fill:#EA462B;}
</style>
<g>
	<path class="st0" d="M625.7,60.6c9.6,0,19.3,0,28.5,0c2.6-12.3,5.8-23.9,16.3-31.8c2.5-1.8,5.7-2.9,8.7-3.8
		c5.9-1.8,11.4,3.1,8.3,10.7c-1.1,2.8-2.8,5.4-4.6,7.7c-4.4,5.4-9.1,10.6-13.6,15.8c-0.3,0.3-0.6,0.7-1.2,1.4c4.8,0,9.1,0,13.4,0
		c1.7,0,3.4-0.1,5.1,0c5.8,0.3,10.7-0.6,15.8-4.7c9.3-7.6,20.9-8.8,32.7-7.1c1.5,0.2,3.1,1,4.4,1.7c7,4,7.2,11.1,0.2,15
		c-3.2,1.8-7,2.9-10.6,3.4c-10,1.3-20.3,1.4-29.8-1.4c-8.8-2.6-17.3-0.6-26.2-2c2.5,3.2,5,5.7,6.7,8.8c1.7,3.2,2.9,6.7,3.5,10.3
		c0.9,6.3-3.5,10-9.7,8.6c-6.3-1.4-10.3-5.6-13.4-10.9c-3.5-5.9-6.1-12.7-6.4-16.5c-7.9,0-15.7,0-24,0c7,5.1,9.9,12.1,10.7,20
		c0.2,1.7,0,3.4-0.3,5c-0.8,3.6-3.7,5.3-7.3,4.4c-5.9-1.4-10.1-5.4-13.7-10c-4.4-5.7-6.6-12.2-6.6-19.5c-11.3,0-22.5,0-34.3,0
		c1.2,0.9,2.1,1.5,2.9,2.1c5.3,4.2,10,9,11.6,15.9c0.9,4,0.8,8.1-3.1,10.7c-3.9,2.6-8,2-11.7-0.5c-8.6-5.9-12.9-14.2-13.7-24.5
		c-0.1-1.1,0-2.3,0-3.7c-12.3,0-24.6,0-37,0c2.8,2,5.6,3.7,8.1,5.7c6.5,5.1,9.4,11.9,8.5,20.1c-0.4,4.4-3.6,7.1-8,6.3
		c-2.2-0.4-4.7-1.2-6.4-2.7c-7.8-6.7-13.5-14.9-16.5-24.8c-0.4-1.4-0.4-3-0.6-4.8c-1.1-0.1-2.1-0.1-3.2-0.2c-7-0.2-14-0.2-20.9-0.5
		c-1.5-0.1-3-0.9-4.5-1.4c0-0.5,0-0.9,0-1.4c1.9-0.3,3.8-0.9,5.7-1c7-0.2,14-0.3,20.9-0.4c0.7,0,1.5-0.1,1.6-0.1
		c0.9-4.8,1-9.5,2.7-13.7c3.6-9.1,9.3-16.8,18.1-21.7c6.2-3.5,10.1-1.1,10,6c-0.1,8.1-4.3,14.7-9,20.9c-2.3,3-5.2,5.6-8,8.5
		c1.5,0,3,0,4.4,0c10.6,0,21.1,0,31.7,0c1.4,0,2.7,0.1,2.9-1.8c0.7-6,3.6-11.2,7.1-15.8c3.8-5,8.3-9.5,12.8-13.9
		c1.7-1.7,4.1-2.7,6.2-3.8c2.1-1,4.5-1.9,6.6,0c2.2,1.9,2.6,4.5,2.1,7.2c-0.9,5.5-4.1,9.9-7.3,14.2c-5.8,7.6-6.7,8.2-16.4,13.6
		c11.3,0,22.3,0,33.4,0c0.9-12.6,7.6-22.1,16.6-30.3c1.4-1.3,2.9-2.4,4.5-3.3c2.9-1.6,6.1-2.5,9-0.3c3,2.3,3.6,5.6,3.2,9.1
		c-0.5,4.5-2.3,8.6-5.3,12C633.6,52.2,629.6,56.4,625.7,60.6z"/>
	<path class="st1" d="M362,48.4c3.3-7.4,6.3-14.5,9.7-21.5c1.2-2.4,2.9-4.6,4.8-6.6c2.8-3,5.5-2.7,8.1,0.4c0.9,1.1,1.9,2.2,2.5,3.4
		c3.3,5.9,6.6,11.8,9.9,17.7c4.3,0,8.7-0.1,13.1,0c2.9,0.1,5.8,0.1,8.7,0.5c3.1,0.4,4.4,1.8,3.7,4.8c-0.8,3.4-2,6.9-4,9.7
		c-3.8,5.5-8.3,10.4-12.1,15.1c2.8,5.3,5.7,10.3,8.2,15.5c0.9,1.9,1,4.2,1.1,6.3c0.1,3.2-1.8,4.9-5,4.4c-3.2-0.6-6.5-1.2-9.5-2.4
		c-5.7-2.3-11.3-5-16.9-7.7c-1.4-0.7-2.5-1.9-3.6-2.8c-4.2,3.9-8.3,8-12.5,11.8c-2,1.7-4.2,3.2-6.5,4.5c-5.3,2.8-10.6,0-10.4-6
		c0.1-4.9,1.5-9.8,2.6-14.6c0.6-2.5,2.7-5.2,2.2-7.4c-0.5-1.9-3.7-3-5.7-4.5c-3.8-2.9-8-5.4-10.2-10c-0.4-0.8-0.9-1.7-1.2-2.6
		c-1.7-5.6,0.1-8.1,5.9-8.1C350.8,48.4,356.7,48.4,362,48.4z M343.3,53.6c1.1,3.2,2.9,5.8,5.5,7.7c3.1,2.3,6.4,4.3,9.4,6.7
		c1.8,1.4,3.7,2.7,2.6,6c-1.7,5.2-2.9,10.7-3.9,16.1c-0.4,2.2,0,4.6,0,6.9c0.4,0.1,0.7,0.2,1.1,0.3c2-1.4,4.1-2.7,5.9-4.3
		c3.5-3.1,6.8-6.5,10.4-9.6c2.2-1.9,4.6-3.8,7.8-2.3c5.5,2.7,10.8,5.6,16.3,8.1c3.6,1.6,7.5,2.5,11.5,3.8c0-1,0.2-1.5,0.1-1.8
		c-2.7-6-5.5-12-8.2-18c-0.5-1.1-1-2.9-0.5-3.7c1.5-2.7,3.5-5.1,5.4-7.5c3-3.8,6.3-7.5,9.3-11.4c0.8-1,1.1-2.4,1.9-4.2
		c-6.6-0.2-12.6-0.3-18.6-0.7c-1.7-0.1-3.5-1.1-5.1-1.9c-4.4-2.4-6.3-6.9-8.5-11c-1.6-3-3.3-5.8-5.3-9.2c-1.2,1.7-2.2,2.7-2.8,4
		c-2.9,5.9-5.8,11.8-8.3,17.8c-2.5,5.8-4,7-10.3,7.2C353.9,53,348.7,53.3,343.3,53.6z"/>
	<path class="st2" d="M440.6,47c1.8,3.2,3.2,5.9,4.7,8.6c2-1.7,1.6-5.8,6.2-5.5c-0.3,2.8-0.6,5.4-1,8.2c2-0.6,4-1.5,6.1-1.8
		c1.1-0.2,2.3,0.6,3.4,0.9c-0.6,1.1-0.9,2.6-1.9,3.3c-1.6,1.1-3.5,1.7-5.5,2.6c1.7,0.8,3.3,1.4,4.6,2.4c0.8,0.6,1.2,1.7,1.8,2.5
		c-1.1,0.4-2.2,1.2-3.1,1c-2.2-0.4-4.3-1.2-6.7-2c0.9,2.9,1.9,5.6,2.5,8.4c0.4,1.7,1.5,4.3-0.8,5.1c-2.5,0.9-2.8-2-3.6-3.4
		c-0.9-1.5-1.3-3.2-2.1-5.3c-1.1,2.8-1.7,5.2-2.9,7.4c-0.6,1.1-2.2,2.3-3.2,2.2c-2-0.2-2.1-2.1-1.7-3.8c0.8-3.3,1.8-6.6,2.7-10
		c-3.7-0.1-7.5,3.1-11.4-1.1c4-1.4,7.4-2.6,11-3.9c-2.6-1.4-4.9-2.6-7.2-3.9c0.1-0.5,0.2-0.9,0.3-1.4c2.5,0,5,0,7.5,0
		C440.3,54.3,436.9,51,440.6,47z"/>
	<path class="st3" d="M437.6,40.9c-4.9-0.4-8.7-2.5-10.8-6.6c-2-3.9-0.9-7.9,1.6-11.4c2.8-4,12.5-6.4,16.8-4.2
		c3.5,1.8,5.6,4.7,5.6,8.8c0,4.6-1.6,8.6-5.8,10.9C442.7,39.6,440,40.1,437.6,40.9z M437,22.2c-4.6,0-7.3,2.7-7.2,7.4
		c0.1,3.3,3,5.7,6.7,5.7c5,0,8.6-3,8.6-7.3C445.2,24.5,442,22.2,437,22.2z"/>
	<path class="st3" d="M469.2,49.5c-6.8,0-10.8-6.4-7.7-12.1c1.2-2.2,3-3.3,5.5-2.9c0.6,0.1,1.1,0.2,1.7,0.2c5.5-0.4,9.1,2.5,9.2,7.3
		C477.9,45.9,473.7,49.5,469.2,49.5z M469.3,44.4c0.6-0.5,1.7-1.5,2.8-2.6c-1.5-1.6-2.9-3.1-4.4-4.7c-1.1,1.2-2.7,2.3-3.1,3.7
		C463.9,42.6,466,44.3,469.3,44.4z"/>
	<path class="st0" d="M124.3,60.2c-9.6,0-19.3,0-28.5,0C93.2,47.9,90,36.3,79.5,28.4c-2.5-1.8-5.7-2.9-8.7-3.8
		c-5.9-1.8-11.4,3.1-8.3,10.7c1.1,2.8,2.8,5.4,4.6,7.7c4.4,5.4,9.1,10.6,13.6,15.8c0.3,0.3,0.6,0.7,1.2,1.4c-4.8,0-9.1,0-13.4,0
		c-1.7,0-3.4-0.1-5.1,0c-5.8,0.3-10.7-0.6-15.8-4.7c-9.3-7.6-20.9-8.8-32.7-7.1c-1.5,0.2-3.1,1-4.4,1.7c-7,4-7.2,11.1-0.2,15
		c3.2,1.8,7,2.9,10.6,3.4c10,1.3,20.3,1.4,29.8-1.4c8.8-2.6,17.3-0.6,26.2-2c-2.5,3.2-5,5.7-6.7,8.8c-1.7,3.2-2.9,6.7-3.5,10.3
		c-0.9,6.3,3.5,10,9.7,8.6c6.3-1.4,10.3-5.6,13.4-10.9c3.5-5.9,6.1-12.7,6.4-16.5c7.9,0,15.7,0,24,0c-7,5.1-9.9,12.1-10.7,20
		c-0.2,1.7,0,3.4,0.3,5c0.8,3.6,3.7,5.3,7.3,4.4c5.9-1.4,10.1-5.4,13.7-10c4.4-5.7,6.6-12.2,6.6-19.5c11.3,0,22.5,0,34.3,0
		c-1.2,0.9-2.1,1.5-2.9,2.1c-5.3,4.2-10,9-11.6,15.9c-0.9,4-0.8,8.1,3.1,10.7c3.9,2.6,8,2,11.7-0.5c8.6-5.9,12.9-14.2,13.7-24.5
		c0.1-1.1,0-2.3,0-3.7c12.3,0,24.6,0,37,0c-2.8,2-5.6,3.7-8.1,5.7c-6.5,5.1-9.4,11.9-8.5,20.1c0.4,4.4,3.6,7.1,8,6.3
		c2.2-0.4,4.7-1.2,6.4-2.7C228.3,88,234,79.8,237,69.9c0.4-1.4,0.4-3,0.6-4.8c1.1-0.1,2.1-0.1,3.2-0.2c7-0.2,14-0.2,20.9-0.5
		c1.5-0.1,3-0.9,4.5-1.4c0-0.5,0-0.9,0-1.4c-1.9-0.3-3.8-0.9-5.7-1c-7-0.2-14-0.3-20.9-0.4c-0.7,0-1.5-0.1-1.6-0.1
		c-0.9-4.8-1-9.5-2.7-13.7c-3.6-9.1-9.3-16.8-18.1-21.7c-6.2-3.5-10.1-1.1-10,6c0.1,8.1,4.3,14.7,9,20.9c2.3,3,5.2,5.6,8,8.5
		c-1.5,0-3,0-4.4,0c-10.6,0-21.1,0-31.7,0c-1.4,0-2.7,0.1-2.9-1.8c-0.7-6-3.6-11.2-7.1-15.8c-3.8-5-8.3-9.5-12.8-13.9
		c-1.7-1.7-4.1-2.7-6.2-3.8c-2.1-1-4.5-1.9-6.6,0c-2.2,1.9-2.6,4.5-2.1,7.2c0.9,5.5,4.1,9.9,7.3,14.2c5.8,7.6,6.7,8.2,16.4,13.6
		c-11.3,0-22.3,0-33.4,0c-0.9-12.6-7.6-22.1-16.6-30.3c-1.4-1.3-2.9-2.4-4.5-3.3c-2.9-1.6-6.1-2.5-9-0.3c-3,2.3-3.6,5.6-3.2,9.1
		c0.5,4.5,2.3,8.6,5.3,12C116.5,51.8,120.4,56,124.3,60.2z"/>
	<path class="st2" d="M309.4,46.6c-1.8,3.2-3.2,5.9-4.7,8.6c-2-1.7-1.6-5.8-6.2-5.5c0.3,2.8,0.6,5.4,1,8.2c-2-0.6-4-1.5-6.1-1.8
		c-1.1-0.2-2.3,0.6-3.4,0.9c0.6,1.1,0.9,2.6,1.9,3.3c1.6,1.1,3.5,1.7,5.5,2.6c-1.7,0.8-3.3,1.4-4.6,2.4c-0.8,0.6-1.2,1.7-1.8,2.5
		c1.1,0.4,2.2,1.2,3.1,1c2.2-0.4,4.3-1.2,6.7-2c-0.9,2.9-1.9,5.6-2.5,8.4c-0.4,1.7-1.5,4.3,0.8,5.1c2.5,0.9,2.8-2,3.6-3.4
		c0.9-1.5,1.3-3.2,2.1-5.3c1.1,2.8,1.7,5.2,2.9,7.4c0.6,1.1,2.2,2.3,3.2,2.2c2-0.2,2.1-2.1,1.7-3.8c-0.8-3.3-1.8-6.6-2.7-10
		c3.7-0.1,7.5,3.1,11.4-1.1c-4-1.4-7.4-2.6-11-3.9c2.6-1.4,4.9-2.6,7.2-3.9c-0.1-0.5-0.2-0.9-0.3-1.4c-2.5,0-5,0-7.5,0
		C309.8,53.9,313.1,50.6,309.4,46.6z"/>
	<path class="st3" d="M305.1,38c-4.2-2.3-5.8-6.3-5.8-10.9c0-4.1,2.1-7,5.6-8.8c4.3-2.2,13.9,0.2,16.8,4.2c2.5,3.5,3.6,7.5,1.6,11.4
		c-2.1,4.1-5.9,6.3-10.8,6.6C310,39.7,307.3,39.2,305.1,38z M304.9,27.6c0,4.3,3.6,7.3,8.6,7.3c3.8,0,6.7-2.5,6.7-5.7
		c0.1-4.7-2.6-7.4-7.2-7.4C308,21.8,304.8,24.1,304.9,27.6z"/>
	<path class="st3" d="M272.2,41.6c0.1-4.8,3.7-7.7,9.2-7.3c0.6,0,1.1-0.1,1.7-0.2c2.6-0.4,4.3,0.7,5.5,2.9c3.1,5.7-0.9,12-7.7,12.1
		C276.3,49.1,272.1,45.5,272.2,41.6z M285.5,40.4c-0.5-1.4-2.1-2.5-3.1-3.7c-1.5,1.6-2.9,3.1-4.4,4.7c1.1,1,2.2,2.1,2.8,2.6
		C284,43.9,286.1,42.2,285.5,40.4z"/>
</g>
</svg>
