<svg xmlns="http://www.w3.org/2000/svg" xmlns:xlink="http://www.w3.org/1999/xlink" x="0px" y="0px" viewBox="0 0 809.7 560" style="enable-background:new 0 0 809.7 560;" xml:space="preserve"><style type="text/css">	.st0{display:none;}	.st1{display:inline;}	.st2{fill:#253E8B;}	.st3{fill:#00AEEF;}	.st4{fill:#FFFFFF;}	.st5{fill:#016FD0;}</style><g id="Capa_1" class="st0">	<g id="surface1" class="st1">		<path class="st2" d="M592.8,129.4c0-67.2-83.5-122-186.4-122S220,62.2,220,129.4c0,1.7,0,6.5,0,7c0,71.4,73.1,129,186.4,129   c114.1,0,186.4-57.6,186.4-129C592.8,134.2,592.8,132.8,592.8,129.4"></path>		<path class="st3" d="M585.8,129.4c0,63.3-80.4,114.7-179.4,114.7S227,192.7,227,129.4S307.5,14.7,406.4,14.7   S585.8,66.2,585.8,129.4"></path>		<path class="st4" d="M346.9,93.2c0,0.3-2,2-0.8,3.4c2.8,3.7,11.5,5.6,20.5,3.7c5.3-1.1,12.1-6.5,18.6-11.8   c7-5.6,14.1-11.2,21.1-13.5c7.6-2.2,12.4-1.4,15.5-0.3c3.4,1.1,7.6,3.4,14.1,8.2c12.4,9.3,61.6,52.3,70,59.6   c6.7-3.1,37.4-16.3,78.7-25.3c-3.7-22.2-17.1-42.4-37.4-58.8c-28.4,11.8-63.3,18.3-97,1.7c-0.3,0-18.6-8.7-36.8-8.4   c-27,0.6-38.5,12.4-50.9,24.7L346.9,93.2"></path>		<path class="st4" d="M504,147.4c-0.6-0.6-57.9-50.9-71.1-60.4c-7.6-5.6-11.8-7-16-7.6c-2.2-0.3-5.3,0-7.6,0.8   c-6.2,1.7-14.1,7-21.1,12.4c-7.3,5.9-14.1,11.2-20.5,12.7c-8.2,1.7-18-0.3-22.5-3.4c-2-1.1-3.1-2.5-3.7-4.2c-1.7-3.9,1.4-7,2-7.6   L359.2,73c2-2,3.7-3.7,5.6-5.6c-5.1,0.6-9.8,2-14.3,3.4c-5.6,1.7-11.2,3.1-16.9,3.1c-2.2,0-14.9-2-17.1-2.8   c-14.3-3.9-27-7.9-45.8-16.6C248.2,71.2,233,92,228.8,115.1c3.4,0.8,8.4,2.5,10.7,2.8c50.9,11.2,66.9,23.1,69.7,25.6   c3.1-3.4,7.6-5.6,12.7-5.6c5.6,0,10.7,2.8,13.8,7.3c2.8-2.2,7-4.2,12.1-4.2c2.2,0,4.8,0.6,7.3,1.4c5.6,2,8.7,5.9,10.1,9.3   c2-0.8,4.2-1.4,7-1.4s5.6,0.6,8.4,2c9.3,3.9,11,13.2,10.1,20.2c0.6,0,1.4,0,2,0c11.2,0,20.2,9,20.2,20.2c0,3.4-0.8,6.7-2.5,9.6   c3.1,1.7,10.7,5.6,17.4,4.8c5.3-0.6,7.6-2.5,8.2-3.7c0.6-0.8,1.1-1.7,0.6-2.2l-14.3-16c0,0-2.2-2.2-1.7-3.1   c0.8-0.8,2.2,0.3,3.4,1.1c7.3,6.2,16.3,15.5,16.3,15.5c0.3,0,0.8,1.4,3.9,2c2.8,0.6,7.9,0.3,11.2-2.5c0.8-0.8,1.7-1.7,2.5-2.5   c0,0,0,0-0.3,0c3.7-4.8-0.3-9.6-0.3-9.6l-16.9-18.8c0,0-2.5-2.2-1.7-3.1c0.8-0.8,2.2,0.3,3.4,1.4c5.3,4.5,12.9,12.1,20,19.1   c1.4,1.1,7.9,5.1,16-0.6c5.1-3.4,6.2-7.3,5.9-10.4c-0.3-4.2-3.7-7-3.7-7l-23.1-23.1c0,0-2.5-2-1.7-3.1c0.6-0.8,2.2,0.3,3.4,1.1   c7.3,6.2,27,24.2,27,24.2c0.3,0.3,7,5.1,15.5-0.3c3.1-2,5.1-4.8,5.1-8.2C508.2,150.8,504,147.4,504,147.4"></path>		<path class="st4" d="M392.7,176.6c-3.7,0-7.6,2-7.9,1.7s0.3-1.7,0.6-2.5c0.3-0.8,5.1-14.9-6.5-19.7c-8.7-3.7-14.1,0.6-16,2.2   c-0.6,0.6-0.6,0.6-0.8-0.3c-0.3-2.5-1.4-9.3-8.7-11.8c-10.7-3.4-17.7,4.2-19.4,7c-0.8-6.2-5.9-11-12.4-11c-7,0-12.7,5.6-12.7,12.4   c0,7,5.6,12.7,12.4,12.7c3.4,0,6.5-1.4,8.7-3.4v0.3c-0.6,3.1-1.4,14.3,10.4,18.8c4.8,2,8.7,0.6,12.1-2c1.1-0.6,1.1-0.3,1.1,0.6   c-0.3,2.8,0,9,8.7,12.7c6.7,2.8,10.4,0,13.2-2.5c1.1-1.1,1.4-0.8,1.4,0.8c0.3,8.4,7.3,14.9,15.7,14.9c8.7,0,15.7-7,15.7-15.7   C408.4,183.7,401.4,176.6,392.7,176.6"></path>		<path class="st2" d="M392.7,207c-7.9,0-14.3-6.2-14.6-14.1c0-0.6,0-2.5-1.7-2.5c-0.6,0-1.1,0.3-1.7,0.8c-1.7,1.7-3.9,3.4-7.3,3.4   c-1.4,0-3.1-0.3-4.8-1.1c-8.4-3.4-8.4-9-8.2-11.5c0-0.6,0-1.1-0.3-1.7h-0.3h-0.6c-0.3,0-0.8,0.3-1.4,0.6c-2.5,1.7-4.8,2.5-7,2.5   c-1.4,0-2.5-0.3-3.9-0.8c-11-4.2-10.1-14.6-9.6-17.7c0-0.6,0-1.1-0.6-1.4l-0.8-0.6l-0.8,0.6c-2.2,2-5.1,3.1-7.9,3.1   c-6.2,0-11.5-5.1-11.5-11.5c0-6.2,5.1-11.2,11.5-11.2c5.6,0,10.4,4.2,11.2,9.8l0.3,3.1l1.7-2.5c0.3-0.3,4.8-7.3,13.2-7.3   c1.7,0,3.4,0.3,5.1,0.8c6.7,2,7.9,8.2,8.2,10.7c0,1.4,1.1,1.7,1.4,1.7c0.6,0,1.1-0.3,1.4-0.6c1.4-1.4,3.9-3.7,8.4-3.7   c2,0,4.2,0.6,6.2,1.4c10.7,4.5,5.9,18.3,5.9,18.3c-0.8,2.2-0.8,3.4,0,3.9l0.3,0.3h0.3c0.6,0,1.1-0.3,2-0.6   c1.4-0.6,3.7-1.1,5.6-1.1l0,0c8.2,0,14.6,6.7,14.6,14.6C407.3,200.5,400.8,207,392.7,207z M506.2,141.5   c-17.7-15.5-58.5-50.9-69.7-59.3c-6.2-4.8-10.7-7.3-14.3-8.4c-1.7-0.6-3.9-1.1-7-1.1c-2.8,0-5.9,0.6-9,1.4   c-7,2.2-14.3,7.9-21.1,13.5l-0.3,0.3c-6.5,5.1-12.9,10.4-18,11.5c-2.2,0.6-4.5,0.8-6.7,0.8c-5.6,0-10.7-1.7-12.7-3.9   c-0.3-0.3,0-1.1,0.6-2l0,0l15.5-16.9c12.1-12.1,23.6-23.6,50.3-24.2c0.6,0,0.8,0,1.4,0c16.6,0,32.9,7.3,34.9,8.2   c15.5,7.6,31.5,11.2,47.5,11.5c16.6,0,34-4.2,52-12.4c-2-1.7-4.2-3.4-6.2-5.1c-16,7-31.2,10.4-45.8,10.4   c-14.9,0-29.8-3.7-44.4-10.7c-0.8-0.3-18.8-9-38-9c-0.6,0-1.1,0-1.4,0c-22.2,0.6-34.9,8.4-43.3,15.5c-8.2,0.3-15.2,2.2-21.6,3.9   c-5.6,1.7-10.4,2.8-15.2,2.8c-2,0-5.3-0.3-5.9-0.3c-5.3-0.3-32.9-6.7-54.5-15.2c-2.2,1.7-4.5,3.1-6.5,4.8   c22.8,9.3,50.6,16.6,59.3,17.1c2.5,0.3,5.1,0.6,7.6,0.6c5.9,0,11.5-1.7,17.1-3.1c3.4-0.8,7-2,10.7-2.5c-1.1,1.1-2,2-3.1,3.1   l-15.7,17.1c-1.1,1.1-3.9,4.5-2.2,8.7c0.6,1.7,2.2,3.4,4.2,4.5c3.7,2.5,10.4,4.2,16.9,4.2c2.2,0,4.5-0.3,6.7-0.6   c6.7-1.4,13.5-7,20.8-12.9c5.9-4.8,14.3-10.7,20.5-12.4c1.7-0.6,3.9-0.8,5.6-0.8c0.6,0,1.1,0,1.4,0c4.2,0.6,8.4,2,15.5,7.3   c12.9,9.8,70.6,59.9,70.8,60.4c0,0,3.7,3.1,3.4,8.4c-0.3,2.8-1.7,5.6-4.5,7.3c-2.5,1.7-5.1,2.2-7.6,2.2c-3.9,0-6.5-1.7-6.7-2   c-0.3-0.3-20-18.3-27-24.2c-1.1-0.8-2.2-1.7-3.4-1.7c-0.6,0-1.1,0.3-1.4,0.8c-1.1,1.4,0,3.4,1.7,4.5l23.1,23.1   c0,0,2.8,2.8,3.1,6.2c0.3,3.9-1.7,7-5.3,9.6c-2.8,1.7-5.3,2.8-8.2,2.8c-3.7,0-5.9-1.7-6.5-2l-3.4-3.4   c-5.9-5.9-12.4-12.1-16.9-15.7c-1.1-0.8-2.2-1.7-3.4-1.7c-0.6,0-1.1,0.3-1.4,0.6c-0.6,0.6-0.8,1.7,0.3,3.4   c0.6,0.8,1.1,1.4,1.1,1.4l16.9,18.8c0.3,0.3,3.4,4.2,0.3,8.2l-0.6,0.8c-0.6,0.6-1.1,1.1-1.7,1.4c-2.8,2.2-6.7,2.5-8.2,2.5   c-0.8,0-1.7,0-2.2-0.3c-1.7-0.3-2.8-0.8-3.4-1.4l-0.3-0.3c-0.8-0.8-9.3-9.6-16.3-15.5c-0.8-0.8-2-1.7-3.4-1.7   c-0.6,0-1.1,0.3-1.4,0.6c-1.4,1.4,0.6,3.7,1.7,4.5l14.3,15.7c0,0-0.3,0.6-0.6,0.8c-0.6,0.8-2.2,2.5-7.3,3.1c-0.6,0-1.1,0-2,0   c-5.3,0-11-2.5-14.1-4.2c1.4-2.8,2-5.9,2-9c0-11.8-9.6-21.4-21.4-21.4c-0.3,0-0.6,0-0.8,0c0.3-5.3-0.3-15.5-10.7-20   c-3.1-1.4-5.9-2-9-2c-2.2,0-4.5,0.3-6.5,1.1c-2.2-4.2-5.9-7.3-10.4-9c-2.5-0.8-5.1-1.4-7.6-1.4c-4.2,0-8.4,1.4-11.8,3.9   c-3.4-4.2-8.7-6.7-14.1-6.7c-4.8,0-9.3,2-12.7,5.3c-4.5-3.4-22.2-14.6-69.4-25.3c-2.2-0.6-7.6-2-10.7-3.1   c-0.6,2.5-0.8,5.1-1.1,7.9c0,0,8.7,2,10.4,2.5c48.4,10.7,64.4,21.9,66.9,23.9c-0.8,2.2-1.4,4.5-1.4,7c0,10.1,8.2,18,18,18   c1.1,0,2.2,0,3.4-0.3c1.4,7.3,6.2,12.9,13.8,15.7c2.2,0.8,4.2,1.1,6.5,1.1c1.4,0,2.8-0.3,4.2-0.6c1.4,3.4,4.5,7.9,11.2,10.4   c2.5,0.8,4.8,1.4,7,1.4c2,0,3.7-0.3,5.6-1.1c3.4,7.9,11,13.2,19.7,13.2c5.6,0,11.2-2.2,15.2-6.5c3.4,2,10.7,5.3,18,5.3   c0.8,0,2,0,2.8-0.3c7.3-0.8,10.7-3.7,12.4-5.9c0.3-0.3,0.6-0.8,0.8-1.1c1.7,0.6,3.7,0.8,5.9,0.8c3.9,0,7.9-1.4,11.8-4.2   s6.5-6.7,7-10.1c0,0,0,0,0-0.3c1.4,0.3,2.5,0.3,3.9,0.3c4.2,0,8.2-1.4,12.1-3.9c7.3-4.8,8.7-11.2,8.7-15.5   c1.4,0.3,2.5,0.3,3.9,0.3c3.9,0,7.6-1.1,11.2-3.4c4.5-2.8,7.3-7.6,7.9-12.7c0.3-3.7-0.6-7.3-2.5-10.4c12.4-5.3,41-15.7,74.5-23.3   c-0.3-2.5-0.6-5.1-1.1-7.9C544.2,124.9,513.8,138.1,506.2,141.5"></path>		<path class="st2" d="M673.2,386.9c-3.4,4.2-7.9,6.5-14.1,6.5c-6.2,0-10.7-2.2-14.1-6.5c-3.4-4.2-5.1-10.4-5.1-18.6   c0-7.9,1.7-14.1,5.1-18.6c3.4-4.2,7.9-6.5,14.1-6.5c6.2,0,10.7,2.2,14.1,6.5c3.4,4.2,4.8,10.4,4.8,18.6   C678,376.2,676.6,382.4,673.2,386.9z M689.8,338.6c-6.7-8.4-16.9-12.7-30.6-12.7s-23.9,4.2-30.6,12.7s-10.1,18.3-10.1,29.8   c0,11.8,3.4,21.6,10.1,30.1s16.9,12.4,30.6,12.4s23.9-4.2,30.6-12.4c6.7-8.4,10.1-18.3,10.1-30.1   C699.9,356.8,696.6,347,689.8,338.6"></path>		<path class="st2" d="M507.4,377.1c0,7-2.2,11.8-5.9,14.3c-3.9,2.5-8.2,3.9-12.7,3.9c-2.8,0-5.3-0.8-7.3-2.2   c-2-1.7-3.1-4.2-3.1-7.9c0-3.9,1.7-7,5.1-9c2-1.1,5.1-2,9.6-2.8l4.8-0.8c2.2-0.6,4.2-0.8,5.6-1.4s2.8-1.1,3.9-2V377.1L507.4,377.1   z M517.8,331.5c-6.7-3.4-14.6-5.3-23.3-5.3c-13.5,0-23.1,3.7-28.7,10.7c-3.4,4.5-5.3,10.1-5.9,17.1h20.2c0.6-3.1,1.4-5.6,3.1-7.3   c2-2.5,5.6-3.7,10.7-3.7c4.5,0,7.9,0.6,10.1,2s3.4,3.4,3.4,6.7c0,2.8-1.4,4.8-4.5,5.9c-1.7,0.8-4.5,1.4-8.4,2l-7,0.8   c-8.2,1.1-14.3,2.8-18.6,5.1c-7.6,4.5-11.5,11.5-11.5,21.4c0,7.6,2.2,13.5,7,17.4c4.8,4.2,10.7,5.9,18,6.2   c45.5,2,45.3-24.2,45.5-29.5v-30.1C528.2,341.4,524.8,334.9,517.8,331.5"></path>		<path class="st2" d="M413.8,344.2c5.3,0,9,1.7,11.5,4.8c1.7,2.2,2.8,5.1,3.1,8.2h22.5c-1.1-11.2-5.3-19.4-11.8-23.9   c-6.7-4.5-15.5-6.7-25.9-6.7c-12.4,0-22.2,3.9-29.2,11.5s-10.7,18.3-10.7,32c0,12.1,3.1,21.9,9.6,29.5s16.3,11.5,29.8,11.5   s23.9-4.5,30.6-13.8c4.2-5.6,6.7-11.5,7.3-18h-22.5c-0.6,4.2-1.7,7.6-3.9,10.1c-2.2,2.5-5.9,3.9-11,3.9c-7.3,0-12.1-3.4-14.9-9.8   c-1.4-3.7-2.2-8.2-2.2-14.1c0-6.2,0.8-11,2.2-14.6C401.4,347.6,406.4,344.2,413.8,344.2"></path>		<path class="st2" d="M367.4,326.5c-46.4,0-43.6,41-43.6,41v41.6h21.1V370c0-6.5,0.8-11.2,2.5-14.3c2.8-5.3,8.4-8.2,16.9-8.2   c0.6,0,1.4,0,2.5,0s2.2,0.3,3.7,0.3v-21.4c-0.8,0-1.4,0-1.7,0C368.2,326.5,367.7,326.5,367.4,326.5"></path>		<path class="st2" d="M262,348.1c2.8-3.1,7-4.5,12.4-4.5c5.1,0,9,1.4,12.4,4.2c3.4,2.8,5.1,7,5.6,12.7h-36   C257.2,355.4,259.1,351.2,262,348.1z M290.3,387.2c-0.8,1.1-2,2.2-2.8,3.1c-3.1,2.5-7,3.1-11.8,3.1c-4.5,0-7.9-0.6-11.2-2.8   c-5.3-3.1-8.2-8.7-8.4-16.6h58.2c0-6.7,0-12.1-0.6-15.7c-0.8-6.2-3.1-11.8-6.5-16.6c-3.7-5.3-8.2-9.3-13.8-11.8   c-5.6-2.5-11.8-3.7-18.8-3.7c-11.8,0-21.1,3.7-28.4,11c-7.3,7.3-11,18-11,31.8c0,14.6,3.9,25.3,12.1,32c8.2,6.5,17.4,9.8,28.1,9.8   c12.9,0,22.8-3.9,30.1-11.5c3.9-3.9,6.2-8.2,7.3-12.1L290.3,387.2"></path>		<path class="st2" d="M226.5,409.1h-19.1v-48.4c0-4.5-1.4-14.9-14.1-14.9c-8.4,0-14.6,6.2-14.6,14.9v48.4h-19.1v-48.4   c0-4.5-1.4-14.9-14.1-14.9c-8.7,0-14.6,6.2-14.6,14.9v48.4h-19.1v-47.8c0-20,13.2-35.1,33.7-35.1c10.1,0,18.6,4.2,23.9,11.2   c5.6-6.7,14.1-11.2,23.9-11.2c20.8,0,33.2,14.3,33.2,35.1L226.5,409.1"></path>		<path class="st2" d="M587.2,386.9c-3.1,4.5-7.6,6.5-13.5,6.5s-10.4-2.2-13.2-6.7s-4.2-11-4.2-18.3c0-6.7,1.4-12.7,4.2-17.1   c2.8-4.5,7.3-7,13.5-7c3.9,0,7.6,1.1,10.7,3.9c5.1,4.2,7.3,11.8,7.3,21.4C591.7,377.1,590,382.7,587.2,386.9z M612.2,301.2   c0,0-21.1-2.2-21.1,14.6v22.5c-2.2-3.7-5.3-6.7-9-8.7c-3.7-2.2-8.2-3.1-12.9-3.1c-10.4,0-18.8,3.9-25,11.8s-9.3,19.1-9.3,32.6   c0,11.8,3.1,21.4,9.6,29s18.8,11,29.8,11c38.8,0,38.2-33.2,38.2-33.2L612.2,301.2"></path>		<path class="st3" d="M299.9,479.1c0-7.9-1.4-14.1-4.8-18.3c-3.1-4.2-7.6-6.5-13.2-6.5s-9.8,2.2-12.9,6.5   c-2.8,3.9-4.2,10.1-4.2,18.3c0,7.9,1.4,13.5,4.5,17.4c3.1,4.2,7.6,6.5,13.2,6.5c5.3,0,9.6-2.2,12.7-6.5   C298.2,492.1,299.9,486.4,299.9,479.1 M264.5,535.9c0,2.8-1.1,5.3-3.1,7.3s-4.5,3.1-7.3,3.1h-10.4v-73.1   c0-14.3,4.8-23.1,12.7-29.2c5.3-3.9,12.9-7.9,27.6-7.9c9.8,0,21.4,3.9,27.6,11.2c7,8.4,9.8,18,9.8,30.4c0,12.9-3.1,23.1-9.3,31.2   c-6.2,7.9-14.1,11.5-23.9,11.5c-5.1,0-9.6-0.8-13.5-2.8c-4.2-2-7.3-5.1-9.8-9.6v27.8"></path>		<path class="st3" d="M425.8,479.1c0,14.1,3.9,21.9,12.1,23.3s14.1-0.3,18-5.6c1.7-2.2,3.1-5.6,3.9-10.4s0.8-9.6,0.3-14.1   c-0.6-4.8-2.2-8.7-5.1-12.7c-2.5-3.7-6.5-5.6-11.5-5.6c-6.7,0-11.5,2.5-14.1,7.6C427,466.8,425.8,472.7,425.8,479.1 M460.4,514   v-5.1c-3.7,5.6-8.4,9.3-14.6,10.7c-6.2,1.4-12.4,0.8-18.3-1.4c-6.2-2.5-11.2-7-15.7-13.5c-4.2-6.7-6.5-15.2-6.5-26.1   c0-12.7,2.8-22.8,8.7-30.6s14.9-11.5,27.8-11.8c12.7-0.3,20,2.5,27,7.9c7.9,5.9,12.4,15.2,12.4,29.2v43c0,13.8-9.6,39.1-39.4,36.8   c-18.6-1.4-29-9-34.6-26.1h22.2c1.7,2.8,4.2,5.1,7.3,6.5c3.4,1.4,6.7,2,10.1,1.1c3.4-0.8,6.5-2.8,9-5.9   C458.5,525.5,460.1,520.7,460.4,514"></path>		<path class="st3" d="M376.7,487.6c0,7-2.2,11.8-5.9,14.3c-3.9,2.5-8.2,3.9-12.7,3.9c-2.8,0-5.3-0.8-7.3-2.5s-3.1-4.2-3.1-7.9   c0-3.9,1.7-7,5.1-9c2-1.1,5.1-2,9.6-2.8l4.8-0.8c2.2-0.6,4.2-0.8,5.6-1.4s2.8-1.1,3.9-2V487.6L376.7,487.6z M387.3,442   c-6.7-3.4-14.6-5.3-23.3-5.3c-13.5,0-23.1,3.7-28.7,10.7c-3.4,4.5-5.3,10.4-5.9,17.1h20.2c0.6-3.1,1.4-5.6,3.1-7.3   c2-2.5,5.6-3.7,10.7-3.7c4.5,0,7.9,0.6,10.1,2c2.2,1.1,3.4,3.4,3.4,6.7c0,2.8-1.4,4.8-4.5,5.9c-1.7,0.8-4.5,1.4-8.4,2l-7.3,0.8   c-8.2,1.1-14.3,2.8-18.6,5.1c-7.6,4.5-11.5,11.5-11.5,21.4c0,7.6,2.2,13.5,7,17.7s10.7,5.9,18,6.2c45.8,2,45.3-24.2,45.5-29.5   v-30.1C397.5,451.9,394.1,445.4,387.3,442"></path>		<path class="st3" d="M543.9,496.8c-3.4,4.2-7.9,6.5-14.1,6.5c-6.2,0-10.7-2.2-14.1-6.5c-3.4-4.2-5.1-10.4-5.1-18.6   c0-7.9,1.7-14.1,5.1-18.6c3.4-4.2,7.9-6.5,14.1-6.5c6.2,0,10.7,2.2,14.1,6.5c3.4,4.2,4.8,10.4,4.8,18.6   C549,486.4,547.3,492.6,543.9,496.8 M560.8,448.5c-6.7-8.4-16.9-12.7-30.6-12.7s-23.9,4.2-30.6,12.7c-6.7,8.4-10.1,18.6-10.1,29.8   c0,11.8,3.4,21.6,10.1,30.1c6.7,8.4,16.9,12.4,30.6,12.4s23.9-4.2,30.6-12.4c6.7-8.4,10.1-18.3,10.1-30.1   C570.9,467,567.5,456.9,560.8,448.5"></path>	</g></g><g id="Capa_2">	<path class="st5" d="M137.5,13.3h533.3v287.9l-26.4,41.2l26.4,36.7v167.5H137.5V275.3l16.5-19l-16.5-18.1V13.3z"></path>	<path class="st4" d="M241.1,385v-83.7h88.7l9.5,12.4l9.8-12.4h321.8v78c0,0-8.4,5.7-18.1,5.8H474.5l-10.7-13.2V385h-35.1v-22.5  c0,0-4.8,3.1-15.2,3.1h-12V385h-53.2l-9.5-12.7l-9.6,12.7L241.1,385z M137.5,238.1l20-46.6h34.6l11.3,26.1v-26.1h43l6.8,18.9  l6.5-18.9h192.9v9.5c0,0,10.1-9.5,26.8-9.5l62.6,0.2l11.1,25.8v-26h36l9.9,14.8v-14.8h36.3v83.7h-36.3l-9.5-14.8v14.8h-52.8  l-5.3-13.2h-14.2l-5.2,13.2h-35.8c-14.3,0-23.5-9.3-23.5-9.3v9.3h-54l-10.7-13.2v13.2H187l-5.3-13.2h-14.2l-5.3,13.2h-24.7V238.1z"></path>	<path class="st5" d="M164.6,201.8l-27,62.7h17.6l5-12.6h28.9l4.9,12.6H212L185,201.8H164.6z M174.6,216.4l8.8,21.9h-17.7  L174.6,216.4z M213.8,264.5v-62.7l24.9,0.1l14.5,40.4l14.2-40.5h24.7v62.7h-15.7v-46.2l-16.6,46.2h-13.7l-16.7-46.2v46.2H213.8z   M302.9,264.5v-62.7h51.1v14h-35.3v10.7h34.5v13.2h-34.5v11.1h35.3v13.6H302.9z M363.1,201.8v62.7h15.7v-22.3h6.6l18.8,22.3h19.2  l-20.6-23.1c8.5-0.7,17.2-8,17.2-19.3c0-13.2-10.4-20.3-21.9-20.3H363.1z M378.8,215.9h17.9c4.3,0,7.4,3.4,7.4,6.6  c0,4.2-4.1,6.6-7.2,6.6h-18.1V215.9z M442.3,264.5h-16v-62.7h16V264.5z M480.3,264.5h-3.5c-16.7,0-26.9-13.2-26.9-31.1  c0-18.4,10-31.6,31.1-31.6h17.3v14.8h-18c-8.6,0-14.6,6.7-14.6,16.9c0,12.1,6.9,17.2,16.9,17.2h4.1L480.3,264.5z M514.4,201.8  l-27,62.7H505l5-12.6h28.9l4.9,12.6h17.9l-26.9-62.7H514.4z M524.4,216.4l8.8,21.9h-17.7L524.4,216.4z M563.6,264.5v-62.7h19.9  l25.4,39.4v-39.4h15.7v62.7h-19.3l-26.1-40.4v40.4L563.6,264.5z M251.8,374.3v-62.7h51.1v14h-35.3v10.7h34.5v13.2h-34.5v11.1h35.3  v13.6L251.8,374.3z M502.4,374.3v-62.7h51.1v14h-35.3v10.7h34.3v13.2h-34.3v11.1h35.3v13.6L502.4,374.3z M304.9,374.3l24.9-31  l-25.5-31.7h19.7l15.2,19.6l15.2-19.6h19l-25.2,31.3l24.9,31.3h-19.7l-14.7-19.3l-14.4,19.3H304.9z M375.1,311.6v62.7h16.1v-19.8  h16.5c14,0,24.5-7.4,24.5-21.8c0-11.9-8.3-21.1-22.5-21.1H375.1z M391.2,325.7h17.4c4.5,0,7.7,2.8,7.7,7.2c0,4.2-3.2,7.2-7.8,7.2  h-17.3V325.7z M439,311.6v62.7h15.7V352h6.6l18.8,22.3h19.2l-20.6-23.1c8.5-0.7,17.2-8,17.2-19.3c0-13.2-10.4-20.3-21.9-20.3  L439,311.6z M454.7,325.6h17.9c4.3,0,7.4,3.4,7.4,6.6c0,4.2-4.1,6.6-7.2,6.6h-18.1V325.6z M560.8,374.3v-13.6h31.4  c4.6,0,6.7-2.5,6.7-5.3c0-2.6-2-5.3-6.7-5.3H578c-12.3,0-19.2-7.5-19.2-18.8c0-10.1,6.3-19.7,24.6-19.7h30.5l-6.6,14.1h-26.4  c-5,0-6.6,2.6-6.6,5.2c0,2.6,1.9,5.5,5.8,5.5H595c13.7,0,19.7,7.8,19.7,18c0,11-6.6,20-20.4,20L560.8,374.3z M618.3,374.3v-13.6  h31.4c4.6,0,6.7-2.5,6.7-5.3c0-2.6-2-5.3-6.7-5.3h-14.2c-12.3,0-19.2-7.5-19.2-18.8c0-10.1,6.3-19.7,24.6-19.7h30.5l-6.6,14.1  h-26.4c-5,0-6.6,2.6-6.6,5.2c0,2.6,1.9,5.5,5.8,5.5h14.8c13.7,0,19.7,7.8,19.7,18c0,11-6.6,20-20.4,20L618.3,374.3z"></path></g></svg>