<?xml version="1.0" encoding="utf-8"?>
<!-- Generator: Adobe Illustrator 25.4.1, SVG Export Plug-In . SVG Version: 6.00 Build 0)  -->
<svg version="1.1" id="Capa_1" xmlns="http://www.w3.org/2000/svg" xmlns:xlink="http://www.w3.org/1999/xlink" x="0px" y="0px"
	 viewBox="0 0 220 54" style="enable-background:new 0 0 220 54;" xml:space="preserve">
<style type="text/css">
	.st0{fill:#00245B;}
	.st1{fill:#FFE100;}
	.st2{fill:#FFFFFF;}
</style>
<g>
	<g>
		<path class="st0" d="M78.03,26.09c0-13.25-16.46-24.05-36.76-24.05c-20.3,0-36.76,10.8-36.76,24.05c0,0.34,0,1.29,0,1.41
			c0,14.05,14.39,25.44,36.76,25.44c22.51,0,36.77-11.38,36.77-25.43C78.03,27.01,78.03,26.73,78.03,26.09z"/>
		<path class="st1" d="M76.62,26.08c0,12.49-15.83,22.61-35.35,22.61c-19.52,0-35.35-10.12-35.35-22.61
			c0-12.49,15.82-22.61,35.35-22.61C60.8,3.46,76.62,13.59,76.62,26.08z"/>
		<g>
			<path class="st2" d="M29.54,18.94c-0.02,0.04-0.37,0.4-0.14,0.69c0.56,0.71,2.28,1.12,4.02,0.73c1.04-0.23,2.37-1.29,3.66-2.31
				c1.4-1.11,2.78-2.22,4.17-2.66c1.47-0.47,2.42-0.27,3.04-0.08c0.69,0.2,1.49,0.65,2.77,1.62c2.42,1.82,12.15,10.31,13.82,11.78
				c1.35-0.61,7.37-3.2,15.54-5c-0.71-4.36-3.36-8.34-7.38-11.61c-5.6,2.35-12.45,3.58-19.14,0.31c-0.03-0.01-3.66-1.73-7.23-1.64
				c-5.31,0.12-7.61,2.42-10.05,4.86L29.54,18.94z"/>
			<path class="st2" d="M60.49,29.63c-0.11-0.1-11.44-10.01-14-11.94c-1.48-1.11-2.31-1.4-3.18-1.51c-0.45-0.06-1.08,0.03-1.51,0.14
				c-1.19,0.32-2.75,1.37-4.14,2.47c-1.43,1.14-2.79,2.22-4.04,2.5c-1.6,0.36-3.56-0.06-4.45-0.67c-0.36-0.24-0.62-0.52-0.74-0.81
				c-0.33-0.77,0.28-1.38,0.38-1.48l3.12-3.38c0.36-0.36,0.73-0.73,1.1-1.08c-1.01,0.13-1.94,0.39-2.85,0.64
				c-1.13,0.32-2.22,0.62-3.32,0.62c-0.46,0-2.92-0.4-3.39-0.53c-2.83-0.77-5.31-1.53-9.02-3.26c-4.44,3.31-7.41,7.44-8.27,11.99
				c0.64,0.17,1.67,0.47,2.1,0.57c10.05,2.24,13.18,4.54,13.75,5.02c0.61-0.68,1.5-1.12,2.49-1.12c1.11,0,2.11,0.56,2.72,1.42
				c0.58-0.45,1.37-0.84,2.4-0.84c0.47,0,0.95,0.09,1.44,0.25c1.13,0.39,1.72,1.14,2.02,1.83c0.38-0.17,0.85-0.3,1.4-0.3
				c0.54,0,1.1,0.12,1.67,0.37c1.85,0.8,2.14,2.62,1.97,3.99c0.13-0.02,0.26-0.02,0.4-0.02c2.2,0,3.98,1.79,3.98,3.99
				c0,0.68-0.17,1.32-0.48,1.88c0.6,0.34,2.12,1.1,3.46,0.93c1.07-0.14,1.47-0.5,1.62-0.71c0.1-0.14,0.2-0.31,0.11-0.42l-2.84-3.15
				c0,0-0.47-0.44-0.31-0.61c0.16-0.18,0.45,0.08,0.65,0.25c1.44,1.21,3.21,3.02,3.21,3.02c0.03,0.02,0.15,0.25,0.8,0.37
				c0.56,0.1,1.55,0.04,2.24-0.52c0.17-0.14,0.35-0.32,0.49-0.5c-0.01,0.01-0.02,0.02-0.03,0.03c0.73-0.93-0.08-1.87-0.08-1.87
				l-3.31-3.72c0,0-0.47-0.44-0.31-0.61c0.14-0.15,0.45,0.08,0.66,0.25c1.05,0.88,2.53,2.36,3.95,3.75c0.28,0.2,1.53,0.97,3.18-0.11
				c1-0.66,1.2-1.46,1.18-2.07c-0.07-0.81-0.7-1.38-0.7-1.38l-4.52-4.55c0,0-0.48-0.41-0.31-0.62c0.14-0.17,0.45,0.08,0.65,0.25
				c1.44,1.21,5.34,4.78,5.34,4.78c0.05,0.04,1.4,1,3.07-0.06c0.6-0.38,0.98-0.95,1.01-1.62C61.31,30.32,60.49,29.63,60.49,29.63z"
				/>
			<path class="st2" d="M38.55,35.4c-0.7-0.01-1.47,0.41-1.57,0.35c-0.05-0.04,0.04-0.32,0.11-0.48c0.07-0.16,0.99-2.94-1.26-3.91
				c-1.72-0.74-2.77,0.09-3.14,0.47c-0.1,0.1-0.14,0.09-0.15-0.04c-0.03-0.5-0.26-1.85-1.75-2.31c-2.12-0.65-3.49,0.83-3.84,1.37
				c-0.15-1.21-1.18-2.15-2.43-2.15c-1.36,0-2.47,1.1-2.47,2.47c0,1.36,1.1,2.47,2.47,2.47c0.66,0,1.26-0.26,1.71-0.69
				c0.01,0.01,0.02,0.04,0.01,0.08c-0.1,0.61-0.29,2.83,2.03,3.73c0.93,0.36,1.72,0.09,2.38-0.37c0.2-0.14,0.23-0.08,0.2,0.1
				c-0.08,0.57,0.02,1.79,1.73,2.48c1.3,0.53,2.07-0.01,2.58-0.48c0.22-0.2,0.28-0.17,0.29,0.14c0.06,1.65,1.43,2.96,3.1,2.96
				c1.71,0,3.1-1.39,3.11-3.1C41.66,36.79,40.27,35.42,38.55,35.4z"/>
		</g>
		<path class="st0" d="M60.93,28.45C57.44,25.4,49.38,18.4,47.2,16.76c-1.25-0.94-2.1-1.43-2.84-1.66c-0.34-0.1-0.8-0.22-1.4-0.22
			c-0.56,0-1.15,0.1-1.77,0.3c-1.41,0.45-2.82,1.56-4.18,2.64l-0.07,0.06c-1.27,1.01-2.58,2.05-3.57,2.27
			c-0.43,0.1-0.88,0.15-1.32,0.15c-1.11,0-2.11-0.32-2.48-0.8c-0.06-0.08-0.02-0.21,0.12-0.39l0.02-0.02l3.07-3.31
			c2.4-2.4,4.67-4.67,9.9-4.79c0.09,0,0.17,0,0.26,0c3.25,0,6.5,1.46,6.87,1.63c3.05,1.49,6.2,2.24,9.36,2.25
			c3.3,0,6.7-0.82,10.28-2.46c-0.4-0.34-0.82-0.66-1.24-0.98c-3.14,1.36-6.14,2.05-9.02,2.05c-2.95,0-5.9-0.71-8.76-2.11
			c-0.15-0.07-3.74-1.76-7.48-1.77c-0.1,0-0.2,0-0.3,0c-4.39,0.1-6.86,1.66-8.52,3.03c-1.62,0.04-3.01,0.43-4.25,0.78
			c-1.11,0.31-2.06,0.57-3,0.57c-0.38,0-1.08-0.04-1.14-0.04c-1.07-0.03-6.48-1.36-10.77-2.99c-0.44,0.31-0.86,0.63-1.27,0.96
			c4.49,1.84,9.96,3.27,11.68,3.38c0.48,0.03,0.99,0.09,1.5,0.09c1.14,0,2.28-0.32,3.38-0.63c0.65-0.18,1.37-0.38,2.12-0.53
			c-0.2,0.2-0.4,0.4-0.6,0.6l-3.12,3.37c-0.25,0.25-0.78,0.91-0.43,1.72c0.14,0.33,0.42,0.64,0.82,0.91
			c0.74,0.5,2.07,0.84,3.31,0.84c0.47,0,0.91-0.05,1.32-0.14c1.31-0.29,2.68-1.38,4.13-2.54c1.16-0.92,2.8-2.09,4.06-2.43
			c0.35-0.1,0.78-0.15,1.13-0.15c0.1,0,0.2,0,0.29,0.02c0.83,0.11,1.64,0.39,3.07,1.47C48.92,19.8,60.24,29.7,60.35,29.8
			c0.01,0.01,0.73,0.63,0.68,1.66c-0.03,0.58-0.35,1.09-0.9,1.45c-0.48,0.31-0.98,0.46-1.49,0.46c-0.76,0-1.28-0.36-1.31-0.38
			c-0.04-0.03-3.92-3.59-5.35-4.79c-0.23-0.19-0.45-0.36-0.67-0.36c-0.12,0-0.23,0.05-0.3,0.14c-0.22,0.28,0.03,0.66,0.32,0.91
			l4.53,4.55c0.01,0.01,0.56,0.53,0.63,1.23c0.04,0.76-0.32,1.39-1.08,1.88c-0.53,0.35-1.08,0.53-1.61,0.53
			c-0.7,0-1.18-0.32-1.29-0.39l-0.65-0.64c-1.19-1.17-2.41-2.38-3.31-3.13c-0.22-0.18-0.45-0.35-0.68-0.35
			c-0.11,0-0.21,0.04-0.29,0.12c-0.1,0.11-0.17,0.32,0.08,0.66c0.1,0.14,0.23,0.26,0.23,0.26l3.31,3.71
			c0.03,0.03,0.68,0.81,0.07,1.59l-0.12,0.15c-0.1,0.11-0.21,0.21-0.31,0.3c-0.56,0.46-1.32,0.51-1.62,0.51
			c-0.16,0-0.31-0.01-0.45-0.04c-0.33-0.06-0.54-0.15-0.65-0.28l-0.04-0.04c-0.18-0.19-1.85-1.89-3.23-3.04
			c-0.18-0.15-0.41-0.34-0.64-0.34c-0.12,0-0.22,0.05-0.3,0.13c-0.27,0.3,0.14,0.75,0.31,0.91l2.82,3.11c0,0.03-0.04,0.09-0.11,0.19
			c-0.1,0.14-0.44,0.48-1.47,0.61c-0.12,0.01-0.25,0.02-0.37,0.02c-1.06,0-2.18-0.51-2.76-0.82c0.26-0.56,0.4-1.17,0.4-1.79
			c0-2.32-1.88-4.21-4.21-4.21c-0.05,0-0.1,0-0.15,0c0.08-1.06-0.07-3.07-2.13-3.95c-0.59-0.26-1.18-0.39-1.76-0.39
			c-0.45,0-0.88,0.08-1.29,0.23c-0.43-0.83-1.13-1.43-2.06-1.75c-0.51-0.18-1.02-0.27-1.51-0.27c-0.86,0-1.65,0.25-2.35,0.75
			c-0.67-0.84-1.69-1.34-2.77-1.34c-0.94,0-1.84,0.38-2.51,1.04c-0.88-0.67-4.36-2.88-13.68-5c-0.45-0.1-1.49-0.4-2.12-0.59
			c-0.11,0.5-0.19,1.01-0.24,1.53c0,0,1.72,0.41,2.06,0.49c9.52,2.11,12.67,4.31,13.2,4.73c-0.18,0.43-0.27,0.9-0.27,1.37
			c0,1.97,1.6,3.57,3.57,3.57c0.22,0,0.44-0.02,0.65-0.06c0.3,1.45,1.24,2.54,2.69,3.11c0.42,0.16,0.85,0.25,1.27,0.25
			c0.27,0,0.55-0.03,0.81-0.1c0.27,0.68,0.87,1.53,2.21,2.07c0.47,0.19,0.94,0.29,1.4,0.29c0.37,0,0.74-0.07,1.09-0.2
			c0.64,1.57,2.18,2.61,3.89,2.61c1.13,0,2.22-0.46,3.01-1.28c0.68,0.38,2.11,1.06,3.56,1.06c0.19,0,0.36-0.01,0.54-0.04
			c1.44-0.18,2.11-0.74,2.42-1.18c0.05-0.08,0.11-0.16,0.15-0.24c0.34,0.1,0.71,0.18,1.14,0.18c0.79,0,1.54-0.27,2.3-0.82
			c0.75-0.54,1.28-1.32,1.36-1.98c0-0.01,0-0.02,0-0.03c0.25,0.05,0.51,0.08,0.77,0.08c0.81,0,1.6-0.25,2.36-0.75
			c1.47-0.96,1.72-2.22,1.7-3.04c0.26,0.05,0.52,0.08,0.78,0.08c0.76,0,1.51-0.23,2.22-0.68c0.91-0.58,1.46-1.47,1.54-2.51
			c0.06-0.7-0.12-1.41-0.49-2.02c2.46-1.06,8.07-3.11,14.69-4.6c-0.04-0.51-0.11-1.02-0.21-1.52C68.4,25.2,62.42,27.78,60.93,28.45z
			 M38.55,41.38c-1.55,0-2.82-1.21-2.87-2.75c0-0.13-0.02-0.48-0.31-0.48c-0.12,0-0.23,0.07-0.35,0.18
			c-0.34,0.32-0.78,0.64-1.41,0.64c-0.29,0-0.6-0.07-0.93-0.2c-1.64-0.66-1.66-1.79-1.6-2.24c0.02-0.12,0.02-0.25-0.06-0.35
			l-0.1-0.09h-0.1c-0.08,0-0.17,0.03-0.29,0.12c-0.48,0.33-0.93,0.49-1.39,0.49c-0.25,0-0.52-0.05-0.78-0.15
			c-2.16-0.84-1.99-2.88-1.88-3.49c0.02-0.12-0.02-0.22-0.09-0.28l-0.15-0.13l-0.14,0.14c-0.42,0.41-0.97,0.63-1.55,0.63
			c-1.24,0-2.24-1.01-2.24-2.24c0-1.24,1.01-2.24,2.25-2.24c1.12,0,2.07,0.84,2.21,1.96l0.08,0.6l0.33-0.51
			c0.04-0.06,0.94-1.43,2.61-1.43c0.32,0,0.64,0.05,0.97,0.15c1.33,0.41,1.55,1.61,1.59,2.11c0.02,0.29,0.23,0.31,0.27,0.31
			c0.11,0,0.2-0.07,0.26-0.14c0.25-0.26,0.8-0.7,1.65-0.7c0.39,0,0.81,0.09,1.24,0.28c2.11,0.91,1.15,3.59,1.14,3.62
			c-0.18,0.44-0.19,0.64-0.02,0.75l0.08,0.04h0.06c0.1,0,0.21-0.04,0.41-0.11c0.29-0.1,0.72-0.25,1.13-0.25h0
			c1.59,0.02,2.88,1.31,2.88,2.88C41.44,40.09,40.14,41.38,38.55,41.38z"/>
	</g>
	<path class="st0" d="M92.83,12.83v10.81h-4.32V13.7c0-4.83,2.43-7.23,7.26-7.23c2.18,0,3.84,0.48,5.05,1.44
		c1.22-0.93,2.88-1.38,5.06-1.38c4.83,0,7.23,2.4,7.2,7.23v9.95h-2.21c-1.41-0.1-2.11-0.77-2.11-2.11v-8.7
		c-0.1-1.76-1.06-2.62-2.94-2.62c-1.89,0-2.85,0.86-2.88,2.62v10.75h-4.29V12.83c-0.1-1.76-1.06-2.62-2.94-2.62
		C93.82,10.21,92.86,11.07,92.83,12.83z"/>
	<path class="st0" d="M133.94,14.98c0.13-5.47,2.83-8.51,8.49-8.51h1.28v4.42l-1.98,0.04c-2.37,0-3.48,1.53-3.48,3.99v8.8h-4.32
		V14.98z"/>
	<path class="st0" d="M167.55,11.77l-3.96,0c0.15-3.27,1.8-5.45,6.63-5.45c4.67,0,7.04,1.54,7.14,4.67v5.76
		c0,4.67-2.82,6.75-7.39,7.07c-4.06,0.32-6.88-1.57-6.88-5.31c0.1-4.06,3.04-5.15,7.33-5.57c1.82-0.22,2.75-0.77,2.75-1.7
		c-0.1-0.96-0.99-1.42-2.75-1.44C168.41,9.78,167.77,10.97,167.55,11.77z M173.22,16.56v-1.39c-0.99,0.42-2.14,0.59-3.39,0.84
		c-1.7,0.32-2.56,1.12-2.56,2.37c0.1,1.34,0.8,1.98,2.14,1.98C171.78,20.37,173.22,18.96,173.22,16.56z"/>
	<path class="st0" d="M195.6,1.07v15.26c0,5.09-2.66,7.61-7.93,7.58c-5.25-0.1-7.87-2.94-7.87-8.57c0-5.76,2.24-8.7,6.75-8.86
		c2.11,0,3.74,0.86,4.83,2.62V3.7l0.01-0.48C192.79,1.12,195.6,1.07,195.6,1.07z M184.18,15.14c-0.03,3.42,1.12,5.15,3.55,5.15
		c2.43,0,3.65-1.73,3.65-5.15c-0.1-3.26-1.28-4.86-3.58-4.86C185.49,10.27,184.31,11.87,184.18,15.14z"/>
	<path class="st0" d="M119.82,26.29h1.11v22.42h-4.26V29.03C116.68,28.39,118,26.29,119.82,26.29z"/>
	<path class="st0" d="M143.01,31.27c-2.11,0-3.71,0.86-4.8,2.62l0-7.6h-0.48l0,0c-2.12,0.03-3.24,1.16-3.77,2.08v-0.15v12.89
		c0,5.09,2.66,7.61,7.93,7.58c5.25-0.1,7.87-2.94,7.87-8.57C149.76,34.37,147.52,31.43,143.01,31.27z M141.76,45.09
		c-2.43,0-3.58-1.73-3.55-5.15c0.13-3.26,1.31-4.86,3.62-4.86c2.3,0,3.49,1.6,3.58,4.86C145.41,43.36,144.19,45.09,141.76,45.09z"/>
	<g>
		<path class="st0" d="M120.67,19.4c0.68,0.66,1.66,0.99,2.93,0.99c0.91,0,1.7-0.23,2.36-0.69c0.66-0.46,1.06-0.94,1.21-1.45h3.99
			c-0.64,1.98-1.62,3.39-2.93,4.24c-1.32,0.85-2.91,1.28-4.78,1.28c-1.3,0-2.47-0.21-3.51-0.62c-1.04-0.41-1.92-1-2.65-1.77
			c-0.72-0.77-1.28-1.68-1.67-2.74c-0.39-1.06-0.59-2.23-0.59-3.51c0-1.23,0.2-2.38,0.61-3.45c0.4-1.06,0.98-1.98,1.72-2.76
			c0.74-0.78,1.63-1.39,2.66-1.83c1.03-0.45,2.17-0.67,3.43-0.67c1.4,0,2.63,0.27,3.67,0.81c1.04,0.54,1.9,1.27,2.57,2.18
			c0.67,0.91,1.15,1.96,1.45,3.13c0.3,1.17,0.4,2.39,0.32,3.67h-11.9C119.61,17.67,119.98,18.74,120.67,19.4z M125.79,10.72
			c-0.54-0.59-1.37-0.89-2.47-0.89c-0.72,0-1.32,0.12-1.8,0.37c-0.48,0.24-0.86,0.55-1.15,0.91c-0.29,0.36-0.49,0.74-0.61,1.15
			c-0.12,0.4-0.19,0.77-0.21,1.08h7.37C126.7,12.19,126.33,11.32,125.79,10.72z"/>
	</g>
	<g>
		<path class="st0" d="M153.3,9.77c-0.73,0-1.34,0.17-1.84,0.5c-0.49,0.33-0.9,0.76-1.21,1.29c-0.31,0.53-0.53,1.11-0.66,1.74
			c-0.13,0.63-0.19,1.26-0.19,1.88c0,0.6,0.06,1.21,0.19,1.84c0.13,0.62,0.34,1.19,0.63,1.69c0.29,0.5,0.68,0.92,1.18,1.24
			c0.49,0.32,1.1,0.48,1.8,0.48c1.1,0,1.94-0.31,2.53-0.92c0.59-0.61,0.96-1.43,1.11-2.46h4.41c-0.3,2.21-1.16,3.9-2.58,5.06
			c-1.42,1.16-3.23,1.74-5.45,1.74c-1.25,0-2.39-0.21-3.43-0.63c-1.04-0.42-1.93-1-2.66-1.76c-0.73-0.75-1.3-1.65-1.71-2.69
			c-0.41-1.04-0.61-2.19-0.61-3.43c0-1.29,0.19-2.49,0.56-3.59c0.38-1.11,0.93-2.06,1.66-2.87c0.73-0.81,1.62-1.43,2.67-1.88
			c1.05-0.45,2.26-0.68,3.61-0.68c0.99,0,1.94,0.13,2.85,0.39c0.91,0.26,1.73,0.65,2.45,1.18c0.72,0.53,1.3,1.18,1.76,1.97
			c0.45,0.78,0.71,1.71,0.77,2.79h-4.48C156.38,10.73,155.25,9.77,153.3,9.77z"/>
	</g>
	<g>
		<path class="st0" d="M198.87,11.5c0.41-1.08,0.99-2.01,1.74-2.77c0.75-0.76,1.65-1.35,2.71-1.77c1.05-0.42,2.23-0.63,3.54-0.63
			c1.31,0,2.5,0.21,3.56,0.63c1.06,0.42,1.97,1.01,2.72,1.77c0.75,0.76,1.33,1.69,1.74,2.77c0.41,1.08,0.61,2.29,0.61,3.62
			c0,1.33-0.2,2.53-0.61,3.61c-0.41,1.07-0.99,1.99-1.74,2.75c-0.75,0.76-1.66,1.35-2.72,1.76c-1.06,0.41-2.25,0.61-3.56,0.61
			c-1.31,0-2.49-0.2-3.54-0.61c-1.05-0.41-1.95-0.99-2.71-1.76c-0.75-0.76-1.33-1.68-1.74-2.75c-0.41-1.07-0.61-2.28-0.61-3.61
			C198.26,13.79,198.47,12.58,198.87,11.5z M203.03,17.07c0.13,0.63,0.35,1.2,0.66,1.71c0.31,0.5,0.72,0.91,1.24,1.21
			c0.52,0.3,1.16,0.45,1.93,0.45c0.77,0,1.42-0.15,1.95-0.45c0.53-0.3,0.94-0.7,1.26-1.21c0.31-0.5,0.53-1.07,0.66-1.71
			c0.13-0.63,0.19-1.28,0.19-1.95c0-0.67-0.06-1.32-0.19-1.97c-0.13-0.64-0.35-1.21-0.66-1.71c-0.31-0.49-0.73-0.9-1.26-1.21
			c-0.53-0.31-1.18-0.47-1.95-0.47c-0.77,0-1.42,0.16-1.93,0.47c-0.52,0.31-0.93,0.71-1.24,1.21c-0.31,0.49-0.53,1.06-0.66,1.71
			c-0.13,0.64-0.19,1.3-0.19,1.97C202.84,15.79,202.9,16.44,203.03,17.07z"/>
	</g>
	<path class="st0" d="M152.26,39.92c0.13-5.47,2.83-8.51,8.49-8.51h1.28v4.41l-1.98,0.04c-2.37,0-3.48,1.53-3.48,3.99v8.8h-4.32
		V39.92z"/>
	<g>
		<path class="st0" d="M168.77,44.34c0.68,0.66,1.66,0.99,2.93,0.99c0.91,0,1.7-0.23,2.36-0.69c0.66-0.46,1.06-0.94,1.21-1.45h3.99
			c-0.64,1.98-1.62,3.39-2.93,4.24c-1.32,0.85-2.91,1.28-4.78,1.28c-1.3,0-2.47-0.21-3.51-0.62c-1.04-0.41-1.92-1-2.65-1.77
			c-0.72-0.77-1.28-1.68-1.67-2.74c-0.39-1.06-0.59-2.23-0.59-3.51c0-1.23,0.2-2.38,0.61-3.44c0.4-1.06,0.98-1.98,1.72-2.76
			c0.74-0.78,1.63-1.39,2.66-1.83c1.03-0.45,2.17-0.67,3.43-0.67c1.4,0,2.63,0.27,3.67,0.81c1.04,0.54,1.9,1.27,2.57,2.18
			c0.67,0.91,1.15,1.96,1.45,3.13c0.3,1.17,0.4,2.39,0.32,3.67h-11.9C167.72,42.62,168.09,43.68,168.77,44.34z M173.89,35.66
			c-0.54-0.6-1.37-0.89-2.47-0.89c-0.72,0-1.32,0.12-1.8,0.37c-0.48,0.24-0.86,0.55-1.15,0.91c-0.29,0.36-0.49,0.74-0.61,1.15
			c-0.12,0.4-0.19,0.77-0.21,1.08h7.37C174.81,37.13,174.43,36.26,173.89,35.66z"/>
	</g>
	<rect x="125.5" y="26.29" class="st0" width="4.26" height="3.88"/>
	<rect x="125.5" y="32.12" class="st0" width="4.26" height="16.59"/>
</g>
</svg>
