<?xml version="1.0" encoding="utf-8"?>
<!-- Generator: Adobe Illustrator 25.4.1, SVG Export Plug-In . SVG Version: 6.00 Build 0)  -->
<svg version="1.1" xmlns="http://www.w3.org/2000/svg" xmlns:xlink="http://www.w3.org/1999/xlink" x="0px" y="0px"
	 viewBox="0 0 220 54" style="enable-background:new 0 0 220 54;" xml:space="preserve">
<style type="text/css">
	.st0{display:none;}
	.st1{display:inline;}
	.st2{fill:#00245B;}
	.st3{fill:#FFE100;}
	.st4{fill:#FFFFFF;}
	.st5{fill:#00BCFF;}
	.st6{fill:#0A0080;}
</style>
<g id="Capa_1" class="st0">
	<g class="st1">
		<g>
			<path class="st2" d="M78,26.1C78,12.8,61.6,2,41.3,2S4.5,12.8,4.5,26.1c0,0.3,0,1.3,0,1.4c0,14,14.4,25.4,36.8,25.4
				C63.8,52.9,78,41.6,78,27.5C78,27,78,26.7,78,26.1z"/>
			<path class="st3" d="M76.6,26.1c0,12.5-15.8,22.6-35.3,22.6S5.9,38.6,5.9,26.1S21.7,3.5,41.3,3.5C60.8,3.5,76.6,13.6,76.6,26.1z"
				/>
			<g>
				<path class="st4" d="M29.5,18.9c0,0-0.4,0.4-0.1,0.7c0.6,0.7,2.3,1.1,4,0.7c1-0.2,2.4-1.3,3.7-2.3c1.4-1.1,2.8-2.2,4.2-2.7
					c1.5-0.5,2.4-0.3,3-0.1c0.7,0.2,1.5,0.6,2.8,1.6c2.4,1.8,12.1,10.3,13.8,11.8c1.3-0.6,7.4-3.2,15.5-5c-0.7-4.4-3.4-8.3-7.4-11.6
					c-5.6,2.3-12.5,3.6-19.1,0.3c0,0-3.7-1.7-7.2-1.6c-5.3,0.1-7.6,2.4-10,4.9L29.5,18.9z"/>
				<path class="st4" d="M60.5,29.6c-0.1-0.1-11.4-10-14-11.9c-1.5-1.1-2.3-1.4-3.2-1.5c-0.5-0.1-1.1,0-1.5,0.1
					c-1.2,0.3-2.8,1.4-4.1,2.5c-1.4,1.1-2.8,2.2-4,2.5c-1.6,0.4-3.6-0.1-4.5-0.7c-0.4-0.2-0.6-0.5-0.7-0.8c-0.3-0.8,0.3-1.4,0.4-1.5
					l3.1-3.4c0.4-0.4,0.7-0.7,1.1-1.1c-1,0.1-1.9,0.4-2.9,0.6c-1.1,0.3-2.2,0.6-3.3,0.6c-0.5,0-2.9-0.4-3.4-0.5
					c-2.8-0.8-5.3-1.5-9-3.3c-4.4,3.3-7.4,7.4-8.3,12c0.6,0.2,1.7,0.5,2.1,0.6c10,2.2,13.2,4.5,13.8,5c0.6-0.7,1.5-1.1,2.5-1.1
					c1.1,0,2.1,0.6,2.7,1.4c0.6-0.5,1.4-0.8,2.4-0.8c0.5,0,1,0.1,1.4,0.2c1.1,0.4,1.7,1.1,2,1.8c0.4-0.2,0.8-0.3,1.4-0.3
					c0.5,0,1.1,0.1,1.7,0.4c1.8,0.8,2.1,2.6,2,4c0.1,0,0.3,0,0.4,0c2.2,0,4,1.8,4,4c0,0.7-0.2,1.3-0.5,1.9c0.6,0.3,2.1,1.1,3.5,0.9
					c1.1-0.1,1.5-0.5,1.6-0.7c0.1-0.1,0.2-0.3,0.1-0.4L44.4,37c0,0-0.5-0.4-0.3-0.6c0.2-0.2,0.5,0.1,0.7,0.2c1.4,1.2,3.2,3,3.2,3
					c0,0,0.2,0.2,0.8,0.4c0.6,0.1,1.5,0,2.2-0.5c0.2-0.1,0.3-0.3,0.5-0.5c0,0,0,0,0,0c0.7-0.9-0.1-1.9-0.1-1.9L48,33.5
					c0,0-0.5-0.4-0.3-0.6c0.1-0.2,0.5,0.1,0.7,0.2c1,0.9,2.5,2.4,4,3.8c0.3,0.2,1.5,1,3.2-0.1c1-0.7,1.2-1.5,1.2-2.1
					c-0.1-0.8-0.7-1.4-0.7-1.4l-4.5-4.5c0,0-0.5-0.4-0.3-0.6c0.1-0.2,0.5,0.1,0.7,0.2c1.4,1.2,5.3,4.8,5.3,4.8c0,0,1.4,1,3.1-0.1
					c0.6-0.4,1-1,1-1.6C61.3,30.3,60.5,29.6,60.5,29.6z"/>
				<path class="st4" d="M38.5,35.4c-0.7,0-1.5,0.4-1.6,0.3c0,0,0-0.3,0.1-0.5s1-2.9-1.3-3.9c-1.7-0.7-2.8,0.1-3.1,0.5
					c-0.1,0.1-0.1,0.1-0.2,0c0-0.5-0.3-1.9-1.8-2.3c-2.1-0.6-3.5,0.8-3.8,1.4c-0.1-1.2-1.2-2.1-2.4-2.1c-1.4,0-2.5,1.1-2.5,2.5
					c0,1.4,1.1,2.5,2.5,2.5c0.7,0,1.3-0.3,1.7-0.7c0,0,0,0,0,0.1c-0.1,0.6-0.3,2.8,2,3.7c0.9,0.4,1.7,0.1,2.4-0.4
					c0.2-0.1,0.2-0.1,0.2,0.1c-0.1,0.6,0,1.8,1.7,2.5c1.3,0.5,2.1,0,2.6-0.5c0.2-0.2,0.3-0.2,0.3,0.1c0.1,1.7,1.4,3,3.1,3
					c1.7,0,3.1-1.4,3.1-3.1C41.7,36.8,40.3,35.4,38.5,35.4z"/>
			</g>
			<path class="st2" d="M60.9,28.5c-3.5-3.1-11.5-10.1-13.7-11.7c-1.2-0.9-2.1-1.4-2.8-1.7C44,15,43.6,14.9,43,14.9
				c-0.6,0-1.2,0.1-1.8,0.3c-1.4,0.4-2.8,1.6-4.2,2.6l-0.1,0.1c-1.3,1-2.6,2-3.6,2.3c-0.4,0.1-0.9,0.1-1.3,0.1
				c-1.1,0-2.1-0.3-2.5-0.8c-0.1-0.1,0-0.2,0.1-0.4l0,0l3.1-3.3c2.4-2.4,4.7-4.7,9.9-4.8c0.1,0,0.2,0,0.3,0c3.2,0,6.5,1.5,6.9,1.6
				c3,1.5,6.2,2.2,9.4,2.2c3.3,0,6.7-0.8,10.3-2.5c-0.4-0.3-0.8-0.7-1.2-1c-3.1,1.4-6.1,2.1-9,2.1c-3,0-5.9-0.7-8.8-2.1
				c-0.2-0.1-3.7-1.8-7.5-1.8c-0.1,0-0.2,0-0.3,0c-4.4,0.1-6.9,1.7-8.5,3c-1.6,0-3,0.4-4.2,0.8c-1.1,0.3-2.1,0.6-3,0.6
				c-0.4,0-1.1,0-1.1,0c-1.1,0-6.5-1.4-10.8-3c-0.4,0.3-0.9,0.6-1.3,1c4.5,1.8,10,3.3,11.7,3.4c0.5,0,1,0.1,1.5,0.1
				c1.1,0,2.3-0.3,3.4-0.6c0.6-0.2,1.4-0.4,2.1-0.5c-0.2,0.2-0.4,0.4-0.6,0.6l-3.1,3.4c-0.2,0.2-0.8,0.9-0.4,1.7
				c0.1,0.3,0.4,0.6,0.8,0.9c0.7,0.5,2.1,0.8,3.3,0.8c0.5,0,0.9,0,1.3-0.1c1.3-0.3,2.7-1.4,4.1-2.5c1.2-0.9,2.8-2.1,4.1-2.4
				c0.3-0.1,0.8-0.1,1.1-0.1c0.1,0,0.2,0,0.3,0c0.8,0.1,1.6,0.4,3.1,1.5c2.6,1.9,13.9,11.8,14,11.9c0,0,0.7,0.6,0.7,1.7
				c0,0.6-0.3,1.1-0.9,1.5c-0.5,0.3-1,0.5-1.5,0.5c-0.8,0-1.3-0.4-1.3-0.4c0,0-3.9-3.6-5.3-4.8c-0.2-0.2-0.5-0.4-0.7-0.4
				c-0.1,0-0.2,0-0.3,0.1c-0.2,0.3,0,0.7,0.3,0.9l4.5,4.5c0,0,0.6,0.5,0.6,1.2c0,0.8-0.3,1.4-1.1,1.9c-0.5,0.3-1.1,0.5-1.6,0.5
				c-0.7,0-1.2-0.3-1.3-0.4L51.9,36c-1.2-1.2-2.4-2.4-3.3-3.1c-0.2-0.2-0.5-0.3-0.7-0.3c-0.1,0-0.2,0-0.3,0.1
				c-0.1,0.1-0.2,0.3,0.1,0.7c0.1,0.1,0.2,0.3,0.2,0.3l3.3,3.7c0,0,0.7,0.8,0.1,1.6l-0.1,0.2c-0.1,0.1-0.2,0.2-0.3,0.3
				c-0.6,0.5-1.3,0.5-1.6,0.5c-0.2,0-0.3,0-0.5,0c-0.3-0.1-0.5-0.2-0.7-0.3l0,0c-0.2-0.2-1.8-1.9-3.2-3c-0.2-0.2-0.4-0.3-0.6-0.3
				c-0.1,0-0.2,0-0.3,0.1c-0.3,0.3,0.1,0.8,0.3,0.9l2.8,3.1c0,0,0,0.1-0.1,0.2c-0.1,0.1-0.4,0.5-1.5,0.6c-0.1,0-0.2,0-0.4,0
				c-1.1,0-2.2-0.5-2.8-0.8c0.3-0.6,0.4-1.2,0.4-1.8c0-2.3-1.9-4.2-4.2-4.2c0,0-0.1,0-0.2,0c0.1-1.1-0.1-3.1-2.1-4
				c-0.6-0.3-1.2-0.4-1.8-0.4c-0.5,0-0.9,0.1-1.3,0.2c-0.4-0.8-1.1-1.4-2.1-1.8c-0.5-0.2-1-0.3-1.5-0.3c-0.9,0-1.6,0.2-2.4,0.8
				c-0.7-0.8-1.7-1.3-2.8-1.3c-0.9,0-1.8,0.4-2.5,1c-0.9-0.7-4.4-2.9-13.7-5c-0.4-0.1-1.5-0.4-2.1-0.6c-0.1,0.5-0.2,1-0.2,1.5
				c0,0,1.7,0.4,2.1,0.5c9.5,2.1,12.7,4.3,13.2,4.7c-0.2,0.4-0.3,0.9-0.3,1.4c0,2,1.6,3.6,3.6,3.6c0.2,0,0.4,0,0.6-0.1
				c0.3,1.5,1.2,2.5,2.7,3.1c0.4,0.2,0.9,0.2,1.3,0.2c0.3,0,0.5,0,0.8-0.1c0.3,0.7,0.9,1.5,2.2,2.1c0.5,0.2,0.9,0.3,1.4,0.3
				c0.4,0,0.7-0.1,1.1-0.2c0.6,1.6,2.2,2.6,3.9,2.6c1.1,0,2.2-0.5,3-1.3c0.7,0.4,2.1,1.1,3.6,1.1c0.2,0,0.4,0,0.5,0
				c1.4-0.2,2.1-0.7,2.4-1.2c0-0.1,0.1-0.2,0.2-0.2c0.3,0.1,0.7,0.2,1.1,0.2c0.8,0,1.5-0.3,2.3-0.8c0.8-0.5,1.3-1.3,1.4-2
				c0,0,0,0,0,0c0.2,0,0.5,0.1,0.8,0.1c0.8,0,1.6-0.2,2.4-0.8c1.5-1,1.7-2.2,1.7-3c0.3,0,0.5,0.1,0.8,0.1c0.8,0,1.5-0.2,2.2-0.7
				c0.9-0.6,1.5-1.5,1.5-2.5c0.1-0.7-0.1-1.4-0.5-2c2.5-1.1,8.1-3.1,14.7-4.6c0-0.5-0.1-1-0.2-1.5C68.4,25.2,62.4,27.8,60.9,28.5z
				 M38.5,41.4c-1.5,0-2.8-1.2-2.9-2.8c0-0.1,0-0.5-0.3-0.5c-0.1,0-0.2,0.1-0.3,0.2c-0.3,0.3-0.8,0.6-1.4,0.6
				c-0.3,0-0.6-0.1-0.9-0.2C31,38.1,31,37,31.1,36.5c0-0.1,0-0.2-0.1-0.3l-0.1-0.1h-0.1c-0.1,0-0.2,0-0.3,0.1
				c-0.5,0.3-0.9,0.5-1.4,0.5c-0.2,0-0.5,0-0.8-0.2c-2.2-0.8-2-2.9-1.9-3.5c0-0.1,0-0.2-0.1-0.3l-0.1-0.1l-0.1,0.1
				c-0.4,0.4-1,0.6-1.5,0.6c-1.2,0-2.2-1-2.2-2.2c0-1.2,1-2.2,2.2-2.2c1.1,0,2.1,0.8,2.2,2l0.1,0.6l0.3-0.5c0-0.1,0.9-1.4,2.6-1.4
				c0.3,0,0.6,0,1,0.1c1.3,0.4,1.6,1.6,1.6,2.1c0,0.3,0.2,0.3,0.3,0.3c0.1,0,0.2-0.1,0.3-0.1c0.2-0.3,0.8-0.7,1.7-0.7
				c0.4,0,0.8,0.1,1.2,0.3c2.1,0.9,1.2,3.6,1.1,3.6c-0.2,0.4-0.2,0.6,0,0.8l0.1,0H37c0.1,0,0.2,0,0.4-0.1c0.3-0.1,0.7-0.2,1.1-0.2
				l0,0c1.6,0,2.9,1.3,2.9,2.9C41.4,40.1,40.1,41.4,38.5,41.4z"/>
		</g>
		<path class="st2" d="M92.8,12.8v10.8h-4.3v-9.9c0-4.8,2.4-7.2,7.3-7.2c2.2,0,3.8,0.5,5.1,1.4c1.2-0.9,2.9-1.4,5.1-1.4
			c4.8,0,7.2,2.4,7.2,7.2v9.9h-2.2c-1.4-0.1-2.1-0.8-2.1-2.1v-8.7c-0.1-1.8-1.1-2.6-2.9-2.6c-1.9,0-2.8,0.9-2.9,2.6v10.7h-4.3V12.8
			c-0.1-1.8-1.1-2.6-2.9-2.6C93.8,10.2,92.9,11.1,92.8,12.8z"/>
		<path class="st2" d="M133.9,15c0.1-5.5,2.8-8.5,8.5-8.5h1.3v4.4l-2,0c-2.4,0-3.5,1.5-3.5,4v8.8h-4.3L133.9,15L133.9,15z"/>
		<path class="st2" d="M167.6,11.8h-4c0.1-3.3,1.8-5.4,6.6-5.4c4.7,0,7,1.5,7.1,4.7v5.8c0,4.7-2.8,6.8-7.4,7.1
			c-4.1,0.3-6.9-1.6-6.9-5.3c0.1-4.1,3-5.1,7.3-5.6c1.8-0.2,2.8-0.8,2.8-1.7c-0.1-1-1-1.4-2.8-1.4C168.4,9.8,167.8,11,167.6,11.8z
			 M173.2,16.6v-1.4c-1,0.4-2.1,0.6-3.4,0.8c-1.7,0.3-2.6,1.1-2.6,2.4c0.1,1.3,0.8,2,2.1,2C171.8,20.4,173.2,19,173.2,16.6z"/>
		<path class="st2" d="M195.6,1.1v15.3c0,5.1-2.7,7.6-7.9,7.6c-5.2-0.1-7.9-2.9-7.9-8.6c0-5.8,2.2-8.7,6.8-8.9
			c2.1,0,3.7,0.9,4.8,2.6V3.7l0-0.5C192.8,1.1,195.6,1.1,195.6,1.1z M184.2,15.1c0,3.4,1.1,5.2,3.6,5.2c2.4,0,3.6-1.7,3.6-5.1
			c-0.1-3.3-1.3-4.9-3.6-4.9C185.5,10.3,184.3,11.9,184.2,15.1z"/>
		<path class="st2" d="M119.8,26.3h1.1v22.4h-4.3V29C116.7,28.4,118,26.3,119.8,26.3z"/>
		<path class="st2" d="M143,31.3c-2.1,0-3.7,0.9-4.8,2.6v-7.6h-0.5l0,0c-2.1,0-3.2,1.2-3.8,2.1v-0.1v12.9c0,5.1,2.7,7.6,7.9,7.6
			c5.2-0.1,7.9-2.9,7.9-8.6C149.8,34.4,147.5,31.4,143,31.3z M141.8,45.1c-2.4,0-3.6-1.7-3.6-5.2c0.1-3.3,1.3-4.9,3.6-4.9
			c2.3,0,3.5,1.6,3.6,4.9C145.4,43.4,144.2,45.1,141.8,45.1z"/>
		<g>
			<path class="st2" d="M120.7,19.4c0.7,0.7,1.7,1,2.9,1c0.9,0,1.7-0.2,2.4-0.7c0.7-0.5,1.1-0.9,1.2-1.5h4c-0.6,2-1.6,3.4-2.9,4.2
				c-1.3,0.9-2.9,1.3-4.8,1.3c-1.3,0-2.5-0.2-3.5-0.6c-1-0.4-1.9-1-2.7-1.8c-0.7-0.8-1.3-1.7-1.7-2.7s-0.6-2.2-0.6-3.5
				c0-1.2,0.2-2.4,0.6-3.4c0.4-1.1,1-2,1.7-2.8s1.6-1.4,2.7-1.8c1-0.4,2.2-0.7,3.4-0.7c1.4,0,2.6,0.3,3.7,0.8s1.9,1.3,2.6,2.2
				s1.1,2,1.4,3.1s0.4,2.4,0.3,3.7h-11.9C119.6,17.7,120,18.7,120.7,19.4z M125.8,10.7c-0.5-0.6-1.4-0.9-2.5-0.9
				c-0.7,0-1.3,0.1-1.8,0.4c-0.5,0.2-0.9,0.6-1.2,0.9s-0.5,0.7-0.6,1.1c-0.1,0.4-0.2,0.8-0.2,1.1h7.4
				C126.7,12.2,126.3,11.3,125.8,10.7z"/>
		</g>
		<g>
			<path class="st2" d="M153.3,9.8c-0.7,0-1.3,0.2-1.8,0.5c-0.5,0.3-0.9,0.8-1.2,1.3c-0.3,0.5-0.5,1.1-0.7,1.7s-0.2,1.3-0.2,1.9
				c0,0.6,0.1,1.2,0.2,1.8c0.1,0.6,0.3,1.2,0.6,1.7c0.3,0.5,0.7,0.9,1.2,1.2c0.5,0.3,1.1,0.5,1.8,0.5c1.1,0,1.9-0.3,2.5-0.9
				s1-1.4,1.1-2.5h4.4c-0.3,2.2-1.2,3.9-2.6,5.1s-3.2,1.7-5.4,1.7c-1.2,0-2.4-0.2-3.4-0.6s-1.9-1-2.7-1.8c-0.7-0.8-1.3-1.6-1.7-2.7
				c-0.4-1-0.6-2.2-0.6-3.4c0-1.3,0.2-2.5,0.6-3.6c0.4-1.1,0.9-2.1,1.7-2.9c0.7-0.8,1.6-1.4,2.7-1.9c1.1-0.4,2.3-0.7,3.6-0.7
				c1,0,1.9,0.1,2.9,0.4c0.9,0.3,1.7,0.7,2.4,1.2s1.3,1.2,1.8,2c0.4,0.8,0.7,1.7,0.8,2.8h-4.5C156.4,10.7,155.2,9.8,153.3,9.8z"/>
		</g>
		<g>
			<path class="st2" d="M198.9,11.5c0.4-1.1,1-2,1.7-2.8s1.6-1.3,2.7-1.8c1.1-0.4,2.2-0.6,3.5-0.6s2.5,0.2,3.6,0.6s2,1,2.7,1.8
				s1.3,1.7,1.7,2.8s0.6,2.3,0.6,3.6s-0.2,2.5-0.6,3.6c-0.4,1.1-1,2-1.7,2.8s-1.7,1.4-2.7,1.8s-2.2,0.6-3.6,0.6s-2.5-0.2-3.5-0.6
				c-1.1-0.4-1.9-1-2.7-1.8c-0.8-0.8-1.3-1.7-1.7-2.8s-0.6-2.3-0.6-3.6S198.5,12.6,198.9,11.5z M203,17.1c0.1,0.6,0.4,1.2,0.7,1.7
				c0.3,0.5,0.7,0.9,1.2,1.2s1.2,0.5,1.9,0.5c0.8,0,1.4-0.1,1.9-0.5c0.5-0.3,0.9-0.7,1.3-1.2c0.3-0.5,0.5-1.1,0.7-1.7
				c0.1-0.6,0.2-1.3,0.2-1.9s-0.1-1.3-0.2-2c-0.1-0.6-0.4-1.2-0.7-1.7c-0.3-0.5-0.7-0.9-1.3-1.2s-1.2-0.5-1.9-0.5s-1.4,0.2-1.9,0.5
				c-0.5,0.3-0.9,0.7-1.2,1.2c-0.3,0.5-0.5,1.1-0.7,1.7c-0.1,0.6-0.2,1.3-0.2,2S202.9,16.4,203,17.1z"/>
		</g>
		<path class="st2" d="M152.3,39.9c0.1-5.5,2.8-8.5,8.5-8.5h1.3v4.4l-2,0c-2.4,0-3.5,1.5-3.5,4v8.8h-4.3L152.3,39.9L152.3,39.9z"/>
		<g>
			<path class="st2" d="M168.8,44.3c0.7,0.7,1.7,1,2.9,1c0.9,0,1.7-0.2,2.4-0.7s1.1-0.9,1.2-1.5h4c-0.6,2-1.6,3.4-2.9,4.2
				c-1.3,0.8-2.9,1.3-4.8,1.3c-1.3,0-2.5-0.2-3.5-0.6s-1.9-1-2.6-1.8c-0.7-0.8-1.3-1.7-1.7-2.7s-0.6-2.2-0.6-3.5
				c0-1.2,0.2-2.4,0.6-3.4c0.4-1.1,1-2,1.7-2.8s1.6-1.4,2.7-1.8c1-0.5,2.2-0.7,3.4-0.7c1.4,0,2.6,0.3,3.7,0.8c1,0.5,1.9,1.3,2.6,2.2
				c0.7,0.9,1.1,2,1.4,3.1c0.3,1.2,0.4,2.4,0.3,3.7h-11.9C167.7,42.6,168.1,43.7,168.8,44.3z M173.9,35.7c-0.5-0.6-1.4-0.9-2.5-0.9
				c-0.7,0-1.3,0.1-1.8,0.4c-0.5,0.2-0.9,0.5-1.1,0.9s-0.5,0.7-0.6,1.2c-0.1,0.4-0.2,0.8-0.2,1.1h7.4
				C174.8,37.1,174.4,36.3,173.9,35.7z"/>
		</g>
		<rect x="125.5" y="26.3" class="st2" width="4.3" height="3.9"/>
		<rect x="125.5" y="32.1" class="st2" width="4.3" height="16.6"/>
	</g>
</g>
<g id="Capa_2">
	<g>
		<path class="st5" d="M43.3,1.5C22.5,1.5,5.7,12.2,5.7,25.5s16.8,25.1,37.6,25.1s37.6-11.8,37.6-25.1S64,1.5,43.3,1.5z"/>
		<path class="st4" d="M31,18.1c0,0-0.4,0.4-0.1,0.7c0.6,0.7,2.4,1.2,4.2,0.8c1.1-0.2,2.5-1.3,3.8-2.4c1.5-1.2,2.9-2.3,4.3-2.8
			c1.5-0.5,2.5-0.3,3.2-0.1c0.7,0.2,1.6,0.7,2.9,1.7c2.5,1.9,12.7,10.7,14.4,12.3c1.4-0.6,8.1-3.4,16.6-5.2
			c-0.7-4.5-3.5-8.9-7.7-12.3c-5.8,2.5-13.5,3.9-20.4,0.5c0,0-3.8-1.8-7.5-1.7c-5.5,0.1-7.9,2.5-10.5,5.1L31,18.1L31,18.1z"/>
		<path class="st4" d="M63.3,29.2c-0.1-0.1-11.9-10.4-14.6-12.4c-1.5-1.2-2.4-1.5-3.3-1.6c-0.5-0.1-1.1,0-1.6,0.2
			c-1.2,0.3-2.9,1.4-4.3,2.6c-1.5,1.2-2.9,2.3-4.2,2.6c-1.7,0.4-3.7-0.1-4.6-0.7c-0.4-0.3-0.6-0.5-0.8-0.8c-0.3-0.8,0.3-1.4,0.4-1.5
			l3.3-3.5c0.4-0.4,0.8-0.8,1.2-1.1c-1.1,0.1-2,0.4-3,0.7c-1.2,0.3-2.3,0.6-3.5,0.6c-0.5,0-3-0.4-3.5-0.6c-2.9-0.8-6.3-1.6-10.2-3.4
			C9.9,13.6,6.9,17.9,6,22.6c0.7,0.2,2.4,0.6,2.9,0.7c10.5,2.3,13.7,4.7,14.3,5.2c0.6-0.7,1.6-1.2,2.6-1.2c1.2,0,2.2,0.6,2.8,1.5
			c0.6-0.5,1.4-0.9,2.5-0.9c0.5,0,1,0.1,1.5,0.3c1.2,0.4,1.8,1.2,2.1,1.9c0.4-0.2,0.9-0.3,1.5-0.3c0.6,0,1.2,0.1,1.7,0.4
			c1.9,0.8,2.2,2.7,2.1,4.2c0.1,0,0.3,0,0.4,0c2.3,0,4.2,1.9,4.2,4.2c0,0.7-0.2,1.4-0.5,2c0.6,0.3,2.2,1.1,3.6,1
			c1.1-0.1,1.5-0.5,1.7-0.7c0.1-0.1,0.2-0.3,0.1-0.4l-3-3.3c0,0-0.5-0.5-0.3-0.6c0.2-0.2,0.5,0.1,0.7,0.3c1.5,1.3,3.3,3.2,3.3,3.2
			c0,0,0.2,0.3,0.8,0.4c0.6,0.1,1.6,0,2.3-0.5c0.2-0.1,0.4-0.3,0.5-0.5c0,0,0,0,0,0c0.8-1-0.1-1.9-0.1-1.9l-3.5-3.9
			c0,0-0.5-0.5-0.3-0.6c0.1-0.2,0.5,0.1,0.7,0.3c1.1,0.9,2.6,2.5,4.1,3.9c0.3,0.2,1.6,1,3.3-0.1c1-0.7,1.3-1.5,1.2-2.2
			c-0.1-0.8-0.7-1.4-0.7-1.4l-4.7-4.7c0,0-0.5-0.4-0.3-0.6c0.1-0.2,0.5,0.1,0.7,0.3c1.5,1.3,5.6,5,5.6,5c0.1,0,1.5,1,3.2-0.1
			c0.6-0.4,1-1,1.1-1.7C64.2,30,63.3,29.2,63.3,29.2L63.3,29.2z"/>
		<path class="st4" d="M40.4,35.2c-0.7,0-1.5,0.4-1.6,0.4c-0.1,0,0-0.3,0.1-0.5c0.1-0.2,1-3.1-1.3-4.1c-1.8-0.8-2.9,0.1-3.3,0.5
			c-0.1,0.1-0.1,0.1-0.2,0c0-0.5-0.3-1.9-1.8-2.4c-2.2-0.7-3.6,0.9-4,1.4c-0.2-1.3-1.2-2.2-2.5-2.2c-1.4,0-2.6,1.1-2.6,2.6
			c0,1.4,1.2,2.6,2.6,2.6c0.7,0,1.3-0.3,1.8-0.7c0,0,0,0,0,0.1c-0.1,0.6-0.3,2.9,2.1,3.9c1,0.4,1.8,0.1,2.5-0.4
			c0.2-0.1,0.2-0.1,0.2,0.1c-0.1,0.6,0,1.9,1.8,2.6c1.4,0.6,2.2,0,2.7-0.5c0.2-0.2,0.3-0.2,0.3,0.1c0.1,1.7,1.5,3.1,3.2,3.1
			c1.8,0,3.2-1.4,3.2-3.2C43.7,36.7,42.2,35.3,40.4,35.2L40.4,35.2z"/>
		<path class="st6" d="M43.3,0.5C22.1,0.5,4.9,11.7,4.9,25.5c0,0.4,0,1.3,0,1.5c0,14.7,15,26.5,38.3,26.5S81.6,41.7,81.6,27v-1.5
			C81.6,11.7,64.4,0.5,43.3,0.5L43.3,0.5z M79.9,22.8c-8.3,1.9-14.5,4.5-16.1,5.2c-3.6-3.2-12-10.5-14.3-12.2c-1.3-1-2.2-1.5-3-1.7
			c-0.3-0.1-0.8-0.2-1.5-0.2c-0.6,0-1.2,0.1-1.8,0.3c-1.5,0.5-2.9,1.6-4.4,2.8L38.8,17c-1.3,1-2.7,2.1-3.7,2.4
			c-0.5,0.1-0.9,0.2-1.4,0.2c-1.2,0-2.2-0.3-2.6-0.8c-0.1-0.1,0-0.2,0.1-0.4l0,0l3.2-3.4c2.5-2.5,4.9-4.9,10.3-5c0.1,0,0.2,0,0.3,0
			c3.4,0,6.8,1.5,7.2,1.7c3.2,1.6,6.5,2.3,9.8,2.3c3.4,0,7-0.8,10.7-2.6C76.5,14.5,79.1,18.5,79.9,22.8L79.9,22.8z M43.3,2
			c11.2,0,21.3,3.2,28,8.3c-3.3,1.4-6.4,2.1-9.4,2.1c-3.1,0-6.1-0.7-9.1-2.2c-0.2-0.1-3.9-1.8-7.8-1.8c-0.1,0-0.2,0-0.3,0
			c-4.6,0.1-7.2,1.7-8.9,3.2c-1.7,0-3.1,0.4-4.4,0.8c-1.2,0.3-2.2,0.6-3.1,0.6c-0.4,0-1.1,0-1.2,0c-1.1,0-6.7-1.4-11.2-3.1
			C22.6,5,32.4,2,43.3,2L43.3,2z M14.6,10.8c4.7,1.9,10.3,3.4,12.1,3.5c0.5,0,1,0.1,1.6,0.1c1.2,0,2.4-0.3,3.5-0.7
			c0.7-0.2,1.4-0.4,2.2-0.5c-0.2,0.2-0.4,0.4-0.6,0.6l-3.2,3.5c-0.3,0.3-0.8,0.9-0.4,1.8c0.1,0.3,0.4,0.7,0.9,0.9
			c0.8,0.5,2.2,0.9,3.4,0.9c0.5,0,1,0,1.4-0.1c1.4-0.3,2.8-1.4,4.3-2.6c1.2-1,2.9-2.2,4.2-2.5c0.4-0.1,0.8-0.2,1.2-0.2
			c0.1,0,0.2,0,0.3,0c0.9,0.1,1.7,0.4,3.2,1.5c2.7,2,14.5,12.3,14.6,12.4c0,0,0.8,0.7,0.7,1.7c0,0.6-0.4,1.1-0.9,1.5
			c-0.5,0.3-1,0.5-1.5,0.5c-0.8,0-1.3-0.4-1.4-0.4c0,0-4.1-3.7-5.6-5c-0.2-0.2-0.5-0.4-0.7-0.4c-0.1,0-0.2,0.1-0.3,0.1
			c-0.2,0.3,0,0.7,0.3,1l4.7,4.8c0,0,0.6,0.5,0.7,1.3c0,0.8-0.3,1.4-1.1,2c-0.6,0.4-1.1,0.6-1.7,0.6c-0.7,0-1.2-0.3-1.3-0.4
			l-0.7-0.7c-1.2-1.2-2.5-2.5-3.5-3.3c-0.2-0.2-0.5-0.4-0.7-0.4c-0.1,0-0.2,0-0.3,0.1c-0.1,0.1-0.2,0.3,0.1,0.7
			c0.1,0.1,0.2,0.3,0.2,0.3l3.4,3.9c0,0,0.7,0.8,0.1,1.7l-0.1,0.2c-0.1,0.1-0.2,0.2-0.3,0.3c-0.6,0.5-1.4,0.5-1.7,0.5
			c-0.2,0-0.3,0-0.5,0c-0.3-0.1-0.6-0.2-0.7-0.3l0,0c-0.2-0.2-1.9-2-3.4-3.2c-0.2-0.2-0.4-0.4-0.7-0.4c-0.1,0-0.2,0-0.3,0.1
			c-0.3,0.3,0.1,0.8,0.3,0.9l2.9,3.2c0,0,0,0.1-0.1,0.2c-0.1,0.1-0.5,0.5-1.5,0.6c-0.1,0-0.3,0-0.4,0c-1.1,0-2.3-0.5-2.9-0.9
			c0.3-0.6,0.4-1.2,0.4-1.9c0-2.4-2-4.4-4.4-4.4c-0.1,0-0.1,0-0.2,0c0.1-1.1-0.1-3.2-2.2-4.1c-0.6-0.3-1.2-0.4-1.8-0.4
			c-0.5,0-0.9,0.1-1.3,0.2c-0.4-0.9-1.2-1.5-2.1-1.8c-0.5-0.2-1.1-0.3-1.6-0.3c-0.9,0-1.7,0.3-2.5,0.8c-0.7-0.9-1.8-1.4-2.9-1.4
			c-1,0-1.9,0.4-2.6,1.1c-0.9-0.7-4.5-3-14.3-5.2c-0.5-0.1-1.5-0.4-2.2-0.6C7.7,18,10.4,14,14.6,10.8L14.6,10.8z M32.6,36.1L32.5,36
			h-0.1c-0.1,0-0.2,0-0.3,0.1c-0.5,0.3-1,0.5-1.5,0.5c-0.3,0-0.5-0.1-0.8-0.2c-2.3-0.9-2.1-3-2-3.6c0-0.1,0-0.2-0.1-0.3l-0.2-0.1
			l-0.1,0.1c-0.4,0.4-1,0.7-1.6,0.7c-1.3,0-2.3-1-2.3-2.3c0-1.3,1.1-2.3,2.3-2.3c1.2,0,2.2,0.9,2.3,2l0.1,0.6l0.3-0.5
			c0-0.1,1-1.5,2.7-1.5c0.3,0,0.7,0.1,1,0.2c1.4,0.4,1.6,1.7,1.7,2.2c0,0.3,0.2,0.3,0.3,0.3c0.1,0,0.2-0.1,0.3-0.1
			c0.3-0.3,0.8-0.7,1.7-0.7c0.4,0,0.8,0.1,1.3,0.3c2.2,0.9,1.2,3.7,1.2,3.8c-0.2,0.5-0.2,0.7,0,0.8l0.1,0h0.1c0.1,0,0.2,0,0.4-0.1
			c0.3-0.1,0.7-0.3,1.2-0.3l0,0c1.7,0,3,1.4,3,3c0,1.7-1.4,3-3,3c-1.6,0-2.9-1.3-3-2.9c0-0.1,0-0.5-0.3-0.5c-0.1,0-0.2,0.1-0.4,0.2
			c-0.4,0.3-0.8,0.7-1.5,0.7c-0.3,0-0.6-0.1-1-0.2c-1.7-0.7-1.7-1.9-1.7-2.3C32.7,36.3,32.7,36.2,32.6,36.1L32.6,36.1z M43.3,49.1
			c-20.4,0-36.8-10.6-36.8-23.6c0-0.5,0-1,0.1-1.6c0.2,0,1.8,0.4,2.1,0.5c9.9,2.2,13.2,4.5,13.8,4.9c-0.2,0.5-0.3,0.9-0.3,1.4
			c0,2.1,1.7,3.7,3.7,3.7c0.2,0,0.5,0,0.7-0.1c0.3,1.5,1.3,2.7,2.8,3.2c0.4,0.2,0.9,0.3,1.3,0.3c0.3,0,0.6,0,0.8-0.1
			c0.3,0.7,0.9,1.6,2.3,2.2c0.5,0.2,1,0.3,1.5,0.3c0.4,0,0.8-0.1,1.1-0.2c0.7,1.6,2.3,2.7,4.1,2.7c1.2,0,2.3-0.5,3.1-1.3
			c0.7,0.4,2.2,1.1,3.7,1.1c0.2,0,0.4,0,0.6,0c1.5-0.2,2.2-0.8,2.5-1.2c0.1-0.1,0.1-0.2,0.2-0.3c0.4,0.1,0.7,0.2,1.2,0.2
			c0.8,0,1.6-0.3,2.4-0.9c0.8-0.6,1.3-1.4,1.4-2.1c0,0,0,0,0,0c0.3,0.1,0.5,0.1,0.8,0.1c0.8,0,1.7-0.3,2.5-0.8
			c1.5-1,1.8-2.3,1.8-3.2c0.3,0.1,0.5,0.1,0.8,0.1c0.8,0,1.6-0.2,2.3-0.7c0.9-0.6,1.5-1.5,1.6-2.6c0.1-0.7-0.1-1.5-0.5-2.1
			c2.6-1.1,8.4-3.2,15.3-4.8c0,0.4,0,0.8,0,1.2C80.1,38.6,63.6,49.1,43.3,49.1L43.3,49.1z"/>
		<g>
			<path class="st6" d="M213,8.2c-1.4-1.7-3.5-2.6-6.3-2.6s-4.9,0.9-6.3,2.6c-1.4,1.7-2.1,3.8-2.1,6.2s0.7,4.5,2.1,6.2
				c1.4,1.7,3.5,2.6,6.3,2.6s4.9-0.9,6.3-2.6c1.4-1.7,2.1-3.8,2.1-6.2S214.4,9.9,213,8.2z M209.5,18.2c-0.7,0.9-1.6,1.3-2.9,1.3
				s-2.2-0.5-2.9-1.3c-0.7-0.9-1-2.2-1-3.8s0.3-2.9,1-3.8c0.7-0.9,1.7-1.3,2.9-1.3c1.3,0,2.2,0.4,2.9,1.3c0.7,0.9,1,2.2,1,3.8
				S210.2,17.3,209.5,18.2L209.5,18.2z"/>
			<path class="st6" d="M177.4,6.7c-1.4-0.7-3-1.1-4.8-1.1c-2.8,0-4.8,0.7-5.9,2.2c-0.7,0.9-1.1,2.1-1.2,3.6h4.2
				c0.1-0.6,0.3-1.1,0.6-1.5c0.4-0.5,1.2-0.8,2.2-0.8c0.9,0,1.6,0.1,2.1,0.4c0.5,0.3,0.7,0.7,0.7,1.4c0,0.6-0.3,1-0.9,1.2
				c-0.3,0.2-0.9,0.3-1.7,0.4l-1.5,0.2c-1.7,0.2-3,0.6-3.8,1.1c-1.6,0.9-2.4,2.4-2.4,4.4c0,1.6,0.5,2.8,1.5,3.6
				c1,0.9,2.2,1.2,3.7,1.3c9.4,0.4,9.3-5,9.4-6.1v-6.2C179.5,8.8,178.8,7.5,177.4,6.7L177.4,6.7z M175.2,16.2c0,1.4-0.4,2.4-1.2,3
				c-0.8,0.5-1.7,0.8-2.6,0.8c-0.6,0-1.1-0.2-1.5-0.5c-0.4-0.3-0.6-0.9-0.6-1.6c0-0.8,0.3-1.4,1-1.8c0.4-0.2,1.1-0.4,2-0.6l1-0.2
				c0.5-0.1,0.9-0.2,1.2-0.3c0.3-0.1,0.6-0.2,0.8-0.4L175.2,16.2L175.2,16.2z"/>
			<path class="st6" d="M155.9,9.4c1.1,0,1.9,0.3,2.4,1c0.3,0.5,0.6,1,0.7,1.7h4.7c-0.3-2.4-1.1-4-2.5-4.9c-1.4-0.9-3.2-1.4-5.4-1.4
				c-2.6,0-4.6,0.8-6,2.4c-1.5,1.6-2.2,3.8-2.2,6.6c0,2.5,0.7,4.5,2,6.1c1.3,1.6,3.4,2.4,6.2,2.4c2.8,0,4.9-0.9,6.3-2.8
				c0.9-1.2,1.4-2.4,1.5-3.7h-4.6c-0.1,0.9-0.4,1.6-0.8,2.1c-0.4,0.5-1.2,0.8-2.3,0.8c-1.5,0-2.5-0.7-3.1-2.1
				c-0.3-0.7-0.5-1.7-0.5-2.9s0.2-2.3,0.5-3.1C153.3,10.1,154.3,9.4,155.9,9.4L155.9,9.4z"/>
			<path class="st6" d="M146.3,5.7c-9.6,0-9,8.5-9,8.5v8.6h4.3v-8.1c0-1.3,0.2-2.3,0.5-2.9c0.6-1.1,1.8-1.7,3.5-1.7
				c0.1,0,0.3,0,0.5,0c0.2,0,0.5,0,0.7,0.1V5.7c-0.2,0-0.3,0-0.4,0C146.4,5.7,146.4,5.7,146.3,5.7L146.3,5.7z"/>
			<path class="st6" d="M133.8,8.9c-0.7-1.1-1.7-1.9-2.9-2.4c-1.2-0.5-2.4-0.8-3.9-0.8c-2.4,0-4.4,0.8-5.9,2.3
				c-1.5,1.5-2.3,3.7-2.3,6.6c0,3.1,0.8,5.2,2.5,6.6c1.7,1.4,3.6,2,5.8,2c2.7,0,4.7-0.8,6.2-2.4c0.8-0.8,1.3-1.7,1.5-2.5h-4.6
				c-0.2,0.3-0.4,0.5-0.6,0.7c-0.6,0.5-1.4,0.7-2.4,0.7c-0.9,0-1.7-0.1-2.3-0.6c-1.1-0.7-1.7-1.8-1.8-3.4h12c0-1.4,0-2.5-0.1-3.3
				C134.9,11,134.5,9.9,133.8,8.9L133.8,8.9z M123.4,12.8c0.2-1.1,0.5-1.9,1.1-2.6c0.6-0.6,1.5-0.9,2.6-0.9c1,0,1.9,0.3,2.6,0.9
				c0.7,0.6,1.1,1.5,1.1,2.6H123.4L123.4,12.8z"/>
			<path class="st6" d="M110.3,5.7c-2,0-3.8,0.9-4.9,2.3c-1.1-1.4-2.8-2.3-4.9-2.3c-4.2,0-7,3.1-7,7.2v9.9h4v-10
				c0-1.8,1.2-3.1,3-3.1c2.6,0,2.9,2.2,2.9,3.1v10h4v-10c0-1.8,1.3-3.1,3-3.1c2.6,0,2.9,2.2,2.9,3.1v10h4v-9.9
				C117.2,8.6,114.6,5.7,110.3,5.7L110.3,5.7z"/>
			<path class="st6" d="M192.5,3.5l0,4.7c-0.5-0.8-1.1-1.4-1.9-1.8c-0.8-0.4-1.7-0.7-2.7-0.7c-2.2,0-3.9,0.8-5.2,2.4
				c-1.3,1.6-1.9,3.9-1.9,6.8c0,2.4,0.7,4.4,2,6c1.3,1.6,3.9,2.2,6.2,2.2c8,0,7.9-6.9,7.9-6.9V0.5C196.9,0.5,192.5,0,192.5,3.5
				L192.5,3.5z M191.7,18.2c-0.6,0.9-1.6,1.4-2.8,1.4c-1.2,0-2.1-0.5-2.7-1.4c-0.6-0.9-0.9-2.2-0.9-3.8c0-1.4,0.3-2.6,0.9-3.5
				c0.6-1,1.5-1.4,2.8-1.4c0.8,0,1.6,0.3,2.2,0.8c1,0.9,1.5,2.4,1.5,4.4C192.7,16.1,192.3,17.3,191.7,18.2L191.7,18.2z"/>
		</g>
		<path class="st6" d="M102.6,29.4c-3.6-0.2-5.4,0.7-6.6,1.6c-1.6,1.2-2.6,3.1-2.6,6v15.1h2.1c0.6,0,1.1-0.2,1.5-0.6
			c0.5-0.4,0.7-1,0.7-1.6v-5.6c0.5,0.9,1.2,1.5,2,2c0.8,0.4,1.7,0.6,2.8,0.6c2,0,3.6-0.8,4.9-2.4c1.3-1.6,1.9-3.8,1.9-6.4
			c0-2.6-0.6-4.5-2-6.3C106.2,30.3,104.5,29.5,102.6,29.4L102.6,29.4z M104.1,41.8c-0.6,0.9-1.5,1.3-2.6,1.3c-1.2,0-2.1-0.4-2.7-1.3
			c-0.6-0.8-1-2-1-3.6c0-1.7,0.3-3,0.9-3.8c0.6-0.9,1.5-1.3,2.7-1.3c1.1,0,2.1,0.4,2.7,1.3c0.6,0.9,1,2.1,1,3.8
			C105.1,39.7,104.7,40.9,104.1,41.8z"/>
		<path class="st6" d="M139.9,31c-1.5-1.1-3-1.7-5.6-1.6c-2.6,0.1-4.5,0.8-5.7,2.4c-1.2,1.6-1.8,3.7-1.8,6.3c0,2.2,0.4,4,1.3,5.4
			c0.9,1.4,2,2.3,3.2,2.8c1.2,0.5,2.5,0.6,3.8,0.3c1.3-0.3,2.3-1,3-2.2v1.1c-0.1,1.3-0.4,2.3-1,3c-0.6,0.7-1.2,1.1-1.9,1.2
			c-0.7,0.1-1.4,0.1-2.1-0.3c-0.7-0.3-1.2-0.8-1.5-1.4h-4.6c1.2,3.6,3.3,5.1,7.1,5.4c6.2,0.4,8.2-4.8,8.1-7.6V37
			C142.5,34.1,141.5,32.2,139.9,31L139.9,31z M138.1,39.7c-0.2,1-0.4,1.7-0.8,2.2c-0.8,1.1-2,1.5-3.7,1.2c-1.7-0.3-2.5-1.9-2.5-4.8
			c0-1.3,0.2-2.5,0.8-3.6c0.5-1,1.5-1.6,2.9-1.6c1,0,1.8,0.4,2.4,1.1c0.5,0.8,0.9,1.6,1,2.6C138.3,37.7,138.3,38.7,138.1,39.7
			L138.1,39.7z"/>
		<path class="st6" d="M123.1,30.5c-1.4-0.7-3-1.1-4.8-1.1c-2.8,0-4.8,0.7-5.9,2.2c-0.7,0.9-1.1,2.1-1.2,3.6h4.2
			c0.1-0.6,0.3-1.1,0.6-1.5c0.4-0.5,1.2-0.8,2.2-0.8c0.9,0,1.6,0.1,2.1,0.4c0.5,0.3,0.7,0.7,0.7,1.4c0,0.6-0.3,1-0.9,1.2
			c-0.3,0.2-0.9,0.3-1.7,0.4l-1.5,0.2c-1.7,0.2-3,0.6-3.8,1.1c-1.6,0.9-2.4,2.4-2.4,4.4c0,1.6,0.5,2.8,1.5,3.6
			c1,0.9,2.2,1.2,3.7,1.3c9.4,0.4,9.3-5,9.4-6.1v-6.2C125.2,32.6,124.5,31.3,123.1,30.5L123.1,30.5z M120.9,40c0,1.4-0.4,2.4-1.2,3
			c-0.8,0.5-1.7,0.8-2.6,0.8c-0.6,0-1.1-0.2-1.5-0.5c-0.4-0.3-0.6-0.9-0.6-1.6c0-0.8,0.3-1.4,1-1.8c0.4-0.2,1.1-0.4,2-0.6l1-0.2
			c0.5-0.1,0.9-0.2,1.2-0.3c0.3-0.1,0.6-0.2,0.8-0.4V40L120.9,40z"/>
		<path class="st6" d="M158.9,31.9c-1.4-1.7-3.5-2.6-6.3-2.6s-4.9,0.9-6.3,2.6c-1.4,1.7-2.1,3.8-2.1,6.2c0,2.4,0.7,4.5,2.1,6.2
			c1.4,1.7,3.5,2.6,6.3,2.6s4.9-0.9,6.3-2.6c1.4-1.7,2.1-3.8,2.1-6.2S160.3,33.6,158.9,31.9z M155.4,41.9c-0.7,0.9-1.6,1.3-2.9,1.3
			c-1.3,0-2.2-0.5-2.9-1.3c-0.7-0.9-1-2.2-1-3.8c0-1.7,0.3-2.9,1-3.8c0.7-0.9,1.6-1.3,2.9-1.3c1.3,0,2.2,0.4,2.9,1.3
			c0.7,0.9,1,2.2,1,3.8C156.5,39.7,156.1,41,155.4,41.9z"/>
	</g>
</g>
</svg>
